<?xml version="1.0" encoding="utf-8" standalone="no"?>
<!DOCTYPE svg PUBLIC "-//W3C//DTD SVG 1.1//EN"
  "http://www.w3.org/Graphics/SVG/1.1/DTD/svg11.dtd">
<svg xmlns:xlink="http://www.w3.org/1999/xlink" width="720pt" height="216pt" viewBox="0 0 720 216" xmlns="http://www.w3.org/2000/svg" version="1.1">
 <metadata>
  <rdf:RDF xmlns:dc="http://purl.org/dc/elements/1.1/" xmlns:cc="http://creativecommons.org/ns#" xmlns:rdf="http://www.w3.org/1999/02/22-rdf-syntax-ns#">
   <cc:Work>
    <dc:type rdf:resource="http://purl.org/dc/dcmitype/StillImage"/>
    <dc:date>2024-08-08T17:29:16.630165</dc:date>
    <dc:format>image/svg+xml</dc:format>
    <dc:creator>
     <cc:Agent>
      <dc:title>Matplotlib v3.7.1, https://matplotlib.org/</dc:title>
     </cc:Agent>
    </dc:creator>
   </cc:Work>
  </rdf:RDF>
 </metadata>
 <defs>
  <style type="text/css">*{stroke-linejoin: round; stroke-linecap: butt}</style>
 </defs>
 <g id="figure_1">
  <g id="patch_1">
   <path d="M 0 216 
L 720 216 
L 720 0 
L 0 0 
z
" style="fill: #ffffff"/>
  </g>
  <g id="axes_1">
   <g id="patch_2">
    <path d="M 46.24 173.062354 
L 709.2 173.062354 
L 709.2 40.88 
L 46.24 40.88 
z
" style="fill: #ffffff"/>
   </g>
   <g id="matplotlib.axis_1">
    <g id="xtick_1">
     <g id="line2d_1">
      <path d="M 108.09512 173.062354 
L 108.09512 40.88 
" clip-path="url(#pab809654ea)" style="fill: none; stroke: #000000; stroke-width: 0.5; stroke-linecap: square"/>
     </g>
     <g id="line2d_2">
      <defs>
       <path id="m8034baea38" d="M 0 0 
L 0 3.5 
" style="stroke: #000000; stroke-width: 0.8"/>
      </defs>
      <g>
       <use xlink:href="#m8034baea38" x="108.09512" y="173.062354" style="stroke: #000000; stroke-width: 0.8"/>
      </g>
     </g>
     <g id="text_1">
      <!-- 1950 -->
      <g transform="translate(101.048359 203.431128) rotate(-45) scale(0.1 -0.1)">
       <defs>
        <path id="DejaVuSans-31" d="M 794 531 
L 1825 531 
L 1825 4091 
L 703 3866 
L 703 4441 
L 1819 4666 
L 2450 4666 
L 2450 531 
L 3481 531 
L 3481 0 
L 794 0 
L 794 531 
z
" transform="scale(0.015625)"/>
        <path id="DejaVuSans-39" d="M 703 97 
L 703 672 
Q 941 559 1184 500 
Q 1428 441 1663 441 
Q 2288 441 2617 861 
Q 2947 1281 2994 2138 
Q 2813 1869 2534 1725 
Q 2256 1581 1919 1581 
Q 1219 1581 811 2004 
Q 403 2428 403 3163 
Q 403 3881 828 4315 
Q 1253 4750 1959 4750 
Q 2769 4750 3195 4129 
Q 3622 3509 3622 2328 
Q 3622 1225 3098 567 
Q 2575 -91 1691 -91 
Q 1453 -91 1209 -44 
Q 966 3 703 97 
z
M 1959 2075 
Q 2384 2075 2632 2365 
Q 2881 2656 2881 3163 
Q 2881 3666 2632 3958 
Q 2384 4250 1959 4250 
Q 1534 4250 1286 3958 
Q 1038 3666 1038 3163 
Q 1038 2656 1286 2365 
Q 1534 2075 1959 2075 
z
" transform="scale(0.015625)"/>
        <path id="DejaVuSans-35" d="M 691 4666 
L 3169 4666 
L 3169 4134 
L 1269 4134 
L 1269 2991 
Q 1406 3038 1543 3061 
Q 1681 3084 1819 3084 
Q 2600 3084 3056 2656 
Q 3513 2228 3513 1497 
Q 3513 744 3044 326 
Q 2575 -91 1722 -91 
Q 1428 -91 1123 -41 
Q 819 9 494 109 
L 494 744 
Q 775 591 1075 516 
Q 1375 441 1709 441 
Q 2250 441 2565 725 
Q 2881 1009 2881 1497 
Q 2881 1984 2565 2268 
Q 2250 2553 1709 2553 
Q 1456 2553 1204 2497 
Q 953 2441 691 2322 
L 691 4666 
z
" transform="scale(0.015625)"/>
        <path id="DejaVuSans-30" d="M 2034 4250 
Q 1547 4250 1301 3770 
Q 1056 3291 1056 2328 
Q 1056 1369 1301 889 
Q 1547 409 2034 409 
Q 2525 409 2770 889 
Q 3016 1369 3016 2328 
Q 3016 3291 2770 3770 
Q 2525 4250 2034 4250 
z
M 2034 4750 
Q 2819 4750 3233 4129 
Q 3647 3509 3647 2328 
Q 3647 1150 3233 529 
Q 2819 -91 2034 -91 
Q 1250 -91 836 529 
Q 422 1150 422 2328 
Q 422 3509 836 4129 
Q 1250 4750 2034 4750 
z
" transform="scale(0.015625)"/>
       </defs>
       <use xlink:href="#DejaVuSans-31"/>
       <use xlink:href="#DejaVuSans-39" x="63.623047"/>
       <use xlink:href="#DejaVuSans-35" x="127.246094"/>
       <use xlink:href="#DejaVuSans-30" x="190.869141"/>
      </g>
     </g>
    </g>
    <g id="xtick_2">
     <g id="line2d_3">
      <path d="M 147.745837 173.062354 
L 147.745837 40.88 
" clip-path="url(#pab809654ea)" style="fill: none; stroke: #000000; stroke-width: 0.5; stroke-linecap: square"/>
     </g>
     <g id="line2d_4">
      <g>
       <use xlink:href="#m8034baea38" x="147.745837" y="173.062354" style="stroke: #000000; stroke-width: 0.8"/>
      </g>
     </g>
     <g id="text_2">
      <!-- 1955 -->
      <g transform="translate(140.699076 203.431128) rotate(-45) scale(0.1 -0.1)">
       <use xlink:href="#DejaVuSans-31"/>
       <use xlink:href="#DejaVuSans-39" x="63.623047"/>
       <use xlink:href="#DejaVuSans-35" x="127.246094"/>
       <use xlink:href="#DejaVuSans-35" x="190.869141"/>
      </g>
     </g>
    </g>
    <g id="xtick_3">
     <g id="line2d_5">
      <path d="M 187.396555 173.062354 
L 187.396555 40.88 
" clip-path="url(#pab809654ea)" style="fill: none; stroke: #000000; stroke-width: 0.5; stroke-linecap: square"/>
     </g>
     <g id="line2d_6">
      <g>
       <use xlink:href="#m8034baea38" x="187.396555" y="173.062354" style="stroke: #000000; stroke-width: 0.8"/>
      </g>
     </g>
     <g id="text_3">
      <!-- 1960 -->
      <g transform="translate(180.349794 203.431128) rotate(-45) scale(0.1 -0.1)">
       <defs>
        <path id="DejaVuSans-36" d="M 2113 2584 
Q 1688 2584 1439 2293 
Q 1191 2003 1191 1497 
Q 1191 994 1439 701 
Q 1688 409 2113 409 
Q 2538 409 2786 701 
Q 3034 994 3034 1497 
Q 3034 2003 2786 2293 
Q 2538 2584 2113 2584 
z
M 3366 4563 
L 3366 3988 
Q 3128 4100 2886 4159 
Q 2644 4219 2406 4219 
Q 1781 4219 1451 3797 
Q 1122 3375 1075 2522 
Q 1259 2794 1537 2939 
Q 1816 3084 2150 3084 
Q 2853 3084 3261 2657 
Q 3669 2231 3669 1497 
Q 3669 778 3244 343 
Q 2819 -91 2113 -91 
Q 1303 -91 875 529 
Q 447 1150 447 2328 
Q 447 3434 972 4092 
Q 1497 4750 2381 4750 
Q 2619 4750 2861 4703 
Q 3103 4656 3366 4563 
z
" transform="scale(0.015625)"/>
       </defs>
       <use xlink:href="#DejaVuSans-31"/>
       <use xlink:href="#DejaVuSans-39" x="63.623047"/>
       <use xlink:href="#DejaVuSans-36" x="127.246094"/>
       <use xlink:href="#DejaVuSans-30" x="190.869141"/>
      </g>
     </g>
    </g>
    <g id="xtick_4">
     <g id="line2d_7">
      <path d="M 227.047273 173.062354 
L 227.047273 40.88 
" clip-path="url(#pab809654ea)" style="fill: none; stroke: #000000; stroke-width: 0.5; stroke-linecap: square"/>
     </g>
     <g id="line2d_8">
      <g>
       <use xlink:href="#m8034baea38" x="227.047273" y="173.062354" style="stroke: #000000; stroke-width: 0.8"/>
      </g>
     </g>
     <g id="text_4">
      <!-- 1965 -->
      <g transform="translate(220.000512 203.431128) rotate(-45) scale(0.1 -0.1)">
       <use xlink:href="#DejaVuSans-31"/>
       <use xlink:href="#DejaVuSans-39" x="63.623047"/>
       <use xlink:href="#DejaVuSans-36" x="127.246094"/>
       <use xlink:href="#DejaVuSans-35" x="190.869141"/>
      </g>
     </g>
    </g>
    <g id="xtick_5">
     <g id="line2d_9">
      <path d="M 266.69799 173.062354 
L 266.69799 40.88 
" clip-path="url(#pab809654ea)" style="fill: none; stroke: #000000; stroke-width: 0.5; stroke-linecap: square"/>
     </g>
     <g id="line2d_10">
      <g>
       <use xlink:href="#m8034baea38" x="266.69799" y="173.062354" style="stroke: #000000; stroke-width: 0.8"/>
      </g>
     </g>
     <g id="text_5">
      <!-- 1970 -->
      <g transform="translate(259.651229 203.431128) rotate(-45) scale(0.1 -0.1)">
       <defs>
        <path id="DejaVuSans-37" d="M 525 4666 
L 3525 4666 
L 3525 4397 
L 1831 0 
L 1172 0 
L 2766 4134 
L 525 4134 
L 525 4666 
z
" transform="scale(0.015625)"/>
       </defs>
       <use xlink:href="#DejaVuSans-31"/>
       <use xlink:href="#DejaVuSans-39" x="63.623047"/>
       <use xlink:href="#DejaVuSans-37" x="127.246094"/>
       <use xlink:href="#DejaVuSans-30" x="190.869141"/>
      </g>
     </g>
    </g>
    <g id="xtick_6">
     <g id="line2d_11">
      <path d="M 306.348708 173.062354 
L 306.348708 40.88 
" clip-path="url(#pab809654ea)" style="fill: none; stroke: #000000; stroke-width: 0.5; stroke-linecap: square"/>
     </g>
     <g id="line2d_12">
      <g>
       <use xlink:href="#m8034baea38" x="306.348708" y="173.062354" style="stroke: #000000; stroke-width: 0.8"/>
      </g>
     </g>
     <g id="text_6">
      <!-- 1975 -->
      <g transform="translate(299.301947 203.431128) rotate(-45) scale(0.1 -0.1)">
       <use xlink:href="#DejaVuSans-31"/>
       <use xlink:href="#DejaVuSans-39" x="63.623047"/>
       <use xlink:href="#DejaVuSans-37" x="127.246094"/>
       <use xlink:href="#DejaVuSans-35" x="190.869141"/>
      </g>
     </g>
    </g>
    <g id="xtick_7">
     <g id="line2d_13">
      <path d="M 345.999426 173.062354 
L 345.999426 40.88 
" clip-path="url(#pab809654ea)" style="fill: none; stroke: #000000; stroke-width: 0.5; stroke-linecap: square"/>
     </g>
     <g id="line2d_14">
      <g>
       <use xlink:href="#m8034baea38" x="345.999426" y="173.062354" style="stroke: #000000; stroke-width: 0.8"/>
      </g>
     </g>
     <g id="text_7">
      <!-- 1980 -->
      <g transform="translate(338.952665 203.431128) rotate(-45) scale(0.1 -0.1)">
       <defs>
        <path id="DejaVuSans-38" d="M 2034 2216 
Q 1584 2216 1326 1975 
Q 1069 1734 1069 1313 
Q 1069 891 1326 650 
Q 1584 409 2034 409 
Q 2484 409 2743 651 
Q 3003 894 3003 1313 
Q 3003 1734 2745 1975 
Q 2488 2216 2034 2216 
z
M 1403 2484 
Q 997 2584 770 2862 
Q 544 3141 544 3541 
Q 544 4100 942 4425 
Q 1341 4750 2034 4750 
Q 2731 4750 3128 4425 
Q 3525 4100 3525 3541 
Q 3525 3141 3298 2862 
Q 3072 2584 2669 2484 
Q 3125 2378 3379 2068 
Q 3634 1759 3634 1313 
Q 3634 634 3220 271 
Q 2806 -91 2034 -91 
Q 1263 -91 848 271 
Q 434 634 434 1313 
Q 434 1759 690 2068 
Q 947 2378 1403 2484 
z
M 1172 3481 
Q 1172 3119 1398 2916 
Q 1625 2713 2034 2713 
Q 2441 2713 2670 2916 
Q 2900 3119 2900 3481 
Q 2900 3844 2670 4047 
Q 2441 4250 2034 4250 
Q 1625 4250 1398 4047 
Q 1172 3844 1172 3481 
z
" transform="scale(0.015625)"/>
       </defs>
       <use xlink:href="#DejaVuSans-31"/>
       <use xlink:href="#DejaVuSans-39" x="63.623047"/>
       <use xlink:href="#DejaVuSans-38" x="127.246094"/>
       <use xlink:href="#DejaVuSans-30" x="190.869141"/>
      </g>
     </g>
    </g>
    <g id="xtick_8">
     <g id="line2d_15">
      <path d="M 385.650144 173.062354 
L 385.650144 40.88 
" clip-path="url(#pab809654ea)" style="fill: none; stroke: #000000; stroke-width: 0.5; stroke-linecap: square"/>
     </g>
     <g id="line2d_16">
      <g>
       <use xlink:href="#m8034baea38" x="385.650144" y="173.062354" style="stroke: #000000; stroke-width: 0.8"/>
      </g>
     </g>
     <g id="text_8">
      <!-- 1985 -->
      <g transform="translate(378.603383 203.431128) rotate(-45) scale(0.1 -0.1)">
       <use xlink:href="#DejaVuSans-31"/>
       <use xlink:href="#DejaVuSans-39" x="63.623047"/>
       <use xlink:href="#DejaVuSans-38" x="127.246094"/>
       <use xlink:href="#DejaVuSans-35" x="190.869141"/>
      </g>
     </g>
    </g>
    <g id="xtick_9">
     <g id="line2d_17">
      <path d="M 425.300861 173.062354 
L 425.300861 40.88 
" clip-path="url(#pab809654ea)" style="fill: none; stroke: #000000; stroke-width: 0.5; stroke-linecap: square"/>
     </g>
     <g id="line2d_18">
      <g>
       <use xlink:href="#m8034baea38" x="425.300861" y="173.062354" style="stroke: #000000; stroke-width: 0.8"/>
      </g>
     </g>
     <g id="text_9">
      <!-- 1990 -->
      <g transform="translate(418.2541 203.431128) rotate(-45) scale(0.1 -0.1)">
       <use xlink:href="#DejaVuSans-31"/>
       <use xlink:href="#DejaVuSans-39" x="63.623047"/>
       <use xlink:href="#DejaVuSans-39" x="127.246094"/>
       <use xlink:href="#DejaVuSans-30" x="190.869141"/>
      </g>
     </g>
    </g>
    <g id="xtick_10">
     <g id="line2d_19">
      <path d="M 464.951579 173.062354 
L 464.951579 40.88 
" clip-path="url(#pab809654ea)" style="fill: none; stroke: #000000; stroke-width: 0.5; stroke-linecap: square"/>
     </g>
     <g id="line2d_20">
      <g>
       <use xlink:href="#m8034baea38" x="464.951579" y="173.062354" style="stroke: #000000; stroke-width: 0.8"/>
      </g>
     </g>
     <g id="text_10">
      <!-- 1995 -->
      <g transform="translate(457.904818 203.431128) rotate(-45) scale(0.1 -0.1)">
       <use xlink:href="#DejaVuSans-31"/>
       <use xlink:href="#DejaVuSans-39" x="63.623047"/>
       <use xlink:href="#DejaVuSans-39" x="127.246094"/>
       <use xlink:href="#DejaVuSans-35" x="190.869141"/>
      </g>
     </g>
    </g>
    <g id="xtick_11">
     <g id="line2d_21">
      <path d="M 504.602297 173.062354 
L 504.602297 40.88 
" clip-path="url(#pab809654ea)" style="fill: none; stroke: #000000; stroke-width: 0.5; stroke-linecap: square"/>
     </g>
     <g id="line2d_22">
      <g>
       <use xlink:href="#m8034baea38" x="504.602297" y="173.062354" style="stroke: #000000; stroke-width: 0.8"/>
      </g>
     </g>
     <g id="text_11">
      <!-- 2000 -->
      <g transform="translate(497.555536 203.431128) rotate(-45) scale(0.1 -0.1)">
       <defs>
        <path id="DejaVuSans-32" d="M 1228 531 
L 3431 531 
L 3431 0 
L 469 0 
L 469 531 
Q 828 903 1448 1529 
Q 2069 2156 2228 2338 
Q 2531 2678 2651 2914 
Q 2772 3150 2772 3378 
Q 2772 3750 2511 3984 
Q 2250 4219 1831 4219 
Q 1534 4219 1204 4116 
Q 875 4013 500 3803 
L 500 4441 
Q 881 4594 1212 4672 
Q 1544 4750 1819 4750 
Q 2544 4750 2975 4387 
Q 3406 4025 3406 3419 
Q 3406 3131 3298 2873 
Q 3191 2616 2906 2266 
Q 2828 2175 2409 1742 
Q 1991 1309 1228 531 
z
" transform="scale(0.015625)"/>
       </defs>
       <use xlink:href="#DejaVuSans-32"/>
       <use xlink:href="#DejaVuSans-30" x="63.623047"/>
       <use xlink:href="#DejaVuSans-30" x="127.246094"/>
       <use xlink:href="#DejaVuSans-30" x="190.869141"/>
      </g>
     </g>
    </g>
    <g id="xtick_12">
     <g id="line2d_23">
      <path d="M 544.253014 173.062354 
L 544.253014 40.88 
" clip-path="url(#pab809654ea)" style="fill: none; stroke: #000000; stroke-width: 0.5; stroke-linecap: square"/>
     </g>
     <g id="line2d_24">
      <g>
       <use xlink:href="#m8034baea38" x="544.253014" y="173.062354" style="stroke: #000000; stroke-width: 0.8"/>
      </g>
     </g>
     <g id="text_12">
      <!-- 2005 -->
      <g transform="translate(537.206253 203.431128) rotate(-45) scale(0.1 -0.1)">
       <use xlink:href="#DejaVuSans-32"/>
       <use xlink:href="#DejaVuSans-30" x="63.623047"/>
       <use xlink:href="#DejaVuSans-30" x="127.246094"/>
       <use xlink:href="#DejaVuSans-35" x="190.869141"/>
      </g>
     </g>
    </g>
    <g id="xtick_13">
     <g id="line2d_25">
      <path d="M 583.903732 173.062354 
L 583.903732 40.88 
" clip-path="url(#pab809654ea)" style="fill: none; stroke: #000000; stroke-width: 0.5; stroke-linecap: square"/>
     </g>
     <g id="line2d_26">
      <g>
       <use xlink:href="#m8034baea38" x="583.903732" y="173.062354" style="stroke: #000000; stroke-width: 0.8"/>
      </g>
     </g>
     <g id="text_13">
      <!-- 2010 -->
      <g transform="translate(576.856971 203.431128) rotate(-45) scale(0.1 -0.1)">
       <use xlink:href="#DejaVuSans-32"/>
       <use xlink:href="#DejaVuSans-30" x="63.623047"/>
       <use xlink:href="#DejaVuSans-31" x="127.246094"/>
       <use xlink:href="#DejaVuSans-30" x="190.869141"/>
      </g>
     </g>
    </g>
    <g id="xtick_14">
     <g id="line2d_27">
      <path d="M 623.55445 173.062354 
L 623.55445 40.88 
" clip-path="url(#pab809654ea)" style="fill: none; stroke: #000000; stroke-width: 0.5; stroke-linecap: square"/>
     </g>
     <g id="line2d_28">
      <g>
       <use xlink:href="#m8034baea38" x="623.55445" y="173.062354" style="stroke: #000000; stroke-width: 0.8"/>
      </g>
     </g>
     <g id="text_14">
      <!-- 2015 -->
      <g transform="translate(616.507689 203.431128) rotate(-45) scale(0.1 -0.1)">
       <use xlink:href="#DejaVuSans-32"/>
       <use xlink:href="#DejaVuSans-30" x="63.623047"/>
       <use xlink:href="#DejaVuSans-31" x="127.246094"/>
       <use xlink:href="#DejaVuSans-35" x="190.869141"/>
      </g>
     </g>
    </g>
    <g id="xtick_15">
     <g id="line2d_29">
      <path d="M 663.205167 173.062354 
L 663.205167 40.88 
" clip-path="url(#pab809654ea)" style="fill: none; stroke: #000000; stroke-width: 0.5; stroke-linecap: square"/>
     </g>
     <g id="line2d_30">
      <g>
       <use xlink:href="#m8034baea38" x="663.205167" y="173.062354" style="stroke: #000000; stroke-width: 0.8"/>
      </g>
     </g>
     <g id="text_15">
      <!-- 2020 -->
      <g transform="translate(656.158406 203.431128) rotate(-45) scale(0.1 -0.1)">
       <use xlink:href="#DejaVuSans-32"/>
       <use xlink:href="#DejaVuSans-30" x="63.623047"/>
       <use xlink:href="#DejaVuSans-32" x="127.246094"/>
       <use xlink:href="#DejaVuSans-30" x="190.869141"/>
      </g>
     </g>
    </g>
   </g>
   <g id="matplotlib.axis_2">
    <g id="ytick_1">
     <g id="line2d_31">
      <path d="M 46.24 158.686996 
L 709.2 158.686996 
" clip-path="url(#pab809654ea)" style="fill: none; stroke: #000000; stroke-width: 0.5; stroke-linecap: square"/>
     </g>
     <g id="line2d_32">
      <defs>
       <path id="mdd66c8f89d" d="M 0 0 
L -3.5 0 
" style="stroke: #000000; stroke-width: 0.8"/>
      </defs>
      <g>
       <use xlink:href="#mdd66c8f89d" x="46.24" y="158.686996" style="stroke: #000000; stroke-width: 0.8"/>
      </g>
     </g>
     <g id="text_16">
      <!-- 0.004 -->
      <g transform="translate(10.611875 162.486215) scale(0.1 -0.1)">
       <defs>
        <path id="DejaVuSans-2e" d="M 684 794 
L 1344 794 
L 1344 0 
L 684 0 
L 684 794 
z
" transform="scale(0.015625)"/>
        <path id="DejaVuSans-34" d="M 2419 4116 
L 825 1625 
L 2419 1625 
L 2419 4116 
z
M 2253 4666 
L 3047 4666 
L 3047 1625 
L 3713 1625 
L 3713 1100 
L 3047 1100 
L 3047 0 
L 2419 0 
L 2419 1100 
L 313 1100 
L 313 1709 
L 2253 4666 
z
" transform="scale(0.015625)"/>
       </defs>
       <use xlink:href="#DejaVuSans-30"/>
       <use xlink:href="#DejaVuSans-2e" x="63.623047"/>
       <use xlink:href="#DejaVuSans-30" x="95.410156"/>
       <use xlink:href="#DejaVuSans-30" x="159.033203"/>
       <use xlink:href="#DejaVuSans-34" x="222.65625"/>
      </g>
     </g>
    </g>
    <g id="ytick_2">
     <g id="line2d_33">
      <path d="M 46.24 124.148568 
L 709.2 124.148568 
" clip-path="url(#pab809654ea)" style="fill: none; stroke: #000000; stroke-width: 0.5; stroke-linecap: square"/>
     </g>
     <g id="line2d_34">
      <g>
       <use xlink:href="#mdd66c8f89d" x="46.24" y="124.148568" style="stroke: #000000; stroke-width: 0.8"/>
      </g>
     </g>
     <g id="text_17">
      <!-- 0.006 -->
      <g transform="translate(10.611875 127.947787) scale(0.1 -0.1)">
       <use xlink:href="#DejaVuSans-30"/>
       <use xlink:href="#DejaVuSans-2e" x="63.623047"/>
       <use xlink:href="#DejaVuSans-30" x="95.410156"/>
       <use xlink:href="#DejaVuSans-30" x="159.033203"/>
       <use xlink:href="#DejaVuSans-36" x="222.65625"/>
      </g>
     </g>
    </g>
    <g id="ytick_3">
     <g id="line2d_35">
      <path d="M 46.24 89.610139 
L 709.2 89.610139 
" clip-path="url(#pab809654ea)" style="fill: none; stroke: #000000; stroke-width: 0.5; stroke-linecap: square"/>
     </g>
     <g id="line2d_36">
      <g>
       <use xlink:href="#mdd66c8f89d" x="46.24" y="89.610139" style="stroke: #000000; stroke-width: 0.8"/>
      </g>
     </g>
     <g id="text_18">
      <!-- 0.008 -->
      <g transform="translate(10.611875 93.409358) scale(0.1 -0.1)">
       <use xlink:href="#DejaVuSans-30"/>
       <use xlink:href="#DejaVuSans-2e" x="63.623047"/>
       <use xlink:href="#DejaVuSans-30" x="95.410156"/>
       <use xlink:href="#DejaVuSans-30" x="159.033203"/>
       <use xlink:href="#DejaVuSans-38" x="222.65625"/>
      </g>
     </g>
    </g>
    <g id="ytick_4">
     <g id="line2d_37">
      <path d="M 46.24 55.071711 
L 709.2 55.071711 
" clip-path="url(#pab809654ea)" style="fill: none; stroke: #000000; stroke-width: 0.5; stroke-linecap: square"/>
     </g>
     <g id="line2d_38">
      <g>
       <use xlink:href="#mdd66c8f89d" x="46.24" y="55.071711" style="stroke: #000000; stroke-width: 0.8"/>
      </g>
     </g>
     <g id="text_19">
      <!-- 0.010 -->
      <g transform="translate(10.611875 58.87093) scale(0.1 -0.1)">
       <use xlink:href="#DejaVuSans-30"/>
       <use xlink:href="#DejaVuSans-2e" x="63.623047"/>
       <use xlink:href="#DejaVuSans-30" x="95.410156"/>
       <use xlink:href="#DejaVuSans-31" x="159.033203"/>
       <use xlink:href="#DejaVuSans-30" x="222.65625"/>
      </g>
     </g>
    </g>
   </g>
   <g id="line2d_39">
    <path d="M 76.374545 160.717506 
L 84.304689 144.929975 
L 92.234833 138.116452 
L 100.164976 145.507453 
L 108.09512 91.329074 
L 116.025263 117.226636 
L 123.955407 128.286761 
L 131.88555 126.934782 
L 139.815694 131.544618 
L 147.745837 167.054065 
L 155.675981 131.011921 
L 163.606124 141.846351 
L 171.536268 139.835929 
L 179.466411 148.809001 
L 187.396555 137.236334 
L 195.326699 130.286394 
L 203.256842 143.937745 
L 211.186986 150.292369 
L 219.117129 145.112623 
L 227.047273 128.630123 
L 234.977416 131.745721 
L 242.90756 103.957378 
L 250.837703 124.205206 
L 258.767847 130.30359 
L 266.69799 131.479213 
L 274.628134 142.640649 
L 282.558278 122.383661 
L 290.488421 128.273467 
L 298.418565 126.495866 
L 306.348708 149.379963 
L 314.278852 135.187946 
L 322.208995 138.717362 
L 330.139139 141.224832 
L 338.069282 132.650366 
L 345.999426 117.740787 
L 353.929569 116.198101 
L 361.859713 104.381784 
L 369.789856 107.074753 
L 377.72 106.292815 
L 385.650144 96.087041 
L 393.580287 96.573577 
L 401.510431 111.700027 
L 409.440574 124.782275 
L 417.370718 124.620921 
L 425.300861 108.722277 
L 433.231005 123.571569 
L 441.161148 117.938211 
L 449.091292 130.394475 
L 457.021435 134.645634 
L 464.951579 138.026771 
L 472.881722 133.909651 
L 480.811866 146.760653 
L 488.74201 107.338644 
L 496.672153 121.379824 
L 504.602297 142.058583 
L 512.53244 47.050838 
L 520.462584 75.606157 
L 528.392727 95.068236 
L 536.322871 88.804012 
L 544.253014 108.491951 
L 552.183158 108.758738 
L 560.113301 125.369923 
L 568.043445 110.139213 
L 575.973589 109.272754 
L 583.903732 130.273663 
L 591.833876 117.209026 
L 599.764019 110.321972 
L 607.694163 115.275892 
L 615.624306 92.217161 
L 623.55445 93.837238 
L 631.484593 99.857837 
L 639.414737 91.170965 
L 647.34488 122.349084 
L 655.275024 119.437967 
L 663.205167 46.888289 
L 671.135311 74.896983 
L 679.065455 63.7156 
" clip-path="url(#pab809654ea)" style="fill: none; stroke: #1f77b4; stroke-width: 1.5; stroke-linecap: square"/>
    <defs>
     <path id="m3f0ec50a46" d="M 0 3 
C 0.795609 3 1.55874 2.683901 2.12132 2.12132 
C 2.683901 1.55874 3 0.795609 3 0 
C 3 -0.795609 2.683901 -1.55874 2.12132 -2.12132 
C 1.55874 -2.683901 0.795609 -3 0 -3 
C -0.795609 -3 -1.55874 -2.683901 -2.12132 -2.12132 
C -2.683901 -1.55874 -3 -0.795609 -3 0 
C -3 0.795609 -2.683901 1.55874 -2.12132 2.12132 
C -1.55874 2.683901 -0.795609 3 0 3 
z
" style="stroke: #1f77b4"/>
    </defs>
    <g clip-path="url(#pab809654ea)">
     <use xlink:href="#m3f0ec50a46" x="76.374545" y="160.717506" style="fill: #1f77b4; stroke: #1f77b4"/>
     <use xlink:href="#m3f0ec50a46" x="84.304689" y="144.929975" style="fill: #1f77b4; stroke: #1f77b4"/>
     <use xlink:href="#m3f0ec50a46" x="92.234833" y="138.116452" style="fill: #1f77b4; stroke: #1f77b4"/>
     <use xlink:href="#m3f0ec50a46" x="100.164976" y="145.507453" style="fill: #1f77b4; stroke: #1f77b4"/>
     <use xlink:href="#m3f0ec50a46" x="108.09512" y="91.329074" style="fill: #1f77b4; stroke: #1f77b4"/>
     <use xlink:href="#m3f0ec50a46" x="116.025263" y="117.226636" style="fill: #1f77b4; stroke: #1f77b4"/>
     <use xlink:href="#m3f0ec50a46" x="123.955407" y="128.286761" style="fill: #1f77b4; stroke: #1f77b4"/>
     <use xlink:href="#m3f0ec50a46" x="131.88555" y="126.934782" style="fill: #1f77b4; stroke: #1f77b4"/>
     <use xlink:href="#m3f0ec50a46" x="139.815694" y="131.544618" style="fill: #1f77b4; stroke: #1f77b4"/>
     <use xlink:href="#m3f0ec50a46" x="147.745837" y="167.054065" style="fill: #1f77b4; stroke: #1f77b4"/>
     <use xlink:href="#m3f0ec50a46" x="155.675981" y="131.011921" style="fill: #1f77b4; stroke: #1f77b4"/>
     <use xlink:href="#m3f0ec50a46" x="163.606124" y="141.846351" style="fill: #1f77b4; stroke: #1f77b4"/>
     <use xlink:href="#m3f0ec50a46" x="171.536268" y="139.835929" style="fill: #1f77b4; stroke: #1f77b4"/>
     <use xlink:href="#m3f0ec50a46" x="179.466411" y="148.809001" style="fill: #1f77b4; stroke: #1f77b4"/>
     <use xlink:href="#m3f0ec50a46" x="187.396555" y="137.236334" style="fill: #1f77b4; stroke: #1f77b4"/>
     <use xlink:href="#m3f0ec50a46" x="195.326699" y="130.286394" style="fill: #1f77b4; stroke: #1f77b4"/>
     <use xlink:href="#m3f0ec50a46" x="203.256842" y="143.937745" style="fill: #1f77b4; stroke: #1f77b4"/>
     <use xlink:href="#m3f0ec50a46" x="211.186986" y="150.292369" style="fill: #1f77b4; stroke: #1f77b4"/>
     <use xlink:href="#m3f0ec50a46" x="219.117129" y="145.112623" style="fill: #1f77b4; stroke: #1f77b4"/>
     <use xlink:href="#m3f0ec50a46" x="227.047273" y="128.630123" style="fill: #1f77b4; stroke: #1f77b4"/>
     <use xlink:href="#m3f0ec50a46" x="234.977416" y="131.745721" style="fill: #1f77b4; stroke: #1f77b4"/>
     <use xlink:href="#m3f0ec50a46" x="242.90756" y="103.957378" style="fill: #1f77b4; stroke: #1f77b4"/>
     <use xlink:href="#m3f0ec50a46" x="250.837703" y="124.205206" style="fill: #1f77b4; stroke: #1f77b4"/>
     <use xlink:href="#m3f0ec50a46" x="258.767847" y="130.30359" style="fill: #1f77b4; stroke: #1f77b4"/>
     <use xlink:href="#m3f0ec50a46" x="266.69799" y="131.479213" style="fill: #1f77b4; stroke: #1f77b4"/>
     <use xlink:href="#m3f0ec50a46" x="274.628134" y="142.640649" style="fill: #1f77b4; stroke: #1f77b4"/>
     <use xlink:href="#m3f0ec50a46" x="282.558278" y="122.383661" style="fill: #1f77b4; stroke: #1f77b4"/>
     <use xlink:href="#m3f0ec50a46" x="290.488421" y="128.273467" style="fill: #1f77b4; stroke: #1f77b4"/>
     <use xlink:href="#m3f0ec50a46" x="298.418565" y="126.495866" style="fill: #1f77b4; stroke: #1f77b4"/>
     <use xlink:href="#m3f0ec50a46" x="306.348708" y="149.379963" style="fill: #1f77b4; stroke: #1f77b4"/>
     <use xlink:href="#m3f0ec50a46" x="314.278852" y="135.187946" style="fill: #1f77b4; stroke: #1f77b4"/>
     <use xlink:href="#m3f0ec50a46" x="322.208995" y="138.717362" style="fill: #1f77b4; stroke: #1f77b4"/>
     <use xlink:href="#m3f0ec50a46" x="330.139139" y="141.224832" style="fill: #1f77b4; stroke: #1f77b4"/>
     <use xlink:href="#m3f0ec50a46" x="338.069282" y="132.650366" style="fill: #1f77b4; stroke: #1f77b4"/>
     <use xlink:href="#m3f0ec50a46" x="345.999426" y="117.740787" style="fill: #1f77b4; stroke: #1f77b4"/>
     <use xlink:href="#m3f0ec50a46" x="353.929569" y="116.198101" style="fill: #1f77b4; stroke: #1f77b4"/>
     <use xlink:href="#m3f0ec50a46" x="361.859713" y="104.381784" style="fill: #1f77b4; stroke: #1f77b4"/>
     <use xlink:href="#m3f0ec50a46" x="369.789856" y="107.074753" style="fill: #1f77b4; stroke: #1f77b4"/>
     <use xlink:href="#m3f0ec50a46" x="377.72" y="106.292815" style="fill: #1f77b4; stroke: #1f77b4"/>
     <use xlink:href="#m3f0ec50a46" x="385.650144" y="96.087041" style="fill: #1f77b4; stroke: #1f77b4"/>
     <use xlink:href="#m3f0ec50a46" x="393.580287" y="96.573577" style="fill: #1f77b4; stroke: #1f77b4"/>
     <use xlink:href="#m3f0ec50a46" x="401.510431" y="111.700027" style="fill: #1f77b4; stroke: #1f77b4"/>
     <use xlink:href="#m3f0ec50a46" x="409.440574" y="124.782275" style="fill: #1f77b4; stroke: #1f77b4"/>
     <use xlink:href="#m3f0ec50a46" x="417.370718" y="124.620921" style="fill: #1f77b4; stroke: #1f77b4"/>
     <use xlink:href="#m3f0ec50a46" x="425.300861" y="108.722277" style="fill: #1f77b4; stroke: #1f77b4"/>
     <use xlink:href="#m3f0ec50a46" x="433.231005" y="123.571569" style="fill: #1f77b4; stroke: #1f77b4"/>
     <use xlink:href="#m3f0ec50a46" x="441.161148" y="117.938211" style="fill: #1f77b4; stroke: #1f77b4"/>
     <use xlink:href="#m3f0ec50a46" x="449.091292" y="130.394475" style="fill: #1f77b4; stroke: #1f77b4"/>
     <use xlink:href="#m3f0ec50a46" x="457.021435" y="134.645634" style="fill: #1f77b4; stroke: #1f77b4"/>
     <use xlink:href="#m3f0ec50a46" x="464.951579" y="138.026771" style="fill: #1f77b4; stroke: #1f77b4"/>
     <use xlink:href="#m3f0ec50a46" x="472.881722" y="133.909651" style="fill: #1f77b4; stroke: #1f77b4"/>
     <use xlink:href="#m3f0ec50a46" x="480.811866" y="146.760653" style="fill: #1f77b4; stroke: #1f77b4"/>
     <use xlink:href="#m3f0ec50a46" x="488.74201" y="107.338644" style="fill: #1f77b4; stroke: #1f77b4"/>
     <use xlink:href="#m3f0ec50a46" x="496.672153" y="121.379824" style="fill: #1f77b4; stroke: #1f77b4"/>
     <use xlink:href="#m3f0ec50a46" x="504.602297" y="142.058583" style="fill: #1f77b4; stroke: #1f77b4"/>
     <use xlink:href="#m3f0ec50a46" x="512.53244" y="47.050838" style="fill: #1f77b4; stroke: #1f77b4"/>
     <use xlink:href="#m3f0ec50a46" x="520.462584" y="75.606157" style="fill: #1f77b4; stroke: #1f77b4"/>
     <use xlink:href="#m3f0ec50a46" x="528.392727" y="95.068236" style="fill: #1f77b4; stroke: #1f77b4"/>
     <use xlink:href="#m3f0ec50a46" x="536.322871" y="88.804012" style="fill: #1f77b4; stroke: #1f77b4"/>
     <use xlink:href="#m3f0ec50a46" x="544.253014" y="108.491951" style="fill: #1f77b4; stroke: #1f77b4"/>
     <use xlink:href="#m3f0ec50a46" x="552.183158" y="108.758738" style="fill: #1f77b4; stroke: #1f77b4"/>
     <use xlink:href="#m3f0ec50a46" x="560.113301" y="125.369923" style="fill: #1f77b4; stroke: #1f77b4"/>
     <use xlink:href="#m3f0ec50a46" x="568.043445" y="110.139213" style="fill: #1f77b4; stroke: #1f77b4"/>
     <use xlink:href="#m3f0ec50a46" x="575.973589" y="109.272754" style="fill: #1f77b4; stroke: #1f77b4"/>
     <use xlink:href="#m3f0ec50a46" x="583.903732" y="130.273663" style="fill: #1f77b4; stroke: #1f77b4"/>
     <use xlink:href="#m3f0ec50a46" x="591.833876" y="117.209026" style="fill: #1f77b4; stroke: #1f77b4"/>
     <use xlink:href="#m3f0ec50a46" x="599.764019" y="110.321972" style="fill: #1f77b4; stroke: #1f77b4"/>
     <use xlink:href="#m3f0ec50a46" x="607.694163" y="115.275892" style="fill: #1f77b4; stroke: #1f77b4"/>
     <use xlink:href="#m3f0ec50a46" x="615.624306" y="92.217161" style="fill: #1f77b4; stroke: #1f77b4"/>
     <use xlink:href="#m3f0ec50a46" x="623.55445" y="93.837238" style="fill: #1f77b4; stroke: #1f77b4"/>
     <use xlink:href="#m3f0ec50a46" x="631.484593" y="99.857837" style="fill: #1f77b4; stroke: #1f77b4"/>
     <use xlink:href="#m3f0ec50a46" x="639.414737" y="91.170965" style="fill: #1f77b4; stroke: #1f77b4"/>
     <use xlink:href="#m3f0ec50a46" x="647.34488" y="122.349084" style="fill: #1f77b4; stroke: #1f77b4"/>
     <use xlink:href="#m3f0ec50a46" x="655.275024" y="119.437967" style="fill: #1f77b4; stroke: #1f77b4"/>
     <use xlink:href="#m3f0ec50a46" x="663.205167" y="46.888289" style="fill: #1f77b4; stroke: #1f77b4"/>
     <use xlink:href="#m3f0ec50a46" x="671.135311" y="74.896983" style="fill: #1f77b4; stroke: #1f77b4"/>
     <use xlink:href="#m3f0ec50a46" x="679.065455" y="63.7156" style="fill: #1f77b4; stroke: #1f77b4"/>
    </g>
   </g>
   <g id="line2d_40">
    <path d="M 76.374545 142.355962 
L 81.205735 140.923619 
L 87.244722 139.383403 
L 93.283709 138.095701 
L 99.322696 137.03486 
L 105.361683 136.176507 
L 112.608468 135.381362 
L 119.855252 134.807388 
L 128.309834 134.371288 
L 137.972214 134.119356 
L 148.84239 134.069523 
L 163.335959 134.247186 
L 210.440058 135.01758 
L 224.933627 134.927566 
L 238.219399 134.616718 
L 251.50517 134.067335 
L 264.790942 133.274401 
L 278.076713 132.245445 
L 291.362485 130.998679 
L 305.856054 129.422681 
L 322.765218 127.359182 
L 346.921166 124.156733 
L 383.155088 119.351653 
L 400.064252 117.336544 
L 414.557821 115.813963 
L 427.843593 114.622104 
L 441.129364 113.649388 
L 454.415136 112.90919 
L 467.700907 112.403229 
L 480.986679 112.119955 
L 495.480248 112.033238 
L 513.597209 112.163034 
L 548.623334 112.49284 
L 560.701308 112.347263 
L 570.363687 112.01541 
L 578.818269 111.511081 
L 586.065054 110.880414 
L 593.311838 110.030433 
L 599.350825 109.128128 
L 605.389812 108.025134 
L 611.428799 106.697288 
L 617.467786 105.119023 
L 623.506774 103.263346 
L 628.337963 101.56003 
L 633.169153 99.64579 
L 638.000343 97.504717 
L 642.831532 95.120353 
L 647.662722 92.47557 
L 652.493911 89.552547 
L 657.325101 86.332877 
L 662.156291 82.797426 
L 666.98748 78.926351 
L 671.81867 74.699241 
L 676.64986 70.094819 
L 679.065455 67.644301 
L 679.065455 67.644301 
" clip-path="url(#pab809654ea)" style="fill: none; stroke: #ff0000; stroke-width: 1.5; stroke-linecap: square"/>
   </g>
   <g id="patch_3">
    <path d="M 46.24 173.062354 
L 46.24 40.88 
" style="fill: none; stroke: #000000; stroke-width: 0.8; stroke-linejoin: miter; stroke-linecap: square"/>
   </g>
   <g id="patch_4">
    <path d="M 709.2 173.062354 
L 709.2 40.88 
" style="fill: none; stroke: #000000; stroke-width: 0.8; stroke-linejoin: miter; stroke-linecap: square"/>
   </g>
   <g id="patch_5">
    <path d="M 46.24 173.062354 
L 709.2 173.062354 
" style="fill: none; stroke: #000000; stroke-width: 0.8; stroke-linejoin: miter; stroke-linecap: square"/>
   </g>
   <g id="patch_6">
    <path d="M 46.24 40.88 
L 709.2 40.88 
" style="fill: none; stroke: #000000; stroke-width: 0.8; stroke-linejoin: miter; stroke-linecap: square"/>
   </g>
   <g id="text_20">
    <!-- T2 - Crisis Word Rate from 1946 to 2022 -->
    <g transform="translate(256.877188 20.88) scale(0.12 -0.12)">
     <defs>
      <path id="DejaVuSans-54" d="M -19 4666 
L 3928 4666 
L 3928 4134 
L 2272 4134 
L 2272 0 
L 1638 0 
L 1638 4134 
L -19 4134 
L -19 4666 
z
" transform="scale(0.015625)"/>
      <path id="DejaVuSans-20" transform="scale(0.015625)"/>
      <path id="DejaVuSans-2d" d="M 313 2009 
L 1997 2009 
L 1997 1497 
L 313 1497 
L 313 2009 
z
" transform="scale(0.015625)"/>
      <path id="DejaVuSans-43" d="M 4122 4306 
L 4122 3641 
Q 3803 3938 3442 4084 
Q 3081 4231 2675 4231 
Q 1875 4231 1450 3742 
Q 1025 3253 1025 2328 
Q 1025 1406 1450 917 
Q 1875 428 2675 428 
Q 3081 428 3442 575 
Q 3803 722 4122 1019 
L 4122 359 
Q 3791 134 3420 21 
Q 3050 -91 2638 -91 
Q 1578 -91 968 557 
Q 359 1206 359 2328 
Q 359 3453 968 4101 
Q 1578 4750 2638 4750 
Q 3056 4750 3426 4639 
Q 3797 4528 4122 4306 
z
" transform="scale(0.015625)"/>
      <path id="DejaVuSans-72" d="M 2631 2963 
Q 2534 3019 2420 3045 
Q 2306 3072 2169 3072 
Q 1681 3072 1420 2755 
Q 1159 2438 1159 1844 
L 1159 0 
L 581 0 
L 581 3500 
L 1159 3500 
L 1159 2956 
Q 1341 3275 1631 3429 
Q 1922 3584 2338 3584 
Q 2397 3584 2469 3576 
Q 2541 3569 2628 3553 
L 2631 2963 
z
" transform="scale(0.015625)"/>
      <path id="DejaVuSans-69" d="M 603 3500 
L 1178 3500 
L 1178 0 
L 603 0 
L 603 3500 
z
M 603 4863 
L 1178 4863 
L 1178 4134 
L 603 4134 
L 603 4863 
z
" transform="scale(0.015625)"/>
      <path id="DejaVuSans-73" d="M 2834 3397 
L 2834 2853 
Q 2591 2978 2328 3040 
Q 2066 3103 1784 3103 
Q 1356 3103 1142 2972 
Q 928 2841 928 2578 
Q 928 2378 1081 2264 
Q 1234 2150 1697 2047 
L 1894 2003 
Q 2506 1872 2764 1633 
Q 3022 1394 3022 966 
Q 3022 478 2636 193 
Q 2250 -91 1575 -91 
Q 1294 -91 989 -36 
Q 684 19 347 128 
L 347 722 
Q 666 556 975 473 
Q 1284 391 1588 391 
Q 1994 391 2212 530 
Q 2431 669 2431 922 
Q 2431 1156 2273 1281 
Q 2116 1406 1581 1522 
L 1381 1569 
Q 847 1681 609 1914 
Q 372 2147 372 2553 
Q 372 3047 722 3315 
Q 1072 3584 1716 3584 
Q 2034 3584 2315 3537 
Q 2597 3491 2834 3397 
z
" transform="scale(0.015625)"/>
      <path id="DejaVuSans-57" d="M 213 4666 
L 850 4666 
L 1831 722 
L 2809 4666 
L 3519 4666 
L 4500 722 
L 5478 4666 
L 6119 4666 
L 4947 0 
L 4153 0 
L 3169 4050 
L 2175 0 
L 1381 0 
L 213 4666 
z
" transform="scale(0.015625)"/>
      <path id="DejaVuSans-6f" d="M 1959 3097 
Q 1497 3097 1228 2736 
Q 959 2375 959 1747 
Q 959 1119 1226 758 
Q 1494 397 1959 397 
Q 2419 397 2687 759 
Q 2956 1122 2956 1747 
Q 2956 2369 2687 2733 
Q 2419 3097 1959 3097 
z
M 1959 3584 
Q 2709 3584 3137 3096 
Q 3566 2609 3566 1747 
Q 3566 888 3137 398 
Q 2709 -91 1959 -91 
Q 1206 -91 779 398 
Q 353 888 353 1747 
Q 353 2609 779 3096 
Q 1206 3584 1959 3584 
z
" transform="scale(0.015625)"/>
      <path id="DejaVuSans-64" d="M 2906 2969 
L 2906 4863 
L 3481 4863 
L 3481 0 
L 2906 0 
L 2906 525 
Q 2725 213 2448 61 
Q 2172 -91 1784 -91 
Q 1150 -91 751 415 
Q 353 922 353 1747 
Q 353 2572 751 3078 
Q 1150 3584 1784 3584 
Q 2172 3584 2448 3432 
Q 2725 3281 2906 2969 
z
M 947 1747 
Q 947 1113 1208 752 
Q 1469 391 1925 391 
Q 2381 391 2643 752 
Q 2906 1113 2906 1747 
Q 2906 2381 2643 2742 
Q 2381 3103 1925 3103 
Q 1469 3103 1208 2742 
Q 947 2381 947 1747 
z
" transform="scale(0.015625)"/>
      <path id="DejaVuSans-52" d="M 2841 2188 
Q 3044 2119 3236 1894 
Q 3428 1669 3622 1275 
L 4263 0 
L 3584 0 
L 2988 1197 
Q 2756 1666 2539 1819 
Q 2322 1972 1947 1972 
L 1259 1972 
L 1259 0 
L 628 0 
L 628 4666 
L 2053 4666 
Q 2853 4666 3247 4331 
Q 3641 3997 3641 3322 
Q 3641 2881 3436 2590 
Q 3231 2300 2841 2188 
z
M 1259 4147 
L 1259 2491 
L 2053 2491 
Q 2509 2491 2742 2702 
Q 2975 2913 2975 3322 
Q 2975 3731 2742 3939 
Q 2509 4147 2053 4147 
L 1259 4147 
z
" transform="scale(0.015625)"/>
      <path id="DejaVuSans-61" d="M 2194 1759 
Q 1497 1759 1228 1600 
Q 959 1441 959 1056 
Q 959 750 1161 570 
Q 1363 391 1709 391 
Q 2188 391 2477 730 
Q 2766 1069 2766 1631 
L 2766 1759 
L 2194 1759 
z
M 3341 1997 
L 3341 0 
L 2766 0 
L 2766 531 
Q 2569 213 2275 61 
Q 1981 -91 1556 -91 
Q 1019 -91 701 211 
Q 384 513 384 1019 
Q 384 1609 779 1909 
Q 1175 2209 1959 2209 
L 2766 2209 
L 2766 2266 
Q 2766 2663 2505 2880 
Q 2244 3097 1772 3097 
Q 1472 3097 1187 3025 
Q 903 2953 641 2809 
L 641 3341 
Q 956 3463 1253 3523 
Q 1550 3584 1831 3584 
Q 2591 3584 2966 3190 
Q 3341 2797 3341 1997 
z
" transform="scale(0.015625)"/>
      <path id="DejaVuSans-74" d="M 1172 4494 
L 1172 3500 
L 2356 3500 
L 2356 3053 
L 1172 3053 
L 1172 1153 
Q 1172 725 1289 603 
Q 1406 481 1766 481 
L 2356 481 
L 2356 0 
L 1766 0 
Q 1100 0 847 248 
Q 594 497 594 1153 
L 594 3053 
L 172 3053 
L 172 3500 
L 594 3500 
L 594 4494 
L 1172 4494 
z
" transform="scale(0.015625)"/>
      <path id="DejaVuSans-65" d="M 3597 1894 
L 3597 1613 
L 953 1613 
Q 991 1019 1311 708 
Q 1631 397 2203 397 
Q 2534 397 2845 478 
Q 3156 559 3463 722 
L 3463 178 
Q 3153 47 2828 -22 
Q 2503 -91 2169 -91 
Q 1331 -91 842 396 
Q 353 884 353 1716 
Q 353 2575 817 3079 
Q 1281 3584 2069 3584 
Q 2775 3584 3186 3129 
Q 3597 2675 3597 1894 
z
M 3022 2063 
Q 3016 2534 2758 2815 
Q 2500 3097 2075 3097 
Q 1594 3097 1305 2825 
Q 1016 2553 972 2059 
L 3022 2063 
z
" transform="scale(0.015625)"/>
      <path id="DejaVuSans-66" d="M 2375 4863 
L 2375 4384 
L 1825 4384 
Q 1516 4384 1395 4259 
Q 1275 4134 1275 3809 
L 1275 3500 
L 2222 3500 
L 2222 3053 
L 1275 3053 
L 1275 0 
L 697 0 
L 697 3053 
L 147 3053 
L 147 3500 
L 697 3500 
L 697 3744 
Q 697 4328 969 4595 
Q 1241 4863 1831 4863 
L 2375 4863 
z
" transform="scale(0.015625)"/>
      <path id="DejaVuSans-6d" d="M 3328 2828 
Q 3544 3216 3844 3400 
Q 4144 3584 4550 3584 
Q 5097 3584 5394 3201 
Q 5691 2819 5691 2113 
L 5691 0 
L 5113 0 
L 5113 2094 
Q 5113 2597 4934 2840 
Q 4756 3084 4391 3084 
Q 3944 3084 3684 2787 
Q 3425 2491 3425 1978 
L 3425 0 
L 2847 0 
L 2847 2094 
Q 2847 2600 2669 2842 
Q 2491 3084 2119 3084 
Q 1678 3084 1418 2786 
Q 1159 2488 1159 1978 
L 1159 0 
L 581 0 
L 581 3500 
L 1159 3500 
L 1159 2956 
Q 1356 3278 1631 3431 
Q 1906 3584 2284 3584 
Q 2666 3584 2933 3390 
Q 3200 3197 3328 2828 
z
" transform="scale(0.015625)"/>
     </defs>
     <use xlink:href="#DejaVuSans-54"/>
     <use xlink:href="#DejaVuSans-32" x="61.083984"/>
     <use xlink:href="#DejaVuSans-20" x="124.707031"/>
     <use xlink:href="#DejaVuSans-2d" x="156.494141"/>
     <use xlink:href="#DejaVuSans-20" x="192.578125"/>
     <use xlink:href="#DejaVuSans-43" x="224.365234"/>
     <use xlink:href="#DejaVuSans-72" x="294.189453"/>
     <use xlink:href="#DejaVuSans-69" x="335.302734"/>
     <use xlink:href="#DejaVuSans-73" x="363.085938"/>
     <use xlink:href="#DejaVuSans-69" x="415.185547"/>
     <use xlink:href="#DejaVuSans-73" x="442.96875"/>
     <use xlink:href="#DejaVuSans-20" x="495.068359"/>
     <use xlink:href="#DejaVuSans-57" x="526.855469"/>
     <use xlink:href="#DejaVuSans-6f" x="619.857422"/>
     <use xlink:href="#DejaVuSans-72" x="681.039062"/>
     <use xlink:href="#DejaVuSans-64" x="720.402344"/>
     <use xlink:href="#DejaVuSans-20" x="783.878906"/>
     <use xlink:href="#DejaVuSans-52" x="815.666016"/>
     <use xlink:href="#DejaVuSans-61" x="882.898438"/>
     <use xlink:href="#DejaVuSans-74" x="944.177734"/>
     <use xlink:href="#DejaVuSans-65" x="983.386719"/>
     <use xlink:href="#DejaVuSans-20" x="1044.910156"/>
     <use xlink:href="#DejaVuSans-66" x="1076.697266"/>
     <use xlink:href="#DejaVuSans-72" x="1111.902344"/>
     <use xlink:href="#DejaVuSans-6f" x="1150.765625"/>
     <use xlink:href="#DejaVuSans-6d" x="1211.947266"/>
     <use xlink:href="#DejaVuSans-20" x="1309.359375"/>
     <use xlink:href="#DejaVuSans-31" x="1341.146484"/>
     <use xlink:href="#DejaVuSans-39" x="1404.769531"/>
     <use xlink:href="#DejaVuSans-34" x="1468.392578"/>
     <use xlink:href="#DejaVuSans-36" x="1532.015625"/>
     <use xlink:href="#DejaVuSans-20" x="1595.638672"/>
     <use xlink:href="#DejaVuSans-74" x="1627.425781"/>
     <use xlink:href="#DejaVuSans-6f" x="1666.634766"/>
     <use xlink:href="#DejaVuSans-20" x="1727.816406"/>
     <use xlink:href="#DejaVuSans-32" x="1759.603516"/>
     <use xlink:href="#DejaVuSans-30" x="1823.226562"/>
     <use xlink:href="#DejaVuSans-32" x="1886.849609"/>
     <use xlink:href="#DejaVuSans-32" x="1950.472656"/>
    </g>
   </g>
  </g>
 </g>
 <defs>
  <clipPath id="pab809654ea">
   <rect x="46.24" y="40.88" width="662.96" height="132.182354"/>
  </clipPath>
 </defs>
</svg>
