<?xml version="1.0" encoding="utf-8" standalone="no"?>
<!DOCTYPE svg PUBLIC "-//W3C//DTD SVG 1.1//EN"
  "http://www.w3.org/Graphics/SVG/1.1/DTD/svg11.dtd">
<svg xmlns:xlink="http://www.w3.org/1999/xlink" width="720pt" height="360pt" viewBox="0 0 720 360" xmlns="http://www.w3.org/2000/svg" version="1.1">
 <metadata>
  <rdf:RDF xmlns:dc="http://purl.org/dc/elements/1.1/" xmlns:cc="http://creativecommons.org/ns#" xmlns:rdf="http://www.w3.org/1999/02/22-rdf-syntax-ns#">
   <cc:Work>
    <dc:type rdf:resource="http://purl.org/dc/dcmitype/StillImage"/>
    <dc:date>2024-08-06T14:03:14.500539</dc:date>
    <dc:format>image/svg+xml</dc:format>
    <dc:creator>
     <cc:Agent>
      <dc:title>Matplotlib v3.7.1, https://matplotlib.org/</dc:title>
     </cc:Agent>
    </dc:creator>
   </cc:Work>
  </rdf:RDF>
 </metadata>
 <defs>
  <style type="text/css">*{stroke-linejoin: round; stroke-linecap: butt}</style>
 </defs>
 <g id="figure_1">
  <g id="patch_1">
   <path d="M 0 360 
L 720 360 
L 720 0 
L 0 0 
z
" style="fill: #ffffff"/>
  </g>
  <g id="axes_1">
   <g id="patch_2">
    <path d="M 46.24 317.062354 
L 709.2 317.062354 
L 709.2 26.88 
L 46.24 26.88 
z
" style="fill: #ffffff"/>
   </g>
   <g id="matplotlib.axis_1">
    <g id="xtick_1">
     <g id="line2d_1">
      <path d="M 108.09512 317.062354 
L 108.09512 26.88 
" clip-path="url(#p7098478de7)" style="fill: none; stroke: #000000; stroke-width: 0.5; stroke-linecap: square"/>
     </g>
     <g id="line2d_2">
      <defs>
       <path id="m05a44a8126" d="M 0 0 
L 0 3.5 
" style="stroke: #000000; stroke-width: 0.8"/>
      </defs>
      <g>
       <use xlink:href="#m05a44a8126" x="108.09512" y="317.062354" style="stroke: #000000; stroke-width: 0.8"/>
      </g>
     </g>
     <g id="text_1">
      <!-- 1950 -->
      <g transform="translate(101.048359 347.431128) rotate(-45) scale(0.1 -0.1)">
       <defs>
        <path id="DejaVuSans-31" d="M 794 531 
L 1825 531 
L 1825 4091 
L 703 3866 
L 703 4441 
L 1819 4666 
L 2450 4666 
L 2450 531 
L 3481 531 
L 3481 0 
L 794 0 
L 794 531 
z
" transform="scale(0.015625)"/>
        <path id="DejaVuSans-39" d="M 703 97 
L 703 672 
Q 941 559 1184 500 
Q 1428 441 1663 441 
Q 2288 441 2617 861 
Q 2947 1281 2994 2138 
Q 2813 1869 2534 1725 
Q 2256 1581 1919 1581 
Q 1219 1581 811 2004 
Q 403 2428 403 3163 
Q 403 3881 828 4315 
Q 1253 4750 1959 4750 
Q 2769 4750 3195 4129 
Q 3622 3509 3622 2328 
Q 3622 1225 3098 567 
Q 2575 -91 1691 -91 
Q 1453 -91 1209 -44 
Q 966 3 703 97 
z
M 1959 2075 
Q 2384 2075 2632 2365 
Q 2881 2656 2881 3163 
Q 2881 3666 2632 3958 
Q 2384 4250 1959 4250 
Q 1534 4250 1286 3958 
Q 1038 3666 1038 3163 
Q 1038 2656 1286 2365 
Q 1534 2075 1959 2075 
z
" transform="scale(0.015625)"/>
        <path id="DejaVuSans-35" d="M 691 4666 
L 3169 4666 
L 3169 4134 
L 1269 4134 
L 1269 2991 
Q 1406 3038 1543 3061 
Q 1681 3084 1819 3084 
Q 2600 3084 3056 2656 
Q 3513 2228 3513 1497 
Q 3513 744 3044 326 
Q 2575 -91 1722 -91 
Q 1428 -91 1123 -41 
Q 819 9 494 109 
L 494 744 
Q 775 591 1075 516 
Q 1375 441 1709 441 
Q 2250 441 2565 725 
Q 2881 1009 2881 1497 
Q 2881 1984 2565 2268 
Q 2250 2553 1709 2553 
Q 1456 2553 1204 2497 
Q 953 2441 691 2322 
L 691 4666 
z
" transform="scale(0.015625)"/>
        <path id="DejaVuSans-30" d="M 2034 4250 
Q 1547 4250 1301 3770 
Q 1056 3291 1056 2328 
Q 1056 1369 1301 889 
Q 1547 409 2034 409 
Q 2525 409 2770 889 
Q 3016 1369 3016 2328 
Q 3016 3291 2770 3770 
Q 2525 4250 2034 4250 
z
M 2034 4750 
Q 2819 4750 3233 4129 
Q 3647 3509 3647 2328 
Q 3647 1150 3233 529 
Q 2819 -91 2034 -91 
Q 1250 -91 836 529 
Q 422 1150 422 2328 
Q 422 3509 836 4129 
Q 1250 4750 2034 4750 
z
" transform="scale(0.015625)"/>
       </defs>
       <use xlink:href="#DejaVuSans-31"/>
       <use xlink:href="#DejaVuSans-39" x="63.623047"/>
       <use xlink:href="#DejaVuSans-35" x="127.246094"/>
       <use xlink:href="#DejaVuSans-30" x="190.869141"/>
      </g>
     </g>
    </g>
    <g id="xtick_2">
     <g id="line2d_3">
      <path d="M 147.745837 317.062354 
L 147.745837 26.88 
" clip-path="url(#p7098478de7)" style="fill: none; stroke: #000000; stroke-width: 0.5; stroke-linecap: square"/>
     </g>
     <g id="line2d_4">
      <g>
       <use xlink:href="#m05a44a8126" x="147.745837" y="317.062354" style="stroke: #000000; stroke-width: 0.8"/>
      </g>
     </g>
     <g id="text_2">
      <!-- 1955 -->
      <g transform="translate(140.699076 347.431128) rotate(-45) scale(0.1 -0.1)">
       <use xlink:href="#DejaVuSans-31"/>
       <use xlink:href="#DejaVuSans-39" x="63.623047"/>
       <use xlink:href="#DejaVuSans-35" x="127.246094"/>
       <use xlink:href="#DejaVuSans-35" x="190.869141"/>
      </g>
     </g>
    </g>
    <g id="xtick_3">
     <g id="line2d_5">
      <path d="M 187.396555 317.062354 
L 187.396555 26.88 
" clip-path="url(#p7098478de7)" style="fill: none; stroke: #000000; stroke-width: 0.5; stroke-linecap: square"/>
     </g>
     <g id="line2d_6">
      <g>
       <use xlink:href="#m05a44a8126" x="187.396555" y="317.062354" style="stroke: #000000; stroke-width: 0.8"/>
      </g>
     </g>
     <g id="text_3">
      <!-- 1960 -->
      <g transform="translate(180.349794 347.431128) rotate(-45) scale(0.1 -0.1)">
       <defs>
        <path id="DejaVuSans-36" d="M 2113 2584 
Q 1688 2584 1439 2293 
Q 1191 2003 1191 1497 
Q 1191 994 1439 701 
Q 1688 409 2113 409 
Q 2538 409 2786 701 
Q 3034 994 3034 1497 
Q 3034 2003 2786 2293 
Q 2538 2584 2113 2584 
z
M 3366 4563 
L 3366 3988 
Q 3128 4100 2886 4159 
Q 2644 4219 2406 4219 
Q 1781 4219 1451 3797 
Q 1122 3375 1075 2522 
Q 1259 2794 1537 2939 
Q 1816 3084 2150 3084 
Q 2853 3084 3261 2657 
Q 3669 2231 3669 1497 
Q 3669 778 3244 343 
Q 2819 -91 2113 -91 
Q 1303 -91 875 529 
Q 447 1150 447 2328 
Q 447 3434 972 4092 
Q 1497 4750 2381 4750 
Q 2619 4750 2861 4703 
Q 3103 4656 3366 4563 
z
" transform="scale(0.015625)"/>
       </defs>
       <use xlink:href="#DejaVuSans-31"/>
       <use xlink:href="#DejaVuSans-39" x="63.623047"/>
       <use xlink:href="#DejaVuSans-36" x="127.246094"/>
       <use xlink:href="#DejaVuSans-30" x="190.869141"/>
      </g>
     </g>
    </g>
    <g id="xtick_4">
     <g id="line2d_7">
      <path d="M 227.047273 317.062354 
L 227.047273 26.88 
" clip-path="url(#p7098478de7)" style="fill: none; stroke: #000000; stroke-width: 0.5; stroke-linecap: square"/>
     </g>
     <g id="line2d_8">
      <g>
       <use xlink:href="#m05a44a8126" x="227.047273" y="317.062354" style="stroke: #000000; stroke-width: 0.8"/>
      </g>
     </g>
     <g id="text_4">
      <!-- 1965 -->
      <g transform="translate(220.000512 347.431128) rotate(-45) scale(0.1 -0.1)">
       <use xlink:href="#DejaVuSans-31"/>
       <use xlink:href="#DejaVuSans-39" x="63.623047"/>
       <use xlink:href="#DejaVuSans-36" x="127.246094"/>
       <use xlink:href="#DejaVuSans-35" x="190.869141"/>
      </g>
     </g>
    </g>
    <g id="xtick_5">
     <g id="line2d_9">
      <path d="M 266.69799 317.062354 
L 266.69799 26.88 
" clip-path="url(#p7098478de7)" style="fill: none; stroke: #000000; stroke-width: 0.5; stroke-linecap: square"/>
     </g>
     <g id="line2d_10">
      <g>
       <use xlink:href="#m05a44a8126" x="266.69799" y="317.062354" style="stroke: #000000; stroke-width: 0.8"/>
      </g>
     </g>
     <g id="text_5">
      <!-- 1970 -->
      <g transform="translate(259.651229 347.431128) rotate(-45) scale(0.1 -0.1)">
       <defs>
        <path id="DejaVuSans-37" d="M 525 4666 
L 3525 4666 
L 3525 4397 
L 1831 0 
L 1172 0 
L 2766 4134 
L 525 4134 
L 525 4666 
z
" transform="scale(0.015625)"/>
       </defs>
       <use xlink:href="#DejaVuSans-31"/>
       <use xlink:href="#DejaVuSans-39" x="63.623047"/>
       <use xlink:href="#DejaVuSans-37" x="127.246094"/>
       <use xlink:href="#DejaVuSans-30" x="190.869141"/>
      </g>
     </g>
    </g>
    <g id="xtick_6">
     <g id="line2d_11">
      <path d="M 306.348708 317.062354 
L 306.348708 26.88 
" clip-path="url(#p7098478de7)" style="fill: none; stroke: #000000; stroke-width: 0.5; stroke-linecap: square"/>
     </g>
     <g id="line2d_12">
      <g>
       <use xlink:href="#m05a44a8126" x="306.348708" y="317.062354" style="stroke: #000000; stroke-width: 0.8"/>
      </g>
     </g>
     <g id="text_6">
      <!-- 1975 -->
      <g transform="translate(299.301947 347.431128) rotate(-45) scale(0.1 -0.1)">
       <use xlink:href="#DejaVuSans-31"/>
       <use xlink:href="#DejaVuSans-39" x="63.623047"/>
       <use xlink:href="#DejaVuSans-37" x="127.246094"/>
       <use xlink:href="#DejaVuSans-35" x="190.869141"/>
      </g>
     </g>
    </g>
    <g id="xtick_7">
     <g id="line2d_13">
      <path d="M 345.999426 317.062354 
L 345.999426 26.88 
" clip-path="url(#p7098478de7)" style="fill: none; stroke: #000000; stroke-width: 0.5; stroke-linecap: square"/>
     </g>
     <g id="line2d_14">
      <g>
       <use xlink:href="#m05a44a8126" x="345.999426" y="317.062354" style="stroke: #000000; stroke-width: 0.8"/>
      </g>
     </g>
     <g id="text_7">
      <!-- 1980 -->
      <g transform="translate(338.952665 347.431128) rotate(-45) scale(0.1 -0.1)">
       <defs>
        <path id="DejaVuSans-38" d="M 2034 2216 
Q 1584 2216 1326 1975 
Q 1069 1734 1069 1313 
Q 1069 891 1326 650 
Q 1584 409 2034 409 
Q 2484 409 2743 651 
Q 3003 894 3003 1313 
Q 3003 1734 2745 1975 
Q 2488 2216 2034 2216 
z
M 1403 2484 
Q 997 2584 770 2862 
Q 544 3141 544 3541 
Q 544 4100 942 4425 
Q 1341 4750 2034 4750 
Q 2731 4750 3128 4425 
Q 3525 4100 3525 3541 
Q 3525 3141 3298 2862 
Q 3072 2584 2669 2484 
Q 3125 2378 3379 2068 
Q 3634 1759 3634 1313 
Q 3634 634 3220 271 
Q 2806 -91 2034 -91 
Q 1263 -91 848 271 
Q 434 634 434 1313 
Q 434 1759 690 2068 
Q 947 2378 1403 2484 
z
M 1172 3481 
Q 1172 3119 1398 2916 
Q 1625 2713 2034 2713 
Q 2441 2713 2670 2916 
Q 2900 3119 2900 3481 
Q 2900 3844 2670 4047 
Q 2441 4250 2034 4250 
Q 1625 4250 1398 4047 
Q 1172 3844 1172 3481 
z
" transform="scale(0.015625)"/>
       </defs>
       <use xlink:href="#DejaVuSans-31"/>
       <use xlink:href="#DejaVuSans-39" x="63.623047"/>
       <use xlink:href="#DejaVuSans-38" x="127.246094"/>
       <use xlink:href="#DejaVuSans-30" x="190.869141"/>
      </g>
     </g>
    </g>
    <g id="xtick_8">
     <g id="line2d_15">
      <path d="M 385.650144 317.062354 
L 385.650144 26.88 
" clip-path="url(#p7098478de7)" style="fill: none; stroke: #000000; stroke-width: 0.5; stroke-linecap: square"/>
     </g>
     <g id="line2d_16">
      <g>
       <use xlink:href="#m05a44a8126" x="385.650144" y="317.062354" style="stroke: #000000; stroke-width: 0.8"/>
      </g>
     </g>
     <g id="text_8">
      <!-- 1985 -->
      <g transform="translate(378.603383 347.431128) rotate(-45) scale(0.1 -0.1)">
       <use xlink:href="#DejaVuSans-31"/>
       <use xlink:href="#DejaVuSans-39" x="63.623047"/>
       <use xlink:href="#DejaVuSans-38" x="127.246094"/>
       <use xlink:href="#DejaVuSans-35" x="190.869141"/>
      </g>
     </g>
    </g>
    <g id="xtick_9">
     <g id="line2d_17">
      <path d="M 425.300861 317.062354 
L 425.300861 26.88 
" clip-path="url(#p7098478de7)" style="fill: none; stroke: #000000; stroke-width: 0.5; stroke-linecap: square"/>
     </g>
     <g id="line2d_18">
      <g>
       <use xlink:href="#m05a44a8126" x="425.300861" y="317.062354" style="stroke: #000000; stroke-width: 0.8"/>
      </g>
     </g>
     <g id="text_9">
      <!-- 1990 -->
      <g transform="translate(418.2541 347.431128) rotate(-45) scale(0.1 -0.1)">
       <use xlink:href="#DejaVuSans-31"/>
       <use xlink:href="#DejaVuSans-39" x="63.623047"/>
       <use xlink:href="#DejaVuSans-39" x="127.246094"/>
       <use xlink:href="#DejaVuSans-30" x="190.869141"/>
      </g>
     </g>
    </g>
    <g id="xtick_10">
     <g id="line2d_19">
      <path d="M 464.951579 317.062354 
L 464.951579 26.88 
" clip-path="url(#p7098478de7)" style="fill: none; stroke: #000000; stroke-width: 0.5; stroke-linecap: square"/>
     </g>
     <g id="line2d_20">
      <g>
       <use xlink:href="#m05a44a8126" x="464.951579" y="317.062354" style="stroke: #000000; stroke-width: 0.8"/>
      </g>
     </g>
     <g id="text_10">
      <!-- 1995 -->
      <g transform="translate(457.904818 347.431128) rotate(-45) scale(0.1 -0.1)">
       <use xlink:href="#DejaVuSans-31"/>
       <use xlink:href="#DejaVuSans-39" x="63.623047"/>
       <use xlink:href="#DejaVuSans-39" x="127.246094"/>
       <use xlink:href="#DejaVuSans-35" x="190.869141"/>
      </g>
     </g>
    </g>
    <g id="xtick_11">
     <g id="line2d_21">
      <path d="M 504.602297 317.062354 
L 504.602297 26.88 
" clip-path="url(#p7098478de7)" style="fill: none; stroke: #000000; stroke-width: 0.5; stroke-linecap: square"/>
     </g>
     <g id="line2d_22">
      <g>
       <use xlink:href="#m05a44a8126" x="504.602297" y="317.062354" style="stroke: #000000; stroke-width: 0.8"/>
      </g>
     </g>
     <g id="text_11">
      <!-- 2000 -->
      <g transform="translate(497.555536 347.431128) rotate(-45) scale(0.1 -0.1)">
       <defs>
        <path id="DejaVuSans-32" d="M 1228 531 
L 3431 531 
L 3431 0 
L 469 0 
L 469 531 
Q 828 903 1448 1529 
Q 2069 2156 2228 2338 
Q 2531 2678 2651 2914 
Q 2772 3150 2772 3378 
Q 2772 3750 2511 3984 
Q 2250 4219 1831 4219 
Q 1534 4219 1204 4116 
Q 875 4013 500 3803 
L 500 4441 
Q 881 4594 1212 4672 
Q 1544 4750 1819 4750 
Q 2544 4750 2975 4387 
Q 3406 4025 3406 3419 
Q 3406 3131 3298 2873 
Q 3191 2616 2906 2266 
Q 2828 2175 2409 1742 
Q 1991 1309 1228 531 
z
" transform="scale(0.015625)"/>
       </defs>
       <use xlink:href="#DejaVuSans-32"/>
       <use xlink:href="#DejaVuSans-30" x="63.623047"/>
       <use xlink:href="#DejaVuSans-30" x="127.246094"/>
       <use xlink:href="#DejaVuSans-30" x="190.869141"/>
      </g>
     </g>
    </g>
    <g id="xtick_12">
     <g id="line2d_23">
      <path d="M 544.253014 317.062354 
L 544.253014 26.88 
" clip-path="url(#p7098478de7)" style="fill: none; stroke: #000000; stroke-width: 0.5; stroke-linecap: square"/>
     </g>
     <g id="line2d_24">
      <g>
       <use xlink:href="#m05a44a8126" x="544.253014" y="317.062354" style="stroke: #000000; stroke-width: 0.8"/>
      </g>
     </g>
     <g id="text_12">
      <!-- 2005 -->
      <g transform="translate(537.206253 347.431128) rotate(-45) scale(0.1 -0.1)">
       <use xlink:href="#DejaVuSans-32"/>
       <use xlink:href="#DejaVuSans-30" x="63.623047"/>
       <use xlink:href="#DejaVuSans-30" x="127.246094"/>
       <use xlink:href="#DejaVuSans-35" x="190.869141"/>
      </g>
     </g>
    </g>
    <g id="xtick_13">
     <g id="line2d_25">
      <path d="M 583.903732 317.062354 
L 583.903732 26.88 
" clip-path="url(#p7098478de7)" style="fill: none; stroke: #000000; stroke-width: 0.5; stroke-linecap: square"/>
     </g>
     <g id="line2d_26">
      <g>
       <use xlink:href="#m05a44a8126" x="583.903732" y="317.062354" style="stroke: #000000; stroke-width: 0.8"/>
      </g>
     </g>
     <g id="text_13">
      <!-- 2010 -->
      <g transform="translate(576.856971 347.431128) rotate(-45) scale(0.1 -0.1)">
       <use xlink:href="#DejaVuSans-32"/>
       <use xlink:href="#DejaVuSans-30" x="63.623047"/>
       <use xlink:href="#DejaVuSans-31" x="127.246094"/>
       <use xlink:href="#DejaVuSans-30" x="190.869141"/>
      </g>
     </g>
    </g>
    <g id="xtick_14">
     <g id="line2d_27">
      <path d="M 623.55445 317.062354 
L 623.55445 26.88 
" clip-path="url(#p7098478de7)" style="fill: none; stroke: #000000; stroke-width: 0.5; stroke-linecap: square"/>
     </g>
     <g id="line2d_28">
      <g>
       <use xlink:href="#m05a44a8126" x="623.55445" y="317.062354" style="stroke: #000000; stroke-width: 0.8"/>
      </g>
     </g>
     <g id="text_14">
      <!-- 2015 -->
      <g transform="translate(616.507689 347.431128) rotate(-45) scale(0.1 -0.1)">
       <use xlink:href="#DejaVuSans-32"/>
       <use xlink:href="#DejaVuSans-30" x="63.623047"/>
       <use xlink:href="#DejaVuSans-31" x="127.246094"/>
       <use xlink:href="#DejaVuSans-35" x="190.869141"/>
      </g>
     </g>
    </g>
    <g id="xtick_15">
     <g id="line2d_29">
      <path d="M 663.205167 317.062354 
L 663.205167 26.88 
" clip-path="url(#p7098478de7)" style="fill: none; stroke: #000000; stroke-width: 0.5; stroke-linecap: square"/>
     </g>
     <g id="line2d_30">
      <g>
       <use xlink:href="#m05a44a8126" x="663.205167" y="317.062354" style="stroke: #000000; stroke-width: 0.8"/>
      </g>
     </g>
     <g id="text_15">
      <!-- 2020 -->
      <g transform="translate(656.158406 347.431128) rotate(-45) scale(0.1 -0.1)">
       <use xlink:href="#DejaVuSans-32"/>
       <use xlink:href="#DejaVuSans-30" x="63.623047"/>
       <use xlink:href="#DejaVuSans-32" x="127.246094"/>
       <use xlink:href="#DejaVuSans-30" x="190.869141"/>
      </g>
     </g>
    </g>
   </g>
   <g id="matplotlib.axis_2">
    <g id="ytick_1">
     <g id="line2d_31">
      <path d="M 46.24 306.34564 
L 709.2 306.34564 
" clip-path="url(#p7098478de7)" style="fill: none; stroke: #000000; stroke-width: 0.5; stroke-linecap: square"/>
     </g>
     <g id="line2d_32">
      <defs>
       <path id="md84db2ac1f" d="M 0 0 
L -3.5 0 
" style="stroke: #000000; stroke-width: 0.8"/>
      </defs>
      <g>
       <use xlink:href="#md84db2ac1f" x="46.24" y="306.34564" style="stroke: #000000; stroke-width: 0.8"/>
      </g>
     </g>
     <g id="text_16">
      <!-- 0.000 -->
      <g transform="translate(10.611875 310.144859) scale(0.1 -0.1)">
       <defs>
        <path id="DejaVuSans-2e" d="M 684 794 
L 1344 794 
L 1344 0 
L 684 0 
L 684 794 
z
" transform="scale(0.015625)"/>
       </defs>
       <use xlink:href="#DejaVuSans-30"/>
       <use xlink:href="#DejaVuSans-2e" x="63.623047"/>
       <use xlink:href="#DejaVuSans-30" x="95.410156"/>
       <use xlink:href="#DejaVuSans-30" x="159.033203"/>
       <use xlink:href="#DejaVuSans-30" x="222.65625"/>
      </g>
     </g>
    </g>
    <g id="ytick_2">
     <g id="line2d_33">
      <path d="M 46.24 265.4823 
L 709.2 265.4823 
" clip-path="url(#p7098478de7)" style="fill: none; stroke: #000000; stroke-width: 0.5; stroke-linecap: square"/>
     </g>
     <g id="line2d_34">
      <g>
       <use xlink:href="#md84db2ac1f" x="46.24" y="265.4823" style="stroke: #000000; stroke-width: 0.8"/>
      </g>
     </g>
     <g id="text_17">
      <!-- 0.001 -->
      <g transform="translate(10.611875 269.281519) scale(0.1 -0.1)">
       <use xlink:href="#DejaVuSans-30"/>
       <use xlink:href="#DejaVuSans-2e" x="63.623047"/>
       <use xlink:href="#DejaVuSans-30" x="95.410156"/>
       <use xlink:href="#DejaVuSans-30" x="159.033203"/>
       <use xlink:href="#DejaVuSans-31" x="222.65625"/>
      </g>
     </g>
    </g>
    <g id="ytick_3">
     <g id="line2d_35">
      <path d="M 46.24 224.61896 
L 709.2 224.61896 
" clip-path="url(#p7098478de7)" style="fill: none; stroke: #000000; stroke-width: 0.5; stroke-linecap: square"/>
     </g>
     <g id="line2d_36">
      <g>
       <use xlink:href="#md84db2ac1f" x="46.24" y="224.61896" style="stroke: #000000; stroke-width: 0.8"/>
      </g>
     </g>
     <g id="text_18">
      <!-- 0.002 -->
      <g transform="translate(10.611875 228.418179) scale(0.1 -0.1)">
       <use xlink:href="#DejaVuSans-30"/>
       <use xlink:href="#DejaVuSans-2e" x="63.623047"/>
       <use xlink:href="#DejaVuSans-30" x="95.410156"/>
       <use xlink:href="#DejaVuSans-30" x="159.033203"/>
       <use xlink:href="#DejaVuSans-32" x="222.65625"/>
      </g>
     </g>
    </g>
    <g id="ytick_4">
     <g id="line2d_37">
      <path d="M 46.24 183.75562 
L 709.2 183.75562 
" clip-path="url(#p7098478de7)" style="fill: none; stroke: #000000; stroke-width: 0.5; stroke-linecap: square"/>
     </g>
     <g id="line2d_38">
      <g>
       <use xlink:href="#md84db2ac1f" x="46.24" y="183.75562" style="stroke: #000000; stroke-width: 0.8"/>
      </g>
     </g>
     <g id="text_19">
      <!-- 0.003 -->
      <g transform="translate(10.611875 187.554839) scale(0.1 -0.1)">
       <defs>
        <path id="DejaVuSans-33" d="M 2597 2516 
Q 3050 2419 3304 2112 
Q 3559 1806 3559 1356 
Q 3559 666 3084 287 
Q 2609 -91 1734 -91 
Q 1441 -91 1130 -33 
Q 819 25 488 141 
L 488 750 
Q 750 597 1062 519 
Q 1375 441 1716 441 
Q 2309 441 2620 675 
Q 2931 909 2931 1356 
Q 2931 1769 2642 2001 
Q 2353 2234 1838 2234 
L 1294 2234 
L 1294 2753 
L 1863 2753 
Q 2328 2753 2575 2939 
Q 2822 3125 2822 3475 
Q 2822 3834 2567 4026 
Q 2313 4219 1838 4219 
Q 1578 4219 1281 4162 
Q 984 4106 628 3988 
L 628 4550 
Q 988 4650 1302 4700 
Q 1616 4750 1894 4750 
Q 2613 4750 3031 4423 
Q 3450 4097 3450 3541 
Q 3450 3153 3228 2886 
Q 3006 2619 2597 2516 
z
" transform="scale(0.015625)"/>
       </defs>
       <use xlink:href="#DejaVuSans-30"/>
       <use xlink:href="#DejaVuSans-2e" x="63.623047"/>
       <use xlink:href="#DejaVuSans-30" x="95.410156"/>
       <use xlink:href="#DejaVuSans-30" x="159.033203"/>
       <use xlink:href="#DejaVuSans-33" x="222.65625"/>
      </g>
     </g>
    </g>
    <g id="ytick_5">
     <g id="line2d_39">
      <path d="M 46.24 142.89228 
L 709.2 142.89228 
" clip-path="url(#p7098478de7)" style="fill: none; stroke: #000000; stroke-width: 0.5; stroke-linecap: square"/>
     </g>
     <g id="line2d_40">
      <g>
       <use xlink:href="#md84db2ac1f" x="46.24" y="142.89228" style="stroke: #000000; stroke-width: 0.8"/>
      </g>
     </g>
     <g id="text_20">
      <!-- 0.004 -->
      <g transform="translate(10.611875 146.691498) scale(0.1 -0.1)">
       <defs>
        <path id="DejaVuSans-34" d="M 2419 4116 
L 825 1625 
L 2419 1625 
L 2419 4116 
z
M 2253 4666 
L 3047 4666 
L 3047 1625 
L 3713 1625 
L 3713 1100 
L 3047 1100 
L 3047 0 
L 2419 0 
L 2419 1100 
L 313 1100 
L 313 1709 
L 2253 4666 
z
" transform="scale(0.015625)"/>
       </defs>
       <use xlink:href="#DejaVuSans-30"/>
       <use xlink:href="#DejaVuSans-2e" x="63.623047"/>
       <use xlink:href="#DejaVuSans-30" x="95.410156"/>
       <use xlink:href="#DejaVuSans-30" x="159.033203"/>
       <use xlink:href="#DejaVuSans-34" x="222.65625"/>
      </g>
     </g>
    </g>
    <g id="ytick_6">
     <g id="line2d_41">
      <path d="M 46.24 102.02894 
L 709.2 102.02894 
" clip-path="url(#p7098478de7)" style="fill: none; stroke: #000000; stroke-width: 0.5; stroke-linecap: square"/>
     </g>
     <g id="line2d_42">
      <g>
       <use xlink:href="#md84db2ac1f" x="46.24" y="102.02894" style="stroke: #000000; stroke-width: 0.8"/>
      </g>
     </g>
     <g id="text_21">
      <!-- 0.005 -->
      <g transform="translate(10.611875 105.828158) scale(0.1 -0.1)">
       <use xlink:href="#DejaVuSans-30"/>
       <use xlink:href="#DejaVuSans-2e" x="63.623047"/>
       <use xlink:href="#DejaVuSans-30" x="95.410156"/>
       <use xlink:href="#DejaVuSans-30" x="159.033203"/>
       <use xlink:href="#DejaVuSans-35" x="222.65625"/>
      </g>
     </g>
    </g>
    <g id="ytick_7">
     <g id="line2d_43">
      <path d="M 46.24 61.165599 
L 709.2 61.165599 
" clip-path="url(#p7098478de7)" style="fill: none; stroke: #000000; stroke-width: 0.5; stroke-linecap: square"/>
     </g>
     <g id="line2d_44">
      <g>
       <use xlink:href="#md84db2ac1f" x="46.24" y="61.165599" style="stroke: #000000; stroke-width: 0.8"/>
      </g>
     </g>
     <g id="text_22">
      <!-- 0.006 -->
      <g transform="translate(10.611875 64.964818) scale(0.1 -0.1)">
       <use xlink:href="#DejaVuSans-30"/>
       <use xlink:href="#DejaVuSans-2e" x="63.623047"/>
       <use xlink:href="#DejaVuSans-30" x="95.410156"/>
       <use xlink:href="#DejaVuSans-30" x="159.033203"/>
       <use xlink:href="#DejaVuSans-36" x="222.65625"/>
      </g>
     </g>
    </g>
   </g>
   <g id="line2d_45">
    <path d="M 76.374545 103.463909 
L 84.304689 65.809031 
L 92.234833 296.314052 
L 100.164976 303.872247 
L 108.09512 86.005231 
L 116.025263 84.773657 
L 123.955407 113.339658 
L 131.88555 90.420883 
L 139.815694 40.070107 
L 147.745837 42.599425 
L 155.675981 52.009831 
L 163.606124 63.56991 
L 171.536268 80.450866 
L 179.466411 89.21382 
L 187.396555 48.255948 
L 195.326699 101.209218 
L 203.256842 81.63524 
L 211.186986 76.417216 
L 219.117129 82.995772 
L 227.047273 73.043097 
L 234.977416 74.834604 
L 242.90756 74.636159 
L 250.837703 90.624393 
L 258.767847 97.994243 
L 266.69799 106.434981 
L 274.628134 106.336119 
L 282.558278 110.646271 
L 290.488421 110.387906 
L 298.418565 101.809613 
L 306.348708 93.450589 
L 314.278852 104.957533 
L 322.208995 117.720457 
L 330.139139 123.07441 
L 338.069282 136.304531 
L 345.999426 136.802011 
L 353.929569 154.303766 
L 361.859713 149.513782 
L 369.789856 147.935703 
L 377.72 145.81468 
L 385.650144 161.252794 
L 393.580287 147.009993 
L 401.510431 138.464747 
L 409.440574 138.750721 
L 417.370718 130.826817 
L 425.300861 129.870458 
L 433.231005 134.822268 
L 441.161148 114.520508 
L 449.091292 114.048384 
L 457.021435 121.360199 
L 464.951579 122.471988 
L 472.881722 108.380798 
L 480.811866 99.709628 
L 488.74201 94.285158 
L 496.672153 94.731435 
L 504.602297 108.017089 
L 512.53244 96.10827 
L 520.462584 95.325701 
L 528.392727 95.243363 
L 536.322871 84.341504 
L 544.253014 117.14427 
L 552.183158 72.299082 
L 560.113301 56.090801 
L 568.043445 55.749636 
L 575.973589 58.018651 
L 583.903732 68.644863 
L 591.833876 47.837323 
L 599.764019 71.156071 
L 607.694163 43.999675 
L 615.624306 68.292338 
L 623.55445 66.517621 
L 631.484593 57.370989 
L 639.414737 48.102411 
L 647.34488 50.872081 
L 655.275024 49.553276 
L 663.205167 77.736956 
L 671.135311 54.826507 
L 679.065455 52.599252 
" clip-path="url(#p7098478de7)" style="fill: none; stroke: #1f77b4; stroke-width: 1.5; stroke-linecap: square"/>
    <defs>
     <path id="m91fec87011" d="M 0 3 
C 0.795609 3 1.55874 2.683901 2.12132 2.12132 
C 2.683901 1.55874 3 0.795609 3 0 
C 3 -0.795609 2.683901 -1.55874 2.12132 -2.12132 
C 1.55874 -2.683901 0.795609 -3 0 -3 
C -0.795609 -3 -1.55874 -2.683901 -2.12132 -2.12132 
C -2.683901 -1.55874 -3 -0.795609 -3 0 
C -3 0.795609 -2.683901 1.55874 -2.12132 2.12132 
C -1.55874 2.683901 -0.795609 3 0 3 
z
" style="stroke: #1f77b4"/>
    </defs>
    <g clip-path="url(#p7098478de7)">
     <use xlink:href="#m91fec87011" x="76.374545" y="103.463909" style="fill: #1f77b4; stroke: #1f77b4"/>
     <use xlink:href="#m91fec87011" x="84.304689" y="65.809031" style="fill: #1f77b4; stroke: #1f77b4"/>
     <use xlink:href="#m91fec87011" x="92.234833" y="296.314052" style="fill: #1f77b4; stroke: #1f77b4"/>
     <use xlink:href="#m91fec87011" x="100.164976" y="303.872247" style="fill: #1f77b4; stroke: #1f77b4"/>
     <use xlink:href="#m91fec87011" x="108.09512" y="86.005231" style="fill: #1f77b4; stroke: #1f77b4"/>
     <use xlink:href="#m91fec87011" x="116.025263" y="84.773657" style="fill: #1f77b4; stroke: #1f77b4"/>
     <use xlink:href="#m91fec87011" x="123.955407" y="113.339658" style="fill: #1f77b4; stroke: #1f77b4"/>
     <use xlink:href="#m91fec87011" x="131.88555" y="90.420883" style="fill: #1f77b4; stroke: #1f77b4"/>
     <use xlink:href="#m91fec87011" x="139.815694" y="40.070107" style="fill: #1f77b4; stroke: #1f77b4"/>
     <use xlink:href="#m91fec87011" x="147.745837" y="42.599425" style="fill: #1f77b4; stroke: #1f77b4"/>
     <use xlink:href="#m91fec87011" x="155.675981" y="52.009831" style="fill: #1f77b4; stroke: #1f77b4"/>
     <use xlink:href="#m91fec87011" x="163.606124" y="63.56991" style="fill: #1f77b4; stroke: #1f77b4"/>
     <use xlink:href="#m91fec87011" x="171.536268" y="80.450866" style="fill: #1f77b4; stroke: #1f77b4"/>
     <use xlink:href="#m91fec87011" x="179.466411" y="89.21382" style="fill: #1f77b4; stroke: #1f77b4"/>
     <use xlink:href="#m91fec87011" x="187.396555" y="48.255948" style="fill: #1f77b4; stroke: #1f77b4"/>
     <use xlink:href="#m91fec87011" x="195.326699" y="101.209218" style="fill: #1f77b4; stroke: #1f77b4"/>
     <use xlink:href="#m91fec87011" x="203.256842" y="81.63524" style="fill: #1f77b4; stroke: #1f77b4"/>
     <use xlink:href="#m91fec87011" x="211.186986" y="76.417216" style="fill: #1f77b4; stroke: #1f77b4"/>
     <use xlink:href="#m91fec87011" x="219.117129" y="82.995772" style="fill: #1f77b4; stroke: #1f77b4"/>
     <use xlink:href="#m91fec87011" x="227.047273" y="73.043097" style="fill: #1f77b4; stroke: #1f77b4"/>
     <use xlink:href="#m91fec87011" x="234.977416" y="74.834604" style="fill: #1f77b4; stroke: #1f77b4"/>
     <use xlink:href="#m91fec87011" x="242.90756" y="74.636159" style="fill: #1f77b4; stroke: #1f77b4"/>
     <use xlink:href="#m91fec87011" x="250.837703" y="90.624393" style="fill: #1f77b4; stroke: #1f77b4"/>
     <use xlink:href="#m91fec87011" x="258.767847" y="97.994243" style="fill: #1f77b4; stroke: #1f77b4"/>
     <use xlink:href="#m91fec87011" x="266.69799" y="106.434981" style="fill: #1f77b4; stroke: #1f77b4"/>
     <use xlink:href="#m91fec87011" x="274.628134" y="106.336119" style="fill: #1f77b4; stroke: #1f77b4"/>
     <use xlink:href="#m91fec87011" x="282.558278" y="110.646271" style="fill: #1f77b4; stroke: #1f77b4"/>
     <use xlink:href="#m91fec87011" x="290.488421" y="110.387906" style="fill: #1f77b4; stroke: #1f77b4"/>
     <use xlink:href="#m91fec87011" x="298.418565" y="101.809613" style="fill: #1f77b4; stroke: #1f77b4"/>
     <use xlink:href="#m91fec87011" x="306.348708" y="93.450589" style="fill: #1f77b4; stroke: #1f77b4"/>
     <use xlink:href="#m91fec87011" x="314.278852" y="104.957533" style="fill: #1f77b4; stroke: #1f77b4"/>
     <use xlink:href="#m91fec87011" x="322.208995" y="117.720457" style="fill: #1f77b4; stroke: #1f77b4"/>
     <use xlink:href="#m91fec87011" x="330.139139" y="123.07441" style="fill: #1f77b4; stroke: #1f77b4"/>
     <use xlink:href="#m91fec87011" x="338.069282" y="136.304531" style="fill: #1f77b4; stroke: #1f77b4"/>
     <use xlink:href="#m91fec87011" x="345.999426" y="136.802011" style="fill: #1f77b4; stroke: #1f77b4"/>
     <use xlink:href="#m91fec87011" x="353.929569" y="154.303766" style="fill: #1f77b4; stroke: #1f77b4"/>
     <use xlink:href="#m91fec87011" x="361.859713" y="149.513782" style="fill: #1f77b4; stroke: #1f77b4"/>
     <use xlink:href="#m91fec87011" x="369.789856" y="147.935703" style="fill: #1f77b4; stroke: #1f77b4"/>
     <use xlink:href="#m91fec87011" x="377.72" y="145.81468" style="fill: #1f77b4; stroke: #1f77b4"/>
     <use xlink:href="#m91fec87011" x="385.650144" y="161.252794" style="fill: #1f77b4; stroke: #1f77b4"/>
     <use xlink:href="#m91fec87011" x="393.580287" y="147.009993" style="fill: #1f77b4; stroke: #1f77b4"/>
     <use xlink:href="#m91fec87011" x="401.510431" y="138.464747" style="fill: #1f77b4; stroke: #1f77b4"/>
     <use xlink:href="#m91fec87011" x="409.440574" y="138.750721" style="fill: #1f77b4; stroke: #1f77b4"/>
     <use xlink:href="#m91fec87011" x="417.370718" y="130.826817" style="fill: #1f77b4; stroke: #1f77b4"/>
     <use xlink:href="#m91fec87011" x="425.300861" y="129.870458" style="fill: #1f77b4; stroke: #1f77b4"/>
     <use xlink:href="#m91fec87011" x="433.231005" y="134.822268" style="fill: #1f77b4; stroke: #1f77b4"/>
     <use xlink:href="#m91fec87011" x="441.161148" y="114.520508" style="fill: #1f77b4; stroke: #1f77b4"/>
     <use xlink:href="#m91fec87011" x="449.091292" y="114.048384" style="fill: #1f77b4; stroke: #1f77b4"/>
     <use xlink:href="#m91fec87011" x="457.021435" y="121.360199" style="fill: #1f77b4; stroke: #1f77b4"/>
     <use xlink:href="#m91fec87011" x="464.951579" y="122.471988" style="fill: #1f77b4; stroke: #1f77b4"/>
     <use xlink:href="#m91fec87011" x="472.881722" y="108.380798" style="fill: #1f77b4; stroke: #1f77b4"/>
     <use xlink:href="#m91fec87011" x="480.811866" y="99.709628" style="fill: #1f77b4; stroke: #1f77b4"/>
     <use xlink:href="#m91fec87011" x="488.74201" y="94.285158" style="fill: #1f77b4; stroke: #1f77b4"/>
     <use xlink:href="#m91fec87011" x="496.672153" y="94.731435" style="fill: #1f77b4; stroke: #1f77b4"/>
     <use xlink:href="#m91fec87011" x="504.602297" y="108.017089" style="fill: #1f77b4; stroke: #1f77b4"/>
     <use xlink:href="#m91fec87011" x="512.53244" y="96.10827" style="fill: #1f77b4; stroke: #1f77b4"/>
     <use xlink:href="#m91fec87011" x="520.462584" y="95.325701" style="fill: #1f77b4; stroke: #1f77b4"/>
     <use xlink:href="#m91fec87011" x="528.392727" y="95.243363" style="fill: #1f77b4; stroke: #1f77b4"/>
     <use xlink:href="#m91fec87011" x="536.322871" y="84.341504" style="fill: #1f77b4; stroke: #1f77b4"/>
     <use xlink:href="#m91fec87011" x="544.253014" y="117.14427" style="fill: #1f77b4; stroke: #1f77b4"/>
     <use xlink:href="#m91fec87011" x="552.183158" y="72.299082" style="fill: #1f77b4; stroke: #1f77b4"/>
     <use xlink:href="#m91fec87011" x="560.113301" y="56.090801" style="fill: #1f77b4; stroke: #1f77b4"/>
     <use xlink:href="#m91fec87011" x="568.043445" y="55.749636" style="fill: #1f77b4; stroke: #1f77b4"/>
     <use xlink:href="#m91fec87011" x="575.973589" y="58.018651" style="fill: #1f77b4; stroke: #1f77b4"/>
     <use xlink:href="#m91fec87011" x="583.903732" y="68.644863" style="fill: #1f77b4; stroke: #1f77b4"/>
     <use xlink:href="#m91fec87011" x="591.833876" y="47.837323" style="fill: #1f77b4; stroke: #1f77b4"/>
     <use xlink:href="#m91fec87011" x="599.764019" y="71.156071" style="fill: #1f77b4; stroke: #1f77b4"/>
     <use xlink:href="#m91fec87011" x="607.694163" y="43.999675" style="fill: #1f77b4; stroke: #1f77b4"/>
     <use xlink:href="#m91fec87011" x="615.624306" y="68.292338" style="fill: #1f77b4; stroke: #1f77b4"/>
     <use xlink:href="#m91fec87011" x="623.55445" y="66.517621" style="fill: #1f77b4; stroke: #1f77b4"/>
     <use xlink:href="#m91fec87011" x="631.484593" y="57.370989" style="fill: #1f77b4; stroke: #1f77b4"/>
     <use xlink:href="#m91fec87011" x="639.414737" y="48.102411" style="fill: #1f77b4; stroke: #1f77b4"/>
     <use xlink:href="#m91fec87011" x="647.34488" y="50.872081" style="fill: #1f77b4; stroke: #1f77b4"/>
     <use xlink:href="#m91fec87011" x="655.275024" y="49.553276" style="fill: #1f77b4; stroke: #1f77b4"/>
     <use xlink:href="#m91fec87011" x="663.205167" y="77.736956" style="fill: #1f77b4; stroke: #1f77b4"/>
     <use xlink:href="#m91fec87011" x="671.135311" y="54.826507" style="fill: #1f77b4; stroke: #1f77b4"/>
     <use xlink:href="#m91fec87011" x="679.065455" y="52.599252" style="fill: #1f77b4; stroke: #1f77b4"/>
    </g>
   </g>
   <g id="patch_3">
    <path d="M 46.24 317.062354 
L 46.24 26.88 
" style="fill: none; stroke: #000000; stroke-width: 0.8; stroke-linejoin: miter; stroke-linecap: square"/>
   </g>
   <g id="patch_4">
    <path d="M 709.2 317.062354 
L 709.2 26.88 
" style="fill: none; stroke: #000000; stroke-width: 0.8; stroke-linejoin: miter; stroke-linecap: square"/>
   </g>
   <g id="patch_5">
    <path d="M 46.24 317.062354 
L 709.2 317.062354 
" style="fill: none; stroke: #000000; stroke-width: 0.8; stroke-linejoin: miter; stroke-linecap: square"/>
   </g>
   <g id="patch_6">
    <path d="M 46.24 26.88 
L 709.2 26.88 
" style="fill: none; stroke: #000000; stroke-width: 0.8; stroke-linejoin: miter; stroke-linecap: square"/>
   </g>
   <g id="text_23">
    <!-- First-Person Singular Pronoun Rate from 1946 to 2022 -->
    <g transform="translate(215.849375 20.88) scale(0.12 -0.12)">
     <defs>
      <path id="DejaVuSans-46" d="M 628 4666 
L 3309 4666 
L 3309 4134 
L 1259 4134 
L 1259 2759 
L 3109 2759 
L 3109 2228 
L 1259 2228 
L 1259 0 
L 628 0 
L 628 4666 
z
" transform="scale(0.015625)"/>
      <path id="DejaVuSans-69" d="M 603 3500 
L 1178 3500 
L 1178 0 
L 603 0 
L 603 3500 
z
M 603 4863 
L 1178 4863 
L 1178 4134 
L 603 4134 
L 603 4863 
z
" transform="scale(0.015625)"/>
      <path id="DejaVuSans-72" d="M 2631 2963 
Q 2534 3019 2420 3045 
Q 2306 3072 2169 3072 
Q 1681 3072 1420 2755 
Q 1159 2438 1159 1844 
L 1159 0 
L 581 0 
L 581 3500 
L 1159 3500 
L 1159 2956 
Q 1341 3275 1631 3429 
Q 1922 3584 2338 3584 
Q 2397 3584 2469 3576 
Q 2541 3569 2628 3553 
L 2631 2963 
z
" transform="scale(0.015625)"/>
      <path id="DejaVuSans-73" d="M 2834 3397 
L 2834 2853 
Q 2591 2978 2328 3040 
Q 2066 3103 1784 3103 
Q 1356 3103 1142 2972 
Q 928 2841 928 2578 
Q 928 2378 1081 2264 
Q 1234 2150 1697 2047 
L 1894 2003 
Q 2506 1872 2764 1633 
Q 3022 1394 3022 966 
Q 3022 478 2636 193 
Q 2250 -91 1575 -91 
Q 1294 -91 989 -36 
Q 684 19 347 128 
L 347 722 
Q 666 556 975 473 
Q 1284 391 1588 391 
Q 1994 391 2212 530 
Q 2431 669 2431 922 
Q 2431 1156 2273 1281 
Q 2116 1406 1581 1522 
L 1381 1569 
Q 847 1681 609 1914 
Q 372 2147 372 2553 
Q 372 3047 722 3315 
Q 1072 3584 1716 3584 
Q 2034 3584 2315 3537 
Q 2597 3491 2834 3397 
z
" transform="scale(0.015625)"/>
      <path id="DejaVuSans-74" d="M 1172 4494 
L 1172 3500 
L 2356 3500 
L 2356 3053 
L 1172 3053 
L 1172 1153 
Q 1172 725 1289 603 
Q 1406 481 1766 481 
L 2356 481 
L 2356 0 
L 1766 0 
Q 1100 0 847 248 
Q 594 497 594 1153 
L 594 3053 
L 172 3053 
L 172 3500 
L 594 3500 
L 594 4494 
L 1172 4494 
z
" transform="scale(0.015625)"/>
      <path id="DejaVuSans-2d" d="M 313 2009 
L 1997 2009 
L 1997 1497 
L 313 1497 
L 313 2009 
z
" transform="scale(0.015625)"/>
      <path id="DejaVuSans-50" d="M 1259 4147 
L 1259 2394 
L 2053 2394 
Q 2494 2394 2734 2622 
Q 2975 2850 2975 3272 
Q 2975 3691 2734 3919 
Q 2494 4147 2053 4147 
L 1259 4147 
z
M 628 4666 
L 2053 4666 
Q 2838 4666 3239 4311 
Q 3641 3956 3641 3272 
Q 3641 2581 3239 2228 
Q 2838 1875 2053 1875 
L 1259 1875 
L 1259 0 
L 628 0 
L 628 4666 
z
" transform="scale(0.015625)"/>
      <path id="DejaVuSans-65" d="M 3597 1894 
L 3597 1613 
L 953 1613 
Q 991 1019 1311 708 
Q 1631 397 2203 397 
Q 2534 397 2845 478 
Q 3156 559 3463 722 
L 3463 178 
Q 3153 47 2828 -22 
Q 2503 -91 2169 -91 
Q 1331 -91 842 396 
Q 353 884 353 1716 
Q 353 2575 817 3079 
Q 1281 3584 2069 3584 
Q 2775 3584 3186 3129 
Q 3597 2675 3597 1894 
z
M 3022 2063 
Q 3016 2534 2758 2815 
Q 2500 3097 2075 3097 
Q 1594 3097 1305 2825 
Q 1016 2553 972 2059 
L 3022 2063 
z
" transform="scale(0.015625)"/>
      <path id="DejaVuSans-6f" d="M 1959 3097 
Q 1497 3097 1228 2736 
Q 959 2375 959 1747 
Q 959 1119 1226 758 
Q 1494 397 1959 397 
Q 2419 397 2687 759 
Q 2956 1122 2956 1747 
Q 2956 2369 2687 2733 
Q 2419 3097 1959 3097 
z
M 1959 3584 
Q 2709 3584 3137 3096 
Q 3566 2609 3566 1747 
Q 3566 888 3137 398 
Q 2709 -91 1959 -91 
Q 1206 -91 779 398 
Q 353 888 353 1747 
Q 353 2609 779 3096 
Q 1206 3584 1959 3584 
z
" transform="scale(0.015625)"/>
      <path id="DejaVuSans-6e" d="M 3513 2113 
L 3513 0 
L 2938 0 
L 2938 2094 
Q 2938 2591 2744 2837 
Q 2550 3084 2163 3084 
Q 1697 3084 1428 2787 
Q 1159 2491 1159 1978 
L 1159 0 
L 581 0 
L 581 3500 
L 1159 3500 
L 1159 2956 
Q 1366 3272 1645 3428 
Q 1925 3584 2291 3584 
Q 2894 3584 3203 3211 
Q 3513 2838 3513 2113 
z
" transform="scale(0.015625)"/>
      <path id="DejaVuSans-20" transform="scale(0.015625)"/>
      <path id="DejaVuSans-53" d="M 3425 4513 
L 3425 3897 
Q 3066 4069 2747 4153 
Q 2428 4238 2131 4238 
Q 1616 4238 1336 4038 
Q 1056 3838 1056 3469 
Q 1056 3159 1242 3001 
Q 1428 2844 1947 2747 
L 2328 2669 
Q 3034 2534 3370 2195 
Q 3706 1856 3706 1288 
Q 3706 609 3251 259 
Q 2797 -91 1919 -91 
Q 1588 -91 1214 -16 
Q 841 59 441 206 
L 441 856 
Q 825 641 1194 531 
Q 1563 422 1919 422 
Q 2459 422 2753 634 
Q 3047 847 3047 1241 
Q 3047 1584 2836 1778 
Q 2625 1972 2144 2069 
L 1759 2144 
Q 1053 2284 737 2584 
Q 422 2884 422 3419 
Q 422 4038 858 4394 
Q 1294 4750 2059 4750 
Q 2388 4750 2728 4690 
Q 3069 4631 3425 4513 
z
" transform="scale(0.015625)"/>
      <path id="DejaVuSans-67" d="M 2906 1791 
Q 2906 2416 2648 2759 
Q 2391 3103 1925 3103 
Q 1463 3103 1205 2759 
Q 947 2416 947 1791 
Q 947 1169 1205 825 
Q 1463 481 1925 481 
Q 2391 481 2648 825 
Q 2906 1169 2906 1791 
z
M 3481 434 
Q 3481 -459 3084 -895 
Q 2688 -1331 1869 -1331 
Q 1566 -1331 1297 -1286 
Q 1028 -1241 775 -1147 
L 775 -588 
Q 1028 -725 1275 -790 
Q 1522 -856 1778 -856 
Q 2344 -856 2625 -561 
Q 2906 -266 2906 331 
L 2906 616 
Q 2728 306 2450 153 
Q 2172 0 1784 0 
Q 1141 0 747 490 
Q 353 981 353 1791 
Q 353 2603 747 3093 
Q 1141 3584 1784 3584 
Q 2172 3584 2450 3431 
Q 2728 3278 2906 2969 
L 2906 3500 
L 3481 3500 
L 3481 434 
z
" transform="scale(0.015625)"/>
      <path id="DejaVuSans-75" d="M 544 1381 
L 544 3500 
L 1119 3500 
L 1119 1403 
Q 1119 906 1312 657 
Q 1506 409 1894 409 
Q 2359 409 2629 706 
Q 2900 1003 2900 1516 
L 2900 3500 
L 3475 3500 
L 3475 0 
L 2900 0 
L 2900 538 
Q 2691 219 2414 64 
Q 2138 -91 1772 -91 
Q 1169 -91 856 284 
Q 544 659 544 1381 
z
M 1991 3584 
L 1991 3584 
z
" transform="scale(0.015625)"/>
      <path id="DejaVuSans-6c" d="M 603 4863 
L 1178 4863 
L 1178 0 
L 603 0 
L 603 4863 
z
" transform="scale(0.015625)"/>
      <path id="DejaVuSans-61" d="M 2194 1759 
Q 1497 1759 1228 1600 
Q 959 1441 959 1056 
Q 959 750 1161 570 
Q 1363 391 1709 391 
Q 2188 391 2477 730 
Q 2766 1069 2766 1631 
L 2766 1759 
L 2194 1759 
z
M 3341 1997 
L 3341 0 
L 2766 0 
L 2766 531 
Q 2569 213 2275 61 
Q 1981 -91 1556 -91 
Q 1019 -91 701 211 
Q 384 513 384 1019 
Q 384 1609 779 1909 
Q 1175 2209 1959 2209 
L 2766 2209 
L 2766 2266 
Q 2766 2663 2505 2880 
Q 2244 3097 1772 3097 
Q 1472 3097 1187 3025 
Q 903 2953 641 2809 
L 641 3341 
Q 956 3463 1253 3523 
Q 1550 3584 1831 3584 
Q 2591 3584 2966 3190 
Q 3341 2797 3341 1997 
z
" transform="scale(0.015625)"/>
      <path id="DejaVuSans-52" d="M 2841 2188 
Q 3044 2119 3236 1894 
Q 3428 1669 3622 1275 
L 4263 0 
L 3584 0 
L 2988 1197 
Q 2756 1666 2539 1819 
Q 2322 1972 1947 1972 
L 1259 1972 
L 1259 0 
L 628 0 
L 628 4666 
L 2053 4666 
Q 2853 4666 3247 4331 
Q 3641 3997 3641 3322 
Q 3641 2881 3436 2590 
Q 3231 2300 2841 2188 
z
M 1259 4147 
L 1259 2491 
L 2053 2491 
Q 2509 2491 2742 2702 
Q 2975 2913 2975 3322 
Q 2975 3731 2742 3939 
Q 2509 4147 2053 4147 
L 1259 4147 
z
" transform="scale(0.015625)"/>
      <path id="DejaVuSans-66" d="M 2375 4863 
L 2375 4384 
L 1825 4384 
Q 1516 4384 1395 4259 
Q 1275 4134 1275 3809 
L 1275 3500 
L 2222 3500 
L 2222 3053 
L 1275 3053 
L 1275 0 
L 697 0 
L 697 3053 
L 147 3053 
L 147 3500 
L 697 3500 
L 697 3744 
Q 697 4328 969 4595 
Q 1241 4863 1831 4863 
L 2375 4863 
z
" transform="scale(0.015625)"/>
      <path id="DejaVuSans-6d" d="M 3328 2828 
Q 3544 3216 3844 3400 
Q 4144 3584 4550 3584 
Q 5097 3584 5394 3201 
Q 5691 2819 5691 2113 
L 5691 0 
L 5113 0 
L 5113 2094 
Q 5113 2597 4934 2840 
Q 4756 3084 4391 3084 
Q 3944 3084 3684 2787 
Q 3425 2491 3425 1978 
L 3425 0 
L 2847 0 
L 2847 2094 
Q 2847 2600 2669 2842 
Q 2491 3084 2119 3084 
Q 1678 3084 1418 2786 
Q 1159 2488 1159 1978 
L 1159 0 
L 581 0 
L 581 3500 
L 1159 3500 
L 1159 2956 
Q 1356 3278 1631 3431 
Q 1906 3584 2284 3584 
Q 2666 3584 2933 3390 
Q 3200 3197 3328 2828 
z
" transform="scale(0.015625)"/>
     </defs>
     <use xlink:href="#DejaVuSans-46"/>
     <use xlink:href="#DejaVuSans-69" x="50.269531"/>
     <use xlink:href="#DejaVuSans-72" x="78.052734"/>
     <use xlink:href="#DejaVuSans-73" x="119.166016"/>
     <use xlink:href="#DejaVuSans-74" x="171.265625"/>
     <use xlink:href="#DejaVuSans-2d" x="210.474609"/>
     <use xlink:href="#DejaVuSans-50" x="246.558594"/>
     <use xlink:href="#DejaVuSans-65" x="303.236328"/>
     <use xlink:href="#DejaVuSans-72" x="364.759766"/>
     <use xlink:href="#DejaVuSans-73" x="405.873047"/>
     <use xlink:href="#DejaVuSans-6f" x="457.972656"/>
     <use xlink:href="#DejaVuSans-6e" x="519.154297"/>
     <use xlink:href="#DejaVuSans-20" x="582.533203"/>
     <use xlink:href="#DejaVuSans-53" x="614.320312"/>
     <use xlink:href="#DejaVuSans-69" x="677.796875"/>
     <use xlink:href="#DejaVuSans-6e" x="705.580078"/>
     <use xlink:href="#DejaVuSans-67" x="768.958984"/>
     <use xlink:href="#DejaVuSans-75" x="832.435547"/>
     <use xlink:href="#DejaVuSans-6c" x="895.814453"/>
     <use xlink:href="#DejaVuSans-61" x="923.597656"/>
     <use xlink:href="#DejaVuSans-72" x="984.876953"/>
     <use xlink:href="#DejaVuSans-20" x="1025.990234"/>
     <use xlink:href="#DejaVuSans-50" x="1057.777344"/>
     <use xlink:href="#DejaVuSans-72" x="1116.330078"/>
     <use xlink:href="#DejaVuSans-6f" x="1155.193359"/>
     <use xlink:href="#DejaVuSans-6e" x="1216.375"/>
     <use xlink:href="#DejaVuSans-6f" x="1279.753906"/>
     <use xlink:href="#DejaVuSans-75" x="1340.935547"/>
     <use xlink:href="#DejaVuSans-6e" x="1404.314453"/>
     <use xlink:href="#DejaVuSans-20" x="1467.693359"/>
     <use xlink:href="#DejaVuSans-52" x="1499.480469"/>
     <use xlink:href="#DejaVuSans-61" x="1566.712891"/>
     <use xlink:href="#DejaVuSans-74" x="1627.992188"/>
     <use xlink:href="#DejaVuSans-65" x="1667.201172"/>
     <use xlink:href="#DejaVuSans-20" x="1728.724609"/>
     <use xlink:href="#DejaVuSans-66" x="1760.511719"/>
     <use xlink:href="#DejaVuSans-72" x="1795.716797"/>
     <use xlink:href="#DejaVuSans-6f" x="1834.580078"/>
     <use xlink:href="#DejaVuSans-6d" x="1895.761719"/>
     <use xlink:href="#DejaVuSans-20" x="1993.173828"/>
     <use xlink:href="#DejaVuSans-31" x="2024.960938"/>
     <use xlink:href="#DejaVuSans-39" x="2088.583984"/>
     <use xlink:href="#DejaVuSans-34" x="2152.207031"/>
     <use xlink:href="#DejaVuSans-36" x="2215.830078"/>
     <use xlink:href="#DejaVuSans-20" x="2279.453125"/>
     <use xlink:href="#DejaVuSans-74" x="2311.240234"/>
     <use xlink:href="#DejaVuSans-6f" x="2350.449219"/>
     <use xlink:href="#DejaVuSans-20" x="2411.630859"/>
     <use xlink:href="#DejaVuSans-32" x="2443.417969"/>
     <use xlink:href="#DejaVuSans-30" x="2507.041016"/>
     <use xlink:href="#DejaVuSans-32" x="2570.664062"/>
     <use xlink:href="#DejaVuSans-32" x="2634.287109"/>
    </g>
   </g>
  </g>
 </g>
 <defs>
  <clipPath id="p7098478de7">
   <rect x="46.24" y="26.88" width="662.96" height="290.182354"/>
  </clipPath>
 </defs>
</svg>
