<?xml version="1.0" encoding="utf-8" standalone="no"?>
<!DOCTYPE svg PUBLIC "-//W3C//DTD SVG 1.1//EN"
  "http://www.w3.org/Graphics/SVG/1.1/DTD/svg11.dtd">
<svg xmlns:xlink="http://www.w3.org/1999/xlink" width="720pt" height="216pt" viewBox="0 0 720 216" xmlns="http://www.w3.org/2000/svg" version="1.1">
 <metadata>
  <rdf:RDF xmlns:dc="http://purl.org/dc/elements/1.1/" xmlns:cc="http://creativecommons.org/ns#" xmlns:rdf="http://www.w3.org/1999/02/22-rdf-syntax-ns#">
   <cc:Work>
    <dc:type rdf:resource="http://purl.org/dc/dcmitype/StillImage"/>
    <dc:date>2024-08-08T18:38:07.347536</dc:date>
    <dc:format>image/svg+xml</dc:format>
    <dc:creator>
     <cc:Agent>
      <dc:title>Matplotlib v3.7.1, https://matplotlib.org/</dc:title>
     </cc:Agent>
    </dc:creator>
   </cc:Work>
  </rdf:RDF>
 </metadata>
 <defs>
  <style type="text/css">*{stroke-linejoin: round; stroke-linecap: butt}</style>
 </defs>
 <g id="figure_1">
  <g id="patch_1">
   <path d="M 0 216 
L 720 216 
L 720 0 
L 0 0 
z
" style="fill: #ffffff"/>
  </g>
  <g id="axes_1">
   <g id="patch_2">
    <path d="M 58.84 173.062354 
L 709.2 173.062354 
L 709.2 40.88 
L 58.84 40.88 
z
" style="fill: #ffffff"/>
   </g>
   <g id="matplotlib.axis_1">
    <g id="xtick_1">
     <g id="line2d_1">
      <path d="M 119.519522 173.062354 
L 119.519522 40.88 
" clip-path="url(#p6d0abc2fa7)" style="fill: none; stroke: #000000; stroke-width: 0.5; stroke-linecap: square"/>
     </g>
     <g id="line2d_2">
      <defs>
       <path id="ma576098a69" d="M 0 0 
L 0 3.5 
" style="stroke: #000000; stroke-width: 0.8"/>
      </defs>
      <g>
       <use xlink:href="#ma576098a69" x="119.519522" y="173.062354" style="stroke: #000000; stroke-width: 0.8"/>
      </g>
     </g>
     <g id="text_1">
      <!-- 1950 -->
      <g transform="translate(112.472761 203.431128) rotate(-45) scale(0.1 -0.1)">
       <defs>
        <path id="DejaVuSans-31" d="M 794 531 
L 1825 531 
L 1825 4091 
L 703 3866 
L 703 4441 
L 1819 4666 
L 2450 4666 
L 2450 531 
L 3481 531 
L 3481 0 
L 794 0 
L 794 531 
z
" transform="scale(0.015625)"/>
        <path id="DejaVuSans-39" d="M 703 97 
L 703 672 
Q 941 559 1184 500 
Q 1428 441 1663 441 
Q 2288 441 2617 861 
Q 2947 1281 2994 2138 
Q 2813 1869 2534 1725 
Q 2256 1581 1919 1581 
Q 1219 1581 811 2004 
Q 403 2428 403 3163 
Q 403 3881 828 4315 
Q 1253 4750 1959 4750 
Q 2769 4750 3195 4129 
Q 3622 3509 3622 2328 
Q 3622 1225 3098 567 
Q 2575 -91 1691 -91 
Q 1453 -91 1209 -44 
Q 966 3 703 97 
z
M 1959 2075 
Q 2384 2075 2632 2365 
Q 2881 2656 2881 3163 
Q 2881 3666 2632 3958 
Q 2384 4250 1959 4250 
Q 1534 4250 1286 3958 
Q 1038 3666 1038 3163 
Q 1038 2656 1286 2365 
Q 1534 2075 1959 2075 
z
" transform="scale(0.015625)"/>
        <path id="DejaVuSans-35" d="M 691 4666 
L 3169 4666 
L 3169 4134 
L 1269 4134 
L 1269 2991 
Q 1406 3038 1543 3061 
Q 1681 3084 1819 3084 
Q 2600 3084 3056 2656 
Q 3513 2228 3513 1497 
Q 3513 744 3044 326 
Q 2575 -91 1722 -91 
Q 1428 -91 1123 -41 
Q 819 9 494 109 
L 494 744 
Q 775 591 1075 516 
Q 1375 441 1709 441 
Q 2250 441 2565 725 
Q 2881 1009 2881 1497 
Q 2881 1984 2565 2268 
Q 2250 2553 1709 2553 
Q 1456 2553 1204 2497 
Q 953 2441 691 2322 
L 691 4666 
z
" transform="scale(0.015625)"/>
        <path id="DejaVuSans-30" d="M 2034 4250 
Q 1547 4250 1301 3770 
Q 1056 3291 1056 2328 
Q 1056 1369 1301 889 
Q 1547 409 2034 409 
Q 2525 409 2770 889 
Q 3016 1369 3016 2328 
Q 3016 3291 2770 3770 
Q 2525 4250 2034 4250 
z
M 2034 4750 
Q 2819 4750 3233 4129 
Q 3647 3509 3647 2328 
Q 3647 1150 3233 529 
Q 2819 -91 2034 -91 
Q 1250 -91 836 529 
Q 422 1150 422 2328 
Q 422 3509 836 4129 
Q 1250 4750 2034 4750 
z
" transform="scale(0.015625)"/>
       </defs>
       <use xlink:href="#DejaVuSans-31"/>
       <use xlink:href="#DejaVuSans-39" x="63.623047"/>
       <use xlink:href="#DejaVuSans-35" x="127.246094"/>
       <use xlink:href="#DejaVuSans-30" x="190.869141"/>
      </g>
     </g>
    </g>
    <g id="xtick_2">
     <g id="line2d_3">
      <path d="M 158.416651 173.062354 
L 158.416651 40.88 
" clip-path="url(#p6d0abc2fa7)" style="fill: none; stroke: #000000; stroke-width: 0.5; stroke-linecap: square"/>
     </g>
     <g id="line2d_4">
      <g>
       <use xlink:href="#ma576098a69" x="158.416651" y="173.062354" style="stroke: #000000; stroke-width: 0.8"/>
      </g>
     </g>
     <g id="text_2">
      <!-- 1955 -->
      <g transform="translate(151.36989 203.431128) rotate(-45) scale(0.1 -0.1)">
       <use xlink:href="#DejaVuSans-31"/>
       <use xlink:href="#DejaVuSans-39" x="63.623047"/>
       <use xlink:href="#DejaVuSans-35" x="127.246094"/>
       <use xlink:href="#DejaVuSans-35" x="190.869141"/>
      </g>
     </g>
    </g>
    <g id="xtick_3">
     <g id="line2d_5">
      <path d="M 197.31378 173.062354 
L 197.31378 40.88 
" clip-path="url(#p6d0abc2fa7)" style="fill: none; stroke: #000000; stroke-width: 0.5; stroke-linecap: square"/>
     </g>
     <g id="line2d_6">
      <g>
       <use xlink:href="#ma576098a69" x="197.31378" y="173.062354" style="stroke: #000000; stroke-width: 0.8"/>
      </g>
     </g>
     <g id="text_3">
      <!-- 1960 -->
      <g transform="translate(190.267019 203.431128) rotate(-45) scale(0.1 -0.1)">
       <defs>
        <path id="DejaVuSans-36" d="M 2113 2584 
Q 1688 2584 1439 2293 
Q 1191 2003 1191 1497 
Q 1191 994 1439 701 
Q 1688 409 2113 409 
Q 2538 409 2786 701 
Q 3034 994 3034 1497 
Q 3034 2003 2786 2293 
Q 2538 2584 2113 2584 
z
M 3366 4563 
L 3366 3988 
Q 3128 4100 2886 4159 
Q 2644 4219 2406 4219 
Q 1781 4219 1451 3797 
Q 1122 3375 1075 2522 
Q 1259 2794 1537 2939 
Q 1816 3084 2150 3084 
Q 2853 3084 3261 2657 
Q 3669 2231 3669 1497 
Q 3669 778 3244 343 
Q 2819 -91 2113 -91 
Q 1303 -91 875 529 
Q 447 1150 447 2328 
Q 447 3434 972 4092 
Q 1497 4750 2381 4750 
Q 2619 4750 2861 4703 
Q 3103 4656 3366 4563 
z
" transform="scale(0.015625)"/>
       </defs>
       <use xlink:href="#DejaVuSans-31"/>
       <use xlink:href="#DejaVuSans-39" x="63.623047"/>
       <use xlink:href="#DejaVuSans-36" x="127.246094"/>
       <use xlink:href="#DejaVuSans-30" x="190.869141"/>
      </g>
     </g>
    </g>
    <g id="xtick_4">
     <g id="line2d_7">
      <path d="M 236.210909 173.062354 
L 236.210909 40.88 
" clip-path="url(#p6d0abc2fa7)" style="fill: none; stroke: #000000; stroke-width: 0.5; stroke-linecap: square"/>
     </g>
     <g id="line2d_8">
      <g>
       <use xlink:href="#ma576098a69" x="236.210909" y="173.062354" style="stroke: #000000; stroke-width: 0.8"/>
      </g>
     </g>
     <g id="text_4">
      <!-- 1965 -->
      <g transform="translate(229.164148 203.431128) rotate(-45) scale(0.1 -0.1)">
       <use xlink:href="#DejaVuSans-31"/>
       <use xlink:href="#DejaVuSans-39" x="63.623047"/>
       <use xlink:href="#DejaVuSans-36" x="127.246094"/>
       <use xlink:href="#DejaVuSans-35" x="190.869141"/>
      </g>
     </g>
    </g>
    <g id="xtick_5">
     <g id="line2d_9">
      <path d="M 275.108038 173.062354 
L 275.108038 40.88 
" clip-path="url(#p6d0abc2fa7)" style="fill: none; stroke: #000000; stroke-width: 0.5; stroke-linecap: square"/>
     </g>
     <g id="line2d_10">
      <g>
       <use xlink:href="#ma576098a69" x="275.108038" y="173.062354" style="stroke: #000000; stroke-width: 0.8"/>
      </g>
     </g>
     <g id="text_5">
      <!-- 1970 -->
      <g transform="translate(268.061277 203.431128) rotate(-45) scale(0.1 -0.1)">
       <defs>
        <path id="DejaVuSans-37" d="M 525 4666 
L 3525 4666 
L 3525 4397 
L 1831 0 
L 1172 0 
L 2766 4134 
L 525 4134 
L 525 4666 
z
" transform="scale(0.015625)"/>
       </defs>
       <use xlink:href="#DejaVuSans-31"/>
       <use xlink:href="#DejaVuSans-39" x="63.623047"/>
       <use xlink:href="#DejaVuSans-37" x="127.246094"/>
       <use xlink:href="#DejaVuSans-30" x="190.869141"/>
      </g>
     </g>
    </g>
    <g id="xtick_6">
     <g id="line2d_11">
      <path d="M 314.005167 173.062354 
L 314.005167 40.88 
" clip-path="url(#p6d0abc2fa7)" style="fill: none; stroke: #000000; stroke-width: 0.5; stroke-linecap: square"/>
     </g>
     <g id="line2d_12">
      <g>
       <use xlink:href="#ma576098a69" x="314.005167" y="173.062354" style="stroke: #000000; stroke-width: 0.8"/>
      </g>
     </g>
     <g id="text_6">
      <!-- 1975 -->
      <g transform="translate(306.958406 203.431128) rotate(-45) scale(0.1 -0.1)">
       <use xlink:href="#DejaVuSans-31"/>
       <use xlink:href="#DejaVuSans-39" x="63.623047"/>
       <use xlink:href="#DejaVuSans-37" x="127.246094"/>
       <use xlink:href="#DejaVuSans-35" x="190.869141"/>
      </g>
     </g>
    </g>
    <g id="xtick_7">
     <g id="line2d_13">
      <path d="M 352.902297 173.062354 
L 352.902297 40.88 
" clip-path="url(#p6d0abc2fa7)" style="fill: none; stroke: #000000; stroke-width: 0.5; stroke-linecap: square"/>
     </g>
     <g id="line2d_14">
      <g>
       <use xlink:href="#ma576098a69" x="352.902297" y="173.062354" style="stroke: #000000; stroke-width: 0.8"/>
      </g>
     </g>
     <g id="text_7">
      <!-- 1980 -->
      <g transform="translate(345.855536 203.431128) rotate(-45) scale(0.1 -0.1)">
       <defs>
        <path id="DejaVuSans-38" d="M 2034 2216 
Q 1584 2216 1326 1975 
Q 1069 1734 1069 1313 
Q 1069 891 1326 650 
Q 1584 409 2034 409 
Q 2484 409 2743 651 
Q 3003 894 3003 1313 
Q 3003 1734 2745 1975 
Q 2488 2216 2034 2216 
z
M 1403 2484 
Q 997 2584 770 2862 
Q 544 3141 544 3541 
Q 544 4100 942 4425 
Q 1341 4750 2034 4750 
Q 2731 4750 3128 4425 
Q 3525 4100 3525 3541 
Q 3525 3141 3298 2862 
Q 3072 2584 2669 2484 
Q 3125 2378 3379 2068 
Q 3634 1759 3634 1313 
Q 3634 634 3220 271 
Q 2806 -91 2034 -91 
Q 1263 -91 848 271 
Q 434 634 434 1313 
Q 434 1759 690 2068 
Q 947 2378 1403 2484 
z
M 1172 3481 
Q 1172 3119 1398 2916 
Q 1625 2713 2034 2713 
Q 2441 2713 2670 2916 
Q 2900 3119 2900 3481 
Q 2900 3844 2670 4047 
Q 2441 4250 2034 4250 
Q 1625 4250 1398 4047 
Q 1172 3844 1172 3481 
z
" transform="scale(0.015625)"/>
       </defs>
       <use xlink:href="#DejaVuSans-31"/>
       <use xlink:href="#DejaVuSans-39" x="63.623047"/>
       <use xlink:href="#DejaVuSans-38" x="127.246094"/>
       <use xlink:href="#DejaVuSans-30" x="190.869141"/>
      </g>
     </g>
    </g>
    <g id="xtick_8">
     <g id="line2d_15">
      <path d="M 391.799426 173.062354 
L 391.799426 40.88 
" clip-path="url(#p6d0abc2fa7)" style="fill: none; stroke: #000000; stroke-width: 0.5; stroke-linecap: square"/>
     </g>
     <g id="line2d_16">
      <g>
       <use xlink:href="#ma576098a69" x="391.799426" y="173.062354" style="stroke: #000000; stroke-width: 0.8"/>
      </g>
     </g>
     <g id="text_8">
      <!-- 1985 -->
      <g transform="translate(384.752665 203.431128) rotate(-45) scale(0.1 -0.1)">
       <use xlink:href="#DejaVuSans-31"/>
       <use xlink:href="#DejaVuSans-39" x="63.623047"/>
       <use xlink:href="#DejaVuSans-38" x="127.246094"/>
       <use xlink:href="#DejaVuSans-35" x="190.869141"/>
      </g>
     </g>
    </g>
    <g id="xtick_9">
     <g id="line2d_17">
      <path d="M 430.696555 173.062354 
L 430.696555 40.88 
" clip-path="url(#p6d0abc2fa7)" style="fill: none; stroke: #000000; stroke-width: 0.5; stroke-linecap: square"/>
     </g>
     <g id="line2d_18">
      <g>
       <use xlink:href="#ma576098a69" x="430.696555" y="173.062354" style="stroke: #000000; stroke-width: 0.8"/>
      </g>
     </g>
     <g id="text_9">
      <!-- 1990 -->
      <g transform="translate(423.649794 203.431128) rotate(-45) scale(0.1 -0.1)">
       <use xlink:href="#DejaVuSans-31"/>
       <use xlink:href="#DejaVuSans-39" x="63.623047"/>
       <use xlink:href="#DejaVuSans-39" x="127.246094"/>
       <use xlink:href="#DejaVuSans-30" x="190.869141"/>
      </g>
     </g>
    </g>
    <g id="xtick_10">
     <g id="line2d_19">
      <path d="M 469.593684 173.062354 
L 469.593684 40.88 
" clip-path="url(#p6d0abc2fa7)" style="fill: none; stroke: #000000; stroke-width: 0.5; stroke-linecap: square"/>
     </g>
     <g id="line2d_20">
      <g>
       <use xlink:href="#ma576098a69" x="469.593684" y="173.062354" style="stroke: #000000; stroke-width: 0.8"/>
      </g>
     </g>
     <g id="text_10">
      <!-- 1995 -->
      <g transform="translate(462.546923 203.431128) rotate(-45) scale(0.1 -0.1)">
       <use xlink:href="#DejaVuSans-31"/>
       <use xlink:href="#DejaVuSans-39" x="63.623047"/>
       <use xlink:href="#DejaVuSans-39" x="127.246094"/>
       <use xlink:href="#DejaVuSans-35" x="190.869141"/>
      </g>
     </g>
    </g>
    <g id="xtick_11">
     <g id="line2d_21">
      <path d="M 508.490813 173.062354 
L 508.490813 40.88 
" clip-path="url(#p6d0abc2fa7)" style="fill: none; stroke: #000000; stroke-width: 0.5; stroke-linecap: square"/>
     </g>
     <g id="line2d_22">
      <g>
       <use xlink:href="#ma576098a69" x="508.490813" y="173.062354" style="stroke: #000000; stroke-width: 0.8"/>
      </g>
     </g>
     <g id="text_11">
      <!-- 2000 -->
      <g transform="translate(501.444052 203.431128) rotate(-45) scale(0.1 -0.1)">
       <defs>
        <path id="DejaVuSans-32" d="M 1228 531 
L 3431 531 
L 3431 0 
L 469 0 
L 469 531 
Q 828 903 1448 1529 
Q 2069 2156 2228 2338 
Q 2531 2678 2651 2914 
Q 2772 3150 2772 3378 
Q 2772 3750 2511 3984 
Q 2250 4219 1831 4219 
Q 1534 4219 1204 4116 
Q 875 4013 500 3803 
L 500 4441 
Q 881 4594 1212 4672 
Q 1544 4750 1819 4750 
Q 2544 4750 2975 4387 
Q 3406 4025 3406 3419 
Q 3406 3131 3298 2873 
Q 3191 2616 2906 2266 
Q 2828 2175 2409 1742 
Q 1991 1309 1228 531 
z
" transform="scale(0.015625)"/>
       </defs>
       <use xlink:href="#DejaVuSans-32"/>
       <use xlink:href="#DejaVuSans-30" x="63.623047"/>
       <use xlink:href="#DejaVuSans-30" x="127.246094"/>
       <use xlink:href="#DejaVuSans-30" x="190.869141"/>
      </g>
     </g>
    </g>
    <g id="xtick_12">
     <g id="line2d_23">
      <path d="M 547.387943 173.062354 
L 547.387943 40.88 
" clip-path="url(#p6d0abc2fa7)" style="fill: none; stroke: #000000; stroke-width: 0.5; stroke-linecap: square"/>
     </g>
     <g id="line2d_24">
      <g>
       <use xlink:href="#ma576098a69" x="547.387943" y="173.062354" style="stroke: #000000; stroke-width: 0.8"/>
      </g>
     </g>
     <g id="text_12">
      <!-- 2005 -->
      <g transform="translate(540.341182 203.431128) rotate(-45) scale(0.1 -0.1)">
       <use xlink:href="#DejaVuSans-32"/>
       <use xlink:href="#DejaVuSans-30" x="63.623047"/>
       <use xlink:href="#DejaVuSans-30" x="127.246094"/>
       <use xlink:href="#DejaVuSans-35" x="190.869141"/>
      </g>
     </g>
    </g>
    <g id="xtick_13">
     <g id="line2d_25">
      <path d="M 586.285072 173.062354 
L 586.285072 40.88 
" clip-path="url(#p6d0abc2fa7)" style="fill: none; stroke: #000000; stroke-width: 0.5; stroke-linecap: square"/>
     </g>
     <g id="line2d_26">
      <g>
       <use xlink:href="#ma576098a69" x="586.285072" y="173.062354" style="stroke: #000000; stroke-width: 0.8"/>
      </g>
     </g>
     <g id="text_13">
      <!-- 2010 -->
      <g transform="translate(579.238311 203.431128) rotate(-45) scale(0.1 -0.1)">
       <use xlink:href="#DejaVuSans-32"/>
       <use xlink:href="#DejaVuSans-30" x="63.623047"/>
       <use xlink:href="#DejaVuSans-31" x="127.246094"/>
       <use xlink:href="#DejaVuSans-30" x="190.869141"/>
      </g>
     </g>
    </g>
    <g id="xtick_14">
     <g id="line2d_27">
      <path d="M 625.182201 173.062354 
L 625.182201 40.88 
" clip-path="url(#p6d0abc2fa7)" style="fill: none; stroke: #000000; stroke-width: 0.5; stroke-linecap: square"/>
     </g>
     <g id="line2d_28">
      <g>
       <use xlink:href="#ma576098a69" x="625.182201" y="173.062354" style="stroke: #000000; stroke-width: 0.8"/>
      </g>
     </g>
     <g id="text_14">
      <!-- 2015 -->
      <g transform="translate(618.13544 203.431128) rotate(-45) scale(0.1 -0.1)">
       <use xlink:href="#DejaVuSans-32"/>
       <use xlink:href="#DejaVuSans-30" x="63.623047"/>
       <use xlink:href="#DejaVuSans-31" x="127.246094"/>
       <use xlink:href="#DejaVuSans-35" x="190.869141"/>
      </g>
     </g>
    </g>
    <g id="xtick_15">
     <g id="line2d_29">
      <path d="M 664.07933 173.062354 
L 664.07933 40.88 
" clip-path="url(#p6d0abc2fa7)" style="fill: none; stroke: #000000; stroke-width: 0.5; stroke-linecap: square"/>
     </g>
     <g id="line2d_30">
      <g>
       <use xlink:href="#ma576098a69" x="664.07933" y="173.062354" style="stroke: #000000; stroke-width: 0.8"/>
      </g>
     </g>
     <g id="text_15">
      <!-- 2020 -->
      <g transform="translate(657.032569 203.431128) rotate(-45) scale(0.1 -0.1)">
       <use xlink:href="#DejaVuSans-32"/>
       <use xlink:href="#DejaVuSans-30" x="63.623047"/>
       <use xlink:href="#DejaVuSans-32" x="127.246094"/>
       <use xlink:href="#DejaVuSans-30" x="190.869141"/>
      </g>
     </g>
    </g>
   </g>
   <g id="matplotlib.axis_2">
    <g id="ytick_1">
     <g id="line2d_31">
      <path d="M 58.84 136.847198 
L 709.2 136.847198 
" clip-path="url(#p6d0abc2fa7)" style="fill: none; stroke: #000000; stroke-width: 0.5; stroke-linecap: square"/>
     </g>
     <g id="line2d_32">
      <defs>
       <path id="m6e44b88274" d="M 0 0 
L -3.5 0 
" style="stroke: #000000; stroke-width: 0.8"/>
      </defs>
      <g>
       <use xlink:href="#m6e44b88274" x="58.84" y="136.847198" style="stroke: #000000; stroke-width: 0.8"/>
      </g>
     </g>
     <g id="text_16">
      <!-- 0.0015 -->
      <g transform="translate(16.849375 140.646417) scale(0.1 -0.1)">
       <defs>
        <path id="DejaVuSans-2e" d="M 684 794 
L 1344 794 
L 1344 0 
L 684 0 
L 684 794 
z
" transform="scale(0.015625)"/>
       </defs>
       <use xlink:href="#DejaVuSans-30"/>
       <use xlink:href="#DejaVuSans-2e" x="63.623047"/>
       <use xlink:href="#DejaVuSans-30" x="95.410156"/>
       <use xlink:href="#DejaVuSans-30" x="159.033203"/>
       <use xlink:href="#DejaVuSans-31" x="222.65625"/>
       <use xlink:href="#DejaVuSans-35" x="286.279297"/>
      </g>
     </g>
    </g>
    <g id="ytick_2">
     <g id="line2d_33">
      <path d="M 58.84 99.513446 
L 709.2 99.513446 
" clip-path="url(#p6d0abc2fa7)" style="fill: none; stroke: #000000; stroke-width: 0.5; stroke-linecap: square"/>
     </g>
     <g id="line2d_34">
      <g>
       <use xlink:href="#m6e44b88274" x="58.84" y="99.513446" style="stroke: #000000; stroke-width: 0.8"/>
      </g>
     </g>
     <g id="text_17">
      <!-- 0.0020 -->
      <g transform="translate(16.849375 103.312665) scale(0.1 -0.1)">
       <use xlink:href="#DejaVuSans-30"/>
       <use xlink:href="#DejaVuSans-2e" x="63.623047"/>
       <use xlink:href="#DejaVuSans-30" x="95.410156"/>
       <use xlink:href="#DejaVuSans-30" x="159.033203"/>
       <use xlink:href="#DejaVuSans-32" x="222.65625"/>
       <use xlink:href="#DejaVuSans-30" x="286.279297"/>
      </g>
     </g>
    </g>
    <g id="ytick_3">
     <g id="line2d_35">
      <path d="M 58.84 62.179694 
L 709.2 62.179694 
" clip-path="url(#p6d0abc2fa7)" style="fill: none; stroke: #000000; stroke-width: 0.5; stroke-linecap: square"/>
     </g>
     <g id="line2d_36">
      <g>
       <use xlink:href="#m6e44b88274" x="58.84" y="62.179694" style="stroke: #000000; stroke-width: 0.8"/>
      </g>
     </g>
     <g id="text_18">
      <!-- 0.0025 -->
      <g transform="translate(16.849375 65.978912) scale(0.1 -0.1)">
       <use xlink:href="#DejaVuSans-30"/>
       <use xlink:href="#DejaVuSans-2e" x="63.623047"/>
       <use xlink:href="#DejaVuSans-30" x="95.410156"/>
       <use xlink:href="#DejaVuSans-30" x="159.033203"/>
       <use xlink:href="#DejaVuSans-32" x="222.65625"/>
       <use xlink:href="#DejaVuSans-35" x="286.279297"/>
      </g>
     </g>
    </g>
   </g>
   <g id="line2d_37">
    <path d="M 88.401818 91.445772 
L 96.181244 46.888289 
L 119.519522 64.066531 
L 127.298947 56.573284 
L 135.078373 81.894839 
L 142.857799 60.161704 
L 150.637225 66.509557 
L 158.416651 61.219888 
L 166.196077 99.983668 
L 173.975502 77.319196 
L 181.754928 80.916409 
L 189.534354 73.715272 
L 197.31378 81.541643 
L 205.093206 79.525972 
L 212.872632 92.762426 
L 220.652057 89.729595 
L 228.431483 82.506121 
L 236.210909 89.417405 
L 243.990335 76.521544 
L 251.769761 85.091644 
L 259.549187 91.478338 
L 267.328612 94.218437 
L 275.108038 97.881536 
L 282.887464 100.206558 
L 290.66689 96.915016 
L 298.446316 101.66797 
L 306.225742 105.211999 
L 314.005167 118.148231 
L 321.784593 117.430018 
L 329.564019 108.042102 
L 337.343445 113.068509 
L 345.122871 121.480232 
L 352.902297 114.211897 
L 360.681722 112.601275 
L 368.461148 115.392766 
L 376.240574 119.671354 
L 384.02 119.859153 
L 391.799426 119.102328 
L 399.578852 118.528509 
L 407.358278 120.533762 
L 415.137703 123.321277 
L 422.917129 124.607071 
L 430.696555 120.788829 
L 438.475981 111.327792 
L 446.255407 116.387295 
L 454.034833 112.76952 
L 461.814258 125.523193 
L 469.593684 136.310326 
L 477.37311 147.139942 
L 485.152536 132.05136 
L 492.931962 137.606117 
L 500.711388 119.710232 
L 508.490813 126.667809 
L 516.270239 129.846147 
L 524.049665 147.027012 
L 531.829091 138.698042 
L 539.608517 145.891207 
L 547.387943 147.003222 
L 555.167368 150.392158 
L 562.946794 142.378626 
L 570.72622 141.541797 
L 578.505646 139.171365 
L 586.285072 159.036559 
L 594.064498 147.520681 
L 601.843923 150.43781 
L 609.623349 156.51181 
L 617.402775 158.638506 
L 625.182201 150.040845 
L 632.961627 162.976885 
L 640.741053 166.831175 
L 648.520478 156.793873 
L 656.299904 153.572483 
L 664.07933 160.109949 
L 671.858756 167.054065 
L 679.638182 151.190789 
" clip-path="url(#p6d0abc2fa7)" style="fill: none; stroke: #1f77b4; stroke-width: 1.5; stroke-linecap: square"/>
    <defs>
     <path id="mbbb1b2197a" d="M 0 3 
C 0.795609 3 1.55874 2.683901 2.12132 2.12132 
C 2.683901 1.55874 3 0.795609 3 0 
C 3 -0.795609 2.683901 -1.55874 2.12132 -2.12132 
C 1.55874 -2.683901 0.795609 -3 0 -3 
C -0.795609 -3 -1.55874 -2.683901 -2.12132 -2.12132 
C -2.683901 -1.55874 -3 -0.795609 -3 0 
C -3 0.795609 -2.683901 1.55874 -2.12132 2.12132 
C -1.55874 2.683901 -0.795609 3 0 3 
z
" style="stroke: #1f77b4"/>
    </defs>
    <g clip-path="url(#p6d0abc2fa7)">
     <use xlink:href="#mbbb1b2197a" x="88.401818" y="91.445772" style="fill: #1f77b4; stroke: #1f77b4"/>
     <use xlink:href="#mbbb1b2197a" x="96.181244" y="46.888289" style="fill: #1f77b4; stroke: #1f77b4"/>
     <use xlink:href="#mbbb1b2197a" x="119.519522" y="64.066531" style="fill: #1f77b4; stroke: #1f77b4"/>
     <use xlink:href="#mbbb1b2197a" x="127.298947" y="56.573284" style="fill: #1f77b4; stroke: #1f77b4"/>
     <use xlink:href="#mbbb1b2197a" x="135.078373" y="81.894839" style="fill: #1f77b4; stroke: #1f77b4"/>
     <use xlink:href="#mbbb1b2197a" x="142.857799" y="60.161704" style="fill: #1f77b4; stroke: #1f77b4"/>
     <use xlink:href="#mbbb1b2197a" x="150.637225" y="66.509557" style="fill: #1f77b4; stroke: #1f77b4"/>
     <use xlink:href="#mbbb1b2197a" x="158.416651" y="61.219888" style="fill: #1f77b4; stroke: #1f77b4"/>
     <use xlink:href="#mbbb1b2197a" x="166.196077" y="99.983668" style="fill: #1f77b4; stroke: #1f77b4"/>
     <use xlink:href="#mbbb1b2197a" x="173.975502" y="77.319196" style="fill: #1f77b4; stroke: #1f77b4"/>
     <use xlink:href="#mbbb1b2197a" x="181.754928" y="80.916409" style="fill: #1f77b4; stroke: #1f77b4"/>
     <use xlink:href="#mbbb1b2197a" x="189.534354" y="73.715272" style="fill: #1f77b4; stroke: #1f77b4"/>
     <use xlink:href="#mbbb1b2197a" x="197.31378" y="81.541643" style="fill: #1f77b4; stroke: #1f77b4"/>
     <use xlink:href="#mbbb1b2197a" x="205.093206" y="79.525972" style="fill: #1f77b4; stroke: #1f77b4"/>
     <use xlink:href="#mbbb1b2197a" x="212.872632" y="92.762426" style="fill: #1f77b4; stroke: #1f77b4"/>
     <use xlink:href="#mbbb1b2197a" x="220.652057" y="89.729595" style="fill: #1f77b4; stroke: #1f77b4"/>
     <use xlink:href="#mbbb1b2197a" x="228.431483" y="82.506121" style="fill: #1f77b4; stroke: #1f77b4"/>
     <use xlink:href="#mbbb1b2197a" x="236.210909" y="89.417405" style="fill: #1f77b4; stroke: #1f77b4"/>
     <use xlink:href="#mbbb1b2197a" x="243.990335" y="76.521544" style="fill: #1f77b4; stroke: #1f77b4"/>
     <use xlink:href="#mbbb1b2197a" x="251.769761" y="85.091644" style="fill: #1f77b4; stroke: #1f77b4"/>
     <use xlink:href="#mbbb1b2197a" x="259.549187" y="91.478338" style="fill: #1f77b4; stroke: #1f77b4"/>
     <use xlink:href="#mbbb1b2197a" x="267.328612" y="94.218437" style="fill: #1f77b4; stroke: #1f77b4"/>
     <use xlink:href="#mbbb1b2197a" x="275.108038" y="97.881536" style="fill: #1f77b4; stroke: #1f77b4"/>
     <use xlink:href="#mbbb1b2197a" x="282.887464" y="100.206558" style="fill: #1f77b4; stroke: #1f77b4"/>
     <use xlink:href="#mbbb1b2197a" x="290.66689" y="96.915016" style="fill: #1f77b4; stroke: #1f77b4"/>
     <use xlink:href="#mbbb1b2197a" x="298.446316" y="101.66797" style="fill: #1f77b4; stroke: #1f77b4"/>
     <use xlink:href="#mbbb1b2197a" x="306.225742" y="105.211999" style="fill: #1f77b4; stroke: #1f77b4"/>
     <use xlink:href="#mbbb1b2197a" x="314.005167" y="118.148231" style="fill: #1f77b4; stroke: #1f77b4"/>
     <use xlink:href="#mbbb1b2197a" x="321.784593" y="117.430018" style="fill: #1f77b4; stroke: #1f77b4"/>
     <use xlink:href="#mbbb1b2197a" x="329.564019" y="108.042102" style="fill: #1f77b4; stroke: #1f77b4"/>
     <use xlink:href="#mbbb1b2197a" x="337.343445" y="113.068509" style="fill: #1f77b4; stroke: #1f77b4"/>
     <use xlink:href="#mbbb1b2197a" x="345.122871" y="121.480232" style="fill: #1f77b4; stroke: #1f77b4"/>
     <use xlink:href="#mbbb1b2197a" x="352.902297" y="114.211897" style="fill: #1f77b4; stroke: #1f77b4"/>
     <use xlink:href="#mbbb1b2197a" x="360.681722" y="112.601275" style="fill: #1f77b4; stroke: #1f77b4"/>
     <use xlink:href="#mbbb1b2197a" x="368.461148" y="115.392766" style="fill: #1f77b4; stroke: #1f77b4"/>
     <use xlink:href="#mbbb1b2197a" x="376.240574" y="119.671354" style="fill: #1f77b4; stroke: #1f77b4"/>
     <use xlink:href="#mbbb1b2197a" x="384.02" y="119.859153" style="fill: #1f77b4; stroke: #1f77b4"/>
     <use xlink:href="#mbbb1b2197a" x="391.799426" y="119.102328" style="fill: #1f77b4; stroke: #1f77b4"/>
     <use xlink:href="#mbbb1b2197a" x="399.578852" y="118.528509" style="fill: #1f77b4; stroke: #1f77b4"/>
     <use xlink:href="#mbbb1b2197a" x="407.358278" y="120.533762" style="fill: #1f77b4; stroke: #1f77b4"/>
     <use xlink:href="#mbbb1b2197a" x="415.137703" y="123.321277" style="fill: #1f77b4; stroke: #1f77b4"/>
     <use xlink:href="#mbbb1b2197a" x="422.917129" y="124.607071" style="fill: #1f77b4; stroke: #1f77b4"/>
     <use xlink:href="#mbbb1b2197a" x="430.696555" y="120.788829" style="fill: #1f77b4; stroke: #1f77b4"/>
     <use xlink:href="#mbbb1b2197a" x="438.475981" y="111.327792" style="fill: #1f77b4; stroke: #1f77b4"/>
     <use xlink:href="#mbbb1b2197a" x="446.255407" y="116.387295" style="fill: #1f77b4; stroke: #1f77b4"/>
     <use xlink:href="#mbbb1b2197a" x="454.034833" y="112.76952" style="fill: #1f77b4; stroke: #1f77b4"/>
     <use xlink:href="#mbbb1b2197a" x="461.814258" y="125.523193" style="fill: #1f77b4; stroke: #1f77b4"/>
     <use xlink:href="#mbbb1b2197a" x="469.593684" y="136.310326" style="fill: #1f77b4; stroke: #1f77b4"/>
     <use xlink:href="#mbbb1b2197a" x="477.37311" y="147.139942" style="fill: #1f77b4; stroke: #1f77b4"/>
     <use xlink:href="#mbbb1b2197a" x="485.152536" y="132.05136" style="fill: #1f77b4; stroke: #1f77b4"/>
     <use xlink:href="#mbbb1b2197a" x="492.931962" y="137.606117" style="fill: #1f77b4; stroke: #1f77b4"/>
     <use xlink:href="#mbbb1b2197a" x="500.711388" y="119.710232" style="fill: #1f77b4; stroke: #1f77b4"/>
     <use xlink:href="#mbbb1b2197a" x="508.490813" y="126.667809" style="fill: #1f77b4; stroke: #1f77b4"/>
     <use xlink:href="#mbbb1b2197a" x="516.270239" y="129.846147" style="fill: #1f77b4; stroke: #1f77b4"/>
     <use xlink:href="#mbbb1b2197a" x="524.049665" y="147.027012" style="fill: #1f77b4; stroke: #1f77b4"/>
     <use xlink:href="#mbbb1b2197a" x="531.829091" y="138.698042" style="fill: #1f77b4; stroke: #1f77b4"/>
     <use xlink:href="#mbbb1b2197a" x="539.608517" y="145.891207" style="fill: #1f77b4; stroke: #1f77b4"/>
     <use xlink:href="#mbbb1b2197a" x="547.387943" y="147.003222" style="fill: #1f77b4; stroke: #1f77b4"/>
     <use xlink:href="#mbbb1b2197a" x="555.167368" y="150.392158" style="fill: #1f77b4; stroke: #1f77b4"/>
     <use xlink:href="#mbbb1b2197a" x="562.946794" y="142.378626" style="fill: #1f77b4; stroke: #1f77b4"/>
     <use xlink:href="#mbbb1b2197a" x="570.72622" y="141.541797" style="fill: #1f77b4; stroke: #1f77b4"/>
     <use xlink:href="#mbbb1b2197a" x="578.505646" y="139.171365" style="fill: #1f77b4; stroke: #1f77b4"/>
     <use xlink:href="#mbbb1b2197a" x="586.285072" y="159.036559" style="fill: #1f77b4; stroke: #1f77b4"/>
     <use xlink:href="#mbbb1b2197a" x="594.064498" y="147.520681" style="fill: #1f77b4; stroke: #1f77b4"/>
     <use xlink:href="#mbbb1b2197a" x="601.843923" y="150.43781" style="fill: #1f77b4; stroke: #1f77b4"/>
     <use xlink:href="#mbbb1b2197a" x="609.623349" y="156.51181" style="fill: #1f77b4; stroke: #1f77b4"/>
     <use xlink:href="#mbbb1b2197a" x="617.402775" y="158.638506" style="fill: #1f77b4; stroke: #1f77b4"/>
     <use xlink:href="#mbbb1b2197a" x="625.182201" y="150.040845" style="fill: #1f77b4; stroke: #1f77b4"/>
     <use xlink:href="#mbbb1b2197a" x="632.961627" y="162.976885" style="fill: #1f77b4; stroke: #1f77b4"/>
     <use xlink:href="#mbbb1b2197a" x="640.741053" y="166.831175" style="fill: #1f77b4; stroke: #1f77b4"/>
     <use xlink:href="#mbbb1b2197a" x="648.520478" y="156.793873" style="fill: #1f77b4; stroke: #1f77b4"/>
     <use xlink:href="#mbbb1b2197a" x="656.299904" y="153.572483" style="fill: #1f77b4; stroke: #1f77b4"/>
     <use xlink:href="#mbbb1b2197a" x="664.07933" y="160.109949" style="fill: #1f77b4; stroke: #1f77b4"/>
     <use xlink:href="#mbbb1b2197a" x="671.858756" y="167.054065" style="fill: #1f77b4; stroke: #1f77b4"/>
     <use xlink:href="#mbbb1b2197a" x="679.638182" y="151.190789" style="fill: #1f77b4; stroke: #1f77b4"/>
    </g>
   </g>
   <g id="line2d_38">
    <path d="M 119.519522 67.073469 
L 125.131933 67.079718 
L 130.744344 67.286468 
L 137.479238 67.773823 
L 144.214132 68.494087 
L 150.949026 69.419389 
L 158.806402 70.723077 
L 167.78626 72.461496 
L 177.8886 74.670875 
L 189.113423 77.361386 
L 203.705693 81.099818 
L 258.707325 95.430616 
L 273.299595 98.884084 
L 286.769382 101.855947 
L 300.239169 104.605536 
L 313.708957 107.130408 
L 327.178744 109.438642 
L 341.771014 111.714763 
L 357.485766 113.940436 
L 376.567965 116.399654 
L 403.50754 119.610546 
L 439.426973 123.914287 
L 458.509172 126.428876 
L 475.346406 128.868253 
L 491.061158 131.367504 
L 506.77591 134.096261 
L 522.490662 137.049414 
L 540.450378 140.662614 
L 566.267471 146.128491 
L 589.839599 151.062399 
L 603.309386 153.663616 
L 614.534209 155.601731 
L 623.514068 156.942588 
L 631.371444 157.922295 
L 639.22882 158.684501 
L 645.963713 159.135747 
L 652.698607 159.373238 
L 659.433501 159.369331 
L 665.045912 159.160551 
L 670.658324 158.745861 
L 676.270735 158.106384 
L 679.638182 157.606669 
L 679.638182 157.606669 
" clip-path="url(#p6d0abc2fa7)" style="fill: none; stroke: #ff0000; stroke-width: 1.5; stroke-linecap: square"/>
   </g>
   <g id="patch_3">
    <path d="M 58.84 173.062354 
L 58.84 40.88 
" style="fill: none; stroke: #000000; stroke-width: 0.8; stroke-linejoin: miter; stroke-linecap: square"/>
   </g>
   <g id="patch_4">
    <path d="M 709.2 173.062354 
L 709.2 40.88 
" style="fill: none; stroke: #000000; stroke-width: 0.8; stroke-linejoin: miter; stroke-linecap: square"/>
   </g>
   <g id="patch_5">
    <path d="M 58.84 173.062354 
L 709.2 173.062354 
" style="fill: none; stroke: #000000; stroke-width: 0.8; stroke-linejoin: miter; stroke-linecap: square"/>
   </g>
   <g id="patch_6">
    <path d="M 58.84 40.88 
L 709.2 40.88 
" style="fill: none; stroke: #000000; stroke-width: 0.8; stroke-linejoin: miter; stroke-linecap: square"/>
   </g>
   <g id="text_19">
    <!-- G3 - Modal Adverb Rate from 1946 to 2022 -->
    <g transform="translate(254.527812 20.88) scale(0.12 -0.12)">
     <defs>
      <path id="DejaVuSans-47" d="M 3809 666 
L 3809 1919 
L 2778 1919 
L 2778 2438 
L 4434 2438 
L 4434 434 
Q 4069 175 3628 42 
Q 3188 -91 2688 -91 
Q 1594 -91 976 548 
Q 359 1188 359 2328 
Q 359 3472 976 4111 
Q 1594 4750 2688 4750 
Q 3144 4750 3555 4637 
Q 3966 4525 4313 4306 
L 4313 3634 
Q 3963 3931 3569 4081 
Q 3175 4231 2741 4231 
Q 1884 4231 1454 3753 
Q 1025 3275 1025 2328 
Q 1025 1384 1454 906 
Q 1884 428 2741 428 
Q 3075 428 3337 486 
Q 3600 544 3809 666 
z
" transform="scale(0.015625)"/>
      <path id="DejaVuSans-33" d="M 2597 2516 
Q 3050 2419 3304 2112 
Q 3559 1806 3559 1356 
Q 3559 666 3084 287 
Q 2609 -91 1734 -91 
Q 1441 -91 1130 -33 
Q 819 25 488 141 
L 488 750 
Q 750 597 1062 519 
Q 1375 441 1716 441 
Q 2309 441 2620 675 
Q 2931 909 2931 1356 
Q 2931 1769 2642 2001 
Q 2353 2234 1838 2234 
L 1294 2234 
L 1294 2753 
L 1863 2753 
Q 2328 2753 2575 2939 
Q 2822 3125 2822 3475 
Q 2822 3834 2567 4026 
Q 2313 4219 1838 4219 
Q 1578 4219 1281 4162 
Q 984 4106 628 3988 
L 628 4550 
Q 988 4650 1302 4700 
Q 1616 4750 1894 4750 
Q 2613 4750 3031 4423 
Q 3450 4097 3450 3541 
Q 3450 3153 3228 2886 
Q 3006 2619 2597 2516 
z
" transform="scale(0.015625)"/>
      <path id="DejaVuSans-20" transform="scale(0.015625)"/>
      <path id="DejaVuSans-2d" d="M 313 2009 
L 1997 2009 
L 1997 1497 
L 313 1497 
L 313 2009 
z
" transform="scale(0.015625)"/>
      <path id="DejaVuSans-4d" d="M 628 4666 
L 1569 4666 
L 2759 1491 
L 3956 4666 
L 4897 4666 
L 4897 0 
L 4281 0 
L 4281 4097 
L 3078 897 
L 2444 897 
L 1241 4097 
L 1241 0 
L 628 0 
L 628 4666 
z
" transform="scale(0.015625)"/>
      <path id="DejaVuSans-6f" d="M 1959 3097 
Q 1497 3097 1228 2736 
Q 959 2375 959 1747 
Q 959 1119 1226 758 
Q 1494 397 1959 397 
Q 2419 397 2687 759 
Q 2956 1122 2956 1747 
Q 2956 2369 2687 2733 
Q 2419 3097 1959 3097 
z
M 1959 3584 
Q 2709 3584 3137 3096 
Q 3566 2609 3566 1747 
Q 3566 888 3137 398 
Q 2709 -91 1959 -91 
Q 1206 -91 779 398 
Q 353 888 353 1747 
Q 353 2609 779 3096 
Q 1206 3584 1959 3584 
z
" transform="scale(0.015625)"/>
      <path id="DejaVuSans-64" d="M 2906 2969 
L 2906 4863 
L 3481 4863 
L 3481 0 
L 2906 0 
L 2906 525 
Q 2725 213 2448 61 
Q 2172 -91 1784 -91 
Q 1150 -91 751 415 
Q 353 922 353 1747 
Q 353 2572 751 3078 
Q 1150 3584 1784 3584 
Q 2172 3584 2448 3432 
Q 2725 3281 2906 2969 
z
M 947 1747 
Q 947 1113 1208 752 
Q 1469 391 1925 391 
Q 2381 391 2643 752 
Q 2906 1113 2906 1747 
Q 2906 2381 2643 2742 
Q 2381 3103 1925 3103 
Q 1469 3103 1208 2742 
Q 947 2381 947 1747 
z
" transform="scale(0.015625)"/>
      <path id="DejaVuSans-61" d="M 2194 1759 
Q 1497 1759 1228 1600 
Q 959 1441 959 1056 
Q 959 750 1161 570 
Q 1363 391 1709 391 
Q 2188 391 2477 730 
Q 2766 1069 2766 1631 
L 2766 1759 
L 2194 1759 
z
M 3341 1997 
L 3341 0 
L 2766 0 
L 2766 531 
Q 2569 213 2275 61 
Q 1981 -91 1556 -91 
Q 1019 -91 701 211 
Q 384 513 384 1019 
Q 384 1609 779 1909 
Q 1175 2209 1959 2209 
L 2766 2209 
L 2766 2266 
Q 2766 2663 2505 2880 
Q 2244 3097 1772 3097 
Q 1472 3097 1187 3025 
Q 903 2953 641 2809 
L 641 3341 
Q 956 3463 1253 3523 
Q 1550 3584 1831 3584 
Q 2591 3584 2966 3190 
Q 3341 2797 3341 1997 
z
" transform="scale(0.015625)"/>
      <path id="DejaVuSans-6c" d="M 603 4863 
L 1178 4863 
L 1178 0 
L 603 0 
L 603 4863 
z
" transform="scale(0.015625)"/>
      <path id="DejaVuSans-41" d="M 2188 4044 
L 1331 1722 
L 3047 1722 
L 2188 4044 
z
M 1831 4666 
L 2547 4666 
L 4325 0 
L 3669 0 
L 3244 1197 
L 1141 1197 
L 716 0 
L 50 0 
L 1831 4666 
z
" transform="scale(0.015625)"/>
      <path id="DejaVuSans-76" d="M 191 3500 
L 800 3500 
L 1894 563 
L 2988 3500 
L 3597 3500 
L 2284 0 
L 1503 0 
L 191 3500 
z
" transform="scale(0.015625)"/>
      <path id="DejaVuSans-65" d="M 3597 1894 
L 3597 1613 
L 953 1613 
Q 991 1019 1311 708 
Q 1631 397 2203 397 
Q 2534 397 2845 478 
Q 3156 559 3463 722 
L 3463 178 
Q 3153 47 2828 -22 
Q 2503 -91 2169 -91 
Q 1331 -91 842 396 
Q 353 884 353 1716 
Q 353 2575 817 3079 
Q 1281 3584 2069 3584 
Q 2775 3584 3186 3129 
Q 3597 2675 3597 1894 
z
M 3022 2063 
Q 3016 2534 2758 2815 
Q 2500 3097 2075 3097 
Q 1594 3097 1305 2825 
Q 1016 2553 972 2059 
L 3022 2063 
z
" transform="scale(0.015625)"/>
      <path id="DejaVuSans-72" d="M 2631 2963 
Q 2534 3019 2420 3045 
Q 2306 3072 2169 3072 
Q 1681 3072 1420 2755 
Q 1159 2438 1159 1844 
L 1159 0 
L 581 0 
L 581 3500 
L 1159 3500 
L 1159 2956 
Q 1341 3275 1631 3429 
Q 1922 3584 2338 3584 
Q 2397 3584 2469 3576 
Q 2541 3569 2628 3553 
L 2631 2963 
z
" transform="scale(0.015625)"/>
      <path id="DejaVuSans-62" d="M 3116 1747 
Q 3116 2381 2855 2742 
Q 2594 3103 2138 3103 
Q 1681 3103 1420 2742 
Q 1159 2381 1159 1747 
Q 1159 1113 1420 752 
Q 1681 391 2138 391 
Q 2594 391 2855 752 
Q 3116 1113 3116 1747 
z
M 1159 2969 
Q 1341 3281 1617 3432 
Q 1894 3584 2278 3584 
Q 2916 3584 3314 3078 
Q 3713 2572 3713 1747 
Q 3713 922 3314 415 
Q 2916 -91 2278 -91 
Q 1894 -91 1617 61 
Q 1341 213 1159 525 
L 1159 0 
L 581 0 
L 581 4863 
L 1159 4863 
L 1159 2969 
z
" transform="scale(0.015625)"/>
      <path id="DejaVuSans-52" d="M 2841 2188 
Q 3044 2119 3236 1894 
Q 3428 1669 3622 1275 
L 4263 0 
L 3584 0 
L 2988 1197 
Q 2756 1666 2539 1819 
Q 2322 1972 1947 1972 
L 1259 1972 
L 1259 0 
L 628 0 
L 628 4666 
L 2053 4666 
Q 2853 4666 3247 4331 
Q 3641 3997 3641 3322 
Q 3641 2881 3436 2590 
Q 3231 2300 2841 2188 
z
M 1259 4147 
L 1259 2491 
L 2053 2491 
Q 2509 2491 2742 2702 
Q 2975 2913 2975 3322 
Q 2975 3731 2742 3939 
Q 2509 4147 2053 4147 
L 1259 4147 
z
" transform="scale(0.015625)"/>
      <path id="DejaVuSans-74" d="M 1172 4494 
L 1172 3500 
L 2356 3500 
L 2356 3053 
L 1172 3053 
L 1172 1153 
Q 1172 725 1289 603 
Q 1406 481 1766 481 
L 2356 481 
L 2356 0 
L 1766 0 
Q 1100 0 847 248 
Q 594 497 594 1153 
L 594 3053 
L 172 3053 
L 172 3500 
L 594 3500 
L 594 4494 
L 1172 4494 
z
" transform="scale(0.015625)"/>
      <path id="DejaVuSans-66" d="M 2375 4863 
L 2375 4384 
L 1825 4384 
Q 1516 4384 1395 4259 
Q 1275 4134 1275 3809 
L 1275 3500 
L 2222 3500 
L 2222 3053 
L 1275 3053 
L 1275 0 
L 697 0 
L 697 3053 
L 147 3053 
L 147 3500 
L 697 3500 
L 697 3744 
Q 697 4328 969 4595 
Q 1241 4863 1831 4863 
L 2375 4863 
z
" transform="scale(0.015625)"/>
      <path id="DejaVuSans-6d" d="M 3328 2828 
Q 3544 3216 3844 3400 
Q 4144 3584 4550 3584 
Q 5097 3584 5394 3201 
Q 5691 2819 5691 2113 
L 5691 0 
L 5113 0 
L 5113 2094 
Q 5113 2597 4934 2840 
Q 4756 3084 4391 3084 
Q 3944 3084 3684 2787 
Q 3425 2491 3425 1978 
L 3425 0 
L 2847 0 
L 2847 2094 
Q 2847 2600 2669 2842 
Q 2491 3084 2119 3084 
Q 1678 3084 1418 2786 
Q 1159 2488 1159 1978 
L 1159 0 
L 581 0 
L 581 3500 
L 1159 3500 
L 1159 2956 
Q 1356 3278 1631 3431 
Q 1906 3584 2284 3584 
Q 2666 3584 2933 3390 
Q 3200 3197 3328 2828 
z
" transform="scale(0.015625)"/>
      <path id="DejaVuSans-34" d="M 2419 4116 
L 825 1625 
L 2419 1625 
L 2419 4116 
z
M 2253 4666 
L 3047 4666 
L 3047 1625 
L 3713 1625 
L 3713 1100 
L 3047 1100 
L 3047 0 
L 2419 0 
L 2419 1100 
L 313 1100 
L 313 1709 
L 2253 4666 
z
" transform="scale(0.015625)"/>
     </defs>
     <use xlink:href="#DejaVuSans-47"/>
     <use xlink:href="#DejaVuSans-33" x="77.490234"/>
     <use xlink:href="#DejaVuSans-20" x="141.113281"/>
     <use xlink:href="#DejaVuSans-2d" x="172.900391"/>
     <use xlink:href="#DejaVuSans-20" x="208.984375"/>
     <use xlink:href="#DejaVuSans-4d" x="240.771484"/>
     <use xlink:href="#DejaVuSans-6f" x="327.050781"/>
     <use xlink:href="#DejaVuSans-64" x="388.232422"/>
     <use xlink:href="#DejaVuSans-61" x="451.708984"/>
     <use xlink:href="#DejaVuSans-6c" x="512.988281"/>
     <use xlink:href="#DejaVuSans-20" x="540.771484"/>
     <use xlink:href="#DejaVuSans-41" x="572.558594"/>
     <use xlink:href="#DejaVuSans-64" x="639.216797"/>
     <use xlink:href="#DejaVuSans-76" x="702.693359"/>
     <use xlink:href="#DejaVuSans-65" x="761.873047"/>
     <use xlink:href="#DejaVuSans-72" x="823.396484"/>
     <use xlink:href="#DejaVuSans-62" x="864.509766"/>
     <use xlink:href="#DejaVuSans-20" x="927.986328"/>
     <use xlink:href="#DejaVuSans-52" x="959.773438"/>
     <use xlink:href="#DejaVuSans-61" x="1027.005859"/>
     <use xlink:href="#DejaVuSans-74" x="1088.285156"/>
     <use xlink:href="#DejaVuSans-65" x="1127.494141"/>
     <use xlink:href="#DejaVuSans-20" x="1189.017578"/>
     <use xlink:href="#DejaVuSans-66" x="1220.804688"/>
     <use xlink:href="#DejaVuSans-72" x="1256.009766"/>
     <use xlink:href="#DejaVuSans-6f" x="1294.873047"/>
     <use xlink:href="#DejaVuSans-6d" x="1356.054688"/>
     <use xlink:href="#DejaVuSans-20" x="1453.466797"/>
     <use xlink:href="#DejaVuSans-31" x="1485.253906"/>
     <use xlink:href="#DejaVuSans-39" x="1548.876953"/>
     <use xlink:href="#DejaVuSans-34" x="1612.5"/>
     <use xlink:href="#DejaVuSans-36" x="1676.123047"/>
     <use xlink:href="#DejaVuSans-20" x="1739.746094"/>
     <use xlink:href="#DejaVuSans-74" x="1771.533203"/>
     <use xlink:href="#DejaVuSans-6f" x="1810.742188"/>
     <use xlink:href="#DejaVuSans-20" x="1871.923828"/>
     <use xlink:href="#DejaVuSans-32" x="1903.710938"/>
     <use xlink:href="#DejaVuSans-30" x="1967.333984"/>
     <use xlink:href="#DejaVuSans-32" x="2030.957031"/>
     <use xlink:href="#DejaVuSans-32" x="2094.580078"/>
    </g>
   </g>
  </g>
 </g>
 <defs>
  <clipPath id="p6d0abc2fa7">
   <rect x="58.84" y="40.88" width="650.36" height="132.182354"/>
  </clipPath>
 </defs>
</svg>
