<?xml version="1.0" encoding="utf-8" standalone="no"?>
<!DOCTYPE svg PUBLIC "-//W3C//DTD SVG 1.1//EN"
  "http://www.w3.org/Graphics/SVG/1.1/DTD/svg11.dtd">
<svg xmlns:xlink="http://www.w3.org/1999/xlink" width="720pt" height="216pt" viewBox="0 0 720 216" xmlns="http://www.w3.org/2000/svg" version="1.1">
 <metadata>
  <rdf:RDF xmlns:dc="http://purl.org/dc/elements/1.1/" xmlns:cc="http://creativecommons.org/ns#" xmlns:rdf="http://www.w3.org/1999/02/22-rdf-syntax-ns#">
   <cc:Work>
    <dc:type rdf:resource="http://purl.org/dc/dcmitype/StillImage"/>
    <dc:date>2024-08-08T19:05:48.687673</dc:date>
    <dc:format>image/svg+xml</dc:format>
    <dc:creator>
     <cc:Agent>
      <dc:title>Matplotlib v3.7.1, https://matplotlib.org/</dc:title>
     </cc:Agent>
    </dc:creator>
   </cc:Work>
  </rdf:RDF>
 </metadata>
 <defs>
  <style type="text/css">*{stroke-linejoin: round; stroke-linecap: butt}</style>
 </defs>
 <g id="figure_1">
  <g id="patch_1">
   <path d="M 0 216 
L 720 216 
L 720 0 
L 0 0 
z
" style="fill: #ffffff"/>
  </g>
  <g id="axes_1">
   <g id="patch_2">
    <path d="M 46.24 173.062354 
L 709.2 173.062354 
L 709.2 40.88 
L 46.24 40.88 
z
" style="fill: #ffffff"/>
   </g>
   <g id="matplotlib.axis_1">
    <g id="xtick_1">
     <g id="line2d_1">
      <path d="M 108.09512 173.062354 
L 108.09512 40.88 
" clip-path="url(#pcbce44c07b)" style="fill: none; stroke: #000000; stroke-width: 0.5; stroke-linecap: square"/>
     </g>
     <g id="line2d_2">
      <defs>
       <path id="m3c79a67301" d="M 0 0 
L 0 3.5 
" style="stroke: #000000; stroke-width: 0.8"/>
      </defs>
      <g>
       <use xlink:href="#m3c79a67301" x="108.09512" y="173.062354" style="stroke: #000000; stroke-width: 0.8"/>
      </g>
     </g>
     <g id="text_1">
      <!-- 1950 -->
      <g transform="translate(101.048359 203.431128) rotate(-45) scale(0.1 -0.1)">
       <defs>
        <path id="DejaVuSans-31" d="M 794 531 
L 1825 531 
L 1825 4091 
L 703 3866 
L 703 4441 
L 1819 4666 
L 2450 4666 
L 2450 531 
L 3481 531 
L 3481 0 
L 794 0 
L 794 531 
z
" transform="scale(0.015625)"/>
        <path id="DejaVuSans-39" d="M 703 97 
L 703 672 
Q 941 559 1184 500 
Q 1428 441 1663 441 
Q 2288 441 2617 861 
Q 2947 1281 2994 2138 
Q 2813 1869 2534 1725 
Q 2256 1581 1919 1581 
Q 1219 1581 811 2004 
Q 403 2428 403 3163 
Q 403 3881 828 4315 
Q 1253 4750 1959 4750 
Q 2769 4750 3195 4129 
Q 3622 3509 3622 2328 
Q 3622 1225 3098 567 
Q 2575 -91 1691 -91 
Q 1453 -91 1209 -44 
Q 966 3 703 97 
z
M 1959 2075 
Q 2384 2075 2632 2365 
Q 2881 2656 2881 3163 
Q 2881 3666 2632 3958 
Q 2384 4250 1959 4250 
Q 1534 4250 1286 3958 
Q 1038 3666 1038 3163 
Q 1038 2656 1286 2365 
Q 1534 2075 1959 2075 
z
" transform="scale(0.015625)"/>
        <path id="DejaVuSans-35" d="M 691 4666 
L 3169 4666 
L 3169 4134 
L 1269 4134 
L 1269 2991 
Q 1406 3038 1543 3061 
Q 1681 3084 1819 3084 
Q 2600 3084 3056 2656 
Q 3513 2228 3513 1497 
Q 3513 744 3044 326 
Q 2575 -91 1722 -91 
Q 1428 -91 1123 -41 
Q 819 9 494 109 
L 494 744 
Q 775 591 1075 516 
Q 1375 441 1709 441 
Q 2250 441 2565 725 
Q 2881 1009 2881 1497 
Q 2881 1984 2565 2268 
Q 2250 2553 1709 2553 
Q 1456 2553 1204 2497 
Q 953 2441 691 2322 
L 691 4666 
z
" transform="scale(0.015625)"/>
        <path id="DejaVuSans-30" d="M 2034 4250 
Q 1547 4250 1301 3770 
Q 1056 3291 1056 2328 
Q 1056 1369 1301 889 
Q 1547 409 2034 409 
Q 2525 409 2770 889 
Q 3016 1369 3016 2328 
Q 3016 3291 2770 3770 
Q 2525 4250 2034 4250 
z
M 2034 4750 
Q 2819 4750 3233 4129 
Q 3647 3509 3647 2328 
Q 3647 1150 3233 529 
Q 2819 -91 2034 -91 
Q 1250 -91 836 529 
Q 422 1150 422 2328 
Q 422 3509 836 4129 
Q 1250 4750 2034 4750 
z
" transform="scale(0.015625)"/>
       </defs>
       <use xlink:href="#DejaVuSans-31"/>
       <use xlink:href="#DejaVuSans-39" x="63.623047"/>
       <use xlink:href="#DejaVuSans-35" x="127.246094"/>
       <use xlink:href="#DejaVuSans-30" x="190.869141"/>
      </g>
     </g>
    </g>
    <g id="xtick_2">
     <g id="line2d_3">
      <path d="M 147.745837 173.062354 
L 147.745837 40.88 
" clip-path="url(#pcbce44c07b)" style="fill: none; stroke: #000000; stroke-width: 0.5; stroke-linecap: square"/>
     </g>
     <g id="line2d_4">
      <g>
       <use xlink:href="#m3c79a67301" x="147.745837" y="173.062354" style="stroke: #000000; stroke-width: 0.8"/>
      </g>
     </g>
     <g id="text_2">
      <!-- 1955 -->
      <g transform="translate(140.699076 203.431128) rotate(-45) scale(0.1 -0.1)">
       <use xlink:href="#DejaVuSans-31"/>
       <use xlink:href="#DejaVuSans-39" x="63.623047"/>
       <use xlink:href="#DejaVuSans-35" x="127.246094"/>
       <use xlink:href="#DejaVuSans-35" x="190.869141"/>
      </g>
     </g>
    </g>
    <g id="xtick_3">
     <g id="line2d_5">
      <path d="M 187.396555 173.062354 
L 187.396555 40.88 
" clip-path="url(#pcbce44c07b)" style="fill: none; stroke: #000000; stroke-width: 0.5; stroke-linecap: square"/>
     </g>
     <g id="line2d_6">
      <g>
       <use xlink:href="#m3c79a67301" x="187.396555" y="173.062354" style="stroke: #000000; stroke-width: 0.8"/>
      </g>
     </g>
     <g id="text_3">
      <!-- 1960 -->
      <g transform="translate(180.349794 203.431128) rotate(-45) scale(0.1 -0.1)">
       <defs>
        <path id="DejaVuSans-36" d="M 2113 2584 
Q 1688 2584 1439 2293 
Q 1191 2003 1191 1497 
Q 1191 994 1439 701 
Q 1688 409 2113 409 
Q 2538 409 2786 701 
Q 3034 994 3034 1497 
Q 3034 2003 2786 2293 
Q 2538 2584 2113 2584 
z
M 3366 4563 
L 3366 3988 
Q 3128 4100 2886 4159 
Q 2644 4219 2406 4219 
Q 1781 4219 1451 3797 
Q 1122 3375 1075 2522 
Q 1259 2794 1537 2939 
Q 1816 3084 2150 3084 
Q 2853 3084 3261 2657 
Q 3669 2231 3669 1497 
Q 3669 778 3244 343 
Q 2819 -91 2113 -91 
Q 1303 -91 875 529 
Q 447 1150 447 2328 
Q 447 3434 972 4092 
Q 1497 4750 2381 4750 
Q 2619 4750 2861 4703 
Q 3103 4656 3366 4563 
z
" transform="scale(0.015625)"/>
       </defs>
       <use xlink:href="#DejaVuSans-31"/>
       <use xlink:href="#DejaVuSans-39" x="63.623047"/>
       <use xlink:href="#DejaVuSans-36" x="127.246094"/>
       <use xlink:href="#DejaVuSans-30" x="190.869141"/>
      </g>
     </g>
    </g>
    <g id="xtick_4">
     <g id="line2d_7">
      <path d="M 227.047273 173.062354 
L 227.047273 40.88 
" clip-path="url(#pcbce44c07b)" style="fill: none; stroke: #000000; stroke-width: 0.5; stroke-linecap: square"/>
     </g>
     <g id="line2d_8">
      <g>
       <use xlink:href="#m3c79a67301" x="227.047273" y="173.062354" style="stroke: #000000; stroke-width: 0.8"/>
      </g>
     </g>
     <g id="text_4">
      <!-- 1965 -->
      <g transform="translate(220.000512 203.431128) rotate(-45) scale(0.1 -0.1)">
       <use xlink:href="#DejaVuSans-31"/>
       <use xlink:href="#DejaVuSans-39" x="63.623047"/>
       <use xlink:href="#DejaVuSans-36" x="127.246094"/>
       <use xlink:href="#DejaVuSans-35" x="190.869141"/>
      </g>
     </g>
    </g>
    <g id="xtick_5">
     <g id="line2d_9">
      <path d="M 266.69799 173.062354 
L 266.69799 40.88 
" clip-path="url(#pcbce44c07b)" style="fill: none; stroke: #000000; stroke-width: 0.5; stroke-linecap: square"/>
     </g>
     <g id="line2d_10">
      <g>
       <use xlink:href="#m3c79a67301" x="266.69799" y="173.062354" style="stroke: #000000; stroke-width: 0.8"/>
      </g>
     </g>
     <g id="text_5">
      <!-- 1970 -->
      <g transform="translate(259.651229 203.431128) rotate(-45) scale(0.1 -0.1)">
       <defs>
        <path id="DejaVuSans-37" d="M 525 4666 
L 3525 4666 
L 3525 4397 
L 1831 0 
L 1172 0 
L 2766 4134 
L 525 4134 
L 525 4666 
z
" transform="scale(0.015625)"/>
       </defs>
       <use xlink:href="#DejaVuSans-31"/>
       <use xlink:href="#DejaVuSans-39" x="63.623047"/>
       <use xlink:href="#DejaVuSans-37" x="127.246094"/>
       <use xlink:href="#DejaVuSans-30" x="190.869141"/>
      </g>
     </g>
    </g>
    <g id="xtick_6">
     <g id="line2d_11">
      <path d="M 306.348708 173.062354 
L 306.348708 40.88 
" clip-path="url(#pcbce44c07b)" style="fill: none; stroke: #000000; stroke-width: 0.5; stroke-linecap: square"/>
     </g>
     <g id="line2d_12">
      <g>
       <use xlink:href="#m3c79a67301" x="306.348708" y="173.062354" style="stroke: #000000; stroke-width: 0.8"/>
      </g>
     </g>
     <g id="text_6">
      <!-- 1975 -->
      <g transform="translate(299.301947 203.431128) rotate(-45) scale(0.1 -0.1)">
       <use xlink:href="#DejaVuSans-31"/>
       <use xlink:href="#DejaVuSans-39" x="63.623047"/>
       <use xlink:href="#DejaVuSans-37" x="127.246094"/>
       <use xlink:href="#DejaVuSans-35" x="190.869141"/>
      </g>
     </g>
    </g>
    <g id="xtick_7">
     <g id="line2d_13">
      <path d="M 345.999426 173.062354 
L 345.999426 40.88 
" clip-path="url(#pcbce44c07b)" style="fill: none; stroke: #000000; stroke-width: 0.5; stroke-linecap: square"/>
     </g>
     <g id="line2d_14">
      <g>
       <use xlink:href="#m3c79a67301" x="345.999426" y="173.062354" style="stroke: #000000; stroke-width: 0.8"/>
      </g>
     </g>
     <g id="text_7">
      <!-- 1980 -->
      <g transform="translate(338.952665 203.431128) rotate(-45) scale(0.1 -0.1)">
       <defs>
        <path id="DejaVuSans-38" d="M 2034 2216 
Q 1584 2216 1326 1975 
Q 1069 1734 1069 1313 
Q 1069 891 1326 650 
Q 1584 409 2034 409 
Q 2484 409 2743 651 
Q 3003 894 3003 1313 
Q 3003 1734 2745 1975 
Q 2488 2216 2034 2216 
z
M 1403 2484 
Q 997 2584 770 2862 
Q 544 3141 544 3541 
Q 544 4100 942 4425 
Q 1341 4750 2034 4750 
Q 2731 4750 3128 4425 
Q 3525 4100 3525 3541 
Q 3525 3141 3298 2862 
Q 3072 2584 2669 2484 
Q 3125 2378 3379 2068 
Q 3634 1759 3634 1313 
Q 3634 634 3220 271 
Q 2806 -91 2034 -91 
Q 1263 -91 848 271 
Q 434 634 434 1313 
Q 434 1759 690 2068 
Q 947 2378 1403 2484 
z
M 1172 3481 
Q 1172 3119 1398 2916 
Q 1625 2713 2034 2713 
Q 2441 2713 2670 2916 
Q 2900 3119 2900 3481 
Q 2900 3844 2670 4047 
Q 2441 4250 2034 4250 
Q 1625 4250 1398 4047 
Q 1172 3844 1172 3481 
z
" transform="scale(0.015625)"/>
       </defs>
       <use xlink:href="#DejaVuSans-31"/>
       <use xlink:href="#DejaVuSans-39" x="63.623047"/>
       <use xlink:href="#DejaVuSans-38" x="127.246094"/>
       <use xlink:href="#DejaVuSans-30" x="190.869141"/>
      </g>
     </g>
    </g>
    <g id="xtick_8">
     <g id="line2d_15">
      <path d="M 385.650144 173.062354 
L 385.650144 40.88 
" clip-path="url(#pcbce44c07b)" style="fill: none; stroke: #000000; stroke-width: 0.5; stroke-linecap: square"/>
     </g>
     <g id="line2d_16">
      <g>
       <use xlink:href="#m3c79a67301" x="385.650144" y="173.062354" style="stroke: #000000; stroke-width: 0.8"/>
      </g>
     </g>
     <g id="text_8">
      <!-- 1985 -->
      <g transform="translate(378.603383 203.431128) rotate(-45) scale(0.1 -0.1)">
       <use xlink:href="#DejaVuSans-31"/>
       <use xlink:href="#DejaVuSans-39" x="63.623047"/>
       <use xlink:href="#DejaVuSans-38" x="127.246094"/>
       <use xlink:href="#DejaVuSans-35" x="190.869141"/>
      </g>
     </g>
    </g>
    <g id="xtick_9">
     <g id="line2d_17">
      <path d="M 425.300861 173.062354 
L 425.300861 40.88 
" clip-path="url(#pcbce44c07b)" style="fill: none; stroke: #000000; stroke-width: 0.5; stroke-linecap: square"/>
     </g>
     <g id="line2d_18">
      <g>
       <use xlink:href="#m3c79a67301" x="425.300861" y="173.062354" style="stroke: #000000; stroke-width: 0.8"/>
      </g>
     </g>
     <g id="text_9">
      <!-- 1990 -->
      <g transform="translate(418.2541 203.431128) rotate(-45) scale(0.1 -0.1)">
       <use xlink:href="#DejaVuSans-31"/>
       <use xlink:href="#DejaVuSans-39" x="63.623047"/>
       <use xlink:href="#DejaVuSans-39" x="127.246094"/>
       <use xlink:href="#DejaVuSans-30" x="190.869141"/>
      </g>
     </g>
    </g>
    <g id="xtick_10">
     <g id="line2d_19">
      <path d="M 464.951579 173.062354 
L 464.951579 40.88 
" clip-path="url(#pcbce44c07b)" style="fill: none; stroke: #000000; stroke-width: 0.5; stroke-linecap: square"/>
     </g>
     <g id="line2d_20">
      <g>
       <use xlink:href="#m3c79a67301" x="464.951579" y="173.062354" style="stroke: #000000; stroke-width: 0.8"/>
      </g>
     </g>
     <g id="text_10">
      <!-- 1995 -->
      <g transform="translate(457.904818 203.431128) rotate(-45) scale(0.1 -0.1)">
       <use xlink:href="#DejaVuSans-31"/>
       <use xlink:href="#DejaVuSans-39" x="63.623047"/>
       <use xlink:href="#DejaVuSans-39" x="127.246094"/>
       <use xlink:href="#DejaVuSans-35" x="190.869141"/>
      </g>
     </g>
    </g>
    <g id="xtick_11">
     <g id="line2d_21">
      <path d="M 504.602297 173.062354 
L 504.602297 40.88 
" clip-path="url(#pcbce44c07b)" style="fill: none; stroke: #000000; stroke-width: 0.5; stroke-linecap: square"/>
     </g>
     <g id="line2d_22">
      <g>
       <use xlink:href="#m3c79a67301" x="504.602297" y="173.062354" style="stroke: #000000; stroke-width: 0.8"/>
      </g>
     </g>
     <g id="text_11">
      <!-- 2000 -->
      <g transform="translate(497.555536 203.431128) rotate(-45) scale(0.1 -0.1)">
       <defs>
        <path id="DejaVuSans-32" d="M 1228 531 
L 3431 531 
L 3431 0 
L 469 0 
L 469 531 
Q 828 903 1448 1529 
Q 2069 2156 2228 2338 
Q 2531 2678 2651 2914 
Q 2772 3150 2772 3378 
Q 2772 3750 2511 3984 
Q 2250 4219 1831 4219 
Q 1534 4219 1204 4116 
Q 875 4013 500 3803 
L 500 4441 
Q 881 4594 1212 4672 
Q 1544 4750 1819 4750 
Q 2544 4750 2975 4387 
Q 3406 4025 3406 3419 
Q 3406 3131 3298 2873 
Q 3191 2616 2906 2266 
Q 2828 2175 2409 1742 
Q 1991 1309 1228 531 
z
" transform="scale(0.015625)"/>
       </defs>
       <use xlink:href="#DejaVuSans-32"/>
       <use xlink:href="#DejaVuSans-30" x="63.623047"/>
       <use xlink:href="#DejaVuSans-30" x="127.246094"/>
       <use xlink:href="#DejaVuSans-30" x="190.869141"/>
      </g>
     </g>
    </g>
    <g id="xtick_12">
     <g id="line2d_23">
      <path d="M 544.253014 173.062354 
L 544.253014 40.88 
" clip-path="url(#pcbce44c07b)" style="fill: none; stroke: #000000; stroke-width: 0.5; stroke-linecap: square"/>
     </g>
     <g id="line2d_24">
      <g>
       <use xlink:href="#m3c79a67301" x="544.253014" y="173.062354" style="stroke: #000000; stroke-width: 0.8"/>
      </g>
     </g>
     <g id="text_12">
      <!-- 2005 -->
      <g transform="translate(537.206253 203.431128) rotate(-45) scale(0.1 -0.1)">
       <use xlink:href="#DejaVuSans-32"/>
       <use xlink:href="#DejaVuSans-30" x="63.623047"/>
       <use xlink:href="#DejaVuSans-30" x="127.246094"/>
       <use xlink:href="#DejaVuSans-35" x="190.869141"/>
      </g>
     </g>
    </g>
    <g id="xtick_13">
     <g id="line2d_25">
      <path d="M 583.903732 173.062354 
L 583.903732 40.88 
" clip-path="url(#pcbce44c07b)" style="fill: none; stroke: #000000; stroke-width: 0.5; stroke-linecap: square"/>
     </g>
     <g id="line2d_26">
      <g>
       <use xlink:href="#m3c79a67301" x="583.903732" y="173.062354" style="stroke: #000000; stroke-width: 0.8"/>
      </g>
     </g>
     <g id="text_13">
      <!-- 2010 -->
      <g transform="translate(576.856971 203.431128) rotate(-45) scale(0.1 -0.1)">
       <use xlink:href="#DejaVuSans-32"/>
       <use xlink:href="#DejaVuSans-30" x="63.623047"/>
       <use xlink:href="#DejaVuSans-31" x="127.246094"/>
       <use xlink:href="#DejaVuSans-30" x="190.869141"/>
      </g>
     </g>
    </g>
    <g id="xtick_14">
     <g id="line2d_27">
      <path d="M 623.55445 173.062354 
L 623.55445 40.88 
" clip-path="url(#pcbce44c07b)" style="fill: none; stroke: #000000; stroke-width: 0.5; stroke-linecap: square"/>
     </g>
     <g id="line2d_28">
      <g>
       <use xlink:href="#m3c79a67301" x="623.55445" y="173.062354" style="stroke: #000000; stroke-width: 0.8"/>
      </g>
     </g>
     <g id="text_14">
      <!-- 2015 -->
      <g transform="translate(616.507689 203.431128) rotate(-45) scale(0.1 -0.1)">
       <use xlink:href="#DejaVuSans-32"/>
       <use xlink:href="#DejaVuSans-30" x="63.623047"/>
       <use xlink:href="#DejaVuSans-31" x="127.246094"/>
       <use xlink:href="#DejaVuSans-35" x="190.869141"/>
      </g>
     </g>
    </g>
    <g id="xtick_15">
     <g id="line2d_29">
      <path d="M 663.205167 173.062354 
L 663.205167 40.88 
" clip-path="url(#pcbce44c07b)" style="fill: none; stroke: #000000; stroke-width: 0.5; stroke-linecap: square"/>
     </g>
     <g id="line2d_30">
      <g>
       <use xlink:href="#m3c79a67301" x="663.205167" y="173.062354" style="stroke: #000000; stroke-width: 0.8"/>
      </g>
     </g>
     <g id="text_15">
      <!-- 2020 -->
      <g transform="translate(656.158406 203.431128) rotate(-45) scale(0.1 -0.1)">
       <use xlink:href="#DejaVuSans-32"/>
       <use xlink:href="#DejaVuSans-30" x="63.623047"/>
       <use xlink:href="#DejaVuSans-32" x="127.246094"/>
       <use xlink:href="#DejaVuSans-30" x="190.869141"/>
      </g>
     </g>
    </g>
   </g>
   <g id="matplotlib.axis_2">
    <g id="ytick_1">
     <g id="line2d_31">
      <path d="M 46.24 157.350757 
L 709.2 157.350757 
" clip-path="url(#pcbce44c07b)" style="fill: none; stroke: #000000; stroke-width: 0.5; stroke-linecap: square"/>
     </g>
     <g id="line2d_32">
      <defs>
       <path id="m56b76cdaef" d="M 0 0 
L -3.5 0 
" style="stroke: #000000; stroke-width: 0.8"/>
      </defs>
      <g>
       <use xlink:href="#m56b76cdaef" x="46.24" y="157.350757" style="stroke: #000000; stroke-width: 0.8"/>
      </g>
     </g>
     <g id="text_16">
      <!-- 0.005 -->
      <g transform="translate(10.611875 161.149976) scale(0.1 -0.1)">
       <defs>
        <path id="DejaVuSans-2e" d="M 684 794 
L 1344 794 
L 1344 0 
L 684 0 
L 684 794 
z
" transform="scale(0.015625)"/>
       </defs>
       <use xlink:href="#DejaVuSans-30"/>
       <use xlink:href="#DejaVuSans-2e" x="63.623047"/>
       <use xlink:href="#DejaVuSans-30" x="95.410156"/>
       <use xlink:href="#DejaVuSans-30" x="159.033203"/>
       <use xlink:href="#DejaVuSans-35" x="222.65625"/>
      </g>
     </g>
    </g>
    <g id="ytick_2">
     <g id="line2d_33">
      <path d="M 46.24 135.317648 
L 709.2 135.317648 
" clip-path="url(#pcbce44c07b)" style="fill: none; stroke: #000000; stroke-width: 0.5; stroke-linecap: square"/>
     </g>
     <g id="line2d_34">
      <g>
       <use xlink:href="#m56b76cdaef" x="46.24" y="135.317648" style="stroke: #000000; stroke-width: 0.8"/>
      </g>
     </g>
     <g id="text_17">
      <!-- 0.006 -->
      <g transform="translate(10.611875 139.116867) scale(0.1 -0.1)">
       <use xlink:href="#DejaVuSans-30"/>
       <use xlink:href="#DejaVuSans-2e" x="63.623047"/>
       <use xlink:href="#DejaVuSans-30" x="95.410156"/>
       <use xlink:href="#DejaVuSans-30" x="159.033203"/>
       <use xlink:href="#DejaVuSans-36" x="222.65625"/>
      </g>
     </g>
    </g>
    <g id="ytick_3">
     <g id="line2d_35">
      <path d="M 46.24 113.284539 
L 709.2 113.284539 
" clip-path="url(#pcbce44c07b)" style="fill: none; stroke: #000000; stroke-width: 0.5; stroke-linecap: square"/>
     </g>
     <g id="line2d_36">
      <g>
       <use xlink:href="#m56b76cdaef" x="46.24" y="113.284539" style="stroke: #000000; stroke-width: 0.8"/>
      </g>
     </g>
     <g id="text_18">
      <!-- 0.007 -->
      <g transform="translate(10.611875 117.083757) scale(0.1 -0.1)">
       <use xlink:href="#DejaVuSans-30"/>
       <use xlink:href="#DejaVuSans-2e" x="63.623047"/>
       <use xlink:href="#DejaVuSans-30" x="95.410156"/>
       <use xlink:href="#DejaVuSans-30" x="159.033203"/>
       <use xlink:href="#DejaVuSans-37" x="222.65625"/>
      </g>
     </g>
    </g>
    <g id="ytick_4">
     <g id="line2d_37">
      <path d="M 46.24 91.251429 
L 709.2 91.251429 
" clip-path="url(#pcbce44c07b)" style="fill: none; stroke: #000000; stroke-width: 0.5; stroke-linecap: square"/>
     </g>
     <g id="line2d_38">
      <g>
       <use xlink:href="#m56b76cdaef" x="46.24" y="91.251429" style="stroke: #000000; stroke-width: 0.8"/>
      </g>
     </g>
     <g id="text_19">
      <!-- 0.008 -->
      <g transform="translate(10.611875 95.050648) scale(0.1 -0.1)">
       <use xlink:href="#DejaVuSans-30"/>
       <use xlink:href="#DejaVuSans-2e" x="63.623047"/>
       <use xlink:href="#DejaVuSans-30" x="95.410156"/>
       <use xlink:href="#DejaVuSans-30" x="159.033203"/>
       <use xlink:href="#DejaVuSans-38" x="222.65625"/>
      </g>
     </g>
    </g>
    <g id="ytick_5">
     <g id="line2d_39">
      <path d="M 46.24 69.21832 
L 709.2 69.21832 
" clip-path="url(#pcbce44c07b)" style="fill: none; stroke: #000000; stroke-width: 0.5; stroke-linecap: square"/>
     </g>
     <g id="line2d_40">
      <g>
       <use xlink:href="#m56b76cdaef" x="46.24" y="69.21832" style="stroke: #000000; stroke-width: 0.8"/>
      </g>
     </g>
     <g id="text_20">
      <!-- 0.009 -->
      <g transform="translate(10.611875 73.017538) scale(0.1 -0.1)">
       <use xlink:href="#DejaVuSans-30"/>
       <use xlink:href="#DejaVuSans-2e" x="63.623047"/>
       <use xlink:href="#DejaVuSans-30" x="95.410156"/>
       <use xlink:href="#DejaVuSans-30" x="159.033203"/>
       <use xlink:href="#DejaVuSans-39" x="222.65625"/>
      </g>
     </g>
    </g>
    <g id="ytick_6">
     <g id="line2d_41">
      <path d="M 46.24 47.18521 
L 709.2 47.18521 
" clip-path="url(#pcbce44c07b)" style="fill: none; stroke: #000000; stroke-width: 0.5; stroke-linecap: square"/>
     </g>
     <g id="line2d_42">
      <g>
       <use xlink:href="#m56b76cdaef" x="46.24" y="47.18521" style="stroke: #000000; stroke-width: 0.8"/>
      </g>
     </g>
     <g id="text_21">
      <!-- 0.010 -->
      <g transform="translate(10.611875 50.984429) scale(0.1 -0.1)">
       <use xlink:href="#DejaVuSans-30"/>
       <use xlink:href="#DejaVuSans-2e" x="63.623047"/>
       <use xlink:href="#DejaVuSans-30" x="95.410156"/>
       <use xlink:href="#DejaVuSans-31" x="159.033203"/>
       <use xlink:href="#DejaVuSans-30" x="222.65625"/>
      </g>
     </g>
    </g>
   </g>
   <g id="line2d_43">
    <path d="M 76.374545 46.888289 
L 84.304689 50.792117 
L 108.09512 74.893115 
L 116.025263 67.323194 
L 123.955407 79.713327 
L 131.88555 64.079603 
L 139.815694 81.406323 
L 147.745837 88.873669 
L 155.675981 78.068793 
L 163.606124 71.823399 
L 171.536268 85.183969 
L 179.466411 100.050496 
L 187.396555 66.385184 
L 195.326699 72.730306 
L 203.256842 92.606034 
L 211.186986 89.105925 
L 219.117129 92.200536 
L 227.047273 93.962234 
L 234.977416 94.845595 
L 242.90756 77.442683 
L 250.837703 89.702345 
L 258.767847 93.743509 
L 266.69799 112.408532 
L 274.628134 112.704978 
L 282.558278 106.319354 
L 290.488421 114.019878 
L 298.418565 123.544902 
L 306.348708 122.801307 
L 314.278852 129.592412 
L 322.208995 130.453353 
L 330.139139 135.342542 
L 338.069282 139.160186 
L 345.999426 138.894135 
L 353.929569 140.814406 
L 361.859713 134.176934 
L 369.789856 135.88957 
L 377.72 136.254937 
L 385.650144 140.391038 
L 393.580287 132.920447 
L 401.510431 143.595764 
L 409.440574 155.091519 
L 417.370718 145.508 
L 425.300861 150.306115 
L 433.231005 154.349215 
L 441.161148 155.684049 
L 449.091292 152.757406 
L 457.021435 158.815243 
L 464.951579 157.125548 
L 472.881722 167.054065 
L 480.811866 161.802645 
L 488.74201 157.81433 
L 496.672153 151.167765 
L 504.602297 164.04891 
L 512.53244 148.468617 
L 520.462584 161.805602 
L 528.392727 156.091184 
L 536.322871 157.613851 
L 544.253014 151.483328 
L 552.183158 156.4156 
L 560.113301 153.321034 
L 568.043445 152.645679 
L 575.973589 143.310612 
L 583.903732 163.63806 
L 591.833876 161.025039 
L 599.764019 146.353631 
L 607.694163 160.215741 
L 615.624306 148.555058 
L 623.55445 146.107804 
L 631.484593 148.188582 
L 639.414737 153.357609 
L 647.34488 148.941154 
L 655.275024 142.386868 
L 663.205167 155.653992 
L 671.135311 156.452065 
L 679.065455 138.071051 
" clip-path="url(#pcbce44c07b)" style="fill: none; stroke: #1f77b4; stroke-width: 1.5; stroke-linecap: square"/>
    <defs>
     <path id="m59828f0a53" d="M 0 3 
C 0.795609 3 1.55874 2.683901 2.12132 2.12132 
C 2.683901 1.55874 3 0.795609 3 0 
C 3 -0.795609 2.683901 -1.55874 2.12132 -2.12132 
C 1.55874 -2.683901 0.795609 -3 0 -3 
C -0.795609 -3 -1.55874 -2.683901 -2.12132 -2.12132 
C -2.683901 -1.55874 -3 -0.795609 -3 0 
C -3 0.795609 -2.683901 1.55874 -2.12132 2.12132 
C -1.55874 2.683901 -0.795609 3 0 3 
z
" style="stroke: #1f77b4"/>
    </defs>
    <g clip-path="url(#pcbce44c07b)">
     <use xlink:href="#m59828f0a53" x="76.374545" y="46.888289" style="fill: #1f77b4; stroke: #1f77b4"/>
     <use xlink:href="#m59828f0a53" x="84.304689" y="50.792117" style="fill: #1f77b4; stroke: #1f77b4"/>
     <use xlink:href="#m59828f0a53" x="108.09512" y="74.893115" style="fill: #1f77b4; stroke: #1f77b4"/>
     <use xlink:href="#m59828f0a53" x="116.025263" y="67.323194" style="fill: #1f77b4; stroke: #1f77b4"/>
     <use xlink:href="#m59828f0a53" x="123.955407" y="79.713327" style="fill: #1f77b4; stroke: #1f77b4"/>
     <use xlink:href="#m59828f0a53" x="131.88555" y="64.079603" style="fill: #1f77b4; stroke: #1f77b4"/>
     <use xlink:href="#m59828f0a53" x="139.815694" y="81.406323" style="fill: #1f77b4; stroke: #1f77b4"/>
     <use xlink:href="#m59828f0a53" x="147.745837" y="88.873669" style="fill: #1f77b4; stroke: #1f77b4"/>
     <use xlink:href="#m59828f0a53" x="155.675981" y="78.068793" style="fill: #1f77b4; stroke: #1f77b4"/>
     <use xlink:href="#m59828f0a53" x="163.606124" y="71.823399" style="fill: #1f77b4; stroke: #1f77b4"/>
     <use xlink:href="#m59828f0a53" x="171.536268" y="85.183969" style="fill: #1f77b4; stroke: #1f77b4"/>
     <use xlink:href="#m59828f0a53" x="179.466411" y="100.050496" style="fill: #1f77b4; stroke: #1f77b4"/>
     <use xlink:href="#m59828f0a53" x="187.396555" y="66.385184" style="fill: #1f77b4; stroke: #1f77b4"/>
     <use xlink:href="#m59828f0a53" x="195.326699" y="72.730306" style="fill: #1f77b4; stroke: #1f77b4"/>
     <use xlink:href="#m59828f0a53" x="203.256842" y="92.606034" style="fill: #1f77b4; stroke: #1f77b4"/>
     <use xlink:href="#m59828f0a53" x="211.186986" y="89.105925" style="fill: #1f77b4; stroke: #1f77b4"/>
     <use xlink:href="#m59828f0a53" x="219.117129" y="92.200536" style="fill: #1f77b4; stroke: #1f77b4"/>
     <use xlink:href="#m59828f0a53" x="227.047273" y="93.962234" style="fill: #1f77b4; stroke: #1f77b4"/>
     <use xlink:href="#m59828f0a53" x="234.977416" y="94.845595" style="fill: #1f77b4; stroke: #1f77b4"/>
     <use xlink:href="#m59828f0a53" x="242.90756" y="77.442683" style="fill: #1f77b4; stroke: #1f77b4"/>
     <use xlink:href="#m59828f0a53" x="250.837703" y="89.702345" style="fill: #1f77b4; stroke: #1f77b4"/>
     <use xlink:href="#m59828f0a53" x="258.767847" y="93.743509" style="fill: #1f77b4; stroke: #1f77b4"/>
     <use xlink:href="#m59828f0a53" x="266.69799" y="112.408532" style="fill: #1f77b4; stroke: #1f77b4"/>
     <use xlink:href="#m59828f0a53" x="274.628134" y="112.704978" style="fill: #1f77b4; stroke: #1f77b4"/>
     <use xlink:href="#m59828f0a53" x="282.558278" y="106.319354" style="fill: #1f77b4; stroke: #1f77b4"/>
     <use xlink:href="#m59828f0a53" x="290.488421" y="114.019878" style="fill: #1f77b4; stroke: #1f77b4"/>
     <use xlink:href="#m59828f0a53" x="298.418565" y="123.544902" style="fill: #1f77b4; stroke: #1f77b4"/>
     <use xlink:href="#m59828f0a53" x="306.348708" y="122.801307" style="fill: #1f77b4; stroke: #1f77b4"/>
     <use xlink:href="#m59828f0a53" x="314.278852" y="129.592412" style="fill: #1f77b4; stroke: #1f77b4"/>
     <use xlink:href="#m59828f0a53" x="322.208995" y="130.453353" style="fill: #1f77b4; stroke: #1f77b4"/>
     <use xlink:href="#m59828f0a53" x="330.139139" y="135.342542" style="fill: #1f77b4; stroke: #1f77b4"/>
     <use xlink:href="#m59828f0a53" x="338.069282" y="139.160186" style="fill: #1f77b4; stroke: #1f77b4"/>
     <use xlink:href="#m59828f0a53" x="345.999426" y="138.894135" style="fill: #1f77b4; stroke: #1f77b4"/>
     <use xlink:href="#m59828f0a53" x="353.929569" y="140.814406" style="fill: #1f77b4; stroke: #1f77b4"/>
     <use xlink:href="#m59828f0a53" x="361.859713" y="134.176934" style="fill: #1f77b4; stroke: #1f77b4"/>
     <use xlink:href="#m59828f0a53" x="369.789856" y="135.88957" style="fill: #1f77b4; stroke: #1f77b4"/>
     <use xlink:href="#m59828f0a53" x="377.72" y="136.254937" style="fill: #1f77b4; stroke: #1f77b4"/>
     <use xlink:href="#m59828f0a53" x="385.650144" y="140.391038" style="fill: #1f77b4; stroke: #1f77b4"/>
     <use xlink:href="#m59828f0a53" x="393.580287" y="132.920447" style="fill: #1f77b4; stroke: #1f77b4"/>
     <use xlink:href="#m59828f0a53" x="401.510431" y="143.595764" style="fill: #1f77b4; stroke: #1f77b4"/>
     <use xlink:href="#m59828f0a53" x="409.440574" y="155.091519" style="fill: #1f77b4; stroke: #1f77b4"/>
     <use xlink:href="#m59828f0a53" x="417.370718" y="145.508" style="fill: #1f77b4; stroke: #1f77b4"/>
     <use xlink:href="#m59828f0a53" x="425.300861" y="150.306115" style="fill: #1f77b4; stroke: #1f77b4"/>
     <use xlink:href="#m59828f0a53" x="433.231005" y="154.349215" style="fill: #1f77b4; stroke: #1f77b4"/>
     <use xlink:href="#m59828f0a53" x="441.161148" y="155.684049" style="fill: #1f77b4; stroke: #1f77b4"/>
     <use xlink:href="#m59828f0a53" x="449.091292" y="152.757406" style="fill: #1f77b4; stroke: #1f77b4"/>
     <use xlink:href="#m59828f0a53" x="457.021435" y="158.815243" style="fill: #1f77b4; stroke: #1f77b4"/>
     <use xlink:href="#m59828f0a53" x="464.951579" y="157.125548" style="fill: #1f77b4; stroke: #1f77b4"/>
     <use xlink:href="#m59828f0a53" x="472.881722" y="167.054065" style="fill: #1f77b4; stroke: #1f77b4"/>
     <use xlink:href="#m59828f0a53" x="480.811866" y="161.802645" style="fill: #1f77b4; stroke: #1f77b4"/>
     <use xlink:href="#m59828f0a53" x="488.74201" y="157.81433" style="fill: #1f77b4; stroke: #1f77b4"/>
     <use xlink:href="#m59828f0a53" x="496.672153" y="151.167765" style="fill: #1f77b4; stroke: #1f77b4"/>
     <use xlink:href="#m59828f0a53" x="504.602297" y="164.04891" style="fill: #1f77b4; stroke: #1f77b4"/>
     <use xlink:href="#m59828f0a53" x="512.53244" y="148.468617" style="fill: #1f77b4; stroke: #1f77b4"/>
     <use xlink:href="#m59828f0a53" x="520.462584" y="161.805602" style="fill: #1f77b4; stroke: #1f77b4"/>
     <use xlink:href="#m59828f0a53" x="528.392727" y="156.091184" style="fill: #1f77b4; stroke: #1f77b4"/>
     <use xlink:href="#m59828f0a53" x="536.322871" y="157.613851" style="fill: #1f77b4; stroke: #1f77b4"/>
     <use xlink:href="#m59828f0a53" x="544.253014" y="151.483328" style="fill: #1f77b4; stroke: #1f77b4"/>
     <use xlink:href="#m59828f0a53" x="552.183158" y="156.4156" style="fill: #1f77b4; stroke: #1f77b4"/>
     <use xlink:href="#m59828f0a53" x="560.113301" y="153.321034" style="fill: #1f77b4; stroke: #1f77b4"/>
     <use xlink:href="#m59828f0a53" x="568.043445" y="152.645679" style="fill: #1f77b4; stroke: #1f77b4"/>
     <use xlink:href="#m59828f0a53" x="575.973589" y="143.310612" style="fill: #1f77b4; stroke: #1f77b4"/>
     <use xlink:href="#m59828f0a53" x="583.903732" y="163.63806" style="fill: #1f77b4; stroke: #1f77b4"/>
     <use xlink:href="#m59828f0a53" x="591.833876" y="161.025039" style="fill: #1f77b4; stroke: #1f77b4"/>
     <use xlink:href="#m59828f0a53" x="599.764019" y="146.353631" style="fill: #1f77b4; stroke: #1f77b4"/>
     <use xlink:href="#m59828f0a53" x="607.694163" y="160.215741" style="fill: #1f77b4; stroke: #1f77b4"/>
     <use xlink:href="#m59828f0a53" x="615.624306" y="148.555058" style="fill: #1f77b4; stroke: #1f77b4"/>
     <use xlink:href="#m59828f0a53" x="623.55445" y="146.107804" style="fill: #1f77b4; stroke: #1f77b4"/>
     <use xlink:href="#m59828f0a53" x="631.484593" y="148.188582" style="fill: #1f77b4; stroke: #1f77b4"/>
     <use xlink:href="#m59828f0a53" x="639.414737" y="153.357609" style="fill: #1f77b4; stroke: #1f77b4"/>
     <use xlink:href="#m59828f0a53" x="647.34488" y="148.941154" style="fill: #1f77b4; stroke: #1f77b4"/>
     <use xlink:href="#m59828f0a53" x="655.275024" y="142.386868" style="fill: #1f77b4; stroke: #1f77b4"/>
     <use xlink:href="#m59828f0a53" x="663.205167" y="155.653992" style="fill: #1f77b4; stroke: #1f77b4"/>
     <use xlink:href="#m59828f0a53" x="671.135311" y="156.452065" style="fill: #1f77b4; stroke: #1f77b4"/>
     <use xlink:href="#m59828f0a53" x="679.065455" y="138.071051" style="fill: #1f77b4; stroke: #1f77b4"/>
    </g>
   </g>
   <g id="line2d_44">
    <path d="M 108.09512 64.932363 
L 118.393182 67.815734 
L 130.979702 71.087825 
L 146.99891 74.997231 
L 203.066137 88.450386 
L 220.229574 92.914012 
L 236.248782 97.30853 
L 252.26799 101.92494 
L 269.431427 107.094206 
L 290.027551 113.534549 
L 356.39284 134.492894 
L 371.267819 138.841196 
L 383.854339 142.309685 
L 396.44086 145.542565 
L 407.883151 148.245394 
L 418.181213 150.463214 
L 428.479275 152.459736 
L 438.777338 154.219705 
L 447.931171 155.575119 
L 457.085004 156.726166 
L 466.238837 157.667421 
L 475.39267 158.395532 
L 484.546503 158.909226 
L 493.700336 159.209666 
L 502.854169 159.300577 
L 512.008002 159.188392 
L 522.306064 158.831098 
L 532.604126 158.246609 
L 544.046417 157.358999 
L 556.632938 156.139725 
L 571.507917 154.459106 
L 612.700165 149.63981 
L 622.998227 148.733771 
L 632.15206 148.15505 
L 640.161664 147.875627 
L 647.027039 147.841159 
L 653.892414 148.028498 
L 659.613559 148.377568 
L 665.334705 148.923188 
L 671.055851 149.686162 
L 676.776996 150.688228 
L 679.065455 151.161015 
L 679.065455 151.161015 
" clip-path="url(#pcbce44c07b)" style="fill: none; stroke: #ff0000; stroke-width: 1.5; stroke-linecap: square"/>
   </g>
   <g id="patch_3">
    <path d="M 46.24 173.062354 
L 46.24 40.88 
" style="fill: none; stroke: #000000; stroke-width: 0.8; stroke-linejoin: miter; stroke-linecap: square"/>
   </g>
   <g id="patch_4">
    <path d="M 709.2 173.062354 
L 709.2 40.88 
" style="fill: none; stroke: #000000; stroke-width: 0.8; stroke-linejoin: miter; stroke-linecap: square"/>
   </g>
   <g id="patch_5">
    <path d="M 46.24 173.062354 
L 709.2 173.062354 
" style="fill: none; stroke: #000000; stroke-width: 0.8; stroke-linejoin: miter; stroke-linecap: square"/>
   </g>
   <g id="patch_6">
    <path d="M 46.24 40.88 
L 709.2 40.88 
" style="fill: none; stroke: #000000; stroke-width: 0.8; stroke-linejoin: miter; stroke-linecap: square"/>
   </g>
   <g id="text_22">
    <!-- G5 - Negation Rate from 1946 to 2022 -->
    <g transform="translate(262.303438 20.88) scale(0.12 -0.12)">
     <defs>
      <path id="DejaVuSans-47" d="M 3809 666 
L 3809 1919 
L 2778 1919 
L 2778 2438 
L 4434 2438 
L 4434 434 
Q 4069 175 3628 42 
Q 3188 -91 2688 -91 
Q 1594 -91 976 548 
Q 359 1188 359 2328 
Q 359 3472 976 4111 
Q 1594 4750 2688 4750 
Q 3144 4750 3555 4637 
Q 3966 4525 4313 4306 
L 4313 3634 
Q 3963 3931 3569 4081 
Q 3175 4231 2741 4231 
Q 1884 4231 1454 3753 
Q 1025 3275 1025 2328 
Q 1025 1384 1454 906 
Q 1884 428 2741 428 
Q 3075 428 3337 486 
Q 3600 544 3809 666 
z
" transform="scale(0.015625)"/>
      <path id="DejaVuSans-20" transform="scale(0.015625)"/>
      <path id="DejaVuSans-2d" d="M 313 2009 
L 1997 2009 
L 1997 1497 
L 313 1497 
L 313 2009 
z
" transform="scale(0.015625)"/>
      <path id="DejaVuSans-4e" d="M 628 4666 
L 1478 4666 
L 3547 763 
L 3547 4666 
L 4159 4666 
L 4159 0 
L 3309 0 
L 1241 3903 
L 1241 0 
L 628 0 
L 628 4666 
z
" transform="scale(0.015625)"/>
      <path id="DejaVuSans-65" d="M 3597 1894 
L 3597 1613 
L 953 1613 
Q 991 1019 1311 708 
Q 1631 397 2203 397 
Q 2534 397 2845 478 
Q 3156 559 3463 722 
L 3463 178 
Q 3153 47 2828 -22 
Q 2503 -91 2169 -91 
Q 1331 -91 842 396 
Q 353 884 353 1716 
Q 353 2575 817 3079 
Q 1281 3584 2069 3584 
Q 2775 3584 3186 3129 
Q 3597 2675 3597 1894 
z
M 3022 2063 
Q 3016 2534 2758 2815 
Q 2500 3097 2075 3097 
Q 1594 3097 1305 2825 
Q 1016 2553 972 2059 
L 3022 2063 
z
" transform="scale(0.015625)"/>
      <path id="DejaVuSans-67" d="M 2906 1791 
Q 2906 2416 2648 2759 
Q 2391 3103 1925 3103 
Q 1463 3103 1205 2759 
Q 947 2416 947 1791 
Q 947 1169 1205 825 
Q 1463 481 1925 481 
Q 2391 481 2648 825 
Q 2906 1169 2906 1791 
z
M 3481 434 
Q 3481 -459 3084 -895 
Q 2688 -1331 1869 -1331 
Q 1566 -1331 1297 -1286 
Q 1028 -1241 775 -1147 
L 775 -588 
Q 1028 -725 1275 -790 
Q 1522 -856 1778 -856 
Q 2344 -856 2625 -561 
Q 2906 -266 2906 331 
L 2906 616 
Q 2728 306 2450 153 
Q 2172 0 1784 0 
Q 1141 0 747 490 
Q 353 981 353 1791 
Q 353 2603 747 3093 
Q 1141 3584 1784 3584 
Q 2172 3584 2450 3431 
Q 2728 3278 2906 2969 
L 2906 3500 
L 3481 3500 
L 3481 434 
z
" transform="scale(0.015625)"/>
      <path id="DejaVuSans-61" d="M 2194 1759 
Q 1497 1759 1228 1600 
Q 959 1441 959 1056 
Q 959 750 1161 570 
Q 1363 391 1709 391 
Q 2188 391 2477 730 
Q 2766 1069 2766 1631 
L 2766 1759 
L 2194 1759 
z
M 3341 1997 
L 3341 0 
L 2766 0 
L 2766 531 
Q 2569 213 2275 61 
Q 1981 -91 1556 -91 
Q 1019 -91 701 211 
Q 384 513 384 1019 
Q 384 1609 779 1909 
Q 1175 2209 1959 2209 
L 2766 2209 
L 2766 2266 
Q 2766 2663 2505 2880 
Q 2244 3097 1772 3097 
Q 1472 3097 1187 3025 
Q 903 2953 641 2809 
L 641 3341 
Q 956 3463 1253 3523 
Q 1550 3584 1831 3584 
Q 2591 3584 2966 3190 
Q 3341 2797 3341 1997 
z
" transform="scale(0.015625)"/>
      <path id="DejaVuSans-74" d="M 1172 4494 
L 1172 3500 
L 2356 3500 
L 2356 3053 
L 1172 3053 
L 1172 1153 
Q 1172 725 1289 603 
Q 1406 481 1766 481 
L 2356 481 
L 2356 0 
L 1766 0 
Q 1100 0 847 248 
Q 594 497 594 1153 
L 594 3053 
L 172 3053 
L 172 3500 
L 594 3500 
L 594 4494 
L 1172 4494 
z
" transform="scale(0.015625)"/>
      <path id="DejaVuSans-69" d="M 603 3500 
L 1178 3500 
L 1178 0 
L 603 0 
L 603 3500 
z
M 603 4863 
L 1178 4863 
L 1178 4134 
L 603 4134 
L 603 4863 
z
" transform="scale(0.015625)"/>
      <path id="DejaVuSans-6f" d="M 1959 3097 
Q 1497 3097 1228 2736 
Q 959 2375 959 1747 
Q 959 1119 1226 758 
Q 1494 397 1959 397 
Q 2419 397 2687 759 
Q 2956 1122 2956 1747 
Q 2956 2369 2687 2733 
Q 2419 3097 1959 3097 
z
M 1959 3584 
Q 2709 3584 3137 3096 
Q 3566 2609 3566 1747 
Q 3566 888 3137 398 
Q 2709 -91 1959 -91 
Q 1206 -91 779 398 
Q 353 888 353 1747 
Q 353 2609 779 3096 
Q 1206 3584 1959 3584 
z
" transform="scale(0.015625)"/>
      <path id="DejaVuSans-6e" d="M 3513 2113 
L 3513 0 
L 2938 0 
L 2938 2094 
Q 2938 2591 2744 2837 
Q 2550 3084 2163 3084 
Q 1697 3084 1428 2787 
Q 1159 2491 1159 1978 
L 1159 0 
L 581 0 
L 581 3500 
L 1159 3500 
L 1159 2956 
Q 1366 3272 1645 3428 
Q 1925 3584 2291 3584 
Q 2894 3584 3203 3211 
Q 3513 2838 3513 2113 
z
" transform="scale(0.015625)"/>
      <path id="DejaVuSans-52" d="M 2841 2188 
Q 3044 2119 3236 1894 
Q 3428 1669 3622 1275 
L 4263 0 
L 3584 0 
L 2988 1197 
Q 2756 1666 2539 1819 
Q 2322 1972 1947 1972 
L 1259 1972 
L 1259 0 
L 628 0 
L 628 4666 
L 2053 4666 
Q 2853 4666 3247 4331 
Q 3641 3997 3641 3322 
Q 3641 2881 3436 2590 
Q 3231 2300 2841 2188 
z
M 1259 4147 
L 1259 2491 
L 2053 2491 
Q 2509 2491 2742 2702 
Q 2975 2913 2975 3322 
Q 2975 3731 2742 3939 
Q 2509 4147 2053 4147 
L 1259 4147 
z
" transform="scale(0.015625)"/>
      <path id="DejaVuSans-66" d="M 2375 4863 
L 2375 4384 
L 1825 4384 
Q 1516 4384 1395 4259 
Q 1275 4134 1275 3809 
L 1275 3500 
L 2222 3500 
L 2222 3053 
L 1275 3053 
L 1275 0 
L 697 0 
L 697 3053 
L 147 3053 
L 147 3500 
L 697 3500 
L 697 3744 
Q 697 4328 969 4595 
Q 1241 4863 1831 4863 
L 2375 4863 
z
" transform="scale(0.015625)"/>
      <path id="DejaVuSans-72" d="M 2631 2963 
Q 2534 3019 2420 3045 
Q 2306 3072 2169 3072 
Q 1681 3072 1420 2755 
Q 1159 2438 1159 1844 
L 1159 0 
L 581 0 
L 581 3500 
L 1159 3500 
L 1159 2956 
Q 1341 3275 1631 3429 
Q 1922 3584 2338 3584 
Q 2397 3584 2469 3576 
Q 2541 3569 2628 3553 
L 2631 2963 
z
" transform="scale(0.015625)"/>
      <path id="DejaVuSans-6d" d="M 3328 2828 
Q 3544 3216 3844 3400 
Q 4144 3584 4550 3584 
Q 5097 3584 5394 3201 
Q 5691 2819 5691 2113 
L 5691 0 
L 5113 0 
L 5113 2094 
Q 5113 2597 4934 2840 
Q 4756 3084 4391 3084 
Q 3944 3084 3684 2787 
Q 3425 2491 3425 1978 
L 3425 0 
L 2847 0 
L 2847 2094 
Q 2847 2600 2669 2842 
Q 2491 3084 2119 3084 
Q 1678 3084 1418 2786 
Q 1159 2488 1159 1978 
L 1159 0 
L 581 0 
L 581 3500 
L 1159 3500 
L 1159 2956 
Q 1356 3278 1631 3431 
Q 1906 3584 2284 3584 
Q 2666 3584 2933 3390 
Q 3200 3197 3328 2828 
z
" transform="scale(0.015625)"/>
      <path id="DejaVuSans-34" d="M 2419 4116 
L 825 1625 
L 2419 1625 
L 2419 4116 
z
M 2253 4666 
L 3047 4666 
L 3047 1625 
L 3713 1625 
L 3713 1100 
L 3047 1100 
L 3047 0 
L 2419 0 
L 2419 1100 
L 313 1100 
L 313 1709 
L 2253 4666 
z
" transform="scale(0.015625)"/>
     </defs>
     <use xlink:href="#DejaVuSans-47"/>
     <use xlink:href="#DejaVuSans-35" x="77.490234"/>
     <use xlink:href="#DejaVuSans-20" x="141.113281"/>
     <use xlink:href="#DejaVuSans-2d" x="172.900391"/>
     <use xlink:href="#DejaVuSans-20" x="208.984375"/>
     <use xlink:href="#DejaVuSans-4e" x="240.771484"/>
     <use xlink:href="#DejaVuSans-65" x="315.576172"/>
     <use xlink:href="#DejaVuSans-67" x="377.099609"/>
     <use xlink:href="#DejaVuSans-61" x="440.576172"/>
     <use xlink:href="#DejaVuSans-74" x="501.855469"/>
     <use xlink:href="#DejaVuSans-69" x="541.064453"/>
     <use xlink:href="#DejaVuSans-6f" x="568.847656"/>
     <use xlink:href="#DejaVuSans-6e" x="630.029297"/>
     <use xlink:href="#DejaVuSans-20" x="693.408203"/>
     <use xlink:href="#DejaVuSans-52" x="725.195312"/>
     <use xlink:href="#DejaVuSans-61" x="792.427734"/>
     <use xlink:href="#DejaVuSans-74" x="853.707031"/>
     <use xlink:href="#DejaVuSans-65" x="892.916016"/>
     <use xlink:href="#DejaVuSans-20" x="954.439453"/>
     <use xlink:href="#DejaVuSans-66" x="986.226562"/>
     <use xlink:href="#DejaVuSans-72" x="1021.431641"/>
     <use xlink:href="#DejaVuSans-6f" x="1060.294922"/>
     <use xlink:href="#DejaVuSans-6d" x="1121.476562"/>
     <use xlink:href="#DejaVuSans-20" x="1218.888672"/>
     <use xlink:href="#DejaVuSans-31" x="1250.675781"/>
     <use xlink:href="#DejaVuSans-39" x="1314.298828"/>
     <use xlink:href="#DejaVuSans-34" x="1377.921875"/>
     <use xlink:href="#DejaVuSans-36" x="1441.544922"/>
     <use xlink:href="#DejaVuSans-20" x="1505.167969"/>
     <use xlink:href="#DejaVuSans-74" x="1536.955078"/>
     <use xlink:href="#DejaVuSans-6f" x="1576.164062"/>
     <use xlink:href="#DejaVuSans-20" x="1637.345703"/>
     <use xlink:href="#DejaVuSans-32" x="1669.132812"/>
     <use xlink:href="#DejaVuSans-30" x="1732.755859"/>
     <use xlink:href="#DejaVuSans-32" x="1796.378906"/>
     <use xlink:href="#DejaVuSans-32" x="1860.001953"/>
    </g>
   </g>
  </g>
 </g>
 <defs>
  <clipPath id="pcbce44c07b">
   <rect x="46.24" y="40.88" width="662.96" height="132.182354"/>
  </clipPath>
 </defs>
</svg>
