<?xml version="1.0" encoding="utf-8" standalone="no"?>
<!DOCTYPE svg PUBLIC "-//W3C//DTD SVG 1.1//EN"
  "http://www.w3.org/Graphics/SVG/1.1/DTD/svg11.dtd">
<svg xmlns:xlink="http://www.w3.org/1999/xlink" width="720pt" height="216pt" viewBox="0 0 720 216" xmlns="http://www.w3.org/2000/svg" version="1.1">
 <metadata>
  <rdf:RDF xmlns:dc="http://purl.org/dc/elements/1.1/" xmlns:cc="http://creativecommons.org/ns#" xmlns:rdf="http://www.w3.org/1999/02/22-rdf-syntax-ns#">
   <cc:Work>
    <dc:type rdf:resource="http://purl.org/dc/dcmitype/StillImage"/>
    <dc:date>2024-08-08T20:33:09.733260</dc:date>
    <dc:format>image/svg+xml</dc:format>
    <dc:creator>
     <cc:Agent>
      <dc:title>Matplotlib v3.7.1, https://matplotlib.org/</dc:title>
     </cc:Agent>
    </dc:creator>
   </cc:Work>
  </rdf:RDF>
 </metadata>
 <defs>
  <style type="text/css">*{stroke-linejoin: round; stroke-linecap: butt}</style>
 </defs>
 <g id="figure_1">
  <g id="patch_1">
   <path d="M 0 216 
L 720 216 
L 720 0 
L 0 0 
z
" style="fill: #ffffff"/>
  </g>
  <g id="axes_1">
   <g id="patch_2">
    <path d="M 30.49 173.062354 
L 709.2 173.062354 
L 709.2 40.88 
L 30.49 40.88 
z
" style="fill: #ffffff"/>
   </g>
   <g id="matplotlib.axis_1">
    <g id="xtick_1">
     <g id="line2d_1">
      <path d="M 93.814617 173.062354 
L 93.814617 40.88 
" clip-path="url(#pa0acb43279)" style="fill: none; stroke: #000000; stroke-width: 0.5; stroke-linecap: square"/>
     </g>
     <g id="line2d_2">
      <defs>
       <path id="m15e729062c" d="M 0 0 
L 0 3.5 
" style="stroke: #000000; stroke-width: 0.8"/>
      </defs>
      <g>
       <use xlink:href="#m15e729062c" x="93.814617" y="173.062354" style="stroke: #000000; stroke-width: 0.8"/>
      </g>
     </g>
     <g id="text_1">
      <!-- 1950 -->
      <g transform="translate(86.767856 203.431128) rotate(-45) scale(0.1 -0.1)">
       <defs>
        <path id="DejaVuSans-31" d="M 794 531 
L 1825 531 
L 1825 4091 
L 703 3866 
L 703 4441 
L 1819 4666 
L 2450 4666 
L 2450 531 
L 3481 531 
L 3481 0 
L 794 0 
L 794 531 
z
" transform="scale(0.015625)"/>
        <path id="DejaVuSans-39" d="M 703 97 
L 703 672 
Q 941 559 1184 500 
Q 1428 441 1663 441 
Q 2288 441 2617 861 
Q 2947 1281 2994 2138 
Q 2813 1869 2534 1725 
Q 2256 1581 1919 1581 
Q 1219 1581 811 2004 
Q 403 2428 403 3163 
Q 403 3881 828 4315 
Q 1253 4750 1959 4750 
Q 2769 4750 3195 4129 
Q 3622 3509 3622 2328 
Q 3622 1225 3098 567 
Q 2575 -91 1691 -91 
Q 1453 -91 1209 -44 
Q 966 3 703 97 
z
M 1959 2075 
Q 2384 2075 2632 2365 
Q 2881 2656 2881 3163 
Q 2881 3666 2632 3958 
Q 2384 4250 1959 4250 
Q 1534 4250 1286 3958 
Q 1038 3666 1038 3163 
Q 1038 2656 1286 2365 
Q 1534 2075 1959 2075 
z
" transform="scale(0.015625)"/>
        <path id="DejaVuSans-35" d="M 691 4666 
L 3169 4666 
L 3169 4134 
L 1269 4134 
L 1269 2991 
Q 1406 3038 1543 3061 
Q 1681 3084 1819 3084 
Q 2600 3084 3056 2656 
Q 3513 2228 3513 1497 
Q 3513 744 3044 326 
Q 2575 -91 1722 -91 
Q 1428 -91 1123 -41 
Q 819 9 494 109 
L 494 744 
Q 775 591 1075 516 
Q 1375 441 1709 441 
Q 2250 441 2565 725 
Q 2881 1009 2881 1497 
Q 2881 1984 2565 2268 
Q 2250 2553 1709 2553 
Q 1456 2553 1204 2497 
Q 953 2441 691 2322 
L 691 4666 
z
" transform="scale(0.015625)"/>
        <path id="DejaVuSans-30" d="M 2034 4250 
Q 1547 4250 1301 3770 
Q 1056 3291 1056 2328 
Q 1056 1369 1301 889 
Q 1547 409 2034 409 
Q 2525 409 2770 889 
Q 3016 1369 3016 2328 
Q 3016 3291 2770 3770 
Q 2525 4250 2034 4250 
z
M 2034 4750 
Q 2819 4750 3233 4129 
Q 3647 3509 3647 2328 
Q 3647 1150 3233 529 
Q 2819 -91 2034 -91 
Q 1250 -91 836 529 
Q 422 1150 422 2328 
Q 422 3509 836 4129 
Q 1250 4750 2034 4750 
z
" transform="scale(0.015625)"/>
       </defs>
       <use xlink:href="#DejaVuSans-31"/>
       <use xlink:href="#DejaVuSans-39" x="63.623047"/>
       <use xlink:href="#DejaVuSans-35" x="127.246094"/>
       <use xlink:href="#DejaVuSans-30" x="190.869141"/>
      </g>
     </g>
    </g>
    <g id="xtick_2">
     <g id="line2d_3">
      <path d="M 134.407321 173.062354 
L 134.407321 40.88 
" clip-path="url(#pa0acb43279)" style="fill: none; stroke: #000000; stroke-width: 0.5; stroke-linecap: square"/>
     </g>
     <g id="line2d_4">
      <g>
       <use xlink:href="#m15e729062c" x="134.407321" y="173.062354" style="stroke: #000000; stroke-width: 0.8"/>
      </g>
     </g>
     <g id="text_2">
      <!-- 1955 -->
      <g transform="translate(127.36056 203.431128) rotate(-45) scale(0.1 -0.1)">
       <use xlink:href="#DejaVuSans-31"/>
       <use xlink:href="#DejaVuSans-39" x="63.623047"/>
       <use xlink:href="#DejaVuSans-35" x="127.246094"/>
       <use xlink:href="#DejaVuSans-35" x="190.869141"/>
      </g>
     </g>
    </g>
    <g id="xtick_3">
     <g id="line2d_5">
      <path d="M 175.000024 173.062354 
L 175.000024 40.88 
" clip-path="url(#pa0acb43279)" style="fill: none; stroke: #000000; stroke-width: 0.5; stroke-linecap: square"/>
     </g>
     <g id="line2d_6">
      <g>
       <use xlink:href="#m15e729062c" x="175.000024" y="173.062354" style="stroke: #000000; stroke-width: 0.8"/>
      </g>
     </g>
     <g id="text_3">
      <!-- 1960 -->
      <g transform="translate(167.953263 203.431128) rotate(-45) scale(0.1 -0.1)">
       <defs>
        <path id="DejaVuSans-36" d="M 2113 2584 
Q 1688 2584 1439 2293 
Q 1191 2003 1191 1497 
Q 1191 994 1439 701 
Q 1688 409 2113 409 
Q 2538 409 2786 701 
Q 3034 994 3034 1497 
Q 3034 2003 2786 2293 
Q 2538 2584 2113 2584 
z
M 3366 4563 
L 3366 3988 
Q 3128 4100 2886 4159 
Q 2644 4219 2406 4219 
Q 1781 4219 1451 3797 
Q 1122 3375 1075 2522 
Q 1259 2794 1537 2939 
Q 1816 3084 2150 3084 
Q 2853 3084 3261 2657 
Q 3669 2231 3669 1497 
Q 3669 778 3244 343 
Q 2819 -91 2113 -91 
Q 1303 -91 875 529 
Q 447 1150 447 2328 
Q 447 3434 972 4092 
Q 1497 4750 2381 4750 
Q 2619 4750 2861 4703 
Q 3103 4656 3366 4563 
z
" transform="scale(0.015625)"/>
       </defs>
       <use xlink:href="#DejaVuSans-31"/>
       <use xlink:href="#DejaVuSans-39" x="63.623047"/>
       <use xlink:href="#DejaVuSans-36" x="127.246094"/>
       <use xlink:href="#DejaVuSans-30" x="190.869141"/>
      </g>
     </g>
    </g>
    <g id="xtick_4">
     <g id="line2d_7">
      <path d="M 215.592727 173.062354 
L 215.592727 40.88 
" clip-path="url(#pa0acb43279)" style="fill: none; stroke: #000000; stroke-width: 0.5; stroke-linecap: square"/>
     </g>
     <g id="line2d_8">
      <g>
       <use xlink:href="#m15e729062c" x="215.592727" y="173.062354" style="stroke: #000000; stroke-width: 0.8"/>
      </g>
     </g>
     <g id="text_4">
      <!-- 1965 -->
      <g transform="translate(208.545966 203.431128) rotate(-45) scale(0.1 -0.1)">
       <use xlink:href="#DejaVuSans-31"/>
       <use xlink:href="#DejaVuSans-39" x="63.623047"/>
       <use xlink:href="#DejaVuSans-36" x="127.246094"/>
       <use xlink:href="#DejaVuSans-35" x="190.869141"/>
      </g>
     </g>
    </g>
    <g id="xtick_5">
     <g id="line2d_9">
      <path d="M 256.185431 173.062354 
L 256.185431 40.88 
" clip-path="url(#pa0acb43279)" style="fill: none; stroke: #000000; stroke-width: 0.5; stroke-linecap: square"/>
     </g>
     <g id="line2d_10">
      <g>
       <use xlink:href="#m15e729062c" x="256.185431" y="173.062354" style="stroke: #000000; stroke-width: 0.8"/>
      </g>
     </g>
     <g id="text_5">
      <!-- 1970 -->
      <g transform="translate(249.13867 203.431128) rotate(-45) scale(0.1 -0.1)">
       <defs>
        <path id="DejaVuSans-37" d="M 525 4666 
L 3525 4666 
L 3525 4397 
L 1831 0 
L 1172 0 
L 2766 4134 
L 525 4134 
L 525 4666 
z
" transform="scale(0.015625)"/>
       </defs>
       <use xlink:href="#DejaVuSans-31"/>
       <use xlink:href="#DejaVuSans-39" x="63.623047"/>
       <use xlink:href="#DejaVuSans-37" x="127.246094"/>
       <use xlink:href="#DejaVuSans-30" x="190.869141"/>
      </g>
     </g>
    </g>
    <g id="xtick_6">
     <g id="line2d_11">
      <path d="M 296.778134 173.062354 
L 296.778134 40.88 
" clip-path="url(#pa0acb43279)" style="fill: none; stroke: #000000; stroke-width: 0.5; stroke-linecap: square"/>
     </g>
     <g id="line2d_12">
      <g>
       <use xlink:href="#m15e729062c" x="296.778134" y="173.062354" style="stroke: #000000; stroke-width: 0.8"/>
      </g>
     </g>
     <g id="text_6">
      <!-- 1975 -->
      <g transform="translate(289.731373 203.431128) rotate(-45) scale(0.1 -0.1)">
       <use xlink:href="#DejaVuSans-31"/>
       <use xlink:href="#DejaVuSans-39" x="63.623047"/>
       <use xlink:href="#DejaVuSans-37" x="127.246094"/>
       <use xlink:href="#DejaVuSans-35" x="190.869141"/>
      </g>
     </g>
    </g>
    <g id="xtick_7">
     <g id="line2d_13">
      <path d="M 337.370837 173.062354 
L 337.370837 40.88 
" clip-path="url(#pa0acb43279)" style="fill: none; stroke: #000000; stroke-width: 0.5; stroke-linecap: square"/>
     </g>
     <g id="line2d_14">
      <g>
       <use xlink:href="#m15e729062c" x="337.370837" y="173.062354" style="stroke: #000000; stroke-width: 0.8"/>
      </g>
     </g>
     <g id="text_7">
      <!-- 1980 -->
      <g transform="translate(330.324076 203.431128) rotate(-45) scale(0.1 -0.1)">
       <defs>
        <path id="DejaVuSans-38" d="M 2034 2216 
Q 1584 2216 1326 1975 
Q 1069 1734 1069 1313 
Q 1069 891 1326 650 
Q 1584 409 2034 409 
Q 2484 409 2743 651 
Q 3003 894 3003 1313 
Q 3003 1734 2745 1975 
Q 2488 2216 2034 2216 
z
M 1403 2484 
Q 997 2584 770 2862 
Q 544 3141 544 3541 
Q 544 4100 942 4425 
Q 1341 4750 2034 4750 
Q 2731 4750 3128 4425 
Q 3525 4100 3525 3541 
Q 3525 3141 3298 2862 
Q 3072 2584 2669 2484 
Q 3125 2378 3379 2068 
Q 3634 1759 3634 1313 
Q 3634 634 3220 271 
Q 2806 -91 2034 -91 
Q 1263 -91 848 271 
Q 434 634 434 1313 
Q 434 1759 690 2068 
Q 947 2378 1403 2484 
z
M 1172 3481 
Q 1172 3119 1398 2916 
Q 1625 2713 2034 2713 
Q 2441 2713 2670 2916 
Q 2900 3119 2900 3481 
Q 2900 3844 2670 4047 
Q 2441 4250 2034 4250 
Q 1625 4250 1398 4047 
Q 1172 3844 1172 3481 
z
" transform="scale(0.015625)"/>
       </defs>
       <use xlink:href="#DejaVuSans-31"/>
       <use xlink:href="#DejaVuSans-39" x="63.623047"/>
       <use xlink:href="#DejaVuSans-38" x="127.246094"/>
       <use xlink:href="#DejaVuSans-30" x="190.869141"/>
      </g>
     </g>
    </g>
    <g id="xtick_8">
     <g id="line2d_15">
      <path d="M 377.963541 173.062354 
L 377.963541 40.88 
" clip-path="url(#pa0acb43279)" style="fill: none; stroke: #000000; stroke-width: 0.5; stroke-linecap: square"/>
     </g>
     <g id="line2d_16">
      <g>
       <use xlink:href="#m15e729062c" x="377.963541" y="173.062354" style="stroke: #000000; stroke-width: 0.8"/>
      </g>
     </g>
     <g id="text_8">
      <!-- 1985 -->
      <g transform="translate(370.91678 203.431128) rotate(-45) scale(0.1 -0.1)">
       <use xlink:href="#DejaVuSans-31"/>
       <use xlink:href="#DejaVuSans-39" x="63.623047"/>
       <use xlink:href="#DejaVuSans-38" x="127.246094"/>
       <use xlink:href="#DejaVuSans-35" x="190.869141"/>
      </g>
     </g>
    </g>
    <g id="xtick_9">
     <g id="line2d_17">
      <path d="M 418.556244 173.062354 
L 418.556244 40.88 
" clip-path="url(#pa0acb43279)" style="fill: none; stroke: #000000; stroke-width: 0.5; stroke-linecap: square"/>
     </g>
     <g id="line2d_18">
      <g>
       <use xlink:href="#m15e729062c" x="418.556244" y="173.062354" style="stroke: #000000; stroke-width: 0.8"/>
      </g>
     </g>
     <g id="text_9">
      <!-- 1990 -->
      <g transform="translate(411.509483 203.431128) rotate(-45) scale(0.1 -0.1)">
       <use xlink:href="#DejaVuSans-31"/>
       <use xlink:href="#DejaVuSans-39" x="63.623047"/>
       <use xlink:href="#DejaVuSans-39" x="127.246094"/>
       <use xlink:href="#DejaVuSans-30" x="190.869141"/>
      </g>
     </g>
    </g>
    <g id="xtick_10">
     <g id="line2d_19">
      <path d="M 459.148947 173.062354 
L 459.148947 40.88 
" clip-path="url(#pa0acb43279)" style="fill: none; stroke: #000000; stroke-width: 0.5; stroke-linecap: square"/>
     </g>
     <g id="line2d_20">
      <g>
       <use xlink:href="#m15e729062c" x="459.148947" y="173.062354" style="stroke: #000000; stroke-width: 0.8"/>
      </g>
     </g>
     <g id="text_10">
      <!-- 1995 -->
      <g transform="translate(452.102186 203.431128) rotate(-45) scale(0.1 -0.1)">
       <use xlink:href="#DejaVuSans-31"/>
       <use xlink:href="#DejaVuSans-39" x="63.623047"/>
       <use xlink:href="#DejaVuSans-39" x="127.246094"/>
       <use xlink:href="#DejaVuSans-35" x="190.869141"/>
      </g>
     </g>
    </g>
    <g id="xtick_11">
     <g id="line2d_21">
      <path d="M 499.741651 173.062354 
L 499.741651 40.88 
" clip-path="url(#pa0acb43279)" style="fill: none; stroke: #000000; stroke-width: 0.5; stroke-linecap: square"/>
     </g>
     <g id="line2d_22">
      <g>
       <use xlink:href="#m15e729062c" x="499.741651" y="173.062354" style="stroke: #000000; stroke-width: 0.8"/>
      </g>
     </g>
     <g id="text_11">
      <!-- 2000 -->
      <g transform="translate(492.69489 203.431128) rotate(-45) scale(0.1 -0.1)">
       <defs>
        <path id="DejaVuSans-32" d="M 1228 531 
L 3431 531 
L 3431 0 
L 469 0 
L 469 531 
Q 828 903 1448 1529 
Q 2069 2156 2228 2338 
Q 2531 2678 2651 2914 
Q 2772 3150 2772 3378 
Q 2772 3750 2511 3984 
Q 2250 4219 1831 4219 
Q 1534 4219 1204 4116 
Q 875 4013 500 3803 
L 500 4441 
Q 881 4594 1212 4672 
Q 1544 4750 1819 4750 
Q 2544 4750 2975 4387 
Q 3406 4025 3406 3419 
Q 3406 3131 3298 2873 
Q 3191 2616 2906 2266 
Q 2828 2175 2409 1742 
Q 1991 1309 1228 531 
z
" transform="scale(0.015625)"/>
       </defs>
       <use xlink:href="#DejaVuSans-32"/>
       <use xlink:href="#DejaVuSans-30" x="63.623047"/>
       <use xlink:href="#DejaVuSans-30" x="127.246094"/>
       <use xlink:href="#DejaVuSans-30" x="190.869141"/>
      </g>
     </g>
    </g>
    <g id="xtick_12">
     <g id="line2d_23">
      <path d="M 540.334354 173.062354 
L 540.334354 40.88 
" clip-path="url(#pa0acb43279)" style="fill: none; stroke: #000000; stroke-width: 0.5; stroke-linecap: square"/>
     </g>
     <g id="line2d_24">
      <g>
       <use xlink:href="#m15e729062c" x="540.334354" y="173.062354" style="stroke: #000000; stroke-width: 0.8"/>
      </g>
     </g>
     <g id="text_12">
      <!-- 2005 -->
      <g transform="translate(533.287593 203.431128) rotate(-45) scale(0.1 -0.1)">
       <use xlink:href="#DejaVuSans-32"/>
       <use xlink:href="#DejaVuSans-30" x="63.623047"/>
       <use xlink:href="#DejaVuSans-30" x="127.246094"/>
       <use xlink:href="#DejaVuSans-35" x="190.869141"/>
      </g>
     </g>
    </g>
    <g id="xtick_13">
     <g id="line2d_25">
      <path d="M 580.927057 173.062354 
L 580.927057 40.88 
" clip-path="url(#pa0acb43279)" style="fill: none; stroke: #000000; stroke-width: 0.5; stroke-linecap: square"/>
     </g>
     <g id="line2d_26">
      <g>
       <use xlink:href="#m15e729062c" x="580.927057" y="173.062354" style="stroke: #000000; stroke-width: 0.8"/>
      </g>
     </g>
     <g id="text_13">
      <!-- 2010 -->
      <g transform="translate(573.880296 203.431128) rotate(-45) scale(0.1 -0.1)">
       <use xlink:href="#DejaVuSans-32"/>
       <use xlink:href="#DejaVuSans-30" x="63.623047"/>
       <use xlink:href="#DejaVuSans-31" x="127.246094"/>
       <use xlink:href="#DejaVuSans-30" x="190.869141"/>
      </g>
     </g>
    </g>
    <g id="xtick_14">
     <g id="line2d_27">
      <path d="M 621.519761 173.062354 
L 621.519761 40.88 
" clip-path="url(#pa0acb43279)" style="fill: none; stroke: #000000; stroke-width: 0.5; stroke-linecap: square"/>
     </g>
     <g id="line2d_28">
      <g>
       <use xlink:href="#m15e729062c" x="621.519761" y="173.062354" style="stroke: #000000; stroke-width: 0.8"/>
      </g>
     </g>
     <g id="text_14">
      <!-- 2015 -->
      <g transform="translate(614.473 203.431128) rotate(-45) scale(0.1 -0.1)">
       <use xlink:href="#DejaVuSans-32"/>
       <use xlink:href="#DejaVuSans-30" x="63.623047"/>
       <use xlink:href="#DejaVuSans-31" x="127.246094"/>
       <use xlink:href="#DejaVuSans-35" x="190.869141"/>
      </g>
     </g>
    </g>
    <g id="xtick_15">
     <g id="line2d_29">
      <path d="M 662.112464 173.062354 
L 662.112464 40.88 
" clip-path="url(#pa0acb43279)" style="fill: none; stroke: #000000; stroke-width: 0.5; stroke-linecap: square"/>
     </g>
     <g id="line2d_30">
      <g>
       <use xlink:href="#m15e729062c" x="662.112464" y="173.062354" style="stroke: #000000; stroke-width: 0.8"/>
      </g>
     </g>
     <g id="text_15">
      <!-- 2020 -->
      <g transform="translate(655.065703 203.431128) rotate(-45) scale(0.1 -0.1)">
       <use xlink:href="#DejaVuSans-32"/>
       <use xlink:href="#DejaVuSans-30" x="63.623047"/>
       <use xlink:href="#DejaVuSans-32" x="127.246094"/>
       <use xlink:href="#DejaVuSans-30" x="190.869141"/>
      </g>
     </g>
    </g>
   </g>
   <g id="matplotlib.axis_2">
    <g id="ytick_1">
     <g id="line2d_31">
      <path d="M 30.49 152.233094 
L 709.2 152.233094 
" clip-path="url(#pa0acb43279)" style="fill: none; stroke: #000000; stroke-width: 0.5; stroke-linecap: square"/>
     </g>
     <g id="line2d_32">
      <defs>
       <path id="mc2347a58c3" d="M 0 0 
L -3.5 0 
" style="stroke: #000000; stroke-width: 0.8"/>
      </defs>
      <g>
       <use xlink:href="#mc2347a58c3" x="30.49" y="152.233094" style="stroke: #000000; stroke-width: 0.8"/>
      </g>
     </g>
     <g id="text_16">
      <!-- 28 -->
      <g transform="translate(10.765 156.032313) scale(0.1 -0.1)">
       <use xlink:href="#DejaVuSans-32"/>
       <use xlink:href="#DejaVuSans-38" x="63.623047"/>
      </g>
     </g>
    </g>
    <g id="ytick_2">
     <g id="line2d_33">
      <path d="M 30.49 126.311607 
L 709.2 126.311607 
" clip-path="url(#pa0acb43279)" style="fill: none; stroke: #000000; stroke-width: 0.5; stroke-linecap: square"/>
     </g>
     <g id="line2d_34">
      <g>
       <use xlink:href="#mc2347a58c3" x="30.49" y="126.311607" style="stroke: #000000; stroke-width: 0.8"/>
      </g>
     </g>
     <g id="text_17">
      <!-- 30 -->
      <g transform="translate(10.765 130.110826) scale(0.1 -0.1)">
       <defs>
        <path id="DejaVuSans-33" d="M 2597 2516 
Q 3050 2419 3304 2112 
Q 3559 1806 3559 1356 
Q 3559 666 3084 287 
Q 2609 -91 1734 -91 
Q 1441 -91 1130 -33 
Q 819 25 488 141 
L 488 750 
Q 750 597 1062 519 
Q 1375 441 1716 441 
Q 2309 441 2620 675 
Q 2931 909 2931 1356 
Q 2931 1769 2642 2001 
Q 2353 2234 1838 2234 
L 1294 2234 
L 1294 2753 
L 1863 2753 
Q 2328 2753 2575 2939 
Q 2822 3125 2822 3475 
Q 2822 3834 2567 4026 
Q 2313 4219 1838 4219 
Q 1578 4219 1281 4162 
Q 984 4106 628 3988 
L 628 4550 
Q 988 4650 1302 4700 
Q 1616 4750 1894 4750 
Q 2613 4750 3031 4423 
Q 3450 4097 3450 3541 
Q 3450 3153 3228 2886 
Q 3006 2619 2597 2516 
z
" transform="scale(0.015625)"/>
       </defs>
       <use xlink:href="#DejaVuSans-33"/>
       <use xlink:href="#DejaVuSans-30" x="63.623047"/>
      </g>
     </g>
    </g>
    <g id="ytick_3">
     <g id="line2d_35">
      <path d="M 30.49 100.39012 
L 709.2 100.39012 
" clip-path="url(#pa0acb43279)" style="fill: none; stroke: #000000; stroke-width: 0.5; stroke-linecap: square"/>
     </g>
     <g id="line2d_36">
      <g>
       <use xlink:href="#mc2347a58c3" x="30.49" y="100.39012" style="stroke: #000000; stroke-width: 0.8"/>
      </g>
     </g>
     <g id="text_18">
      <!-- 32 -->
      <g transform="translate(10.765 104.189338) scale(0.1 -0.1)">
       <use xlink:href="#DejaVuSans-33"/>
       <use xlink:href="#DejaVuSans-32" x="63.623047"/>
      </g>
     </g>
    </g>
    <g id="ytick_4">
     <g id="line2d_37">
      <path d="M 30.49 74.468632 
L 709.2 74.468632 
" clip-path="url(#pa0acb43279)" style="fill: none; stroke: #000000; stroke-width: 0.5; stroke-linecap: square"/>
     </g>
     <g id="line2d_38">
      <g>
       <use xlink:href="#mc2347a58c3" x="30.49" y="74.468632" style="stroke: #000000; stroke-width: 0.8"/>
      </g>
     </g>
     <g id="text_19">
      <!-- 34 -->
      <g transform="translate(10.765 78.267851) scale(0.1 -0.1)">
       <defs>
        <path id="DejaVuSans-34" d="M 2419 4116 
L 825 1625 
L 2419 1625 
L 2419 4116 
z
M 2253 4666 
L 3047 4666 
L 3047 1625 
L 3713 1625 
L 3713 1100 
L 3047 1100 
L 3047 0 
L 2419 0 
L 2419 1100 
L 313 1100 
L 313 1709 
L 2253 4666 
z
" transform="scale(0.015625)"/>
       </defs>
       <use xlink:href="#DejaVuSans-33"/>
       <use xlink:href="#DejaVuSans-34" x="63.623047"/>
      </g>
     </g>
    </g>
    <g id="ytick_5">
     <g id="line2d_39">
      <path d="M 30.49 48.547145 
L 709.2 48.547145 
" clip-path="url(#pa0acb43279)" style="fill: none; stroke: #000000; stroke-width: 0.5; stroke-linecap: square"/>
     </g>
     <g id="line2d_40">
      <g>
       <use xlink:href="#mc2347a58c3" x="30.49" y="48.547145" style="stroke: #000000; stroke-width: 0.8"/>
      </g>
     </g>
     <g id="text_20">
      <!-- 36 -->
      <g transform="translate(10.765 52.346364) scale(0.1 -0.1)">
       <use xlink:href="#DejaVuSans-33"/>
       <use xlink:href="#DejaVuSans-36" x="63.623047"/>
      </g>
     </g>
    </g>
   </g>
   <g id="line2d_41">
    <path d="M 61.340455 77.932409 
L 69.458995 78.616134 
L 93.814617 56.269864 
L 101.933158 69.72319 
L 110.051699 46.888289 
L 118.170239 76.852282 
L 126.28878 62.238465 
L 134.407321 83.946284 
L 142.525861 79.003927 
L 150.644402 97.526434 
L 158.762943 76.154044 
L 166.881483 79.747866 
L 175.000024 90.457972 
L 183.118565 86.729623 
L 191.237105 76.293591 
L 199.355646 78.900172 
L 207.474187 68.408086 
L 215.592727 79.241434 
L 223.711268 70.591664 
L 231.829809 80.85411 
L 239.948349 83.266796 
L 248.06689 79.958602 
L 256.185431 77.446025 
L 264.303971 76.242416 
L 272.422512 80.448181 
L 280.541053 87.0059 
L 288.659593 79.180809 
L 296.778134 80.533964 
L 304.896675 77.799574 
L 313.015215 86.50616 
L 321.133756 82.311417 
L 329.252297 79.550067 
L 337.370837 91.213639 
L 345.489378 94.92283 
L 353.607919 92.191468 
L 361.726459 109.443335 
L 369.845 104.333789 
L 377.963541 103.648997 
L 386.082081 111.538691 
L 394.200622 108.831537 
L 402.319163 106.456817 
L 410.437703 123.613702 
L 418.556244 126.666572 
L 426.674785 131.21569 
L 434.793325 130.147496 
L 442.911866 127.271884 
L 451.030407 127.799589 
L 459.148947 110.807685 
L 467.267488 127.906382 
L 475.386029 127.653795 
L 483.504569 135.283613 
L 491.62311 131.110925 
L 499.741651 133.58187 
L 507.860191 136.131189 
L 515.978732 152.414165 
L 524.097273 152.305283 
L 532.215813 150.617094 
L 540.334354 150.461725 
L 548.452895 155.092142 
L 556.571435 158.63331 
L 564.689976 152.627882 
L 572.808517 151.986908 
L 580.927057 150.123679 
L 589.045598 159.472518 
L 597.164139 159.916236 
L 605.282679 152.996029 
L 613.40122 159.264658 
L 621.519761 153.998448 
L 629.638301 161.492239 
L 637.756842 167.054065 
L 645.875383 151.815767 
L 653.993923 153.382535 
L 662.112464 159.899108 
L 670.231005 157.729957 
L 678.349545 154.374625 
" clip-path="url(#pa0acb43279)" style="fill: none; stroke: #1f77b4; stroke-width: 1.5; stroke-linecap: square"/>
    <defs>
     <path id="m93783f2623" d="M 0 3 
C 0.795609 3 1.55874 2.683901 2.12132 2.12132 
C 2.683901 1.55874 3 0.795609 3 0 
C 3 -0.795609 2.683901 -1.55874 2.12132 -2.12132 
C 1.55874 -2.683901 0.795609 -3 0 -3 
C -0.795609 -3 -1.55874 -2.683901 -2.12132 -2.12132 
C -2.683901 -1.55874 -3 -0.795609 -3 0 
C -3 0.795609 -2.683901 1.55874 -2.12132 2.12132 
C -1.55874 2.683901 -0.795609 3 0 3 
z
" style="stroke: #1f77b4"/>
    </defs>
    <g clip-path="url(#pa0acb43279)">
     <use xlink:href="#m93783f2623" x="61.340455" y="77.932409" style="fill: #1f77b4; stroke: #1f77b4"/>
     <use xlink:href="#m93783f2623" x="69.458995" y="78.616134" style="fill: #1f77b4; stroke: #1f77b4"/>
     <use xlink:href="#m93783f2623" x="93.814617" y="56.269864" style="fill: #1f77b4; stroke: #1f77b4"/>
     <use xlink:href="#m93783f2623" x="101.933158" y="69.72319" style="fill: #1f77b4; stroke: #1f77b4"/>
     <use xlink:href="#m93783f2623" x="110.051699" y="46.888289" style="fill: #1f77b4; stroke: #1f77b4"/>
     <use xlink:href="#m93783f2623" x="118.170239" y="76.852282" style="fill: #1f77b4; stroke: #1f77b4"/>
     <use xlink:href="#m93783f2623" x="126.28878" y="62.238465" style="fill: #1f77b4; stroke: #1f77b4"/>
     <use xlink:href="#m93783f2623" x="134.407321" y="83.946284" style="fill: #1f77b4; stroke: #1f77b4"/>
     <use xlink:href="#m93783f2623" x="142.525861" y="79.003927" style="fill: #1f77b4; stroke: #1f77b4"/>
     <use xlink:href="#m93783f2623" x="150.644402" y="97.526434" style="fill: #1f77b4; stroke: #1f77b4"/>
     <use xlink:href="#m93783f2623" x="158.762943" y="76.154044" style="fill: #1f77b4; stroke: #1f77b4"/>
     <use xlink:href="#m93783f2623" x="166.881483" y="79.747866" style="fill: #1f77b4; stroke: #1f77b4"/>
     <use xlink:href="#m93783f2623" x="175.000024" y="90.457972" style="fill: #1f77b4; stroke: #1f77b4"/>
     <use xlink:href="#m93783f2623" x="183.118565" y="86.729623" style="fill: #1f77b4; stroke: #1f77b4"/>
     <use xlink:href="#m93783f2623" x="191.237105" y="76.293591" style="fill: #1f77b4; stroke: #1f77b4"/>
     <use xlink:href="#m93783f2623" x="199.355646" y="78.900172" style="fill: #1f77b4; stroke: #1f77b4"/>
     <use xlink:href="#m93783f2623" x="207.474187" y="68.408086" style="fill: #1f77b4; stroke: #1f77b4"/>
     <use xlink:href="#m93783f2623" x="215.592727" y="79.241434" style="fill: #1f77b4; stroke: #1f77b4"/>
     <use xlink:href="#m93783f2623" x="223.711268" y="70.591664" style="fill: #1f77b4; stroke: #1f77b4"/>
     <use xlink:href="#m93783f2623" x="231.829809" y="80.85411" style="fill: #1f77b4; stroke: #1f77b4"/>
     <use xlink:href="#m93783f2623" x="239.948349" y="83.266796" style="fill: #1f77b4; stroke: #1f77b4"/>
     <use xlink:href="#m93783f2623" x="248.06689" y="79.958602" style="fill: #1f77b4; stroke: #1f77b4"/>
     <use xlink:href="#m93783f2623" x="256.185431" y="77.446025" style="fill: #1f77b4; stroke: #1f77b4"/>
     <use xlink:href="#m93783f2623" x="264.303971" y="76.242416" style="fill: #1f77b4; stroke: #1f77b4"/>
     <use xlink:href="#m93783f2623" x="272.422512" y="80.448181" style="fill: #1f77b4; stroke: #1f77b4"/>
     <use xlink:href="#m93783f2623" x="280.541053" y="87.0059" style="fill: #1f77b4; stroke: #1f77b4"/>
     <use xlink:href="#m93783f2623" x="288.659593" y="79.180809" style="fill: #1f77b4; stroke: #1f77b4"/>
     <use xlink:href="#m93783f2623" x="296.778134" y="80.533964" style="fill: #1f77b4; stroke: #1f77b4"/>
     <use xlink:href="#m93783f2623" x="304.896675" y="77.799574" style="fill: #1f77b4; stroke: #1f77b4"/>
     <use xlink:href="#m93783f2623" x="313.015215" y="86.50616" style="fill: #1f77b4; stroke: #1f77b4"/>
     <use xlink:href="#m93783f2623" x="321.133756" y="82.311417" style="fill: #1f77b4; stroke: #1f77b4"/>
     <use xlink:href="#m93783f2623" x="329.252297" y="79.550067" style="fill: #1f77b4; stroke: #1f77b4"/>
     <use xlink:href="#m93783f2623" x="337.370837" y="91.213639" style="fill: #1f77b4; stroke: #1f77b4"/>
     <use xlink:href="#m93783f2623" x="345.489378" y="94.92283" style="fill: #1f77b4; stroke: #1f77b4"/>
     <use xlink:href="#m93783f2623" x="353.607919" y="92.191468" style="fill: #1f77b4; stroke: #1f77b4"/>
     <use xlink:href="#m93783f2623" x="361.726459" y="109.443335" style="fill: #1f77b4; stroke: #1f77b4"/>
     <use xlink:href="#m93783f2623" x="369.845" y="104.333789" style="fill: #1f77b4; stroke: #1f77b4"/>
     <use xlink:href="#m93783f2623" x="377.963541" y="103.648997" style="fill: #1f77b4; stroke: #1f77b4"/>
     <use xlink:href="#m93783f2623" x="386.082081" y="111.538691" style="fill: #1f77b4; stroke: #1f77b4"/>
     <use xlink:href="#m93783f2623" x="394.200622" y="108.831537" style="fill: #1f77b4; stroke: #1f77b4"/>
     <use xlink:href="#m93783f2623" x="402.319163" y="106.456817" style="fill: #1f77b4; stroke: #1f77b4"/>
     <use xlink:href="#m93783f2623" x="410.437703" y="123.613702" style="fill: #1f77b4; stroke: #1f77b4"/>
     <use xlink:href="#m93783f2623" x="418.556244" y="126.666572" style="fill: #1f77b4; stroke: #1f77b4"/>
     <use xlink:href="#m93783f2623" x="426.674785" y="131.21569" style="fill: #1f77b4; stroke: #1f77b4"/>
     <use xlink:href="#m93783f2623" x="434.793325" y="130.147496" style="fill: #1f77b4; stroke: #1f77b4"/>
     <use xlink:href="#m93783f2623" x="442.911866" y="127.271884" style="fill: #1f77b4; stroke: #1f77b4"/>
     <use xlink:href="#m93783f2623" x="451.030407" y="127.799589" style="fill: #1f77b4; stroke: #1f77b4"/>
     <use xlink:href="#m93783f2623" x="459.148947" y="110.807685" style="fill: #1f77b4; stroke: #1f77b4"/>
     <use xlink:href="#m93783f2623" x="467.267488" y="127.906382" style="fill: #1f77b4; stroke: #1f77b4"/>
     <use xlink:href="#m93783f2623" x="475.386029" y="127.653795" style="fill: #1f77b4; stroke: #1f77b4"/>
     <use xlink:href="#m93783f2623" x="483.504569" y="135.283613" style="fill: #1f77b4; stroke: #1f77b4"/>
     <use xlink:href="#m93783f2623" x="491.62311" y="131.110925" style="fill: #1f77b4; stroke: #1f77b4"/>
     <use xlink:href="#m93783f2623" x="499.741651" y="133.58187" style="fill: #1f77b4; stroke: #1f77b4"/>
     <use xlink:href="#m93783f2623" x="507.860191" y="136.131189" style="fill: #1f77b4; stroke: #1f77b4"/>
     <use xlink:href="#m93783f2623" x="515.978732" y="152.414165" style="fill: #1f77b4; stroke: #1f77b4"/>
     <use xlink:href="#m93783f2623" x="524.097273" y="152.305283" style="fill: #1f77b4; stroke: #1f77b4"/>
     <use xlink:href="#m93783f2623" x="532.215813" y="150.617094" style="fill: #1f77b4; stroke: #1f77b4"/>
     <use xlink:href="#m93783f2623" x="540.334354" y="150.461725" style="fill: #1f77b4; stroke: #1f77b4"/>
     <use xlink:href="#m93783f2623" x="548.452895" y="155.092142" style="fill: #1f77b4; stroke: #1f77b4"/>
     <use xlink:href="#m93783f2623" x="556.571435" y="158.63331" style="fill: #1f77b4; stroke: #1f77b4"/>
     <use xlink:href="#m93783f2623" x="564.689976" y="152.627882" style="fill: #1f77b4; stroke: #1f77b4"/>
     <use xlink:href="#m93783f2623" x="572.808517" y="151.986908" style="fill: #1f77b4; stroke: #1f77b4"/>
     <use xlink:href="#m93783f2623" x="580.927057" y="150.123679" style="fill: #1f77b4; stroke: #1f77b4"/>
     <use xlink:href="#m93783f2623" x="589.045598" y="159.472518" style="fill: #1f77b4; stroke: #1f77b4"/>
     <use xlink:href="#m93783f2623" x="597.164139" y="159.916236" style="fill: #1f77b4; stroke: #1f77b4"/>
     <use xlink:href="#m93783f2623" x="605.282679" y="152.996029" style="fill: #1f77b4; stroke: #1f77b4"/>
     <use xlink:href="#m93783f2623" x="613.40122" y="159.264658" style="fill: #1f77b4; stroke: #1f77b4"/>
     <use xlink:href="#m93783f2623" x="621.519761" y="153.998448" style="fill: #1f77b4; stroke: #1f77b4"/>
     <use xlink:href="#m93783f2623" x="629.638301" y="161.492239" style="fill: #1f77b4; stroke: #1f77b4"/>
     <use xlink:href="#m93783f2623" x="637.756842" y="167.054065" style="fill: #1f77b4; stroke: #1f77b4"/>
     <use xlink:href="#m93783f2623" x="645.875383" y="151.815767" style="fill: #1f77b4; stroke: #1f77b4"/>
     <use xlink:href="#m93783f2623" x="653.993923" y="153.382535" style="fill: #1f77b4; stroke: #1f77b4"/>
     <use xlink:href="#m93783f2623" x="662.112464" y="159.899108" style="fill: #1f77b4; stroke: #1f77b4"/>
     <use xlink:href="#m93783f2623" x="670.231005" y="157.729957" style="fill: #1f77b4; stroke: #1f77b4"/>
     <use xlink:href="#m93783f2623" x="678.349545" y="154.374625" style="fill: #1f77b4; stroke: #1f77b4"/>
    </g>
   </g>
   <g id="line2d_42">
    <path d="M 61.340455 67.33995 
L 67.52291 68.89518 
L 73.705366 70.242922 
L 81.124313 71.611657 
L 88.54326 72.737281 
L 95.962207 73.648084 
L 104.617645 74.474913 
L 113.273083 75.08597 
L 123.165013 75.568287 
L 135.529924 75.922899 
L 150.367818 76.105429 
L 204.77343 76.521297 
L 218.374832 76.951007 
L 230.739744 77.549812 
L 243.104656 78.375615 
L 254.233076 79.330269 
L 265.361497 80.496533 
L 276.489917 81.881158 
L 287.618338 83.487139 
L 298.746758 85.313954 
L 309.875179 87.3578 
L 321.003599 89.611751 
L 333.368511 92.350584 
L 345.733422 95.319538 
L 359.334825 98.826189 
L 374.172719 102.902437 
L 390.247104 107.559981 
L 410.030963 113.540455 
L 476.801486 133.961907 
L 491.63938 138.162942 
L 505.240782 141.791155 
L 517.605694 144.865989 
L 528.734115 147.424193 
L 539.862535 149.761776 
L 550.990956 151.85866 
L 560.882885 153.505708 
L 570.774814 154.936646 
L 580.666743 156.141379 
L 590.558673 157.111373 
L 600.450602 157.839656 
L 610.342531 158.321111 
L 620.234461 158.552468 
L 630.12639 158.532492 
L 640.018319 158.262078 
L 649.910249 157.744415 
L 659.802178 156.985043 
L 669.694107 155.992088 
L 678.349545 154.940011 
L 678.349545 154.940011 
" clip-path="url(#pa0acb43279)" style="fill: none; stroke: #ff0000; stroke-width: 1.5; stroke-linecap: square"/>
   </g>
   <g id="patch_3">
    <path d="M 30.49 173.062354 
L 30.49 40.88 
" style="fill: none; stroke: #000000; stroke-width: 0.8; stroke-linejoin: miter; stroke-linecap: square"/>
   </g>
   <g id="patch_4">
    <path d="M 709.2 173.062354 
L 709.2 40.88 
" style="fill: none; stroke: #000000; stroke-width: 0.8; stroke-linejoin: miter; stroke-linecap: square"/>
   </g>
   <g id="patch_5">
    <path d="M 30.49 173.062354 
L 709.2 173.062354 
" style="fill: none; stroke: #000000; stroke-width: 0.8; stroke-linejoin: miter; stroke-linecap: square"/>
   </g>
   <g id="patch_6">
    <path d="M 30.49 40.88 
L 709.2 40.88 
" style="fill: none; stroke: #000000; stroke-width: 0.8; stroke-linejoin: miter; stroke-linecap: square"/>
   </g>
   <g id="text_21">
    <!-- S1 - Average Sentence Length from 1946 to 2022 -->
    <g transform="translate(220.799375 20.88) scale(0.12 -0.12)">
     <defs>
      <path id="DejaVuSans-53" d="M 3425 4513 
L 3425 3897 
Q 3066 4069 2747 4153 
Q 2428 4238 2131 4238 
Q 1616 4238 1336 4038 
Q 1056 3838 1056 3469 
Q 1056 3159 1242 3001 
Q 1428 2844 1947 2747 
L 2328 2669 
Q 3034 2534 3370 2195 
Q 3706 1856 3706 1288 
Q 3706 609 3251 259 
Q 2797 -91 1919 -91 
Q 1588 -91 1214 -16 
Q 841 59 441 206 
L 441 856 
Q 825 641 1194 531 
Q 1563 422 1919 422 
Q 2459 422 2753 634 
Q 3047 847 3047 1241 
Q 3047 1584 2836 1778 
Q 2625 1972 2144 2069 
L 1759 2144 
Q 1053 2284 737 2584 
Q 422 2884 422 3419 
Q 422 4038 858 4394 
Q 1294 4750 2059 4750 
Q 2388 4750 2728 4690 
Q 3069 4631 3425 4513 
z
" transform="scale(0.015625)"/>
      <path id="DejaVuSans-20" transform="scale(0.015625)"/>
      <path id="DejaVuSans-2d" d="M 313 2009 
L 1997 2009 
L 1997 1497 
L 313 1497 
L 313 2009 
z
" transform="scale(0.015625)"/>
      <path id="DejaVuSans-41" d="M 2188 4044 
L 1331 1722 
L 3047 1722 
L 2188 4044 
z
M 1831 4666 
L 2547 4666 
L 4325 0 
L 3669 0 
L 3244 1197 
L 1141 1197 
L 716 0 
L 50 0 
L 1831 4666 
z
" transform="scale(0.015625)"/>
      <path id="DejaVuSans-76" d="M 191 3500 
L 800 3500 
L 1894 563 
L 2988 3500 
L 3597 3500 
L 2284 0 
L 1503 0 
L 191 3500 
z
" transform="scale(0.015625)"/>
      <path id="DejaVuSans-65" d="M 3597 1894 
L 3597 1613 
L 953 1613 
Q 991 1019 1311 708 
Q 1631 397 2203 397 
Q 2534 397 2845 478 
Q 3156 559 3463 722 
L 3463 178 
Q 3153 47 2828 -22 
Q 2503 -91 2169 -91 
Q 1331 -91 842 396 
Q 353 884 353 1716 
Q 353 2575 817 3079 
Q 1281 3584 2069 3584 
Q 2775 3584 3186 3129 
Q 3597 2675 3597 1894 
z
M 3022 2063 
Q 3016 2534 2758 2815 
Q 2500 3097 2075 3097 
Q 1594 3097 1305 2825 
Q 1016 2553 972 2059 
L 3022 2063 
z
" transform="scale(0.015625)"/>
      <path id="DejaVuSans-72" d="M 2631 2963 
Q 2534 3019 2420 3045 
Q 2306 3072 2169 3072 
Q 1681 3072 1420 2755 
Q 1159 2438 1159 1844 
L 1159 0 
L 581 0 
L 581 3500 
L 1159 3500 
L 1159 2956 
Q 1341 3275 1631 3429 
Q 1922 3584 2338 3584 
Q 2397 3584 2469 3576 
Q 2541 3569 2628 3553 
L 2631 2963 
z
" transform="scale(0.015625)"/>
      <path id="DejaVuSans-61" d="M 2194 1759 
Q 1497 1759 1228 1600 
Q 959 1441 959 1056 
Q 959 750 1161 570 
Q 1363 391 1709 391 
Q 2188 391 2477 730 
Q 2766 1069 2766 1631 
L 2766 1759 
L 2194 1759 
z
M 3341 1997 
L 3341 0 
L 2766 0 
L 2766 531 
Q 2569 213 2275 61 
Q 1981 -91 1556 -91 
Q 1019 -91 701 211 
Q 384 513 384 1019 
Q 384 1609 779 1909 
Q 1175 2209 1959 2209 
L 2766 2209 
L 2766 2266 
Q 2766 2663 2505 2880 
Q 2244 3097 1772 3097 
Q 1472 3097 1187 3025 
Q 903 2953 641 2809 
L 641 3341 
Q 956 3463 1253 3523 
Q 1550 3584 1831 3584 
Q 2591 3584 2966 3190 
Q 3341 2797 3341 1997 
z
" transform="scale(0.015625)"/>
      <path id="DejaVuSans-67" d="M 2906 1791 
Q 2906 2416 2648 2759 
Q 2391 3103 1925 3103 
Q 1463 3103 1205 2759 
Q 947 2416 947 1791 
Q 947 1169 1205 825 
Q 1463 481 1925 481 
Q 2391 481 2648 825 
Q 2906 1169 2906 1791 
z
M 3481 434 
Q 3481 -459 3084 -895 
Q 2688 -1331 1869 -1331 
Q 1566 -1331 1297 -1286 
Q 1028 -1241 775 -1147 
L 775 -588 
Q 1028 -725 1275 -790 
Q 1522 -856 1778 -856 
Q 2344 -856 2625 -561 
Q 2906 -266 2906 331 
L 2906 616 
Q 2728 306 2450 153 
Q 2172 0 1784 0 
Q 1141 0 747 490 
Q 353 981 353 1791 
Q 353 2603 747 3093 
Q 1141 3584 1784 3584 
Q 2172 3584 2450 3431 
Q 2728 3278 2906 2969 
L 2906 3500 
L 3481 3500 
L 3481 434 
z
" transform="scale(0.015625)"/>
      <path id="DejaVuSans-6e" d="M 3513 2113 
L 3513 0 
L 2938 0 
L 2938 2094 
Q 2938 2591 2744 2837 
Q 2550 3084 2163 3084 
Q 1697 3084 1428 2787 
Q 1159 2491 1159 1978 
L 1159 0 
L 581 0 
L 581 3500 
L 1159 3500 
L 1159 2956 
Q 1366 3272 1645 3428 
Q 1925 3584 2291 3584 
Q 2894 3584 3203 3211 
Q 3513 2838 3513 2113 
z
" transform="scale(0.015625)"/>
      <path id="DejaVuSans-74" d="M 1172 4494 
L 1172 3500 
L 2356 3500 
L 2356 3053 
L 1172 3053 
L 1172 1153 
Q 1172 725 1289 603 
Q 1406 481 1766 481 
L 2356 481 
L 2356 0 
L 1766 0 
Q 1100 0 847 248 
Q 594 497 594 1153 
L 594 3053 
L 172 3053 
L 172 3500 
L 594 3500 
L 594 4494 
L 1172 4494 
z
" transform="scale(0.015625)"/>
      <path id="DejaVuSans-63" d="M 3122 3366 
L 3122 2828 
Q 2878 2963 2633 3030 
Q 2388 3097 2138 3097 
Q 1578 3097 1268 2742 
Q 959 2388 959 1747 
Q 959 1106 1268 751 
Q 1578 397 2138 397 
Q 2388 397 2633 464 
Q 2878 531 3122 666 
L 3122 134 
Q 2881 22 2623 -34 
Q 2366 -91 2075 -91 
Q 1284 -91 818 406 
Q 353 903 353 1747 
Q 353 2603 823 3093 
Q 1294 3584 2113 3584 
Q 2378 3584 2631 3529 
Q 2884 3475 3122 3366 
z
" transform="scale(0.015625)"/>
      <path id="DejaVuSans-4c" d="M 628 4666 
L 1259 4666 
L 1259 531 
L 3531 531 
L 3531 0 
L 628 0 
L 628 4666 
z
" transform="scale(0.015625)"/>
      <path id="DejaVuSans-68" d="M 3513 2113 
L 3513 0 
L 2938 0 
L 2938 2094 
Q 2938 2591 2744 2837 
Q 2550 3084 2163 3084 
Q 1697 3084 1428 2787 
Q 1159 2491 1159 1978 
L 1159 0 
L 581 0 
L 581 4863 
L 1159 4863 
L 1159 2956 
Q 1366 3272 1645 3428 
Q 1925 3584 2291 3584 
Q 2894 3584 3203 3211 
Q 3513 2838 3513 2113 
z
" transform="scale(0.015625)"/>
      <path id="DejaVuSans-66" d="M 2375 4863 
L 2375 4384 
L 1825 4384 
Q 1516 4384 1395 4259 
Q 1275 4134 1275 3809 
L 1275 3500 
L 2222 3500 
L 2222 3053 
L 1275 3053 
L 1275 0 
L 697 0 
L 697 3053 
L 147 3053 
L 147 3500 
L 697 3500 
L 697 3744 
Q 697 4328 969 4595 
Q 1241 4863 1831 4863 
L 2375 4863 
z
" transform="scale(0.015625)"/>
      <path id="DejaVuSans-6f" d="M 1959 3097 
Q 1497 3097 1228 2736 
Q 959 2375 959 1747 
Q 959 1119 1226 758 
Q 1494 397 1959 397 
Q 2419 397 2687 759 
Q 2956 1122 2956 1747 
Q 2956 2369 2687 2733 
Q 2419 3097 1959 3097 
z
M 1959 3584 
Q 2709 3584 3137 3096 
Q 3566 2609 3566 1747 
Q 3566 888 3137 398 
Q 2709 -91 1959 -91 
Q 1206 -91 779 398 
Q 353 888 353 1747 
Q 353 2609 779 3096 
Q 1206 3584 1959 3584 
z
" transform="scale(0.015625)"/>
      <path id="DejaVuSans-6d" d="M 3328 2828 
Q 3544 3216 3844 3400 
Q 4144 3584 4550 3584 
Q 5097 3584 5394 3201 
Q 5691 2819 5691 2113 
L 5691 0 
L 5113 0 
L 5113 2094 
Q 5113 2597 4934 2840 
Q 4756 3084 4391 3084 
Q 3944 3084 3684 2787 
Q 3425 2491 3425 1978 
L 3425 0 
L 2847 0 
L 2847 2094 
Q 2847 2600 2669 2842 
Q 2491 3084 2119 3084 
Q 1678 3084 1418 2786 
Q 1159 2488 1159 1978 
L 1159 0 
L 581 0 
L 581 3500 
L 1159 3500 
L 1159 2956 
Q 1356 3278 1631 3431 
Q 1906 3584 2284 3584 
Q 2666 3584 2933 3390 
Q 3200 3197 3328 2828 
z
" transform="scale(0.015625)"/>
     </defs>
     <use xlink:href="#DejaVuSans-53"/>
     <use xlink:href="#DejaVuSans-31" x="63.476562"/>
     <use xlink:href="#DejaVuSans-20" x="127.099609"/>
     <use xlink:href="#DejaVuSans-2d" x="158.886719"/>
     <use xlink:href="#DejaVuSans-20" x="194.970703"/>
     <use xlink:href="#DejaVuSans-41" x="226.757812"/>
     <use xlink:href="#DejaVuSans-76" x="289.291016"/>
     <use xlink:href="#DejaVuSans-65" x="348.470703"/>
     <use xlink:href="#DejaVuSans-72" x="409.994141"/>
     <use xlink:href="#DejaVuSans-61" x="451.107422"/>
     <use xlink:href="#DejaVuSans-67" x="512.386719"/>
     <use xlink:href="#DejaVuSans-65" x="575.863281"/>
     <use xlink:href="#DejaVuSans-20" x="637.386719"/>
     <use xlink:href="#DejaVuSans-53" x="669.173828"/>
     <use xlink:href="#DejaVuSans-65" x="732.650391"/>
     <use xlink:href="#DejaVuSans-6e" x="794.173828"/>
     <use xlink:href="#DejaVuSans-74" x="857.552734"/>
     <use xlink:href="#DejaVuSans-65" x="896.761719"/>
     <use xlink:href="#DejaVuSans-6e" x="958.285156"/>
     <use xlink:href="#DejaVuSans-63" x="1021.664062"/>
     <use xlink:href="#DejaVuSans-65" x="1076.644531"/>
     <use xlink:href="#DejaVuSans-20" x="1138.167969"/>
     <use xlink:href="#DejaVuSans-4c" x="1169.955078"/>
     <use xlink:href="#DejaVuSans-65" x="1223.917969"/>
     <use xlink:href="#DejaVuSans-6e" x="1285.441406"/>
     <use xlink:href="#DejaVuSans-67" x="1348.820312"/>
     <use xlink:href="#DejaVuSans-74" x="1412.296875"/>
     <use xlink:href="#DejaVuSans-68" x="1451.505859"/>
     <use xlink:href="#DejaVuSans-20" x="1514.884766"/>
     <use xlink:href="#DejaVuSans-66" x="1546.671875"/>
     <use xlink:href="#DejaVuSans-72" x="1581.876953"/>
     <use xlink:href="#DejaVuSans-6f" x="1620.740234"/>
     <use xlink:href="#DejaVuSans-6d" x="1681.921875"/>
     <use xlink:href="#DejaVuSans-20" x="1779.333984"/>
     <use xlink:href="#DejaVuSans-31" x="1811.121094"/>
     <use xlink:href="#DejaVuSans-39" x="1874.744141"/>
     <use xlink:href="#DejaVuSans-34" x="1938.367188"/>
     <use xlink:href="#DejaVuSans-36" x="2001.990234"/>
     <use xlink:href="#DejaVuSans-20" x="2065.613281"/>
     <use xlink:href="#DejaVuSans-74" x="2097.400391"/>
     <use xlink:href="#DejaVuSans-6f" x="2136.609375"/>
     <use xlink:href="#DejaVuSans-20" x="2197.791016"/>
     <use xlink:href="#DejaVuSans-32" x="2229.578125"/>
     <use xlink:href="#DejaVuSans-30" x="2293.201172"/>
     <use xlink:href="#DejaVuSans-32" x="2356.824219"/>
     <use xlink:href="#DejaVuSans-32" x="2420.447266"/>
    </g>
   </g>
  </g>
 </g>
 <defs>
  <clipPath id="pa0acb43279">
   <rect x="30.49" y="40.88" width="678.71" height="132.182354"/>
  </clipPath>
 </defs>
</svg>
