<?xml version="1.0" encoding="utf-8" standalone="no"?>
<!DOCTYPE svg PUBLIC "-//W3C//DTD SVG 1.1//EN"
  "http://www.w3.org/Graphics/SVG/1.1/DTD/svg11.dtd">
<svg xmlns:xlink="http://www.w3.org/1999/xlink" width="720pt" height="216pt" viewBox="0 0 720 216" xmlns="http://www.w3.org/2000/svg" version="1.1">
 <metadata>
  <rdf:RDF xmlns:dc="http://purl.org/dc/elements/1.1/" xmlns:cc="http://creativecommons.org/ns#" xmlns:rdf="http://www.w3.org/1999/02/22-rdf-syntax-ns#">
   <cc:Work>
    <dc:type rdf:resource="http://purl.org/dc/dcmitype/StillImage"/>
    <dc:date>2024-08-08T20:45:13.853315</dc:date>
    <dc:format>image/svg+xml</dc:format>
    <dc:creator>
     <cc:Agent>
      <dc:title>Matplotlib v3.7.1, https://matplotlib.org/</dc:title>
     </cc:Agent>
    </dc:creator>
   </cc:Work>
  </rdf:RDF>
 </metadata>
 <defs>
  <style type="text/css">*{stroke-linejoin: round; stroke-linecap: butt}</style>
 </defs>
 <g id="figure_1">
  <g id="patch_1">
   <path d="M 0 216 
L 720 216 
L 720 0 
L 0 0 
z
" style="fill: #ffffff"/>
  </g>
  <g id="axes_1">
   <g id="patch_2">
    <path d="M 46.24 173.062354 
L 709.2 173.062354 
L 709.2 40.88 
L 46.24 40.88 
z
" style="fill: #ffffff"/>
   </g>
   <g id="matplotlib.axis_1">
    <g id="xtick_1">
     <g id="line2d_1">
      <path d="M 108.09512 173.062354 
L 108.09512 40.88 
" clip-path="url(#p06fad2e08d)" style="fill: none; stroke: #000000; stroke-width: 0.5; stroke-linecap: square"/>
     </g>
     <g id="line2d_2">
      <defs>
       <path id="m9681c9362a" d="M 0 0 
L 0 3.5 
" style="stroke: #000000; stroke-width: 0.8"/>
      </defs>
      <g>
       <use xlink:href="#m9681c9362a" x="108.09512" y="173.062354" style="stroke: #000000; stroke-width: 0.8"/>
      </g>
     </g>
     <g id="text_1">
      <!-- 1950 -->
      <g transform="translate(101.048359 203.431128) rotate(-45) scale(0.1 -0.1)">
       <defs>
        <path id="DejaVuSans-31" d="M 794 531 
L 1825 531 
L 1825 4091 
L 703 3866 
L 703 4441 
L 1819 4666 
L 2450 4666 
L 2450 531 
L 3481 531 
L 3481 0 
L 794 0 
L 794 531 
z
" transform="scale(0.015625)"/>
        <path id="DejaVuSans-39" d="M 703 97 
L 703 672 
Q 941 559 1184 500 
Q 1428 441 1663 441 
Q 2288 441 2617 861 
Q 2947 1281 2994 2138 
Q 2813 1869 2534 1725 
Q 2256 1581 1919 1581 
Q 1219 1581 811 2004 
Q 403 2428 403 3163 
Q 403 3881 828 4315 
Q 1253 4750 1959 4750 
Q 2769 4750 3195 4129 
Q 3622 3509 3622 2328 
Q 3622 1225 3098 567 
Q 2575 -91 1691 -91 
Q 1453 -91 1209 -44 
Q 966 3 703 97 
z
M 1959 2075 
Q 2384 2075 2632 2365 
Q 2881 2656 2881 3163 
Q 2881 3666 2632 3958 
Q 2384 4250 1959 4250 
Q 1534 4250 1286 3958 
Q 1038 3666 1038 3163 
Q 1038 2656 1286 2365 
Q 1534 2075 1959 2075 
z
" transform="scale(0.015625)"/>
        <path id="DejaVuSans-35" d="M 691 4666 
L 3169 4666 
L 3169 4134 
L 1269 4134 
L 1269 2991 
Q 1406 3038 1543 3061 
Q 1681 3084 1819 3084 
Q 2600 3084 3056 2656 
Q 3513 2228 3513 1497 
Q 3513 744 3044 326 
Q 2575 -91 1722 -91 
Q 1428 -91 1123 -41 
Q 819 9 494 109 
L 494 744 
Q 775 591 1075 516 
Q 1375 441 1709 441 
Q 2250 441 2565 725 
Q 2881 1009 2881 1497 
Q 2881 1984 2565 2268 
Q 2250 2553 1709 2553 
Q 1456 2553 1204 2497 
Q 953 2441 691 2322 
L 691 4666 
z
" transform="scale(0.015625)"/>
        <path id="DejaVuSans-30" d="M 2034 4250 
Q 1547 4250 1301 3770 
Q 1056 3291 1056 2328 
Q 1056 1369 1301 889 
Q 1547 409 2034 409 
Q 2525 409 2770 889 
Q 3016 1369 3016 2328 
Q 3016 3291 2770 3770 
Q 2525 4250 2034 4250 
z
M 2034 4750 
Q 2819 4750 3233 4129 
Q 3647 3509 3647 2328 
Q 3647 1150 3233 529 
Q 2819 -91 2034 -91 
Q 1250 -91 836 529 
Q 422 1150 422 2328 
Q 422 3509 836 4129 
Q 1250 4750 2034 4750 
z
" transform="scale(0.015625)"/>
       </defs>
       <use xlink:href="#DejaVuSans-31"/>
       <use xlink:href="#DejaVuSans-39" x="63.623047"/>
       <use xlink:href="#DejaVuSans-35" x="127.246094"/>
       <use xlink:href="#DejaVuSans-30" x="190.869141"/>
      </g>
     </g>
    </g>
    <g id="xtick_2">
     <g id="line2d_3">
      <path d="M 147.745837 173.062354 
L 147.745837 40.88 
" clip-path="url(#p06fad2e08d)" style="fill: none; stroke: #000000; stroke-width: 0.5; stroke-linecap: square"/>
     </g>
     <g id="line2d_4">
      <g>
       <use xlink:href="#m9681c9362a" x="147.745837" y="173.062354" style="stroke: #000000; stroke-width: 0.8"/>
      </g>
     </g>
     <g id="text_2">
      <!-- 1955 -->
      <g transform="translate(140.699076 203.431128) rotate(-45) scale(0.1 -0.1)">
       <use xlink:href="#DejaVuSans-31"/>
       <use xlink:href="#DejaVuSans-39" x="63.623047"/>
       <use xlink:href="#DejaVuSans-35" x="127.246094"/>
       <use xlink:href="#DejaVuSans-35" x="190.869141"/>
      </g>
     </g>
    </g>
    <g id="xtick_3">
     <g id="line2d_5">
      <path d="M 187.396555 173.062354 
L 187.396555 40.88 
" clip-path="url(#p06fad2e08d)" style="fill: none; stroke: #000000; stroke-width: 0.5; stroke-linecap: square"/>
     </g>
     <g id="line2d_6">
      <g>
       <use xlink:href="#m9681c9362a" x="187.396555" y="173.062354" style="stroke: #000000; stroke-width: 0.8"/>
      </g>
     </g>
     <g id="text_3">
      <!-- 1960 -->
      <g transform="translate(180.349794 203.431128) rotate(-45) scale(0.1 -0.1)">
       <defs>
        <path id="DejaVuSans-36" d="M 2113 2584 
Q 1688 2584 1439 2293 
Q 1191 2003 1191 1497 
Q 1191 994 1439 701 
Q 1688 409 2113 409 
Q 2538 409 2786 701 
Q 3034 994 3034 1497 
Q 3034 2003 2786 2293 
Q 2538 2584 2113 2584 
z
M 3366 4563 
L 3366 3988 
Q 3128 4100 2886 4159 
Q 2644 4219 2406 4219 
Q 1781 4219 1451 3797 
Q 1122 3375 1075 2522 
Q 1259 2794 1537 2939 
Q 1816 3084 2150 3084 
Q 2853 3084 3261 2657 
Q 3669 2231 3669 1497 
Q 3669 778 3244 343 
Q 2819 -91 2113 -91 
Q 1303 -91 875 529 
Q 447 1150 447 2328 
Q 447 3434 972 4092 
Q 1497 4750 2381 4750 
Q 2619 4750 2861 4703 
Q 3103 4656 3366 4563 
z
" transform="scale(0.015625)"/>
       </defs>
       <use xlink:href="#DejaVuSans-31"/>
       <use xlink:href="#DejaVuSans-39" x="63.623047"/>
       <use xlink:href="#DejaVuSans-36" x="127.246094"/>
       <use xlink:href="#DejaVuSans-30" x="190.869141"/>
      </g>
     </g>
    </g>
    <g id="xtick_4">
     <g id="line2d_7">
      <path d="M 227.047273 173.062354 
L 227.047273 40.88 
" clip-path="url(#p06fad2e08d)" style="fill: none; stroke: #000000; stroke-width: 0.5; stroke-linecap: square"/>
     </g>
     <g id="line2d_8">
      <g>
       <use xlink:href="#m9681c9362a" x="227.047273" y="173.062354" style="stroke: #000000; stroke-width: 0.8"/>
      </g>
     </g>
     <g id="text_4">
      <!-- 1965 -->
      <g transform="translate(220.000512 203.431128) rotate(-45) scale(0.1 -0.1)">
       <use xlink:href="#DejaVuSans-31"/>
       <use xlink:href="#DejaVuSans-39" x="63.623047"/>
       <use xlink:href="#DejaVuSans-36" x="127.246094"/>
       <use xlink:href="#DejaVuSans-35" x="190.869141"/>
      </g>
     </g>
    </g>
    <g id="xtick_5">
     <g id="line2d_9">
      <path d="M 266.69799 173.062354 
L 266.69799 40.88 
" clip-path="url(#p06fad2e08d)" style="fill: none; stroke: #000000; stroke-width: 0.5; stroke-linecap: square"/>
     </g>
     <g id="line2d_10">
      <g>
       <use xlink:href="#m9681c9362a" x="266.69799" y="173.062354" style="stroke: #000000; stroke-width: 0.8"/>
      </g>
     </g>
     <g id="text_5">
      <!-- 1970 -->
      <g transform="translate(259.651229 203.431128) rotate(-45) scale(0.1 -0.1)">
       <defs>
        <path id="DejaVuSans-37" d="M 525 4666 
L 3525 4666 
L 3525 4397 
L 1831 0 
L 1172 0 
L 2766 4134 
L 525 4134 
L 525 4666 
z
" transform="scale(0.015625)"/>
       </defs>
       <use xlink:href="#DejaVuSans-31"/>
       <use xlink:href="#DejaVuSans-39" x="63.623047"/>
       <use xlink:href="#DejaVuSans-37" x="127.246094"/>
       <use xlink:href="#DejaVuSans-30" x="190.869141"/>
      </g>
     </g>
    </g>
    <g id="xtick_6">
     <g id="line2d_11">
      <path d="M 306.348708 173.062354 
L 306.348708 40.88 
" clip-path="url(#p06fad2e08d)" style="fill: none; stroke: #000000; stroke-width: 0.5; stroke-linecap: square"/>
     </g>
     <g id="line2d_12">
      <g>
       <use xlink:href="#m9681c9362a" x="306.348708" y="173.062354" style="stroke: #000000; stroke-width: 0.8"/>
      </g>
     </g>
     <g id="text_6">
      <!-- 1975 -->
      <g transform="translate(299.301947 203.431128) rotate(-45) scale(0.1 -0.1)">
       <use xlink:href="#DejaVuSans-31"/>
       <use xlink:href="#DejaVuSans-39" x="63.623047"/>
       <use xlink:href="#DejaVuSans-37" x="127.246094"/>
       <use xlink:href="#DejaVuSans-35" x="190.869141"/>
      </g>
     </g>
    </g>
    <g id="xtick_7">
     <g id="line2d_13">
      <path d="M 345.999426 173.062354 
L 345.999426 40.88 
" clip-path="url(#p06fad2e08d)" style="fill: none; stroke: #000000; stroke-width: 0.5; stroke-linecap: square"/>
     </g>
     <g id="line2d_14">
      <g>
       <use xlink:href="#m9681c9362a" x="345.999426" y="173.062354" style="stroke: #000000; stroke-width: 0.8"/>
      </g>
     </g>
     <g id="text_7">
      <!-- 1980 -->
      <g transform="translate(338.952665 203.431128) rotate(-45) scale(0.1 -0.1)">
       <defs>
        <path id="DejaVuSans-38" d="M 2034 2216 
Q 1584 2216 1326 1975 
Q 1069 1734 1069 1313 
Q 1069 891 1326 650 
Q 1584 409 2034 409 
Q 2484 409 2743 651 
Q 3003 894 3003 1313 
Q 3003 1734 2745 1975 
Q 2488 2216 2034 2216 
z
M 1403 2484 
Q 997 2584 770 2862 
Q 544 3141 544 3541 
Q 544 4100 942 4425 
Q 1341 4750 2034 4750 
Q 2731 4750 3128 4425 
Q 3525 4100 3525 3541 
Q 3525 3141 3298 2862 
Q 3072 2584 2669 2484 
Q 3125 2378 3379 2068 
Q 3634 1759 3634 1313 
Q 3634 634 3220 271 
Q 2806 -91 2034 -91 
Q 1263 -91 848 271 
Q 434 634 434 1313 
Q 434 1759 690 2068 
Q 947 2378 1403 2484 
z
M 1172 3481 
Q 1172 3119 1398 2916 
Q 1625 2713 2034 2713 
Q 2441 2713 2670 2916 
Q 2900 3119 2900 3481 
Q 2900 3844 2670 4047 
Q 2441 4250 2034 4250 
Q 1625 4250 1398 4047 
Q 1172 3844 1172 3481 
z
" transform="scale(0.015625)"/>
       </defs>
       <use xlink:href="#DejaVuSans-31"/>
       <use xlink:href="#DejaVuSans-39" x="63.623047"/>
       <use xlink:href="#DejaVuSans-38" x="127.246094"/>
       <use xlink:href="#DejaVuSans-30" x="190.869141"/>
      </g>
     </g>
    </g>
    <g id="xtick_8">
     <g id="line2d_15">
      <path d="M 385.650144 173.062354 
L 385.650144 40.88 
" clip-path="url(#p06fad2e08d)" style="fill: none; stroke: #000000; stroke-width: 0.5; stroke-linecap: square"/>
     </g>
     <g id="line2d_16">
      <g>
       <use xlink:href="#m9681c9362a" x="385.650144" y="173.062354" style="stroke: #000000; stroke-width: 0.8"/>
      </g>
     </g>
     <g id="text_8">
      <!-- 1985 -->
      <g transform="translate(378.603383 203.431128) rotate(-45) scale(0.1 -0.1)">
       <use xlink:href="#DejaVuSans-31"/>
       <use xlink:href="#DejaVuSans-39" x="63.623047"/>
       <use xlink:href="#DejaVuSans-38" x="127.246094"/>
       <use xlink:href="#DejaVuSans-35" x="190.869141"/>
      </g>
     </g>
    </g>
    <g id="xtick_9">
     <g id="line2d_17">
      <path d="M 425.300861 173.062354 
L 425.300861 40.88 
" clip-path="url(#p06fad2e08d)" style="fill: none; stroke: #000000; stroke-width: 0.5; stroke-linecap: square"/>
     </g>
     <g id="line2d_18">
      <g>
       <use xlink:href="#m9681c9362a" x="425.300861" y="173.062354" style="stroke: #000000; stroke-width: 0.8"/>
      </g>
     </g>
     <g id="text_9">
      <!-- 1990 -->
      <g transform="translate(418.2541 203.431128) rotate(-45) scale(0.1 -0.1)">
       <use xlink:href="#DejaVuSans-31"/>
       <use xlink:href="#DejaVuSans-39" x="63.623047"/>
       <use xlink:href="#DejaVuSans-39" x="127.246094"/>
       <use xlink:href="#DejaVuSans-30" x="190.869141"/>
      </g>
     </g>
    </g>
    <g id="xtick_10">
     <g id="line2d_19">
      <path d="M 464.951579 173.062354 
L 464.951579 40.88 
" clip-path="url(#p06fad2e08d)" style="fill: none; stroke: #000000; stroke-width: 0.5; stroke-linecap: square"/>
     </g>
     <g id="line2d_20">
      <g>
       <use xlink:href="#m9681c9362a" x="464.951579" y="173.062354" style="stroke: #000000; stroke-width: 0.8"/>
      </g>
     </g>
     <g id="text_10">
      <!-- 1995 -->
      <g transform="translate(457.904818 203.431128) rotate(-45) scale(0.1 -0.1)">
       <use xlink:href="#DejaVuSans-31"/>
       <use xlink:href="#DejaVuSans-39" x="63.623047"/>
       <use xlink:href="#DejaVuSans-39" x="127.246094"/>
       <use xlink:href="#DejaVuSans-35" x="190.869141"/>
      </g>
     </g>
    </g>
    <g id="xtick_11">
     <g id="line2d_21">
      <path d="M 504.602297 173.062354 
L 504.602297 40.88 
" clip-path="url(#p06fad2e08d)" style="fill: none; stroke: #000000; stroke-width: 0.5; stroke-linecap: square"/>
     </g>
     <g id="line2d_22">
      <g>
       <use xlink:href="#m9681c9362a" x="504.602297" y="173.062354" style="stroke: #000000; stroke-width: 0.8"/>
      </g>
     </g>
     <g id="text_11">
      <!-- 2000 -->
      <g transform="translate(497.555536 203.431128) rotate(-45) scale(0.1 -0.1)">
       <defs>
        <path id="DejaVuSans-32" d="M 1228 531 
L 3431 531 
L 3431 0 
L 469 0 
L 469 531 
Q 828 903 1448 1529 
Q 2069 2156 2228 2338 
Q 2531 2678 2651 2914 
Q 2772 3150 2772 3378 
Q 2772 3750 2511 3984 
Q 2250 4219 1831 4219 
Q 1534 4219 1204 4116 
Q 875 4013 500 3803 
L 500 4441 
Q 881 4594 1212 4672 
Q 1544 4750 1819 4750 
Q 2544 4750 2975 4387 
Q 3406 4025 3406 3419 
Q 3406 3131 3298 2873 
Q 3191 2616 2906 2266 
Q 2828 2175 2409 1742 
Q 1991 1309 1228 531 
z
" transform="scale(0.015625)"/>
       </defs>
       <use xlink:href="#DejaVuSans-32"/>
       <use xlink:href="#DejaVuSans-30" x="63.623047"/>
       <use xlink:href="#DejaVuSans-30" x="127.246094"/>
       <use xlink:href="#DejaVuSans-30" x="190.869141"/>
      </g>
     </g>
    </g>
    <g id="xtick_12">
     <g id="line2d_23">
      <path d="M 544.253014 173.062354 
L 544.253014 40.88 
" clip-path="url(#p06fad2e08d)" style="fill: none; stroke: #000000; stroke-width: 0.5; stroke-linecap: square"/>
     </g>
     <g id="line2d_24">
      <g>
       <use xlink:href="#m9681c9362a" x="544.253014" y="173.062354" style="stroke: #000000; stroke-width: 0.8"/>
      </g>
     </g>
     <g id="text_12">
      <!-- 2005 -->
      <g transform="translate(537.206253 203.431128) rotate(-45) scale(0.1 -0.1)">
       <use xlink:href="#DejaVuSans-32"/>
       <use xlink:href="#DejaVuSans-30" x="63.623047"/>
       <use xlink:href="#DejaVuSans-30" x="127.246094"/>
       <use xlink:href="#DejaVuSans-35" x="190.869141"/>
      </g>
     </g>
    </g>
    <g id="xtick_13">
     <g id="line2d_25">
      <path d="M 583.903732 173.062354 
L 583.903732 40.88 
" clip-path="url(#p06fad2e08d)" style="fill: none; stroke: #000000; stroke-width: 0.5; stroke-linecap: square"/>
     </g>
     <g id="line2d_26">
      <g>
       <use xlink:href="#m9681c9362a" x="583.903732" y="173.062354" style="stroke: #000000; stroke-width: 0.8"/>
      </g>
     </g>
     <g id="text_13">
      <!-- 2010 -->
      <g transform="translate(576.856971 203.431128) rotate(-45) scale(0.1 -0.1)">
       <use xlink:href="#DejaVuSans-32"/>
       <use xlink:href="#DejaVuSans-30" x="63.623047"/>
       <use xlink:href="#DejaVuSans-31" x="127.246094"/>
       <use xlink:href="#DejaVuSans-30" x="190.869141"/>
      </g>
     </g>
    </g>
    <g id="xtick_14">
     <g id="line2d_27">
      <path d="M 623.55445 173.062354 
L 623.55445 40.88 
" clip-path="url(#p06fad2e08d)" style="fill: none; stroke: #000000; stroke-width: 0.5; stroke-linecap: square"/>
     </g>
     <g id="line2d_28">
      <g>
       <use xlink:href="#m9681c9362a" x="623.55445" y="173.062354" style="stroke: #000000; stroke-width: 0.8"/>
      </g>
     </g>
     <g id="text_14">
      <!-- 2015 -->
      <g transform="translate(616.507689 203.431128) rotate(-45) scale(0.1 -0.1)">
       <use xlink:href="#DejaVuSans-32"/>
       <use xlink:href="#DejaVuSans-30" x="63.623047"/>
       <use xlink:href="#DejaVuSans-31" x="127.246094"/>
       <use xlink:href="#DejaVuSans-35" x="190.869141"/>
      </g>
     </g>
    </g>
    <g id="xtick_15">
     <g id="line2d_29">
      <path d="M 663.205167 173.062354 
L 663.205167 40.88 
" clip-path="url(#p06fad2e08d)" style="fill: none; stroke: #000000; stroke-width: 0.5; stroke-linecap: square"/>
     </g>
     <g id="line2d_30">
      <g>
       <use xlink:href="#m9681c9362a" x="663.205167" y="173.062354" style="stroke: #000000; stroke-width: 0.8"/>
      </g>
     </g>
     <g id="text_15">
      <!-- 2020 -->
      <g transform="translate(656.158406 203.431128) rotate(-45) scale(0.1 -0.1)">
       <use xlink:href="#DejaVuSans-32"/>
       <use xlink:href="#DejaVuSans-30" x="63.623047"/>
       <use xlink:href="#DejaVuSans-32" x="127.246094"/>
       <use xlink:href="#DejaVuSans-30" x="190.869141"/>
      </g>
     </g>
    </g>
   </g>
   <g id="matplotlib.axis_2">
    <g id="ytick_1">
     <g id="line2d_31">
      <path d="M 46.24 161.706624 
L 709.2 161.706624 
" clip-path="url(#p06fad2e08d)" style="fill: none; stroke: #000000; stroke-width: 0.5; stroke-linecap: square"/>
     </g>
     <g id="line2d_32">
      <defs>
       <path id="mba306981a9" d="M 0 0 
L -3.5 0 
" style="stroke: #000000; stroke-width: 0.8"/>
      </defs>
      <g>
       <use xlink:href="#mba306981a9" x="46.24" y="161.706624" style="stroke: #000000; stroke-width: 0.8"/>
      </g>
     </g>
     <g id="text_16">
      <!-- 0.760 -->
      <g transform="translate(10.611875 165.505843) scale(0.1 -0.1)">
       <defs>
        <path id="DejaVuSans-2e" d="M 684 794 
L 1344 794 
L 1344 0 
L 684 0 
L 684 794 
z
" transform="scale(0.015625)"/>
       </defs>
       <use xlink:href="#DejaVuSans-30"/>
       <use xlink:href="#DejaVuSans-2e" x="63.623047"/>
       <use xlink:href="#DejaVuSans-37" x="95.410156"/>
       <use xlink:href="#DejaVuSans-36" x="159.033203"/>
       <use xlink:href="#DejaVuSans-30" x="222.65625"/>
      </g>
     </g>
    </g>
    <g id="ytick_2">
     <g id="line2d_33">
      <path d="M 46.24 131.964319 
L 709.2 131.964319 
" clip-path="url(#p06fad2e08d)" style="fill: none; stroke: #000000; stroke-width: 0.5; stroke-linecap: square"/>
     </g>
     <g id="line2d_34">
      <g>
       <use xlink:href="#mba306981a9" x="46.24" y="131.964319" style="stroke: #000000; stroke-width: 0.8"/>
      </g>
     </g>
     <g id="text_17">
      <!-- 0.765 -->
      <g transform="translate(10.611875 135.763538) scale(0.1 -0.1)">
       <use xlink:href="#DejaVuSans-30"/>
       <use xlink:href="#DejaVuSans-2e" x="63.623047"/>
       <use xlink:href="#DejaVuSans-37" x="95.410156"/>
       <use xlink:href="#DejaVuSans-36" x="159.033203"/>
       <use xlink:href="#DejaVuSans-35" x="222.65625"/>
      </g>
     </g>
    </g>
    <g id="ytick_3">
     <g id="line2d_35">
      <path d="M 46.24 102.222014 
L 709.2 102.222014 
" clip-path="url(#p06fad2e08d)" style="fill: none; stroke: #000000; stroke-width: 0.5; stroke-linecap: square"/>
     </g>
     <g id="line2d_36">
      <g>
       <use xlink:href="#mba306981a9" x="46.24" y="102.222014" style="stroke: #000000; stroke-width: 0.8"/>
      </g>
     </g>
     <g id="text_18">
      <!-- 0.770 -->
      <g transform="translate(10.611875 106.021233) scale(0.1 -0.1)">
       <use xlink:href="#DejaVuSans-30"/>
       <use xlink:href="#DejaVuSans-2e" x="63.623047"/>
       <use xlink:href="#DejaVuSans-37" x="95.410156"/>
       <use xlink:href="#DejaVuSans-37" x="159.033203"/>
       <use xlink:href="#DejaVuSans-30" x="222.65625"/>
      </g>
     </g>
    </g>
    <g id="ytick_4">
     <g id="line2d_37">
      <path d="M 46.24 72.479709 
L 709.2 72.479709 
" clip-path="url(#p06fad2e08d)" style="fill: none; stroke: #000000; stroke-width: 0.5; stroke-linecap: square"/>
     </g>
     <g id="line2d_38">
      <g>
       <use xlink:href="#mba306981a9" x="46.24" y="72.479709" style="stroke: #000000; stroke-width: 0.8"/>
      </g>
     </g>
     <g id="text_19">
      <!-- 0.775 -->
      <g transform="translate(10.611875 76.278928) scale(0.1 -0.1)">
       <use xlink:href="#DejaVuSans-30"/>
       <use xlink:href="#DejaVuSans-2e" x="63.623047"/>
       <use xlink:href="#DejaVuSans-37" x="95.410156"/>
       <use xlink:href="#DejaVuSans-37" x="159.033203"/>
       <use xlink:href="#DejaVuSans-35" x="222.65625"/>
      </g>
     </g>
    </g>
    <g id="ytick_5">
     <g id="line2d_39">
      <path d="M 46.24 42.737404 
L 709.2 42.737404 
" clip-path="url(#p06fad2e08d)" style="fill: none; stroke: #000000; stroke-width: 0.5; stroke-linecap: square"/>
     </g>
     <g id="line2d_40">
      <g>
       <use xlink:href="#mba306981a9" x="46.24" y="42.737404" style="stroke: #000000; stroke-width: 0.8"/>
      </g>
     </g>
     <g id="text_20">
      <!-- 0.780 -->
      <g transform="translate(10.611875 46.536623) scale(0.1 -0.1)">
       <use xlink:href="#DejaVuSans-30"/>
       <use xlink:href="#DejaVuSans-2e" x="63.623047"/>
       <use xlink:href="#DejaVuSans-37" x="95.410156"/>
       <use xlink:href="#DejaVuSans-38" x="159.033203"/>
       <use xlink:href="#DejaVuSans-30" x="222.65625"/>
      </g>
     </g>
    </g>
   </g>
   <g id="line2d_41">
    <path d="M 76.374545 162.805188 
L 84.304689 152.537023 
L 108.09512 139.867428 
L 116.025263 114.15684 
L 123.955407 127.260279 
L 131.88555 106.847173 
L 139.815694 95.004143 
L 147.745837 131.484113 
L 155.675981 110.362767 
L 163.606124 115.835892 
L 171.536268 89.168974 
L 179.466411 91.298109 
L 187.396555 120.703467 
L 195.326699 112.624115 
L 203.256842 97.335465 
L 211.186986 87.042481 
L 219.117129 116.546037 
L 227.047273 104.24605 
L 234.977416 93.182681 
L 242.90756 88.588017 
L 250.837703 85.992009 
L 258.767847 85.074488 
L 266.69799 118.839957 
L 274.628134 114.139733 
L 282.558278 109.357354 
L 290.488421 125.186641 
L 298.418565 123.66944 
L 306.348708 129.785889 
L 314.278852 126.003682 
L 322.208995 129.896512 
L 330.139139 119.788662 
L 338.069282 145.214268 
L 345.999426 140.491813 
L 353.929569 122.716897 
L 361.859713 124.259075 
L 369.789856 127.517189 
L 377.72 133.526328 
L 385.650144 113.778385 
L 393.580287 97.729121 
L 401.510431 97.372382 
L 409.440574 103.354525 
L 417.370718 84.540697 
L 425.300861 114.974093 
L 433.231005 113.696595 
L 441.161148 113.329994 
L 449.091292 92.403042 
L 457.021435 111.865443 
L 464.951579 117.486312 
L 472.881722 106.651799 
L 480.811866 105.712473 
L 488.74201 105.812669 
L 496.672153 110.841627 
L 504.602297 111.785136 
L 512.53244 101.903412 
L 520.462584 108.11216 
L 528.392727 100.560433 
L 536.322871 108.090333 
L 544.253014 84.72143 
L 552.183158 87.727282 
L 560.113301 86.521029 
L 568.043445 74.039863 
L 575.973589 71.127635 
L 583.903732 72.788751 
L 591.833876 80.335749 
L 599.764019 88.342018 
L 607.694163 83.758403 
L 615.624306 85.720699 
L 623.55445 76.731951 
L 631.484593 73.626313 
L 639.414737 59.603579 
L 647.34488 70.441559 
L 655.275024 47.103626 
L 663.205167 48.684728 
L 671.135311 46.888289 
L 679.065455 63.033697 
" clip-path="url(#p06fad2e08d)" style="fill: none; stroke: #1f77b4; stroke-width: 1.5; stroke-linecap: square"/>
    <defs>
     <path id="mc631169a4b" d="M 0 3 
C 0.795609 3 1.55874 2.683901 2.12132 2.12132 
C 2.683901 1.55874 3 0.795609 3 0 
C 3 -0.795609 2.683901 -1.55874 2.12132 -2.12132 
C 1.55874 -2.683901 0.795609 -3 0 -3 
C -0.795609 -3 -1.55874 -2.683901 -2.12132 -2.12132 
C -2.683901 -1.55874 -3 -0.795609 -3 0 
C -3 0.795609 -2.683901 1.55874 -2.12132 2.12132 
C -1.55874 2.683901 -0.795609 3 0 3 
z
" style="stroke: #1f77b4"/>
    </defs>
    <g clip-path="url(#p06fad2e08d)">
     <use xlink:href="#mc631169a4b" x="76.374545" y="162.805188" style="fill: #1f77b4; stroke: #1f77b4"/>
     <use xlink:href="#mc631169a4b" x="84.304689" y="152.537023" style="fill: #1f77b4; stroke: #1f77b4"/>
     <use xlink:href="#mc631169a4b" x="108.09512" y="139.867428" style="fill: #1f77b4; stroke: #1f77b4"/>
     <use xlink:href="#mc631169a4b" x="116.025263" y="114.15684" style="fill: #1f77b4; stroke: #1f77b4"/>
     <use xlink:href="#mc631169a4b" x="123.955407" y="127.260279" style="fill: #1f77b4; stroke: #1f77b4"/>
     <use xlink:href="#mc631169a4b" x="131.88555" y="106.847173" style="fill: #1f77b4; stroke: #1f77b4"/>
     <use xlink:href="#mc631169a4b" x="139.815694" y="95.004143" style="fill: #1f77b4; stroke: #1f77b4"/>
     <use xlink:href="#mc631169a4b" x="147.745837" y="131.484113" style="fill: #1f77b4; stroke: #1f77b4"/>
     <use xlink:href="#mc631169a4b" x="155.675981" y="110.362767" style="fill: #1f77b4; stroke: #1f77b4"/>
     <use xlink:href="#mc631169a4b" x="163.606124" y="115.835892" style="fill: #1f77b4; stroke: #1f77b4"/>
     <use xlink:href="#mc631169a4b" x="171.536268" y="89.168974" style="fill: #1f77b4; stroke: #1f77b4"/>
     <use xlink:href="#mc631169a4b" x="179.466411" y="91.298109" style="fill: #1f77b4; stroke: #1f77b4"/>
     <use xlink:href="#mc631169a4b" x="187.396555" y="120.703467" style="fill: #1f77b4; stroke: #1f77b4"/>
     <use xlink:href="#mc631169a4b" x="195.326699" y="112.624115" style="fill: #1f77b4; stroke: #1f77b4"/>
     <use xlink:href="#mc631169a4b" x="203.256842" y="97.335465" style="fill: #1f77b4; stroke: #1f77b4"/>
     <use xlink:href="#mc631169a4b" x="211.186986" y="87.042481" style="fill: #1f77b4; stroke: #1f77b4"/>
     <use xlink:href="#mc631169a4b" x="219.117129" y="116.546037" style="fill: #1f77b4; stroke: #1f77b4"/>
     <use xlink:href="#mc631169a4b" x="227.047273" y="104.24605" style="fill: #1f77b4; stroke: #1f77b4"/>
     <use xlink:href="#mc631169a4b" x="234.977416" y="93.182681" style="fill: #1f77b4; stroke: #1f77b4"/>
     <use xlink:href="#mc631169a4b" x="242.90756" y="88.588017" style="fill: #1f77b4; stroke: #1f77b4"/>
     <use xlink:href="#mc631169a4b" x="250.837703" y="85.992009" style="fill: #1f77b4; stroke: #1f77b4"/>
     <use xlink:href="#mc631169a4b" x="258.767847" y="85.074488" style="fill: #1f77b4; stroke: #1f77b4"/>
     <use xlink:href="#mc631169a4b" x="266.69799" y="118.839957" style="fill: #1f77b4; stroke: #1f77b4"/>
     <use xlink:href="#mc631169a4b" x="274.628134" y="114.139733" style="fill: #1f77b4; stroke: #1f77b4"/>
     <use xlink:href="#mc631169a4b" x="282.558278" y="109.357354" style="fill: #1f77b4; stroke: #1f77b4"/>
     <use xlink:href="#mc631169a4b" x="290.488421" y="125.186641" style="fill: #1f77b4; stroke: #1f77b4"/>
     <use xlink:href="#mc631169a4b" x="298.418565" y="123.66944" style="fill: #1f77b4; stroke: #1f77b4"/>
     <use xlink:href="#mc631169a4b" x="306.348708" y="129.785889" style="fill: #1f77b4; stroke: #1f77b4"/>
     <use xlink:href="#mc631169a4b" x="314.278852" y="126.003682" style="fill: #1f77b4; stroke: #1f77b4"/>
     <use xlink:href="#mc631169a4b" x="322.208995" y="129.896512" style="fill: #1f77b4; stroke: #1f77b4"/>
     <use xlink:href="#mc631169a4b" x="330.139139" y="119.788662" style="fill: #1f77b4; stroke: #1f77b4"/>
     <use xlink:href="#mc631169a4b" x="338.069282" y="145.214268" style="fill: #1f77b4; stroke: #1f77b4"/>
     <use xlink:href="#mc631169a4b" x="345.999426" y="140.491813" style="fill: #1f77b4; stroke: #1f77b4"/>
     <use xlink:href="#mc631169a4b" x="353.929569" y="122.716897" style="fill: #1f77b4; stroke: #1f77b4"/>
     <use xlink:href="#mc631169a4b" x="361.859713" y="124.259075" style="fill: #1f77b4; stroke: #1f77b4"/>
     <use xlink:href="#mc631169a4b" x="369.789856" y="127.517189" style="fill: #1f77b4; stroke: #1f77b4"/>
     <use xlink:href="#mc631169a4b" x="377.72" y="133.526328" style="fill: #1f77b4; stroke: #1f77b4"/>
     <use xlink:href="#mc631169a4b" x="385.650144" y="113.778385" style="fill: #1f77b4; stroke: #1f77b4"/>
     <use xlink:href="#mc631169a4b" x="393.580287" y="97.729121" style="fill: #1f77b4; stroke: #1f77b4"/>
     <use xlink:href="#mc631169a4b" x="401.510431" y="97.372382" style="fill: #1f77b4; stroke: #1f77b4"/>
     <use xlink:href="#mc631169a4b" x="409.440574" y="103.354525" style="fill: #1f77b4; stroke: #1f77b4"/>
     <use xlink:href="#mc631169a4b" x="417.370718" y="84.540697" style="fill: #1f77b4; stroke: #1f77b4"/>
     <use xlink:href="#mc631169a4b" x="425.300861" y="114.974093" style="fill: #1f77b4; stroke: #1f77b4"/>
     <use xlink:href="#mc631169a4b" x="433.231005" y="113.696595" style="fill: #1f77b4; stroke: #1f77b4"/>
     <use xlink:href="#mc631169a4b" x="441.161148" y="113.329994" style="fill: #1f77b4; stroke: #1f77b4"/>
     <use xlink:href="#mc631169a4b" x="449.091292" y="92.403042" style="fill: #1f77b4; stroke: #1f77b4"/>
     <use xlink:href="#mc631169a4b" x="457.021435" y="111.865443" style="fill: #1f77b4; stroke: #1f77b4"/>
     <use xlink:href="#mc631169a4b" x="464.951579" y="117.486312" style="fill: #1f77b4; stroke: #1f77b4"/>
     <use xlink:href="#mc631169a4b" x="472.881722" y="106.651799" style="fill: #1f77b4; stroke: #1f77b4"/>
     <use xlink:href="#mc631169a4b" x="480.811866" y="105.712473" style="fill: #1f77b4; stroke: #1f77b4"/>
     <use xlink:href="#mc631169a4b" x="488.74201" y="105.812669" style="fill: #1f77b4; stroke: #1f77b4"/>
     <use xlink:href="#mc631169a4b" x="496.672153" y="110.841627" style="fill: #1f77b4; stroke: #1f77b4"/>
     <use xlink:href="#mc631169a4b" x="504.602297" y="111.785136" style="fill: #1f77b4; stroke: #1f77b4"/>
     <use xlink:href="#mc631169a4b" x="512.53244" y="101.903412" style="fill: #1f77b4; stroke: #1f77b4"/>
     <use xlink:href="#mc631169a4b" x="520.462584" y="108.11216" style="fill: #1f77b4; stroke: #1f77b4"/>
     <use xlink:href="#mc631169a4b" x="528.392727" y="100.560433" style="fill: #1f77b4; stroke: #1f77b4"/>
     <use xlink:href="#mc631169a4b" x="536.322871" y="108.090333" style="fill: #1f77b4; stroke: #1f77b4"/>
     <use xlink:href="#mc631169a4b" x="544.253014" y="84.72143" style="fill: #1f77b4; stroke: #1f77b4"/>
     <use xlink:href="#mc631169a4b" x="552.183158" y="87.727282" style="fill: #1f77b4; stroke: #1f77b4"/>
     <use xlink:href="#mc631169a4b" x="560.113301" y="86.521029" style="fill: #1f77b4; stroke: #1f77b4"/>
     <use xlink:href="#mc631169a4b" x="568.043445" y="74.039863" style="fill: #1f77b4; stroke: #1f77b4"/>
     <use xlink:href="#mc631169a4b" x="575.973589" y="71.127635" style="fill: #1f77b4; stroke: #1f77b4"/>
     <use xlink:href="#mc631169a4b" x="583.903732" y="72.788751" style="fill: #1f77b4; stroke: #1f77b4"/>
     <use xlink:href="#mc631169a4b" x="591.833876" y="80.335749" style="fill: #1f77b4; stroke: #1f77b4"/>
     <use xlink:href="#mc631169a4b" x="599.764019" y="88.342018" style="fill: #1f77b4; stroke: #1f77b4"/>
     <use xlink:href="#mc631169a4b" x="607.694163" y="83.758403" style="fill: #1f77b4; stroke: #1f77b4"/>
     <use xlink:href="#mc631169a4b" x="615.624306" y="85.720699" style="fill: #1f77b4; stroke: #1f77b4"/>
     <use xlink:href="#mc631169a4b" x="623.55445" y="76.731951" style="fill: #1f77b4; stroke: #1f77b4"/>
     <use xlink:href="#mc631169a4b" x="631.484593" y="73.626313" style="fill: #1f77b4; stroke: #1f77b4"/>
     <use xlink:href="#mc631169a4b" x="639.414737" y="59.603579" style="fill: #1f77b4; stroke: #1f77b4"/>
     <use xlink:href="#mc631169a4b" x="647.34488" y="70.441559" style="fill: #1f77b4; stroke: #1f77b4"/>
     <use xlink:href="#mc631169a4b" x="655.275024" y="47.103626" style="fill: #1f77b4; stroke: #1f77b4"/>
     <use xlink:href="#mc631169a4b" x="663.205167" y="48.684728" style="fill: #1f77b4; stroke: #1f77b4"/>
     <use xlink:href="#mc631169a4b" x="671.135311" y="46.888289" style="fill: #1f77b4; stroke: #1f77b4"/>
     <use xlink:href="#mc631169a4b" x="679.065455" y="63.033697" style="fill: #1f77b4; stroke: #1f77b4"/>
    </g>
   </g>
   <g id="line2d_42">
    <path d="M 76.374545 167.054065 
L 79.997938 161.59289 
L 83.62133 156.452096 
L 87.244722 151.620058 
L 90.868114 147.085382 
L 94.491507 142.83675 
L 98.114899 138.863369 
L 101.738291 135.15441 
L 105.361683 131.699501 
L 108.985076 128.488476 
L 112.608468 125.511326 
L 116.23186 122.758255 
L 119.855252 120.2199 
L 123.478645 117.886806 
L 128.309834 115.079909 
L 133.141024 112.601109 
L 137.972214 110.430412 
L 142.803403 108.54823 
L 147.634593 106.935876 
L 152.465782 105.575212 
L 157.296972 104.448766 
L 162.128162 103.539746 
L 166.959351 102.831897 
L 172.998338 102.206438 
L 179.037326 101.842016 
L 185.076313 101.711096 
L 191.1153 101.78742 
L 198.362084 102.11786 
L 205.608869 102.670785 
L 214.063451 103.547275 
L 223.72583 104.786979 
L 235.803804 106.585442 
L 255.128563 109.742241 
L 276.868916 113.242849 
L 290.154688 115.162033 
L 302.232662 116.678718 
L 313.102838 117.819706 
L 323.973015 118.723287 
L 333.635394 119.313373 
L 343.297774 119.695185 
L 352.960153 119.864868 
L 362.622532 119.822393 
L 372.284912 119.570509 
L 381.947291 119.114761 
L 392.817468 118.368354 
L 403.687644 117.38845 
L 414.557821 116.191807 
L 426.635795 114.631346 
L 439.921567 112.666319 
L 453.207338 110.478377 
L 468.908705 107.657464 
L 487.025666 104.159304 
L 508.766019 99.721129 
L 535.337562 94.060616 
L 560.701308 88.438761 
L 580.026067 83.932693 
L 594.519636 80.339009 
L 606.59761 77.134693 
L 617.467786 74.030069 
L 627.130166 71.045971 
L 635.584748 68.222377 
L 644.03933 65.162548 
L 651.286114 62.321037 
L 658.532899 59.248029 
L 665.779683 55.912921 
L 671.81867 52.909744 
L 677.857657 49.681247 
L 679.065455 49.006571 
L 679.065455 49.006571 
" clip-path="url(#p06fad2e08d)" style="fill: none; stroke: #ff0000; stroke-width: 1.5; stroke-linecap: square"/>
   </g>
   <g id="patch_3">
    <path d="M 46.24 173.062354 
L 46.24 40.88 
" style="fill: none; stroke: #000000; stroke-width: 0.8; stroke-linejoin: miter; stroke-linecap: square"/>
   </g>
   <g id="patch_4">
    <path d="M 709.2 173.062354 
L 709.2 40.88 
" style="fill: none; stroke: #000000; stroke-width: 0.8; stroke-linejoin: miter; stroke-linecap: square"/>
   </g>
   <g id="patch_5">
    <path d="M 46.24 173.062354 
L 709.2 173.062354 
" style="fill: none; stroke: #000000; stroke-width: 0.8; stroke-linejoin: miter; stroke-linecap: square"/>
   </g>
   <g id="patch_6">
    <path d="M 46.24 40.88 
L 709.2 40.88 
" style="fill: none; stroke: #000000; stroke-width: 0.8; stroke-linejoin: miter; stroke-linecap: square"/>
   </g>
   <g id="text_21">
    <!-- S2 - Lexical Diversity (MATTR) from 1946 to 2022 -->
    <g transform="translate(229.880938 20.88) scale(0.12 -0.12)">
     <defs>
      <path id="DejaVuSans-53" d="M 3425 4513 
L 3425 3897 
Q 3066 4069 2747 4153 
Q 2428 4238 2131 4238 
Q 1616 4238 1336 4038 
Q 1056 3838 1056 3469 
Q 1056 3159 1242 3001 
Q 1428 2844 1947 2747 
L 2328 2669 
Q 3034 2534 3370 2195 
Q 3706 1856 3706 1288 
Q 3706 609 3251 259 
Q 2797 -91 1919 -91 
Q 1588 -91 1214 -16 
Q 841 59 441 206 
L 441 856 
Q 825 641 1194 531 
Q 1563 422 1919 422 
Q 2459 422 2753 634 
Q 3047 847 3047 1241 
Q 3047 1584 2836 1778 
Q 2625 1972 2144 2069 
L 1759 2144 
Q 1053 2284 737 2584 
Q 422 2884 422 3419 
Q 422 4038 858 4394 
Q 1294 4750 2059 4750 
Q 2388 4750 2728 4690 
Q 3069 4631 3425 4513 
z
" transform="scale(0.015625)"/>
      <path id="DejaVuSans-20" transform="scale(0.015625)"/>
      <path id="DejaVuSans-2d" d="M 313 2009 
L 1997 2009 
L 1997 1497 
L 313 1497 
L 313 2009 
z
" transform="scale(0.015625)"/>
      <path id="DejaVuSans-4c" d="M 628 4666 
L 1259 4666 
L 1259 531 
L 3531 531 
L 3531 0 
L 628 0 
L 628 4666 
z
" transform="scale(0.015625)"/>
      <path id="DejaVuSans-65" d="M 3597 1894 
L 3597 1613 
L 953 1613 
Q 991 1019 1311 708 
Q 1631 397 2203 397 
Q 2534 397 2845 478 
Q 3156 559 3463 722 
L 3463 178 
Q 3153 47 2828 -22 
Q 2503 -91 2169 -91 
Q 1331 -91 842 396 
Q 353 884 353 1716 
Q 353 2575 817 3079 
Q 1281 3584 2069 3584 
Q 2775 3584 3186 3129 
Q 3597 2675 3597 1894 
z
M 3022 2063 
Q 3016 2534 2758 2815 
Q 2500 3097 2075 3097 
Q 1594 3097 1305 2825 
Q 1016 2553 972 2059 
L 3022 2063 
z
" transform="scale(0.015625)"/>
      <path id="DejaVuSans-78" d="M 3513 3500 
L 2247 1797 
L 3578 0 
L 2900 0 
L 1881 1375 
L 863 0 
L 184 0 
L 1544 1831 
L 300 3500 
L 978 3500 
L 1906 2253 
L 2834 3500 
L 3513 3500 
z
" transform="scale(0.015625)"/>
      <path id="DejaVuSans-69" d="M 603 3500 
L 1178 3500 
L 1178 0 
L 603 0 
L 603 3500 
z
M 603 4863 
L 1178 4863 
L 1178 4134 
L 603 4134 
L 603 4863 
z
" transform="scale(0.015625)"/>
      <path id="DejaVuSans-63" d="M 3122 3366 
L 3122 2828 
Q 2878 2963 2633 3030 
Q 2388 3097 2138 3097 
Q 1578 3097 1268 2742 
Q 959 2388 959 1747 
Q 959 1106 1268 751 
Q 1578 397 2138 397 
Q 2388 397 2633 464 
Q 2878 531 3122 666 
L 3122 134 
Q 2881 22 2623 -34 
Q 2366 -91 2075 -91 
Q 1284 -91 818 406 
Q 353 903 353 1747 
Q 353 2603 823 3093 
Q 1294 3584 2113 3584 
Q 2378 3584 2631 3529 
Q 2884 3475 3122 3366 
z
" transform="scale(0.015625)"/>
      <path id="DejaVuSans-61" d="M 2194 1759 
Q 1497 1759 1228 1600 
Q 959 1441 959 1056 
Q 959 750 1161 570 
Q 1363 391 1709 391 
Q 2188 391 2477 730 
Q 2766 1069 2766 1631 
L 2766 1759 
L 2194 1759 
z
M 3341 1997 
L 3341 0 
L 2766 0 
L 2766 531 
Q 2569 213 2275 61 
Q 1981 -91 1556 -91 
Q 1019 -91 701 211 
Q 384 513 384 1019 
Q 384 1609 779 1909 
Q 1175 2209 1959 2209 
L 2766 2209 
L 2766 2266 
Q 2766 2663 2505 2880 
Q 2244 3097 1772 3097 
Q 1472 3097 1187 3025 
Q 903 2953 641 2809 
L 641 3341 
Q 956 3463 1253 3523 
Q 1550 3584 1831 3584 
Q 2591 3584 2966 3190 
Q 3341 2797 3341 1997 
z
" transform="scale(0.015625)"/>
      <path id="DejaVuSans-6c" d="M 603 4863 
L 1178 4863 
L 1178 0 
L 603 0 
L 603 4863 
z
" transform="scale(0.015625)"/>
      <path id="DejaVuSans-44" d="M 1259 4147 
L 1259 519 
L 2022 519 
Q 2988 519 3436 956 
Q 3884 1394 3884 2338 
Q 3884 3275 3436 3711 
Q 2988 4147 2022 4147 
L 1259 4147 
z
M 628 4666 
L 1925 4666 
Q 3281 4666 3915 4102 
Q 4550 3538 4550 2338 
Q 4550 1131 3912 565 
Q 3275 0 1925 0 
L 628 0 
L 628 4666 
z
" transform="scale(0.015625)"/>
      <path id="DejaVuSans-76" d="M 191 3500 
L 800 3500 
L 1894 563 
L 2988 3500 
L 3597 3500 
L 2284 0 
L 1503 0 
L 191 3500 
z
" transform="scale(0.015625)"/>
      <path id="DejaVuSans-72" d="M 2631 2963 
Q 2534 3019 2420 3045 
Q 2306 3072 2169 3072 
Q 1681 3072 1420 2755 
Q 1159 2438 1159 1844 
L 1159 0 
L 581 0 
L 581 3500 
L 1159 3500 
L 1159 2956 
Q 1341 3275 1631 3429 
Q 1922 3584 2338 3584 
Q 2397 3584 2469 3576 
Q 2541 3569 2628 3553 
L 2631 2963 
z
" transform="scale(0.015625)"/>
      <path id="DejaVuSans-73" d="M 2834 3397 
L 2834 2853 
Q 2591 2978 2328 3040 
Q 2066 3103 1784 3103 
Q 1356 3103 1142 2972 
Q 928 2841 928 2578 
Q 928 2378 1081 2264 
Q 1234 2150 1697 2047 
L 1894 2003 
Q 2506 1872 2764 1633 
Q 3022 1394 3022 966 
Q 3022 478 2636 193 
Q 2250 -91 1575 -91 
Q 1294 -91 989 -36 
Q 684 19 347 128 
L 347 722 
Q 666 556 975 473 
Q 1284 391 1588 391 
Q 1994 391 2212 530 
Q 2431 669 2431 922 
Q 2431 1156 2273 1281 
Q 2116 1406 1581 1522 
L 1381 1569 
Q 847 1681 609 1914 
Q 372 2147 372 2553 
Q 372 3047 722 3315 
Q 1072 3584 1716 3584 
Q 2034 3584 2315 3537 
Q 2597 3491 2834 3397 
z
" transform="scale(0.015625)"/>
      <path id="DejaVuSans-74" d="M 1172 4494 
L 1172 3500 
L 2356 3500 
L 2356 3053 
L 1172 3053 
L 1172 1153 
Q 1172 725 1289 603 
Q 1406 481 1766 481 
L 2356 481 
L 2356 0 
L 1766 0 
Q 1100 0 847 248 
Q 594 497 594 1153 
L 594 3053 
L 172 3053 
L 172 3500 
L 594 3500 
L 594 4494 
L 1172 4494 
z
" transform="scale(0.015625)"/>
      <path id="DejaVuSans-79" d="M 2059 -325 
Q 1816 -950 1584 -1140 
Q 1353 -1331 966 -1331 
L 506 -1331 
L 506 -850 
L 844 -850 
Q 1081 -850 1212 -737 
Q 1344 -625 1503 -206 
L 1606 56 
L 191 3500 
L 800 3500 
L 1894 763 
L 2988 3500 
L 3597 3500 
L 2059 -325 
z
" transform="scale(0.015625)"/>
      <path id="DejaVuSans-28" d="M 1984 4856 
Q 1566 4138 1362 3434 
Q 1159 2731 1159 2009 
Q 1159 1288 1364 580 
Q 1569 -128 1984 -844 
L 1484 -844 
Q 1016 -109 783 600 
Q 550 1309 550 2009 
Q 550 2706 781 3412 
Q 1013 4119 1484 4856 
L 1984 4856 
z
" transform="scale(0.015625)"/>
      <path id="DejaVuSans-4d" d="M 628 4666 
L 1569 4666 
L 2759 1491 
L 3956 4666 
L 4897 4666 
L 4897 0 
L 4281 0 
L 4281 4097 
L 3078 897 
L 2444 897 
L 1241 4097 
L 1241 0 
L 628 0 
L 628 4666 
z
" transform="scale(0.015625)"/>
      <path id="DejaVuSans-41" d="M 2188 4044 
L 1331 1722 
L 3047 1722 
L 2188 4044 
z
M 1831 4666 
L 2547 4666 
L 4325 0 
L 3669 0 
L 3244 1197 
L 1141 1197 
L 716 0 
L 50 0 
L 1831 4666 
z
" transform="scale(0.015625)"/>
      <path id="DejaVuSans-54" d="M -19 4666 
L 3928 4666 
L 3928 4134 
L 2272 4134 
L 2272 0 
L 1638 0 
L 1638 4134 
L -19 4134 
L -19 4666 
z
" transform="scale(0.015625)"/>
      <path id="DejaVuSans-52" d="M 2841 2188 
Q 3044 2119 3236 1894 
Q 3428 1669 3622 1275 
L 4263 0 
L 3584 0 
L 2988 1197 
Q 2756 1666 2539 1819 
Q 2322 1972 1947 1972 
L 1259 1972 
L 1259 0 
L 628 0 
L 628 4666 
L 2053 4666 
Q 2853 4666 3247 4331 
Q 3641 3997 3641 3322 
Q 3641 2881 3436 2590 
Q 3231 2300 2841 2188 
z
M 1259 4147 
L 1259 2491 
L 2053 2491 
Q 2509 2491 2742 2702 
Q 2975 2913 2975 3322 
Q 2975 3731 2742 3939 
Q 2509 4147 2053 4147 
L 1259 4147 
z
" transform="scale(0.015625)"/>
      <path id="DejaVuSans-29" d="M 513 4856 
L 1013 4856 
Q 1481 4119 1714 3412 
Q 1947 2706 1947 2009 
Q 1947 1309 1714 600 
Q 1481 -109 1013 -844 
L 513 -844 
Q 928 -128 1133 580 
Q 1338 1288 1338 2009 
Q 1338 2731 1133 3434 
Q 928 4138 513 4856 
z
" transform="scale(0.015625)"/>
      <path id="DejaVuSans-66" d="M 2375 4863 
L 2375 4384 
L 1825 4384 
Q 1516 4384 1395 4259 
Q 1275 4134 1275 3809 
L 1275 3500 
L 2222 3500 
L 2222 3053 
L 1275 3053 
L 1275 0 
L 697 0 
L 697 3053 
L 147 3053 
L 147 3500 
L 697 3500 
L 697 3744 
Q 697 4328 969 4595 
Q 1241 4863 1831 4863 
L 2375 4863 
z
" transform="scale(0.015625)"/>
      <path id="DejaVuSans-6f" d="M 1959 3097 
Q 1497 3097 1228 2736 
Q 959 2375 959 1747 
Q 959 1119 1226 758 
Q 1494 397 1959 397 
Q 2419 397 2687 759 
Q 2956 1122 2956 1747 
Q 2956 2369 2687 2733 
Q 2419 3097 1959 3097 
z
M 1959 3584 
Q 2709 3584 3137 3096 
Q 3566 2609 3566 1747 
Q 3566 888 3137 398 
Q 2709 -91 1959 -91 
Q 1206 -91 779 398 
Q 353 888 353 1747 
Q 353 2609 779 3096 
Q 1206 3584 1959 3584 
z
" transform="scale(0.015625)"/>
      <path id="DejaVuSans-6d" d="M 3328 2828 
Q 3544 3216 3844 3400 
Q 4144 3584 4550 3584 
Q 5097 3584 5394 3201 
Q 5691 2819 5691 2113 
L 5691 0 
L 5113 0 
L 5113 2094 
Q 5113 2597 4934 2840 
Q 4756 3084 4391 3084 
Q 3944 3084 3684 2787 
Q 3425 2491 3425 1978 
L 3425 0 
L 2847 0 
L 2847 2094 
Q 2847 2600 2669 2842 
Q 2491 3084 2119 3084 
Q 1678 3084 1418 2786 
Q 1159 2488 1159 1978 
L 1159 0 
L 581 0 
L 581 3500 
L 1159 3500 
L 1159 2956 
Q 1356 3278 1631 3431 
Q 1906 3584 2284 3584 
Q 2666 3584 2933 3390 
Q 3200 3197 3328 2828 
z
" transform="scale(0.015625)"/>
      <path id="DejaVuSans-34" d="M 2419 4116 
L 825 1625 
L 2419 1625 
L 2419 4116 
z
M 2253 4666 
L 3047 4666 
L 3047 1625 
L 3713 1625 
L 3713 1100 
L 3047 1100 
L 3047 0 
L 2419 0 
L 2419 1100 
L 313 1100 
L 313 1709 
L 2253 4666 
z
" transform="scale(0.015625)"/>
     </defs>
     <use xlink:href="#DejaVuSans-53"/>
     <use xlink:href="#DejaVuSans-32" x="63.476562"/>
     <use xlink:href="#DejaVuSans-20" x="127.099609"/>
     <use xlink:href="#DejaVuSans-2d" x="158.886719"/>
     <use xlink:href="#DejaVuSans-20" x="194.970703"/>
     <use xlink:href="#DejaVuSans-4c" x="226.757812"/>
     <use xlink:href="#DejaVuSans-65" x="280.720703"/>
     <use xlink:href="#DejaVuSans-78" x="340.494141"/>
     <use xlink:href="#DejaVuSans-69" x="399.673828"/>
     <use xlink:href="#DejaVuSans-63" x="427.457031"/>
     <use xlink:href="#DejaVuSans-61" x="482.4375"/>
     <use xlink:href="#DejaVuSans-6c" x="543.716797"/>
     <use xlink:href="#DejaVuSans-20" x="571.5"/>
     <use xlink:href="#DejaVuSans-44" x="603.287109"/>
     <use xlink:href="#DejaVuSans-69" x="680.289062"/>
     <use xlink:href="#DejaVuSans-76" x="708.072266"/>
     <use xlink:href="#DejaVuSans-65" x="767.251953"/>
     <use xlink:href="#DejaVuSans-72" x="828.775391"/>
     <use xlink:href="#DejaVuSans-73" x="869.888672"/>
     <use xlink:href="#DejaVuSans-69" x="921.988281"/>
     <use xlink:href="#DejaVuSans-74" x="949.771484"/>
     <use xlink:href="#DejaVuSans-79" x="988.980469"/>
     <use xlink:href="#DejaVuSans-20" x="1048.160156"/>
     <use xlink:href="#DejaVuSans-28" x="1079.947266"/>
     <use xlink:href="#DejaVuSans-4d" x="1118.960938"/>
     <use xlink:href="#DejaVuSans-41" x="1205.240234"/>
     <use xlink:href="#DejaVuSans-54" x="1265.898438"/>
     <use xlink:href="#DejaVuSans-54" x="1325.232422"/>
     <use xlink:href="#DejaVuSans-52" x="1386.316406"/>
     <use xlink:href="#DejaVuSans-29" x="1455.798828"/>
     <use xlink:href="#DejaVuSans-20" x="1494.8125"/>
     <use xlink:href="#DejaVuSans-66" x="1526.599609"/>
     <use xlink:href="#DejaVuSans-72" x="1561.804688"/>
     <use xlink:href="#DejaVuSans-6f" x="1600.667969"/>
     <use xlink:href="#DejaVuSans-6d" x="1661.849609"/>
     <use xlink:href="#DejaVuSans-20" x="1759.261719"/>
     <use xlink:href="#DejaVuSans-31" x="1791.048828"/>
     <use xlink:href="#DejaVuSans-39" x="1854.671875"/>
     <use xlink:href="#DejaVuSans-34" x="1918.294922"/>
     <use xlink:href="#DejaVuSans-36" x="1981.917969"/>
     <use xlink:href="#DejaVuSans-20" x="2045.541016"/>
     <use xlink:href="#DejaVuSans-74" x="2077.328125"/>
     <use xlink:href="#DejaVuSans-6f" x="2116.537109"/>
     <use xlink:href="#DejaVuSans-20" x="2177.71875"/>
     <use xlink:href="#DejaVuSans-32" x="2209.505859"/>
     <use xlink:href="#DejaVuSans-30" x="2273.128906"/>
     <use xlink:href="#DejaVuSans-32" x="2336.751953"/>
     <use xlink:href="#DejaVuSans-32" x="2400.375"/>
    </g>
   </g>
  </g>
 </g>
 <defs>
  <clipPath id="p06fad2e08d">
   <rect x="46.24" y="40.88" width="662.96" height="132.182354"/>
  </clipPath>
 </defs>
</svg>
