<?xml version="1.0" encoding="utf-8" standalone="no"?>
<!DOCTYPE svg PUBLIC "-//W3C//DTD SVG 1.1//EN"
  "http://www.w3.org/Graphics/SVG/1.1/DTD/svg11.dtd">
<svg xmlns:xlink="http://www.w3.org/1999/xlink" width="720pt" height="216pt" viewBox="0 0 720 216" xmlns="http://www.w3.org/2000/svg" version="1.1">
 <metadata>
  <rdf:RDF xmlns:dc="http://purl.org/dc/elements/1.1/" xmlns:cc="http://creativecommons.org/ns#" xmlns:rdf="http://www.w3.org/1999/02/22-rdf-syntax-ns#">
   <cc:Work>
    <dc:type rdf:resource="http://purl.org/dc/dcmitype/StillImage"/>
    <dc:date>2024-08-08T22:20:54.250979</dc:date>
    <dc:format>image/svg+xml</dc:format>
    <dc:creator>
     <cc:Agent>
      <dc:title>Matplotlib v3.7.1, https://matplotlib.org/</dc:title>
     </cc:Agent>
    </dc:creator>
   </cc:Work>
  </rdf:RDF>
 </metadata>
 <defs>
  <style type="text/css">*{stroke-linejoin: round; stroke-linecap: butt}</style>
 </defs>
 <g id="figure_1">
  <g id="patch_1">
   <path d="M 0 216 
L 720 216 
L 720 0 
L 0 0 
z
" style="fill: #ffffff"/>
  </g>
  <g id="axes_1">
   <g id="patch_2">
    <path d="M 40.03 173.062354 
L 709.2 173.062354 
L 709.2 40.88 
L 40.03 40.88 
z
" style="fill: #ffffff"/>
   </g>
   <g id="matplotlib.axis_1">
    <g id="xtick_1">
     <g id="line2d_1">
      <path d="M 102.464522 173.062354 
L 102.464522 40.88 
" clip-path="url(#p1730b43c64)" style="fill: none; stroke: #000000; stroke-width: 0.5; stroke-linecap: square"/>
     </g>
     <g id="line2d_2">
      <defs>
       <path id="mc8ee46fee8" d="M 0 0 
L 0 3.5 
" style="stroke: #000000; stroke-width: 0.8"/>
      </defs>
      <g>
       <use xlink:href="#mc8ee46fee8" x="102.464522" y="173.062354" style="stroke: #000000; stroke-width: 0.8"/>
      </g>
     </g>
     <g id="text_1">
      <!-- 1950 -->
      <g transform="translate(95.417761 203.431128) rotate(-45) scale(0.1 -0.1)">
       <defs>
        <path id="DejaVuSans-31" d="M 794 531 
L 1825 531 
L 1825 4091 
L 703 3866 
L 703 4441 
L 1819 4666 
L 2450 4666 
L 2450 531 
L 3481 531 
L 3481 0 
L 794 0 
L 794 531 
z
" transform="scale(0.015625)"/>
        <path id="DejaVuSans-39" d="M 703 97 
L 703 672 
Q 941 559 1184 500 
Q 1428 441 1663 441 
Q 2288 441 2617 861 
Q 2947 1281 2994 2138 
Q 2813 1869 2534 1725 
Q 2256 1581 1919 1581 
Q 1219 1581 811 2004 
Q 403 2428 403 3163 
Q 403 3881 828 4315 
Q 1253 4750 1959 4750 
Q 2769 4750 3195 4129 
Q 3622 3509 3622 2328 
Q 3622 1225 3098 567 
Q 2575 -91 1691 -91 
Q 1453 -91 1209 -44 
Q 966 3 703 97 
z
M 1959 2075 
Q 2384 2075 2632 2365 
Q 2881 2656 2881 3163 
Q 2881 3666 2632 3958 
Q 2384 4250 1959 4250 
Q 1534 4250 1286 3958 
Q 1038 3666 1038 3163 
Q 1038 2656 1286 2365 
Q 1534 2075 1959 2075 
z
" transform="scale(0.015625)"/>
        <path id="DejaVuSans-35" d="M 691 4666 
L 3169 4666 
L 3169 4134 
L 1269 4134 
L 1269 2991 
Q 1406 3038 1543 3061 
Q 1681 3084 1819 3084 
Q 2600 3084 3056 2656 
Q 3513 2228 3513 1497 
Q 3513 744 3044 326 
Q 2575 -91 1722 -91 
Q 1428 -91 1123 -41 
Q 819 9 494 109 
L 494 744 
Q 775 591 1075 516 
Q 1375 441 1709 441 
Q 2250 441 2565 725 
Q 2881 1009 2881 1497 
Q 2881 1984 2565 2268 
Q 2250 2553 1709 2553 
Q 1456 2553 1204 2497 
Q 953 2441 691 2322 
L 691 4666 
z
" transform="scale(0.015625)"/>
        <path id="DejaVuSans-30" d="M 2034 4250 
Q 1547 4250 1301 3770 
Q 1056 3291 1056 2328 
Q 1056 1369 1301 889 
Q 1547 409 2034 409 
Q 2525 409 2770 889 
Q 3016 1369 3016 2328 
Q 3016 3291 2770 3770 
Q 2525 4250 2034 4250 
z
M 2034 4750 
Q 2819 4750 3233 4129 
Q 3647 3509 3647 2328 
Q 3647 1150 3233 529 
Q 2819 -91 2034 -91 
Q 1250 -91 836 529 
Q 422 1150 422 2328 
Q 422 3509 836 4129 
Q 1250 4750 2034 4750 
z
" transform="scale(0.015625)"/>
       </defs>
       <use xlink:href="#DejaVuSans-31"/>
       <use xlink:href="#DejaVuSans-39" x="63.623047"/>
       <use xlink:href="#DejaVuSans-35" x="127.246094"/>
       <use xlink:href="#DejaVuSans-30" x="190.869141"/>
      </g>
     </g>
    </g>
    <g id="xtick_2">
     <g id="line2d_3">
      <path d="M 142.486651 173.062354 
L 142.486651 40.88 
" clip-path="url(#p1730b43c64)" style="fill: none; stroke: #000000; stroke-width: 0.5; stroke-linecap: square"/>
     </g>
     <g id="line2d_4">
      <g>
       <use xlink:href="#mc8ee46fee8" x="142.486651" y="173.062354" style="stroke: #000000; stroke-width: 0.8"/>
      </g>
     </g>
     <g id="text_2">
      <!-- 1955 -->
      <g transform="translate(135.43989 203.431128) rotate(-45) scale(0.1 -0.1)">
       <use xlink:href="#DejaVuSans-31"/>
       <use xlink:href="#DejaVuSans-39" x="63.623047"/>
       <use xlink:href="#DejaVuSans-35" x="127.246094"/>
       <use xlink:href="#DejaVuSans-35" x="190.869141"/>
      </g>
     </g>
    </g>
    <g id="xtick_3">
     <g id="line2d_5">
      <path d="M 182.50878 173.062354 
L 182.50878 40.88 
" clip-path="url(#p1730b43c64)" style="fill: none; stroke: #000000; stroke-width: 0.5; stroke-linecap: square"/>
     </g>
     <g id="line2d_6">
      <g>
       <use xlink:href="#mc8ee46fee8" x="182.50878" y="173.062354" style="stroke: #000000; stroke-width: 0.8"/>
      </g>
     </g>
     <g id="text_3">
      <!-- 1960 -->
      <g transform="translate(175.462019 203.431128) rotate(-45) scale(0.1 -0.1)">
       <defs>
        <path id="DejaVuSans-36" d="M 2113 2584 
Q 1688 2584 1439 2293 
Q 1191 2003 1191 1497 
Q 1191 994 1439 701 
Q 1688 409 2113 409 
Q 2538 409 2786 701 
Q 3034 994 3034 1497 
Q 3034 2003 2786 2293 
Q 2538 2584 2113 2584 
z
M 3366 4563 
L 3366 3988 
Q 3128 4100 2886 4159 
Q 2644 4219 2406 4219 
Q 1781 4219 1451 3797 
Q 1122 3375 1075 2522 
Q 1259 2794 1537 2939 
Q 1816 3084 2150 3084 
Q 2853 3084 3261 2657 
Q 3669 2231 3669 1497 
Q 3669 778 3244 343 
Q 2819 -91 2113 -91 
Q 1303 -91 875 529 
Q 447 1150 447 2328 
Q 447 3434 972 4092 
Q 1497 4750 2381 4750 
Q 2619 4750 2861 4703 
Q 3103 4656 3366 4563 
z
" transform="scale(0.015625)"/>
       </defs>
       <use xlink:href="#DejaVuSans-31"/>
       <use xlink:href="#DejaVuSans-39" x="63.623047"/>
       <use xlink:href="#DejaVuSans-36" x="127.246094"/>
       <use xlink:href="#DejaVuSans-30" x="190.869141"/>
      </g>
     </g>
    </g>
    <g id="xtick_4">
     <g id="line2d_7">
      <path d="M 222.530909 173.062354 
L 222.530909 40.88 
" clip-path="url(#p1730b43c64)" style="fill: none; stroke: #000000; stroke-width: 0.5; stroke-linecap: square"/>
     </g>
     <g id="line2d_8">
      <g>
       <use xlink:href="#mc8ee46fee8" x="222.530909" y="173.062354" style="stroke: #000000; stroke-width: 0.8"/>
      </g>
     </g>
     <g id="text_4">
      <!-- 1965 -->
      <g transform="translate(215.484148 203.431128) rotate(-45) scale(0.1 -0.1)">
       <use xlink:href="#DejaVuSans-31"/>
       <use xlink:href="#DejaVuSans-39" x="63.623047"/>
       <use xlink:href="#DejaVuSans-36" x="127.246094"/>
       <use xlink:href="#DejaVuSans-35" x="190.869141"/>
      </g>
     </g>
    </g>
    <g id="xtick_5">
     <g id="line2d_9">
      <path d="M 262.553038 173.062354 
L 262.553038 40.88 
" clip-path="url(#p1730b43c64)" style="fill: none; stroke: #000000; stroke-width: 0.5; stroke-linecap: square"/>
     </g>
     <g id="line2d_10">
      <g>
       <use xlink:href="#mc8ee46fee8" x="262.553038" y="173.062354" style="stroke: #000000; stroke-width: 0.8"/>
      </g>
     </g>
     <g id="text_5">
      <!-- 1970 -->
      <g transform="translate(255.506277 203.431128) rotate(-45) scale(0.1 -0.1)">
       <defs>
        <path id="DejaVuSans-37" d="M 525 4666 
L 3525 4666 
L 3525 4397 
L 1831 0 
L 1172 0 
L 2766 4134 
L 525 4134 
L 525 4666 
z
" transform="scale(0.015625)"/>
       </defs>
       <use xlink:href="#DejaVuSans-31"/>
       <use xlink:href="#DejaVuSans-39" x="63.623047"/>
       <use xlink:href="#DejaVuSans-37" x="127.246094"/>
       <use xlink:href="#DejaVuSans-30" x="190.869141"/>
      </g>
     </g>
    </g>
    <g id="xtick_6">
     <g id="line2d_11">
      <path d="M 302.575167 173.062354 
L 302.575167 40.88 
" clip-path="url(#p1730b43c64)" style="fill: none; stroke: #000000; stroke-width: 0.5; stroke-linecap: square"/>
     </g>
     <g id="line2d_12">
      <g>
       <use xlink:href="#mc8ee46fee8" x="302.575167" y="173.062354" style="stroke: #000000; stroke-width: 0.8"/>
      </g>
     </g>
     <g id="text_6">
      <!-- 1975 -->
      <g transform="translate(295.528406 203.431128) rotate(-45) scale(0.1 -0.1)">
       <use xlink:href="#DejaVuSans-31"/>
       <use xlink:href="#DejaVuSans-39" x="63.623047"/>
       <use xlink:href="#DejaVuSans-37" x="127.246094"/>
       <use xlink:href="#DejaVuSans-35" x="190.869141"/>
      </g>
     </g>
    </g>
    <g id="xtick_7">
     <g id="line2d_13">
      <path d="M 342.597297 173.062354 
L 342.597297 40.88 
" clip-path="url(#p1730b43c64)" style="fill: none; stroke: #000000; stroke-width: 0.5; stroke-linecap: square"/>
     </g>
     <g id="line2d_14">
      <g>
       <use xlink:href="#mc8ee46fee8" x="342.597297" y="173.062354" style="stroke: #000000; stroke-width: 0.8"/>
      </g>
     </g>
     <g id="text_7">
      <!-- 1980 -->
      <g transform="translate(335.550536 203.431128) rotate(-45) scale(0.1 -0.1)">
       <defs>
        <path id="DejaVuSans-38" d="M 2034 2216 
Q 1584 2216 1326 1975 
Q 1069 1734 1069 1313 
Q 1069 891 1326 650 
Q 1584 409 2034 409 
Q 2484 409 2743 651 
Q 3003 894 3003 1313 
Q 3003 1734 2745 1975 
Q 2488 2216 2034 2216 
z
M 1403 2484 
Q 997 2584 770 2862 
Q 544 3141 544 3541 
Q 544 4100 942 4425 
Q 1341 4750 2034 4750 
Q 2731 4750 3128 4425 
Q 3525 4100 3525 3541 
Q 3525 3141 3298 2862 
Q 3072 2584 2669 2484 
Q 3125 2378 3379 2068 
Q 3634 1759 3634 1313 
Q 3634 634 3220 271 
Q 2806 -91 2034 -91 
Q 1263 -91 848 271 
Q 434 634 434 1313 
Q 434 1759 690 2068 
Q 947 2378 1403 2484 
z
M 1172 3481 
Q 1172 3119 1398 2916 
Q 1625 2713 2034 2713 
Q 2441 2713 2670 2916 
Q 2900 3119 2900 3481 
Q 2900 3844 2670 4047 
Q 2441 4250 2034 4250 
Q 1625 4250 1398 4047 
Q 1172 3844 1172 3481 
z
" transform="scale(0.015625)"/>
       </defs>
       <use xlink:href="#DejaVuSans-31"/>
       <use xlink:href="#DejaVuSans-39" x="63.623047"/>
       <use xlink:href="#DejaVuSans-38" x="127.246094"/>
       <use xlink:href="#DejaVuSans-30" x="190.869141"/>
      </g>
     </g>
    </g>
    <g id="xtick_8">
     <g id="line2d_15">
      <path d="M 382.619426 173.062354 
L 382.619426 40.88 
" clip-path="url(#p1730b43c64)" style="fill: none; stroke: #000000; stroke-width: 0.5; stroke-linecap: square"/>
     </g>
     <g id="line2d_16">
      <g>
       <use xlink:href="#mc8ee46fee8" x="382.619426" y="173.062354" style="stroke: #000000; stroke-width: 0.8"/>
      </g>
     </g>
     <g id="text_8">
      <!-- 1985 -->
      <g transform="translate(375.572665 203.431128) rotate(-45) scale(0.1 -0.1)">
       <use xlink:href="#DejaVuSans-31"/>
       <use xlink:href="#DejaVuSans-39" x="63.623047"/>
       <use xlink:href="#DejaVuSans-38" x="127.246094"/>
       <use xlink:href="#DejaVuSans-35" x="190.869141"/>
      </g>
     </g>
    </g>
    <g id="xtick_9">
     <g id="line2d_17">
      <path d="M 422.641555 173.062354 
L 422.641555 40.88 
" clip-path="url(#p1730b43c64)" style="fill: none; stroke: #000000; stroke-width: 0.5; stroke-linecap: square"/>
     </g>
     <g id="line2d_18">
      <g>
       <use xlink:href="#mc8ee46fee8" x="422.641555" y="173.062354" style="stroke: #000000; stroke-width: 0.8"/>
      </g>
     </g>
     <g id="text_9">
      <!-- 1990 -->
      <g transform="translate(415.594794 203.431128) rotate(-45) scale(0.1 -0.1)">
       <use xlink:href="#DejaVuSans-31"/>
       <use xlink:href="#DejaVuSans-39" x="63.623047"/>
       <use xlink:href="#DejaVuSans-39" x="127.246094"/>
       <use xlink:href="#DejaVuSans-30" x="190.869141"/>
      </g>
     </g>
    </g>
    <g id="xtick_10">
     <g id="line2d_19">
      <path d="M 462.663684 173.062354 
L 462.663684 40.88 
" clip-path="url(#p1730b43c64)" style="fill: none; stroke: #000000; stroke-width: 0.5; stroke-linecap: square"/>
     </g>
     <g id="line2d_20">
      <g>
       <use xlink:href="#mc8ee46fee8" x="462.663684" y="173.062354" style="stroke: #000000; stroke-width: 0.8"/>
      </g>
     </g>
     <g id="text_10">
      <!-- 1995 -->
      <g transform="translate(455.616923 203.431128) rotate(-45) scale(0.1 -0.1)">
       <use xlink:href="#DejaVuSans-31"/>
       <use xlink:href="#DejaVuSans-39" x="63.623047"/>
       <use xlink:href="#DejaVuSans-39" x="127.246094"/>
       <use xlink:href="#DejaVuSans-35" x="190.869141"/>
      </g>
     </g>
    </g>
    <g id="xtick_11">
     <g id="line2d_21">
      <path d="M 502.685813 173.062354 
L 502.685813 40.88 
" clip-path="url(#p1730b43c64)" style="fill: none; stroke: #000000; stroke-width: 0.5; stroke-linecap: square"/>
     </g>
     <g id="line2d_22">
      <g>
       <use xlink:href="#mc8ee46fee8" x="502.685813" y="173.062354" style="stroke: #000000; stroke-width: 0.8"/>
      </g>
     </g>
     <g id="text_11">
      <!-- 2000 -->
      <g transform="translate(495.639052 203.431128) rotate(-45) scale(0.1 -0.1)">
       <defs>
        <path id="DejaVuSans-32" d="M 1228 531 
L 3431 531 
L 3431 0 
L 469 0 
L 469 531 
Q 828 903 1448 1529 
Q 2069 2156 2228 2338 
Q 2531 2678 2651 2914 
Q 2772 3150 2772 3378 
Q 2772 3750 2511 3984 
Q 2250 4219 1831 4219 
Q 1534 4219 1204 4116 
Q 875 4013 500 3803 
L 500 4441 
Q 881 4594 1212 4672 
Q 1544 4750 1819 4750 
Q 2544 4750 2975 4387 
Q 3406 4025 3406 3419 
Q 3406 3131 3298 2873 
Q 3191 2616 2906 2266 
Q 2828 2175 2409 1742 
Q 1991 1309 1228 531 
z
" transform="scale(0.015625)"/>
       </defs>
       <use xlink:href="#DejaVuSans-32"/>
       <use xlink:href="#DejaVuSans-30" x="63.623047"/>
       <use xlink:href="#DejaVuSans-30" x="127.246094"/>
       <use xlink:href="#DejaVuSans-30" x="190.869141"/>
      </g>
     </g>
    </g>
    <g id="xtick_12">
     <g id="line2d_23">
      <path d="M 542.707943 173.062354 
L 542.707943 40.88 
" clip-path="url(#p1730b43c64)" style="fill: none; stroke: #000000; stroke-width: 0.5; stroke-linecap: square"/>
     </g>
     <g id="line2d_24">
      <g>
       <use xlink:href="#mc8ee46fee8" x="542.707943" y="173.062354" style="stroke: #000000; stroke-width: 0.8"/>
      </g>
     </g>
     <g id="text_12">
      <!-- 2005 -->
      <g transform="translate(535.661182 203.431128) rotate(-45) scale(0.1 -0.1)">
       <use xlink:href="#DejaVuSans-32"/>
       <use xlink:href="#DejaVuSans-30" x="63.623047"/>
       <use xlink:href="#DejaVuSans-30" x="127.246094"/>
       <use xlink:href="#DejaVuSans-35" x="190.869141"/>
      </g>
     </g>
    </g>
    <g id="xtick_13">
     <g id="line2d_25">
      <path d="M 582.730072 173.062354 
L 582.730072 40.88 
" clip-path="url(#p1730b43c64)" style="fill: none; stroke: #000000; stroke-width: 0.5; stroke-linecap: square"/>
     </g>
     <g id="line2d_26">
      <g>
       <use xlink:href="#mc8ee46fee8" x="582.730072" y="173.062354" style="stroke: #000000; stroke-width: 0.8"/>
      </g>
     </g>
     <g id="text_13">
      <!-- 2010 -->
      <g transform="translate(575.683311 203.431128) rotate(-45) scale(0.1 -0.1)">
       <use xlink:href="#DejaVuSans-32"/>
       <use xlink:href="#DejaVuSans-30" x="63.623047"/>
       <use xlink:href="#DejaVuSans-31" x="127.246094"/>
       <use xlink:href="#DejaVuSans-30" x="190.869141"/>
      </g>
     </g>
    </g>
    <g id="xtick_14">
     <g id="line2d_27">
      <path d="M 622.752201 173.062354 
L 622.752201 40.88 
" clip-path="url(#p1730b43c64)" style="fill: none; stroke: #000000; stroke-width: 0.5; stroke-linecap: square"/>
     </g>
     <g id="line2d_28">
      <g>
       <use xlink:href="#mc8ee46fee8" x="622.752201" y="173.062354" style="stroke: #000000; stroke-width: 0.8"/>
      </g>
     </g>
     <g id="text_14">
      <!-- 2015 -->
      <g transform="translate(615.70544 203.431128) rotate(-45) scale(0.1 -0.1)">
       <use xlink:href="#DejaVuSans-32"/>
       <use xlink:href="#DejaVuSans-30" x="63.623047"/>
       <use xlink:href="#DejaVuSans-31" x="127.246094"/>
       <use xlink:href="#DejaVuSans-35" x="190.869141"/>
      </g>
     </g>
    </g>
    <g id="xtick_15">
     <g id="line2d_29">
      <path d="M 662.77433 173.062354 
L 662.77433 40.88 
" clip-path="url(#p1730b43c64)" style="fill: none; stroke: #000000; stroke-width: 0.5; stroke-linecap: square"/>
     </g>
     <g id="line2d_30">
      <g>
       <use xlink:href="#mc8ee46fee8" x="662.77433" y="173.062354" style="stroke: #000000; stroke-width: 0.8"/>
      </g>
     </g>
     <g id="text_15">
      <!-- 2020 -->
      <g transform="translate(655.727569 203.431128) rotate(-45) scale(0.1 -0.1)">
       <use xlink:href="#DejaVuSans-32"/>
       <use xlink:href="#DejaVuSans-30" x="63.623047"/>
       <use xlink:href="#DejaVuSans-32" x="127.246094"/>
       <use xlink:href="#DejaVuSans-30" x="190.869141"/>
      </g>
     </g>
    </g>
   </g>
   <g id="matplotlib.axis_2">
    <g id="ytick_1">
     <g id="line2d_31">
      <path d="M 40.03 162.038569 
L 709.2 162.038569 
" clip-path="url(#p1730b43c64)" style="fill: none; stroke: #000000; stroke-width: 0.5; stroke-linecap: square"/>
     </g>
     <g id="line2d_32">
      <defs>
       <path id="m58bd2b5c8a" d="M 0 0 
L -3.5 0 
" style="stroke: #000000; stroke-width: 0.8"/>
      </defs>
      <g>
       <use xlink:href="#m58bd2b5c8a" x="40.03" y="162.038569" style="stroke: #000000; stroke-width: 0.8"/>
      </g>
     </g>
     <g id="text_16">
      <!-- 0.09 -->
      <g transform="translate(10.764375 165.837788) scale(0.1 -0.1)">
       <defs>
        <path id="DejaVuSans-2e" d="M 684 794 
L 1344 794 
L 1344 0 
L 684 0 
L 684 794 
z
" transform="scale(0.015625)"/>
       </defs>
       <use xlink:href="#DejaVuSans-30"/>
       <use xlink:href="#DejaVuSans-2e" x="63.623047"/>
       <use xlink:href="#DejaVuSans-30" x="95.410156"/>
       <use xlink:href="#DejaVuSans-39" x="159.033203"/>
      </g>
     </g>
    </g>
    <g id="ytick_2">
     <g id="line2d_33">
      <path d="M 40.03 137.224103 
L 709.2 137.224103 
" clip-path="url(#p1730b43c64)" style="fill: none; stroke: #000000; stroke-width: 0.5; stroke-linecap: square"/>
     </g>
     <g id="line2d_34">
      <g>
       <use xlink:href="#m58bd2b5c8a" x="40.03" y="137.224103" style="stroke: #000000; stroke-width: 0.8"/>
      </g>
     </g>
     <g id="text_17">
      <!-- 0.10 -->
      <g transform="translate(10.764375 141.023322) scale(0.1 -0.1)">
       <use xlink:href="#DejaVuSans-30"/>
       <use xlink:href="#DejaVuSans-2e" x="63.623047"/>
       <use xlink:href="#DejaVuSans-31" x="95.410156"/>
       <use xlink:href="#DejaVuSans-30" x="159.033203"/>
      </g>
     </g>
    </g>
    <g id="ytick_3">
     <g id="line2d_35">
      <path d="M 40.03 112.409636 
L 709.2 112.409636 
" clip-path="url(#p1730b43c64)" style="fill: none; stroke: #000000; stroke-width: 0.5; stroke-linecap: square"/>
     </g>
     <g id="line2d_36">
      <g>
       <use xlink:href="#m58bd2b5c8a" x="40.03" y="112.409636" style="stroke: #000000; stroke-width: 0.8"/>
      </g>
     </g>
     <g id="text_18">
      <!-- 0.11 -->
      <g transform="translate(10.764375 116.208855) scale(0.1 -0.1)">
       <use xlink:href="#DejaVuSans-30"/>
       <use xlink:href="#DejaVuSans-2e" x="63.623047"/>
       <use xlink:href="#DejaVuSans-31" x="95.410156"/>
       <use xlink:href="#DejaVuSans-31" x="159.033203"/>
      </g>
     </g>
    </g>
    <g id="ytick_4">
     <g id="line2d_37">
      <path d="M 40.03 87.59517 
L 709.2 87.59517 
" clip-path="url(#p1730b43c64)" style="fill: none; stroke: #000000; stroke-width: 0.5; stroke-linecap: square"/>
     </g>
     <g id="line2d_38">
      <g>
       <use xlink:href="#m58bd2b5c8a" x="40.03" y="87.59517" style="stroke: #000000; stroke-width: 0.8"/>
      </g>
     </g>
     <g id="text_19">
      <!-- 0.12 -->
      <g transform="translate(10.764375 91.394388) scale(0.1 -0.1)">
       <use xlink:href="#DejaVuSans-30"/>
       <use xlink:href="#DejaVuSans-2e" x="63.623047"/>
       <use xlink:href="#DejaVuSans-31" x="95.410156"/>
       <use xlink:href="#DejaVuSans-32" x="159.033203"/>
      </g>
     </g>
    </g>
    <g id="ytick_5">
     <g id="line2d_39">
      <path d="M 40.03 62.780703 
L 709.2 62.780703 
" clip-path="url(#p1730b43c64)" style="fill: none; stroke: #000000; stroke-width: 0.5; stroke-linecap: square"/>
     </g>
     <g id="line2d_40">
      <g>
       <use xlink:href="#m58bd2b5c8a" x="40.03" y="62.780703" style="stroke: #000000; stroke-width: 0.8"/>
      </g>
     </g>
     <g id="text_20">
      <!-- 0.13 -->
      <g transform="translate(10.764375 66.579922) scale(0.1 -0.1)">
       <defs>
        <path id="DejaVuSans-33" d="M 2597 2516 
Q 3050 2419 3304 2112 
Q 3559 1806 3559 1356 
Q 3559 666 3084 287 
Q 2609 -91 1734 -91 
Q 1441 -91 1130 -33 
Q 819 25 488 141 
L 488 750 
Q 750 597 1062 519 
Q 1375 441 1716 441 
Q 2309 441 2620 675 
Q 2931 909 2931 1356 
Q 2931 1769 2642 2001 
Q 2353 2234 1838 2234 
L 1294 2234 
L 1294 2753 
L 1863 2753 
Q 2328 2753 2575 2939 
Q 2822 3125 2822 3475 
Q 2822 3834 2567 4026 
Q 2313 4219 1838 4219 
Q 1578 4219 1281 4162 
Q 984 4106 628 3988 
L 628 4550 
Q 988 4650 1302 4700 
Q 1616 4750 1894 4750 
Q 2613 4750 3031 4423 
Q 3450 4097 3450 3541 
Q 3450 3153 3228 2886 
Q 3006 2619 2597 2516 
z
" transform="scale(0.015625)"/>
       </defs>
       <use xlink:href="#DejaVuSans-30"/>
       <use xlink:href="#DejaVuSans-2e" x="63.623047"/>
       <use xlink:href="#DejaVuSans-31" x="95.410156"/>
       <use xlink:href="#DejaVuSans-33" x="159.033203"/>
      </g>
     </g>
    </g>
   </g>
   <g id="line2d_41">
    <path d="M 70.446818 46.888289 
L 78.451244 101.158085 
L 102.464522 112.053434 
L 110.468947 118.973154 
L 118.473373 129.0513 
L 126.477799 140.999245 
L 134.482225 121.595813 
L 142.486651 54.706514 
L 150.491077 131.631173 
L 158.495502 106.674935 
L 166.499928 111.995179 
L 174.504354 95.565175 
L 182.50878 105.340033 
L 190.513206 134.021665 
L 198.517632 98.003496 
L 206.522057 95.542031 
L 214.526483 102.057598 
L 222.530909 106.28652 
L 230.535335 115.278252 
L 238.539761 145.405147 
L 246.544187 155.154439 
L 254.548612 133.450794 
L 262.553038 122.680337 
L 270.557464 108.602834 
L 278.56189 123.312872 
L 286.566316 121.255341 
L 294.570742 103.072823 
L 302.575167 97.970647 
L 310.579593 130.083659 
L 318.584019 125.807128 
L 326.588445 129.126672 
L 334.592871 127.839848 
L 342.597297 142.029597 
L 350.601722 150.987649 
L 358.606148 164.515611 
L 366.610574 167.054065 
L 374.615 153.383111 
L 382.619426 150.44581 
L 390.623852 153.264235 
L 398.628278 140.002437 
L 406.632703 125.715977 
L 414.637129 123.026518 
L 422.641555 121.656829 
L 430.645981 104.19277 
L 438.650407 119.244376 
L 446.654833 121.482062 
L 454.659258 117.096259 
L 462.663684 118.087876 
L 470.66811 119.426001 
L 478.672536 101.740778 
L 486.676962 132.06256 
L 494.681388 128.15141 
L 502.685813 110.163813 
L 510.690239 140.106611 
L 518.694665 112.113811 
L 526.699091 129.369754 
L 534.703517 114.982649 
L 542.707943 109.854474 
L 550.712368 105.415449 
L 558.716794 102.854991 
L 566.72122 125.672763 
L 574.725646 114.772582 
L 582.730072 99.372284 
L 590.734498 103.862793 
L 598.738923 121.279206 
L 606.743349 114.531443 
L 614.747775 135.201115 
L 622.752201 114.159394 
L 630.756627 122.198081 
L 638.761053 113.558244 
L 646.765478 105.991349 
L 654.769904 119.611278 
L 662.77433 116.882237 
L 670.778756 129.19727 
L 678.783182 150.074116 
" clip-path="url(#p1730b43c64)" style="fill: none; stroke: #1f77b4; stroke-width: 1.5; stroke-linecap: square"/>
    <defs>
     <path id="m9457e94c2f" d="M 0 3 
C 0.795609 3 1.55874 2.683901 2.12132 2.12132 
C 2.683901 1.55874 3 0.795609 3 0 
C 3 -0.795609 2.683901 -1.55874 2.12132 -2.12132 
C 1.55874 -2.683901 0.795609 -3 0 -3 
C -0.795609 -3 -1.55874 -2.683901 -2.12132 -2.12132 
C -2.683901 -1.55874 -3 -0.795609 -3 0 
C -3 0.795609 -2.683901 1.55874 -2.12132 2.12132 
C -1.55874 2.683901 -0.795609 3 0 3 
z
" style="stroke: #1f77b4"/>
    </defs>
    <g clip-path="url(#p1730b43c64)">
     <use xlink:href="#m9457e94c2f" x="70.446818" y="46.888289" style="fill: #1f77b4; stroke: #1f77b4"/>
     <use xlink:href="#m9457e94c2f" x="78.451244" y="101.158085" style="fill: #1f77b4; stroke: #1f77b4"/>
     <use xlink:href="#m9457e94c2f" x="102.464522" y="112.053434" style="fill: #1f77b4; stroke: #1f77b4"/>
     <use xlink:href="#m9457e94c2f" x="110.468947" y="118.973154" style="fill: #1f77b4; stroke: #1f77b4"/>
     <use xlink:href="#m9457e94c2f" x="118.473373" y="129.0513" style="fill: #1f77b4; stroke: #1f77b4"/>
     <use xlink:href="#m9457e94c2f" x="126.477799" y="140.999245" style="fill: #1f77b4; stroke: #1f77b4"/>
     <use xlink:href="#m9457e94c2f" x="134.482225" y="121.595813" style="fill: #1f77b4; stroke: #1f77b4"/>
     <use xlink:href="#m9457e94c2f" x="142.486651" y="54.706514" style="fill: #1f77b4; stroke: #1f77b4"/>
     <use xlink:href="#m9457e94c2f" x="150.491077" y="131.631173" style="fill: #1f77b4; stroke: #1f77b4"/>
     <use xlink:href="#m9457e94c2f" x="158.495502" y="106.674935" style="fill: #1f77b4; stroke: #1f77b4"/>
     <use xlink:href="#m9457e94c2f" x="166.499928" y="111.995179" style="fill: #1f77b4; stroke: #1f77b4"/>
     <use xlink:href="#m9457e94c2f" x="174.504354" y="95.565175" style="fill: #1f77b4; stroke: #1f77b4"/>
     <use xlink:href="#m9457e94c2f" x="182.50878" y="105.340033" style="fill: #1f77b4; stroke: #1f77b4"/>
     <use xlink:href="#m9457e94c2f" x="190.513206" y="134.021665" style="fill: #1f77b4; stroke: #1f77b4"/>
     <use xlink:href="#m9457e94c2f" x="198.517632" y="98.003496" style="fill: #1f77b4; stroke: #1f77b4"/>
     <use xlink:href="#m9457e94c2f" x="206.522057" y="95.542031" style="fill: #1f77b4; stroke: #1f77b4"/>
     <use xlink:href="#m9457e94c2f" x="214.526483" y="102.057598" style="fill: #1f77b4; stroke: #1f77b4"/>
     <use xlink:href="#m9457e94c2f" x="222.530909" y="106.28652" style="fill: #1f77b4; stroke: #1f77b4"/>
     <use xlink:href="#m9457e94c2f" x="230.535335" y="115.278252" style="fill: #1f77b4; stroke: #1f77b4"/>
     <use xlink:href="#m9457e94c2f" x="238.539761" y="145.405147" style="fill: #1f77b4; stroke: #1f77b4"/>
     <use xlink:href="#m9457e94c2f" x="246.544187" y="155.154439" style="fill: #1f77b4; stroke: #1f77b4"/>
     <use xlink:href="#m9457e94c2f" x="254.548612" y="133.450794" style="fill: #1f77b4; stroke: #1f77b4"/>
     <use xlink:href="#m9457e94c2f" x="262.553038" y="122.680337" style="fill: #1f77b4; stroke: #1f77b4"/>
     <use xlink:href="#m9457e94c2f" x="270.557464" y="108.602834" style="fill: #1f77b4; stroke: #1f77b4"/>
     <use xlink:href="#m9457e94c2f" x="278.56189" y="123.312872" style="fill: #1f77b4; stroke: #1f77b4"/>
     <use xlink:href="#m9457e94c2f" x="286.566316" y="121.255341" style="fill: #1f77b4; stroke: #1f77b4"/>
     <use xlink:href="#m9457e94c2f" x="294.570742" y="103.072823" style="fill: #1f77b4; stroke: #1f77b4"/>
     <use xlink:href="#m9457e94c2f" x="302.575167" y="97.970647" style="fill: #1f77b4; stroke: #1f77b4"/>
     <use xlink:href="#m9457e94c2f" x="310.579593" y="130.083659" style="fill: #1f77b4; stroke: #1f77b4"/>
     <use xlink:href="#m9457e94c2f" x="318.584019" y="125.807128" style="fill: #1f77b4; stroke: #1f77b4"/>
     <use xlink:href="#m9457e94c2f" x="326.588445" y="129.126672" style="fill: #1f77b4; stroke: #1f77b4"/>
     <use xlink:href="#m9457e94c2f" x="334.592871" y="127.839848" style="fill: #1f77b4; stroke: #1f77b4"/>
     <use xlink:href="#m9457e94c2f" x="342.597297" y="142.029597" style="fill: #1f77b4; stroke: #1f77b4"/>
     <use xlink:href="#m9457e94c2f" x="350.601722" y="150.987649" style="fill: #1f77b4; stroke: #1f77b4"/>
     <use xlink:href="#m9457e94c2f" x="358.606148" y="164.515611" style="fill: #1f77b4; stroke: #1f77b4"/>
     <use xlink:href="#m9457e94c2f" x="366.610574" y="167.054065" style="fill: #1f77b4; stroke: #1f77b4"/>
     <use xlink:href="#m9457e94c2f" x="374.615" y="153.383111" style="fill: #1f77b4; stroke: #1f77b4"/>
     <use xlink:href="#m9457e94c2f" x="382.619426" y="150.44581" style="fill: #1f77b4; stroke: #1f77b4"/>
     <use xlink:href="#m9457e94c2f" x="390.623852" y="153.264235" style="fill: #1f77b4; stroke: #1f77b4"/>
     <use xlink:href="#m9457e94c2f" x="398.628278" y="140.002437" style="fill: #1f77b4; stroke: #1f77b4"/>
     <use xlink:href="#m9457e94c2f" x="406.632703" y="125.715977" style="fill: #1f77b4; stroke: #1f77b4"/>
     <use xlink:href="#m9457e94c2f" x="414.637129" y="123.026518" style="fill: #1f77b4; stroke: #1f77b4"/>
     <use xlink:href="#m9457e94c2f" x="422.641555" y="121.656829" style="fill: #1f77b4; stroke: #1f77b4"/>
     <use xlink:href="#m9457e94c2f" x="430.645981" y="104.19277" style="fill: #1f77b4; stroke: #1f77b4"/>
     <use xlink:href="#m9457e94c2f" x="438.650407" y="119.244376" style="fill: #1f77b4; stroke: #1f77b4"/>
     <use xlink:href="#m9457e94c2f" x="446.654833" y="121.482062" style="fill: #1f77b4; stroke: #1f77b4"/>
     <use xlink:href="#m9457e94c2f" x="454.659258" y="117.096259" style="fill: #1f77b4; stroke: #1f77b4"/>
     <use xlink:href="#m9457e94c2f" x="462.663684" y="118.087876" style="fill: #1f77b4; stroke: #1f77b4"/>
     <use xlink:href="#m9457e94c2f" x="470.66811" y="119.426001" style="fill: #1f77b4; stroke: #1f77b4"/>
     <use xlink:href="#m9457e94c2f" x="478.672536" y="101.740778" style="fill: #1f77b4; stroke: #1f77b4"/>
     <use xlink:href="#m9457e94c2f" x="486.676962" y="132.06256" style="fill: #1f77b4; stroke: #1f77b4"/>
     <use xlink:href="#m9457e94c2f" x="494.681388" y="128.15141" style="fill: #1f77b4; stroke: #1f77b4"/>
     <use xlink:href="#m9457e94c2f" x="502.685813" y="110.163813" style="fill: #1f77b4; stroke: #1f77b4"/>
     <use xlink:href="#m9457e94c2f" x="510.690239" y="140.106611" style="fill: #1f77b4; stroke: #1f77b4"/>
     <use xlink:href="#m9457e94c2f" x="518.694665" y="112.113811" style="fill: #1f77b4; stroke: #1f77b4"/>
     <use xlink:href="#m9457e94c2f" x="526.699091" y="129.369754" style="fill: #1f77b4; stroke: #1f77b4"/>
     <use xlink:href="#m9457e94c2f" x="534.703517" y="114.982649" style="fill: #1f77b4; stroke: #1f77b4"/>
     <use xlink:href="#m9457e94c2f" x="542.707943" y="109.854474" style="fill: #1f77b4; stroke: #1f77b4"/>
     <use xlink:href="#m9457e94c2f" x="550.712368" y="105.415449" style="fill: #1f77b4; stroke: #1f77b4"/>
     <use xlink:href="#m9457e94c2f" x="558.716794" y="102.854991" style="fill: #1f77b4; stroke: #1f77b4"/>
     <use xlink:href="#m9457e94c2f" x="566.72122" y="125.672763" style="fill: #1f77b4; stroke: #1f77b4"/>
     <use xlink:href="#m9457e94c2f" x="574.725646" y="114.772582" style="fill: #1f77b4; stroke: #1f77b4"/>
     <use xlink:href="#m9457e94c2f" x="582.730072" y="99.372284" style="fill: #1f77b4; stroke: #1f77b4"/>
     <use xlink:href="#m9457e94c2f" x="590.734498" y="103.862793" style="fill: #1f77b4; stroke: #1f77b4"/>
     <use xlink:href="#m9457e94c2f" x="598.738923" y="121.279206" style="fill: #1f77b4; stroke: #1f77b4"/>
     <use xlink:href="#m9457e94c2f" x="606.743349" y="114.531443" style="fill: #1f77b4; stroke: #1f77b4"/>
     <use xlink:href="#m9457e94c2f" x="614.747775" y="135.201115" style="fill: #1f77b4; stroke: #1f77b4"/>
     <use xlink:href="#m9457e94c2f" x="622.752201" y="114.159394" style="fill: #1f77b4; stroke: #1f77b4"/>
     <use xlink:href="#m9457e94c2f" x="630.756627" y="122.198081" style="fill: #1f77b4; stroke: #1f77b4"/>
     <use xlink:href="#m9457e94c2f" x="638.761053" y="113.558244" style="fill: #1f77b4; stroke: #1f77b4"/>
     <use xlink:href="#m9457e94c2f" x="646.765478" y="105.991349" style="fill: #1f77b4; stroke: #1f77b4"/>
     <use xlink:href="#m9457e94c2f" x="654.769904" y="119.611278" style="fill: #1f77b4; stroke: #1f77b4"/>
     <use xlink:href="#m9457e94c2f" x="662.77433" y="116.882237" style="fill: #1f77b4; stroke: #1f77b4"/>
     <use xlink:href="#m9457e94c2f" x="670.778756" y="129.19727" style="fill: #1f77b4; stroke: #1f77b4"/>
     <use xlink:href="#m9457e94c2f" x="678.783182" y="150.074116" style="fill: #1f77b4; stroke: #1f77b4"/>
    </g>
   </g>
   <g id="line2d_42">
    <path d="M 70.446818 86.302374 
L 76.542373 89.341536 
L 82.637928 92.11085 
L 88.733482 94.633054 
L 94.829037 96.929739 
L 102.143703 99.416562 
L 109.458369 101.640801 
L 116.773034 103.633012 
L 125.306811 105.701557 
L 133.840588 107.533731 
L 143.593475 109.385645 
L 154.565474 111.219015 
L 166.756583 113.016671 
L 181.385915 114.935581 
L 200.89169 117.243137 
L 232.588574 120.730279 
L 287.448567 126.554377 
L 310.611675 128.803552 
L 328.898339 130.357126 
L 344.746782 131.471005 
L 358.157002 132.198585 
L 370.348112 132.657911 
L 382.539221 132.899811 
L 394.730331 132.903005 
L 405.702329 132.687155 
L 416.674328 132.254295 
L 427.646326 131.598652 
L 438.618325 130.718562 
L 449.590323 129.617468 
L 460.562322 128.304005 
L 472.753431 126.613669 
L 486.163652 124.508231 
L 500.792983 121.980771 
L 526.394313 117.274304 
L 543.461866 114.234873 
L 555.652976 112.29007 
L 565.405864 110.962237 
L 573.93964 110.026714 
L 581.254306 109.434084 
L 588.568972 109.072029 
L 594.664526 108.973769 
L 600.760081 109.085313 
L 606.855636 109.431283 
L 612.951191 110.037701 
L 617.827634 110.728587 
L 622.704078 111.618208 
L 627.580522 112.721742 
L 632.456966 114.054904 
L 637.33341 115.634062 
L 642.209853 117.476181 
L 647.086297 119.598823 
L 651.962741 122.020243 
L 656.839185 124.759167 
L 661.715629 127.835065 
L 665.372961 130.375199 
L 669.030294 133.124928 
L 672.687627 136.093198 
L 676.34496 139.28909 
L 678.783182 141.550823 
L 678.783182 141.550823 
" clip-path="url(#p1730b43c64)" style="fill: none; stroke: #ff0000; stroke-width: 1.5; stroke-linecap: square"/>
   </g>
   <g id="patch_3">
    <path d="M 40.03 173.062354 
L 40.03 40.88 
" style="fill: none; stroke: #000000; stroke-width: 0.8; stroke-linejoin: miter; stroke-linecap: square"/>
   </g>
   <g id="patch_4">
    <path d="M 709.2 173.062354 
L 709.2 40.88 
" style="fill: none; stroke: #000000; stroke-width: 0.8; stroke-linejoin: miter; stroke-linecap: square"/>
   </g>
   <g id="patch_5">
    <path d="M 40.03 173.062354 
L 709.2 173.062354 
" style="fill: none; stroke: #000000; stroke-width: 0.8; stroke-linejoin: miter; stroke-linecap: square"/>
   </g>
   <g id="patch_6">
    <path d="M 40.03 40.88 
L 709.2 40.88 
" style="fill: none; stroke: #000000; stroke-width: 0.8; stroke-linejoin: miter; stroke-linecap: square"/>
   </g>
   <g id="text_21">
    <!-- S4 - Sentiment Polarity from 1946 to 2022 -->
    <g transform="translate(247.487188 20.88) scale(0.12 -0.12)">
     <defs>
      <path id="DejaVuSans-53" d="M 3425 4513 
L 3425 3897 
Q 3066 4069 2747 4153 
Q 2428 4238 2131 4238 
Q 1616 4238 1336 4038 
Q 1056 3838 1056 3469 
Q 1056 3159 1242 3001 
Q 1428 2844 1947 2747 
L 2328 2669 
Q 3034 2534 3370 2195 
Q 3706 1856 3706 1288 
Q 3706 609 3251 259 
Q 2797 -91 1919 -91 
Q 1588 -91 1214 -16 
Q 841 59 441 206 
L 441 856 
Q 825 641 1194 531 
Q 1563 422 1919 422 
Q 2459 422 2753 634 
Q 3047 847 3047 1241 
Q 3047 1584 2836 1778 
Q 2625 1972 2144 2069 
L 1759 2144 
Q 1053 2284 737 2584 
Q 422 2884 422 3419 
Q 422 4038 858 4394 
Q 1294 4750 2059 4750 
Q 2388 4750 2728 4690 
Q 3069 4631 3425 4513 
z
" transform="scale(0.015625)"/>
      <path id="DejaVuSans-34" d="M 2419 4116 
L 825 1625 
L 2419 1625 
L 2419 4116 
z
M 2253 4666 
L 3047 4666 
L 3047 1625 
L 3713 1625 
L 3713 1100 
L 3047 1100 
L 3047 0 
L 2419 0 
L 2419 1100 
L 313 1100 
L 313 1709 
L 2253 4666 
z
" transform="scale(0.015625)"/>
      <path id="DejaVuSans-20" transform="scale(0.015625)"/>
      <path id="DejaVuSans-2d" d="M 313 2009 
L 1997 2009 
L 1997 1497 
L 313 1497 
L 313 2009 
z
" transform="scale(0.015625)"/>
      <path id="DejaVuSans-65" d="M 3597 1894 
L 3597 1613 
L 953 1613 
Q 991 1019 1311 708 
Q 1631 397 2203 397 
Q 2534 397 2845 478 
Q 3156 559 3463 722 
L 3463 178 
Q 3153 47 2828 -22 
Q 2503 -91 2169 -91 
Q 1331 -91 842 396 
Q 353 884 353 1716 
Q 353 2575 817 3079 
Q 1281 3584 2069 3584 
Q 2775 3584 3186 3129 
Q 3597 2675 3597 1894 
z
M 3022 2063 
Q 3016 2534 2758 2815 
Q 2500 3097 2075 3097 
Q 1594 3097 1305 2825 
Q 1016 2553 972 2059 
L 3022 2063 
z
" transform="scale(0.015625)"/>
      <path id="DejaVuSans-6e" d="M 3513 2113 
L 3513 0 
L 2938 0 
L 2938 2094 
Q 2938 2591 2744 2837 
Q 2550 3084 2163 3084 
Q 1697 3084 1428 2787 
Q 1159 2491 1159 1978 
L 1159 0 
L 581 0 
L 581 3500 
L 1159 3500 
L 1159 2956 
Q 1366 3272 1645 3428 
Q 1925 3584 2291 3584 
Q 2894 3584 3203 3211 
Q 3513 2838 3513 2113 
z
" transform="scale(0.015625)"/>
      <path id="DejaVuSans-74" d="M 1172 4494 
L 1172 3500 
L 2356 3500 
L 2356 3053 
L 1172 3053 
L 1172 1153 
Q 1172 725 1289 603 
Q 1406 481 1766 481 
L 2356 481 
L 2356 0 
L 1766 0 
Q 1100 0 847 248 
Q 594 497 594 1153 
L 594 3053 
L 172 3053 
L 172 3500 
L 594 3500 
L 594 4494 
L 1172 4494 
z
" transform="scale(0.015625)"/>
      <path id="DejaVuSans-69" d="M 603 3500 
L 1178 3500 
L 1178 0 
L 603 0 
L 603 3500 
z
M 603 4863 
L 1178 4863 
L 1178 4134 
L 603 4134 
L 603 4863 
z
" transform="scale(0.015625)"/>
      <path id="DejaVuSans-6d" d="M 3328 2828 
Q 3544 3216 3844 3400 
Q 4144 3584 4550 3584 
Q 5097 3584 5394 3201 
Q 5691 2819 5691 2113 
L 5691 0 
L 5113 0 
L 5113 2094 
Q 5113 2597 4934 2840 
Q 4756 3084 4391 3084 
Q 3944 3084 3684 2787 
Q 3425 2491 3425 1978 
L 3425 0 
L 2847 0 
L 2847 2094 
Q 2847 2600 2669 2842 
Q 2491 3084 2119 3084 
Q 1678 3084 1418 2786 
Q 1159 2488 1159 1978 
L 1159 0 
L 581 0 
L 581 3500 
L 1159 3500 
L 1159 2956 
Q 1356 3278 1631 3431 
Q 1906 3584 2284 3584 
Q 2666 3584 2933 3390 
Q 3200 3197 3328 2828 
z
" transform="scale(0.015625)"/>
      <path id="DejaVuSans-50" d="M 1259 4147 
L 1259 2394 
L 2053 2394 
Q 2494 2394 2734 2622 
Q 2975 2850 2975 3272 
Q 2975 3691 2734 3919 
Q 2494 4147 2053 4147 
L 1259 4147 
z
M 628 4666 
L 2053 4666 
Q 2838 4666 3239 4311 
Q 3641 3956 3641 3272 
Q 3641 2581 3239 2228 
Q 2838 1875 2053 1875 
L 1259 1875 
L 1259 0 
L 628 0 
L 628 4666 
z
" transform="scale(0.015625)"/>
      <path id="DejaVuSans-6f" d="M 1959 3097 
Q 1497 3097 1228 2736 
Q 959 2375 959 1747 
Q 959 1119 1226 758 
Q 1494 397 1959 397 
Q 2419 397 2687 759 
Q 2956 1122 2956 1747 
Q 2956 2369 2687 2733 
Q 2419 3097 1959 3097 
z
M 1959 3584 
Q 2709 3584 3137 3096 
Q 3566 2609 3566 1747 
Q 3566 888 3137 398 
Q 2709 -91 1959 -91 
Q 1206 -91 779 398 
Q 353 888 353 1747 
Q 353 2609 779 3096 
Q 1206 3584 1959 3584 
z
" transform="scale(0.015625)"/>
      <path id="DejaVuSans-6c" d="M 603 4863 
L 1178 4863 
L 1178 0 
L 603 0 
L 603 4863 
z
" transform="scale(0.015625)"/>
      <path id="DejaVuSans-61" d="M 2194 1759 
Q 1497 1759 1228 1600 
Q 959 1441 959 1056 
Q 959 750 1161 570 
Q 1363 391 1709 391 
Q 2188 391 2477 730 
Q 2766 1069 2766 1631 
L 2766 1759 
L 2194 1759 
z
M 3341 1997 
L 3341 0 
L 2766 0 
L 2766 531 
Q 2569 213 2275 61 
Q 1981 -91 1556 -91 
Q 1019 -91 701 211 
Q 384 513 384 1019 
Q 384 1609 779 1909 
Q 1175 2209 1959 2209 
L 2766 2209 
L 2766 2266 
Q 2766 2663 2505 2880 
Q 2244 3097 1772 3097 
Q 1472 3097 1187 3025 
Q 903 2953 641 2809 
L 641 3341 
Q 956 3463 1253 3523 
Q 1550 3584 1831 3584 
Q 2591 3584 2966 3190 
Q 3341 2797 3341 1997 
z
" transform="scale(0.015625)"/>
      <path id="DejaVuSans-72" d="M 2631 2963 
Q 2534 3019 2420 3045 
Q 2306 3072 2169 3072 
Q 1681 3072 1420 2755 
Q 1159 2438 1159 1844 
L 1159 0 
L 581 0 
L 581 3500 
L 1159 3500 
L 1159 2956 
Q 1341 3275 1631 3429 
Q 1922 3584 2338 3584 
Q 2397 3584 2469 3576 
Q 2541 3569 2628 3553 
L 2631 2963 
z
" transform="scale(0.015625)"/>
      <path id="DejaVuSans-79" d="M 2059 -325 
Q 1816 -950 1584 -1140 
Q 1353 -1331 966 -1331 
L 506 -1331 
L 506 -850 
L 844 -850 
Q 1081 -850 1212 -737 
Q 1344 -625 1503 -206 
L 1606 56 
L 191 3500 
L 800 3500 
L 1894 763 
L 2988 3500 
L 3597 3500 
L 2059 -325 
z
" transform="scale(0.015625)"/>
      <path id="DejaVuSans-66" d="M 2375 4863 
L 2375 4384 
L 1825 4384 
Q 1516 4384 1395 4259 
Q 1275 4134 1275 3809 
L 1275 3500 
L 2222 3500 
L 2222 3053 
L 1275 3053 
L 1275 0 
L 697 0 
L 697 3053 
L 147 3053 
L 147 3500 
L 697 3500 
L 697 3744 
Q 697 4328 969 4595 
Q 1241 4863 1831 4863 
L 2375 4863 
z
" transform="scale(0.015625)"/>
     </defs>
     <use xlink:href="#DejaVuSans-53"/>
     <use xlink:href="#DejaVuSans-34" x="63.476562"/>
     <use xlink:href="#DejaVuSans-20" x="127.099609"/>
     <use xlink:href="#DejaVuSans-2d" x="158.886719"/>
     <use xlink:href="#DejaVuSans-20" x="194.970703"/>
     <use xlink:href="#DejaVuSans-53" x="226.757812"/>
     <use xlink:href="#DejaVuSans-65" x="290.234375"/>
     <use xlink:href="#DejaVuSans-6e" x="351.757812"/>
     <use xlink:href="#DejaVuSans-74" x="415.136719"/>
     <use xlink:href="#DejaVuSans-69" x="454.345703"/>
     <use xlink:href="#DejaVuSans-6d" x="482.128906"/>
     <use xlink:href="#DejaVuSans-65" x="579.541016"/>
     <use xlink:href="#DejaVuSans-6e" x="641.064453"/>
     <use xlink:href="#DejaVuSans-74" x="704.443359"/>
     <use xlink:href="#DejaVuSans-20" x="743.652344"/>
     <use xlink:href="#DejaVuSans-50" x="775.439453"/>
     <use xlink:href="#DejaVuSans-6f" x="832.117188"/>
     <use xlink:href="#DejaVuSans-6c" x="893.298828"/>
     <use xlink:href="#DejaVuSans-61" x="921.082031"/>
     <use xlink:href="#DejaVuSans-72" x="982.361328"/>
     <use xlink:href="#DejaVuSans-69" x="1023.474609"/>
     <use xlink:href="#DejaVuSans-74" x="1051.257812"/>
     <use xlink:href="#DejaVuSans-79" x="1090.466797"/>
     <use xlink:href="#DejaVuSans-20" x="1149.646484"/>
     <use xlink:href="#DejaVuSans-66" x="1181.433594"/>
     <use xlink:href="#DejaVuSans-72" x="1216.638672"/>
     <use xlink:href="#DejaVuSans-6f" x="1255.501953"/>
     <use xlink:href="#DejaVuSans-6d" x="1316.683594"/>
     <use xlink:href="#DejaVuSans-20" x="1414.095703"/>
     <use xlink:href="#DejaVuSans-31" x="1445.882812"/>
     <use xlink:href="#DejaVuSans-39" x="1509.505859"/>
     <use xlink:href="#DejaVuSans-34" x="1573.128906"/>
     <use xlink:href="#DejaVuSans-36" x="1636.751953"/>
     <use xlink:href="#DejaVuSans-20" x="1700.375"/>
     <use xlink:href="#DejaVuSans-74" x="1732.162109"/>
     <use xlink:href="#DejaVuSans-6f" x="1771.371094"/>
     <use xlink:href="#DejaVuSans-20" x="1832.552734"/>
     <use xlink:href="#DejaVuSans-32" x="1864.339844"/>
     <use xlink:href="#DejaVuSans-30" x="1927.962891"/>
     <use xlink:href="#DejaVuSans-32" x="1991.585938"/>
     <use xlink:href="#DejaVuSans-32" x="2055.208984"/>
    </g>
   </g>
  </g>
 </g>
 <defs>
  <clipPath id="p1730b43c64">
   <rect x="40.03" y="40.88" width="669.17" height="132.182354"/>
  </clipPath>
 </defs>
</svg>
