<?xml version="1.0" encoding="utf-8" standalone="no"?>
<!DOCTYPE svg PUBLIC "-//W3C//DTD SVG 1.1//EN"
  "http://www.w3.org/Graphics/SVG/1.1/DTD/svg11.dtd">
<svg xmlns:xlink="http://www.w3.org/1999/xlink" width="720pt" height="216pt" viewBox="0 0 720 216" xmlns="http://www.w3.org/2000/svg" version="1.1">
 <metadata>
  <rdf:RDF xmlns:dc="http://purl.org/dc/elements/1.1/" xmlns:cc="http://creativecommons.org/ns#" xmlns:rdf="http://www.w3.org/1999/02/22-rdf-syntax-ns#">
   <cc:Work>
    <dc:type rdf:resource="http://purl.org/dc/dcmitype/StillImage"/>
    <dc:date>2024-08-08T22:46:44.958706</dc:date>
    <dc:format>image/svg+xml</dc:format>
    <dc:creator>
     <cc:Agent>
      <dc:title>Matplotlib v3.7.1, https://matplotlib.org/</dc:title>
     </cc:Agent>
    </dc:creator>
   </cc:Work>
  </rdf:RDF>
 </metadata>
 <defs>
  <style type="text/css">*{stroke-linejoin: round; stroke-linecap: butt}</style>
 </defs>
 <g id="figure_1">
  <g id="patch_1">
   <path d="M 0 216 
L 720 216 
L 720 0 
L 0 0 
z
" style="fill: #ffffff"/>
  </g>
  <g id="axes_1">
   <g id="patch_2">
    <path d="M 39.94 173.062354 
L 709.2 173.062354 
L 709.2 40.88 
L 39.94 40.88 
z
" style="fill: #ffffff"/>
   </g>
   <g id="matplotlib.axis_1">
    <g id="xtick_1">
     <g id="line2d_1">
      <path d="M 102.382919 173.062354 
L 102.382919 40.88 
" clip-path="url(#pb53174f266)" style="fill: none; stroke: #000000; stroke-width: 0.5; stroke-linecap: square"/>
     </g>
     <g id="line2d_2">
      <defs>
       <path id="mee509a297d" d="M 0 0 
L 0 3.5 
" style="stroke: #000000; stroke-width: 0.8"/>
      </defs>
      <g>
       <use xlink:href="#mee509a297d" x="102.382919" y="173.062354" style="stroke: #000000; stroke-width: 0.8"/>
      </g>
     </g>
     <g id="text_1">
      <!-- 1950 -->
      <g transform="translate(95.336158 203.431128) rotate(-45) scale(0.1 -0.1)">
       <defs>
        <path id="DejaVuSans-31" d="M 794 531 
L 1825 531 
L 1825 4091 
L 703 3866 
L 703 4441 
L 1819 4666 
L 2450 4666 
L 2450 531 
L 3481 531 
L 3481 0 
L 794 0 
L 794 531 
z
" transform="scale(0.015625)"/>
        <path id="DejaVuSans-39" d="M 703 97 
L 703 672 
Q 941 559 1184 500 
Q 1428 441 1663 441 
Q 2288 441 2617 861 
Q 2947 1281 2994 2138 
Q 2813 1869 2534 1725 
Q 2256 1581 1919 1581 
Q 1219 1581 811 2004 
Q 403 2428 403 3163 
Q 403 3881 828 4315 
Q 1253 4750 1959 4750 
Q 2769 4750 3195 4129 
Q 3622 3509 3622 2328 
Q 3622 1225 3098 567 
Q 2575 -91 1691 -91 
Q 1453 -91 1209 -44 
Q 966 3 703 97 
z
M 1959 2075 
Q 2384 2075 2632 2365 
Q 2881 2656 2881 3163 
Q 2881 3666 2632 3958 
Q 2384 4250 1959 4250 
Q 1534 4250 1286 3958 
Q 1038 3666 1038 3163 
Q 1038 2656 1286 2365 
Q 1534 2075 1959 2075 
z
" transform="scale(0.015625)"/>
        <path id="DejaVuSans-35" d="M 691 4666 
L 3169 4666 
L 3169 4134 
L 1269 4134 
L 1269 2991 
Q 1406 3038 1543 3061 
Q 1681 3084 1819 3084 
Q 2600 3084 3056 2656 
Q 3513 2228 3513 1497 
Q 3513 744 3044 326 
Q 2575 -91 1722 -91 
Q 1428 -91 1123 -41 
Q 819 9 494 109 
L 494 744 
Q 775 591 1075 516 
Q 1375 441 1709 441 
Q 2250 441 2565 725 
Q 2881 1009 2881 1497 
Q 2881 1984 2565 2268 
Q 2250 2553 1709 2553 
Q 1456 2553 1204 2497 
Q 953 2441 691 2322 
L 691 4666 
z
" transform="scale(0.015625)"/>
        <path id="DejaVuSans-30" d="M 2034 4250 
Q 1547 4250 1301 3770 
Q 1056 3291 1056 2328 
Q 1056 1369 1301 889 
Q 1547 409 2034 409 
Q 2525 409 2770 889 
Q 3016 1369 3016 2328 
Q 3016 3291 2770 3770 
Q 2525 4250 2034 4250 
z
M 2034 4750 
Q 2819 4750 3233 4129 
Q 3647 3509 3647 2328 
Q 3647 1150 3233 529 
Q 2819 -91 2034 -91 
Q 1250 -91 836 529 
Q 422 1150 422 2328 
Q 422 3509 836 4129 
Q 1250 4750 2034 4750 
z
" transform="scale(0.015625)"/>
       </defs>
       <use xlink:href="#DejaVuSans-31"/>
       <use xlink:href="#DejaVuSans-39" x="63.623047"/>
       <use xlink:href="#DejaVuSans-35" x="127.246094"/>
       <use xlink:href="#DejaVuSans-30" x="190.869141"/>
      </g>
     </g>
    </g>
    <g id="xtick_2">
     <g id="line2d_3">
      <path d="M 142.410431 173.062354 
L 142.410431 40.88 
" clip-path="url(#pb53174f266)" style="fill: none; stroke: #000000; stroke-width: 0.5; stroke-linecap: square"/>
     </g>
     <g id="line2d_4">
      <g>
       <use xlink:href="#mee509a297d" x="142.410431" y="173.062354" style="stroke: #000000; stroke-width: 0.8"/>
      </g>
     </g>
     <g id="text_2">
      <!-- 1955 -->
      <g transform="translate(135.36367 203.431128) rotate(-45) scale(0.1 -0.1)">
       <use xlink:href="#DejaVuSans-31"/>
       <use xlink:href="#DejaVuSans-39" x="63.623047"/>
       <use xlink:href="#DejaVuSans-35" x="127.246094"/>
       <use xlink:href="#DejaVuSans-35" x="190.869141"/>
      </g>
     </g>
    </g>
    <g id="xtick_3">
     <g id="line2d_5">
      <path d="M 182.437943 173.062354 
L 182.437943 40.88 
" clip-path="url(#pb53174f266)" style="fill: none; stroke: #000000; stroke-width: 0.5; stroke-linecap: square"/>
     </g>
     <g id="line2d_6">
      <g>
       <use xlink:href="#mee509a297d" x="182.437943" y="173.062354" style="stroke: #000000; stroke-width: 0.8"/>
      </g>
     </g>
     <g id="text_3">
      <!-- 1960 -->
      <g transform="translate(175.391182 203.431128) rotate(-45) scale(0.1 -0.1)">
       <defs>
        <path id="DejaVuSans-36" d="M 2113 2584 
Q 1688 2584 1439 2293 
Q 1191 2003 1191 1497 
Q 1191 994 1439 701 
Q 1688 409 2113 409 
Q 2538 409 2786 701 
Q 3034 994 3034 1497 
Q 3034 2003 2786 2293 
Q 2538 2584 2113 2584 
z
M 3366 4563 
L 3366 3988 
Q 3128 4100 2886 4159 
Q 2644 4219 2406 4219 
Q 1781 4219 1451 3797 
Q 1122 3375 1075 2522 
Q 1259 2794 1537 2939 
Q 1816 3084 2150 3084 
Q 2853 3084 3261 2657 
Q 3669 2231 3669 1497 
Q 3669 778 3244 343 
Q 2819 -91 2113 -91 
Q 1303 -91 875 529 
Q 447 1150 447 2328 
Q 447 3434 972 4092 
Q 1497 4750 2381 4750 
Q 2619 4750 2861 4703 
Q 3103 4656 3366 4563 
z
" transform="scale(0.015625)"/>
       </defs>
       <use xlink:href="#DejaVuSans-31"/>
       <use xlink:href="#DejaVuSans-39" x="63.623047"/>
       <use xlink:href="#DejaVuSans-36" x="127.246094"/>
       <use xlink:href="#DejaVuSans-30" x="190.869141"/>
      </g>
     </g>
    </g>
    <g id="xtick_4">
     <g id="line2d_7">
      <path d="M 222.465455 173.062354 
L 222.465455 40.88 
" clip-path="url(#pb53174f266)" style="fill: none; stroke: #000000; stroke-width: 0.5; stroke-linecap: square"/>
     </g>
     <g id="line2d_8">
      <g>
       <use xlink:href="#mee509a297d" x="222.465455" y="173.062354" style="stroke: #000000; stroke-width: 0.8"/>
      </g>
     </g>
     <g id="text_4">
      <!-- 1965 -->
      <g transform="translate(215.418694 203.431128) rotate(-45) scale(0.1 -0.1)">
       <use xlink:href="#DejaVuSans-31"/>
       <use xlink:href="#DejaVuSans-39" x="63.623047"/>
       <use xlink:href="#DejaVuSans-36" x="127.246094"/>
       <use xlink:href="#DejaVuSans-35" x="190.869141"/>
      </g>
     </g>
    </g>
    <g id="xtick_5">
     <g id="line2d_9">
      <path d="M 262.492967 173.062354 
L 262.492967 40.88 
" clip-path="url(#pb53174f266)" style="fill: none; stroke: #000000; stroke-width: 0.5; stroke-linecap: square"/>
     </g>
     <g id="line2d_10">
      <g>
       <use xlink:href="#mee509a297d" x="262.492967" y="173.062354" style="stroke: #000000; stroke-width: 0.8"/>
      </g>
     </g>
     <g id="text_5">
      <!-- 1970 -->
      <g transform="translate(255.446205 203.431128) rotate(-45) scale(0.1 -0.1)">
       <defs>
        <path id="DejaVuSans-37" d="M 525 4666 
L 3525 4666 
L 3525 4397 
L 1831 0 
L 1172 0 
L 2766 4134 
L 525 4134 
L 525 4666 
z
" transform="scale(0.015625)"/>
       </defs>
       <use xlink:href="#DejaVuSans-31"/>
       <use xlink:href="#DejaVuSans-39" x="63.623047"/>
       <use xlink:href="#DejaVuSans-37" x="127.246094"/>
       <use xlink:href="#DejaVuSans-30" x="190.869141"/>
      </g>
     </g>
    </g>
    <g id="xtick_6">
     <g id="line2d_11">
      <path d="M 302.520478 173.062354 
L 302.520478 40.88 
" clip-path="url(#pb53174f266)" style="fill: none; stroke: #000000; stroke-width: 0.5; stroke-linecap: square"/>
     </g>
     <g id="line2d_12">
      <g>
       <use xlink:href="#mee509a297d" x="302.520478" y="173.062354" style="stroke: #000000; stroke-width: 0.8"/>
      </g>
     </g>
     <g id="text_6">
      <!-- 1975 -->
      <g transform="translate(295.473717 203.431128) rotate(-45) scale(0.1 -0.1)">
       <use xlink:href="#DejaVuSans-31"/>
       <use xlink:href="#DejaVuSans-39" x="63.623047"/>
       <use xlink:href="#DejaVuSans-37" x="127.246094"/>
       <use xlink:href="#DejaVuSans-35" x="190.869141"/>
      </g>
     </g>
    </g>
    <g id="xtick_7">
     <g id="line2d_13">
      <path d="M 342.54799 173.062354 
L 342.54799 40.88 
" clip-path="url(#pb53174f266)" style="fill: none; stroke: #000000; stroke-width: 0.5; stroke-linecap: square"/>
     </g>
     <g id="line2d_14">
      <g>
       <use xlink:href="#mee509a297d" x="342.54799" y="173.062354" style="stroke: #000000; stroke-width: 0.8"/>
      </g>
     </g>
     <g id="text_7">
      <!-- 1980 -->
      <g transform="translate(335.501229 203.431128) rotate(-45) scale(0.1 -0.1)">
       <defs>
        <path id="DejaVuSans-38" d="M 2034 2216 
Q 1584 2216 1326 1975 
Q 1069 1734 1069 1313 
Q 1069 891 1326 650 
Q 1584 409 2034 409 
Q 2484 409 2743 651 
Q 3003 894 3003 1313 
Q 3003 1734 2745 1975 
Q 2488 2216 2034 2216 
z
M 1403 2484 
Q 997 2584 770 2862 
Q 544 3141 544 3541 
Q 544 4100 942 4425 
Q 1341 4750 2034 4750 
Q 2731 4750 3128 4425 
Q 3525 4100 3525 3541 
Q 3525 3141 3298 2862 
Q 3072 2584 2669 2484 
Q 3125 2378 3379 2068 
Q 3634 1759 3634 1313 
Q 3634 634 3220 271 
Q 2806 -91 2034 -91 
Q 1263 -91 848 271 
Q 434 634 434 1313 
Q 434 1759 690 2068 
Q 947 2378 1403 2484 
z
M 1172 3481 
Q 1172 3119 1398 2916 
Q 1625 2713 2034 2713 
Q 2441 2713 2670 2916 
Q 2900 3119 2900 3481 
Q 2900 3844 2670 4047 
Q 2441 4250 2034 4250 
Q 1625 4250 1398 4047 
Q 1172 3844 1172 3481 
z
" transform="scale(0.015625)"/>
       </defs>
       <use xlink:href="#DejaVuSans-31"/>
       <use xlink:href="#DejaVuSans-39" x="63.623047"/>
       <use xlink:href="#DejaVuSans-38" x="127.246094"/>
       <use xlink:href="#DejaVuSans-30" x="190.869141"/>
      </g>
     </g>
    </g>
    <g id="xtick_8">
     <g id="line2d_15">
      <path d="M 382.575502 173.062354 
L 382.575502 40.88 
" clip-path="url(#pb53174f266)" style="fill: none; stroke: #000000; stroke-width: 0.5; stroke-linecap: square"/>
     </g>
     <g id="line2d_16">
      <g>
       <use xlink:href="#mee509a297d" x="382.575502" y="173.062354" style="stroke: #000000; stroke-width: 0.8"/>
      </g>
     </g>
     <g id="text_8">
      <!-- 1985 -->
      <g transform="translate(375.528741 203.431128) rotate(-45) scale(0.1 -0.1)">
       <use xlink:href="#DejaVuSans-31"/>
       <use xlink:href="#DejaVuSans-39" x="63.623047"/>
       <use xlink:href="#DejaVuSans-38" x="127.246094"/>
       <use xlink:href="#DejaVuSans-35" x="190.869141"/>
      </g>
     </g>
    </g>
    <g id="xtick_9">
     <g id="line2d_17">
      <path d="M 422.603014 173.062354 
L 422.603014 40.88 
" clip-path="url(#pb53174f266)" style="fill: none; stroke: #000000; stroke-width: 0.5; stroke-linecap: square"/>
     </g>
     <g id="line2d_18">
      <g>
       <use xlink:href="#mee509a297d" x="422.603014" y="173.062354" style="stroke: #000000; stroke-width: 0.8"/>
      </g>
     </g>
     <g id="text_9">
      <!-- 1990 -->
      <g transform="translate(415.556253 203.431128) rotate(-45) scale(0.1 -0.1)">
       <use xlink:href="#DejaVuSans-31"/>
       <use xlink:href="#DejaVuSans-39" x="63.623047"/>
       <use xlink:href="#DejaVuSans-39" x="127.246094"/>
       <use xlink:href="#DejaVuSans-30" x="190.869141"/>
      </g>
     </g>
    </g>
    <g id="xtick_10">
     <g id="line2d_19">
      <path d="M 462.630526 173.062354 
L 462.630526 40.88 
" clip-path="url(#pb53174f266)" style="fill: none; stroke: #000000; stroke-width: 0.5; stroke-linecap: square"/>
     </g>
     <g id="line2d_20">
      <g>
       <use xlink:href="#mee509a297d" x="462.630526" y="173.062354" style="stroke: #000000; stroke-width: 0.8"/>
      </g>
     </g>
     <g id="text_10">
      <!-- 1995 -->
      <g transform="translate(455.583765 203.431128) rotate(-45) scale(0.1 -0.1)">
       <use xlink:href="#DejaVuSans-31"/>
       <use xlink:href="#DejaVuSans-39" x="63.623047"/>
       <use xlink:href="#DejaVuSans-39" x="127.246094"/>
       <use xlink:href="#DejaVuSans-35" x="190.869141"/>
      </g>
     </g>
    </g>
    <g id="xtick_11">
     <g id="line2d_21">
      <path d="M 502.658038 173.062354 
L 502.658038 40.88 
" clip-path="url(#pb53174f266)" style="fill: none; stroke: #000000; stroke-width: 0.5; stroke-linecap: square"/>
     </g>
     <g id="line2d_22">
      <g>
       <use xlink:href="#mee509a297d" x="502.658038" y="173.062354" style="stroke: #000000; stroke-width: 0.8"/>
      </g>
     </g>
     <g id="text_11">
      <!-- 2000 -->
      <g transform="translate(495.611277 203.431128) rotate(-45) scale(0.1 -0.1)">
       <defs>
        <path id="DejaVuSans-32" d="M 1228 531 
L 3431 531 
L 3431 0 
L 469 0 
L 469 531 
Q 828 903 1448 1529 
Q 2069 2156 2228 2338 
Q 2531 2678 2651 2914 
Q 2772 3150 2772 3378 
Q 2772 3750 2511 3984 
Q 2250 4219 1831 4219 
Q 1534 4219 1204 4116 
Q 875 4013 500 3803 
L 500 4441 
Q 881 4594 1212 4672 
Q 1544 4750 1819 4750 
Q 2544 4750 2975 4387 
Q 3406 4025 3406 3419 
Q 3406 3131 3298 2873 
Q 3191 2616 2906 2266 
Q 2828 2175 2409 1742 
Q 1991 1309 1228 531 
z
" transform="scale(0.015625)"/>
       </defs>
       <use xlink:href="#DejaVuSans-32"/>
       <use xlink:href="#DejaVuSans-30" x="63.623047"/>
       <use xlink:href="#DejaVuSans-30" x="127.246094"/>
       <use xlink:href="#DejaVuSans-30" x="190.869141"/>
      </g>
     </g>
    </g>
    <g id="xtick_12">
     <g id="line2d_23">
      <path d="M 542.68555 173.062354 
L 542.68555 40.88 
" clip-path="url(#pb53174f266)" style="fill: none; stroke: #000000; stroke-width: 0.5; stroke-linecap: square"/>
     </g>
     <g id="line2d_24">
      <g>
       <use xlink:href="#mee509a297d" x="542.68555" y="173.062354" style="stroke: #000000; stroke-width: 0.8"/>
      </g>
     </g>
     <g id="text_12">
      <!-- 2005 -->
      <g transform="translate(535.638789 203.431128) rotate(-45) scale(0.1 -0.1)">
       <use xlink:href="#DejaVuSans-32"/>
       <use xlink:href="#DejaVuSans-30" x="63.623047"/>
       <use xlink:href="#DejaVuSans-30" x="127.246094"/>
       <use xlink:href="#DejaVuSans-35" x="190.869141"/>
      </g>
     </g>
    </g>
    <g id="xtick_13">
     <g id="line2d_25">
      <path d="M 582.713062 173.062354 
L 582.713062 40.88 
" clip-path="url(#pb53174f266)" style="fill: none; stroke: #000000; stroke-width: 0.5; stroke-linecap: square"/>
     </g>
     <g id="line2d_26">
      <g>
       <use xlink:href="#mee509a297d" x="582.713062" y="173.062354" style="stroke: #000000; stroke-width: 0.8"/>
      </g>
     </g>
     <g id="text_13">
      <!-- 2010 -->
      <g transform="translate(575.666301 203.431128) rotate(-45) scale(0.1 -0.1)">
       <use xlink:href="#DejaVuSans-32"/>
       <use xlink:href="#DejaVuSans-30" x="63.623047"/>
       <use xlink:href="#DejaVuSans-31" x="127.246094"/>
       <use xlink:href="#DejaVuSans-30" x="190.869141"/>
      </g>
     </g>
    </g>
    <g id="xtick_14">
     <g id="line2d_27">
      <path d="M 622.740574 173.062354 
L 622.740574 40.88 
" clip-path="url(#pb53174f266)" style="fill: none; stroke: #000000; stroke-width: 0.5; stroke-linecap: square"/>
     </g>
     <g id="line2d_28">
      <g>
       <use xlink:href="#mee509a297d" x="622.740574" y="173.062354" style="stroke: #000000; stroke-width: 0.8"/>
      </g>
     </g>
     <g id="text_14">
      <!-- 2015 -->
      <g transform="translate(615.693813 203.431128) rotate(-45) scale(0.1 -0.1)">
       <use xlink:href="#DejaVuSans-32"/>
       <use xlink:href="#DejaVuSans-30" x="63.623047"/>
       <use xlink:href="#DejaVuSans-31" x="127.246094"/>
       <use xlink:href="#DejaVuSans-35" x="190.869141"/>
      </g>
     </g>
    </g>
    <g id="xtick_15">
     <g id="line2d_29">
      <path d="M 662.768086 173.062354 
L 662.768086 40.88 
" clip-path="url(#pb53174f266)" style="fill: none; stroke: #000000; stroke-width: 0.5; stroke-linecap: square"/>
     </g>
     <g id="line2d_30">
      <g>
       <use xlink:href="#mee509a297d" x="662.768086" y="173.062354" style="stroke: #000000; stroke-width: 0.8"/>
      </g>
     </g>
     <g id="text_15">
      <!-- 2020 -->
      <g transform="translate(655.721325 203.431128) rotate(-45) scale(0.1 -0.1)">
       <use xlink:href="#DejaVuSans-32"/>
       <use xlink:href="#DejaVuSans-30" x="63.623047"/>
       <use xlink:href="#DejaVuSans-32" x="127.246094"/>
       <use xlink:href="#DejaVuSans-30" x="190.869141"/>
      </g>
     </g>
    </g>
   </g>
   <g id="matplotlib.axis_2">
    <g id="ytick_1">
     <g id="line2d_31">
      <path d="M 39.94 160.610498 
L 709.2 160.610498 
" clip-path="url(#pb53174f266)" style="fill: none; stroke: #000000; stroke-width: 0.5; stroke-linecap: square"/>
     </g>
     <g id="line2d_32">
      <defs>
       <path id="m213c79fe50" d="M 0 0 
L -3.5 0 
" style="stroke: #000000; stroke-width: 0.8"/>
      </defs>
      <g>
       <use xlink:href="#m213c79fe50" x="39.94" y="160.610498" style="stroke: #000000; stroke-width: 0.8"/>
      </g>
     </g>
     <g id="text_16">
      <!-- 0.40 -->
      <g transform="translate(10.674375 164.409716) scale(0.1 -0.1)">
       <defs>
        <path id="DejaVuSans-2e" d="M 684 794 
L 1344 794 
L 1344 0 
L 684 0 
L 684 794 
z
" transform="scale(0.015625)"/>
        <path id="DejaVuSans-34" d="M 2419 4116 
L 825 1625 
L 2419 1625 
L 2419 4116 
z
M 2253 4666 
L 3047 4666 
L 3047 1625 
L 3713 1625 
L 3713 1100 
L 3047 1100 
L 3047 0 
L 2419 0 
L 2419 1100 
L 313 1100 
L 313 1709 
L 2253 4666 
z
" transform="scale(0.015625)"/>
       </defs>
       <use xlink:href="#DejaVuSans-30"/>
       <use xlink:href="#DejaVuSans-2e" x="63.623047"/>
       <use xlink:href="#DejaVuSans-34" x="95.410156"/>
       <use xlink:href="#DejaVuSans-30" x="159.033203"/>
      </g>
     </g>
    </g>
    <g id="ytick_2">
     <g id="line2d_33">
      <path d="M 39.94 120.137168 
L 709.2 120.137168 
" clip-path="url(#pb53174f266)" style="fill: none; stroke: #000000; stroke-width: 0.5; stroke-linecap: square"/>
     </g>
     <g id="line2d_34">
      <g>
       <use xlink:href="#m213c79fe50" x="39.94" y="120.137168" style="stroke: #000000; stroke-width: 0.8"/>
      </g>
     </g>
     <g id="text_17">
      <!-- 0.42 -->
      <g transform="translate(10.674375 123.936387) scale(0.1 -0.1)">
       <use xlink:href="#DejaVuSans-30"/>
       <use xlink:href="#DejaVuSans-2e" x="63.623047"/>
       <use xlink:href="#DejaVuSans-34" x="95.410156"/>
       <use xlink:href="#DejaVuSans-32" x="159.033203"/>
      </g>
     </g>
    </g>
    <g id="ytick_3">
     <g id="line2d_35">
      <path d="M 39.94 79.663838 
L 709.2 79.663838 
" clip-path="url(#pb53174f266)" style="fill: none; stroke: #000000; stroke-width: 0.5; stroke-linecap: square"/>
     </g>
     <g id="line2d_36">
      <g>
       <use xlink:href="#m213c79fe50" x="39.94" y="79.663838" style="stroke: #000000; stroke-width: 0.8"/>
      </g>
     </g>
     <g id="text_18">
      <!-- 0.44 -->
      <g transform="translate(10.674375 83.463057) scale(0.1 -0.1)">
       <use xlink:href="#DejaVuSans-30"/>
       <use xlink:href="#DejaVuSans-2e" x="63.623047"/>
       <use xlink:href="#DejaVuSans-34" x="95.410156"/>
       <use xlink:href="#DejaVuSans-34" x="159.033203"/>
      </g>
     </g>
    </g>
   </g>
   <g id="line2d_37">
    <path d="M 70.360909 46.888289 
L 78.366411 54.409025 
L 102.382919 75.45733 
L 110.388421 78.480927 
L 118.393923 84.157192 
L 126.399426 84.6164 
L 134.404928 103.994857 
L 142.410431 85.029148 
L 150.415933 109.166374 
L 158.421435 95.503615 
L 166.426938 98.720986 
L 174.43244 87.703007 
L 182.437943 81.422024 
L 190.443445 72.569584 
L 198.448947 77.454866 
L 206.45445 92.305955 
L 214.459952 96.049132 
L 222.465455 78.581577 
L 230.470957 91.699852 
L 238.476459 112.417007 
L 246.481962 120.972813 
L 254.487464 108.698013 
L 262.492967 125.825089 
L 270.498469 121.797356 
L 278.503971 118.577206 
L 286.509474 123.252236 
L 294.514976 116.30122 
L 302.520478 127.914319 
L 310.525981 143.495222 
L 318.531483 148.131415 
L 326.536986 140.927776 
L 334.542488 145.38664 
L 342.54799 144.407858 
L 350.553493 142.768536 
L 358.558995 137.827775 
L 366.564498 151.956834 
L 374.57 148.220016 
L 382.575502 151.251741 
L 390.581005 147.769823 
L 398.586507 157.988556 
L 406.59201 162.075575 
L 414.597512 164.025747 
L 422.603014 140.780753 
L 430.608517 147.549486 
L 438.614019 151.138847 
L 446.619522 149.553731 
L 454.625024 159.193125 
L 462.630526 165.156167 
L 470.636029 164.39857 
L 478.641531 148.761684 
L 486.647033 167.054065 
L 494.652536 144.951904 
L 502.658038 139.409938 
L 510.663541 133.253537 
L 518.669043 147.005263 
L 526.674545 135.50594 
L 534.680048 138.293633 
L 542.68555 136.230659 
L 550.691053 137.104512 
L 558.696555 138.904912 
L 566.702057 154.97314 
L 574.70756 161.57625 
L 582.713062 156.752462 
L 590.718565 144.6575 
L 598.724067 146.988887 
L 606.729569 147.371528 
L 614.735072 151.714374 
L 622.740574 132.62066 
L 630.746077 142.314912 
L 638.751579 116.50397 
L 646.757081 132.340027 
L 654.762584 134.936595 
L 662.768086 154.245585 
L 670.773589 149.551124 
L 678.779091 144.918257 
" clip-path="url(#pb53174f266)" style="fill: none; stroke: #1f77b4; stroke-width: 1.5; stroke-linecap: square"/>
    <defs>
     <path id="me5f0100cf7" d="M 0 3 
C 0.795609 3 1.55874 2.683901 2.12132 2.12132 
C 2.683901 1.55874 3 0.795609 3 0 
C 3 -0.795609 2.683901 -1.55874 2.12132 -2.12132 
C 1.55874 -2.683901 0.795609 -3 0 -3 
C -0.795609 -3 -1.55874 -2.683901 -2.12132 -2.12132 
C -2.683901 -1.55874 -3 -0.795609 -3 0 
C -3 0.795609 -2.683901 1.55874 -2.12132 2.12132 
C -1.55874 2.683901 -0.795609 3 0 3 
z
" style="stroke: #1f77b4"/>
    </defs>
    <g clip-path="url(#pb53174f266)">
     <use xlink:href="#me5f0100cf7" x="70.360909" y="46.888289" style="fill: #1f77b4; stroke: #1f77b4"/>
     <use xlink:href="#me5f0100cf7" x="78.366411" y="54.409025" style="fill: #1f77b4; stroke: #1f77b4"/>
     <use xlink:href="#me5f0100cf7" x="102.382919" y="75.45733" style="fill: #1f77b4; stroke: #1f77b4"/>
     <use xlink:href="#me5f0100cf7" x="110.388421" y="78.480927" style="fill: #1f77b4; stroke: #1f77b4"/>
     <use xlink:href="#me5f0100cf7" x="118.393923" y="84.157192" style="fill: #1f77b4; stroke: #1f77b4"/>
     <use xlink:href="#me5f0100cf7" x="126.399426" y="84.6164" style="fill: #1f77b4; stroke: #1f77b4"/>
     <use xlink:href="#me5f0100cf7" x="134.404928" y="103.994857" style="fill: #1f77b4; stroke: #1f77b4"/>
     <use xlink:href="#me5f0100cf7" x="142.410431" y="85.029148" style="fill: #1f77b4; stroke: #1f77b4"/>
     <use xlink:href="#me5f0100cf7" x="150.415933" y="109.166374" style="fill: #1f77b4; stroke: #1f77b4"/>
     <use xlink:href="#me5f0100cf7" x="158.421435" y="95.503615" style="fill: #1f77b4; stroke: #1f77b4"/>
     <use xlink:href="#me5f0100cf7" x="166.426938" y="98.720986" style="fill: #1f77b4; stroke: #1f77b4"/>
     <use xlink:href="#me5f0100cf7" x="174.43244" y="87.703007" style="fill: #1f77b4; stroke: #1f77b4"/>
     <use xlink:href="#me5f0100cf7" x="182.437943" y="81.422024" style="fill: #1f77b4; stroke: #1f77b4"/>
     <use xlink:href="#me5f0100cf7" x="190.443445" y="72.569584" style="fill: #1f77b4; stroke: #1f77b4"/>
     <use xlink:href="#me5f0100cf7" x="198.448947" y="77.454866" style="fill: #1f77b4; stroke: #1f77b4"/>
     <use xlink:href="#me5f0100cf7" x="206.45445" y="92.305955" style="fill: #1f77b4; stroke: #1f77b4"/>
     <use xlink:href="#me5f0100cf7" x="214.459952" y="96.049132" style="fill: #1f77b4; stroke: #1f77b4"/>
     <use xlink:href="#me5f0100cf7" x="222.465455" y="78.581577" style="fill: #1f77b4; stroke: #1f77b4"/>
     <use xlink:href="#me5f0100cf7" x="230.470957" y="91.699852" style="fill: #1f77b4; stroke: #1f77b4"/>
     <use xlink:href="#me5f0100cf7" x="238.476459" y="112.417007" style="fill: #1f77b4; stroke: #1f77b4"/>
     <use xlink:href="#me5f0100cf7" x="246.481962" y="120.972813" style="fill: #1f77b4; stroke: #1f77b4"/>
     <use xlink:href="#me5f0100cf7" x="254.487464" y="108.698013" style="fill: #1f77b4; stroke: #1f77b4"/>
     <use xlink:href="#me5f0100cf7" x="262.492967" y="125.825089" style="fill: #1f77b4; stroke: #1f77b4"/>
     <use xlink:href="#me5f0100cf7" x="270.498469" y="121.797356" style="fill: #1f77b4; stroke: #1f77b4"/>
     <use xlink:href="#me5f0100cf7" x="278.503971" y="118.577206" style="fill: #1f77b4; stroke: #1f77b4"/>
     <use xlink:href="#me5f0100cf7" x="286.509474" y="123.252236" style="fill: #1f77b4; stroke: #1f77b4"/>
     <use xlink:href="#me5f0100cf7" x="294.514976" y="116.30122" style="fill: #1f77b4; stroke: #1f77b4"/>
     <use xlink:href="#me5f0100cf7" x="302.520478" y="127.914319" style="fill: #1f77b4; stroke: #1f77b4"/>
     <use xlink:href="#me5f0100cf7" x="310.525981" y="143.495222" style="fill: #1f77b4; stroke: #1f77b4"/>
     <use xlink:href="#me5f0100cf7" x="318.531483" y="148.131415" style="fill: #1f77b4; stroke: #1f77b4"/>
     <use xlink:href="#me5f0100cf7" x="326.536986" y="140.927776" style="fill: #1f77b4; stroke: #1f77b4"/>
     <use xlink:href="#me5f0100cf7" x="334.542488" y="145.38664" style="fill: #1f77b4; stroke: #1f77b4"/>
     <use xlink:href="#me5f0100cf7" x="342.54799" y="144.407858" style="fill: #1f77b4; stroke: #1f77b4"/>
     <use xlink:href="#me5f0100cf7" x="350.553493" y="142.768536" style="fill: #1f77b4; stroke: #1f77b4"/>
     <use xlink:href="#me5f0100cf7" x="358.558995" y="137.827775" style="fill: #1f77b4; stroke: #1f77b4"/>
     <use xlink:href="#me5f0100cf7" x="366.564498" y="151.956834" style="fill: #1f77b4; stroke: #1f77b4"/>
     <use xlink:href="#me5f0100cf7" x="374.57" y="148.220016" style="fill: #1f77b4; stroke: #1f77b4"/>
     <use xlink:href="#me5f0100cf7" x="382.575502" y="151.251741" style="fill: #1f77b4; stroke: #1f77b4"/>
     <use xlink:href="#me5f0100cf7" x="390.581005" y="147.769823" style="fill: #1f77b4; stroke: #1f77b4"/>
     <use xlink:href="#me5f0100cf7" x="398.586507" y="157.988556" style="fill: #1f77b4; stroke: #1f77b4"/>
     <use xlink:href="#me5f0100cf7" x="406.59201" y="162.075575" style="fill: #1f77b4; stroke: #1f77b4"/>
     <use xlink:href="#me5f0100cf7" x="414.597512" y="164.025747" style="fill: #1f77b4; stroke: #1f77b4"/>
     <use xlink:href="#me5f0100cf7" x="422.603014" y="140.780753" style="fill: #1f77b4; stroke: #1f77b4"/>
     <use xlink:href="#me5f0100cf7" x="430.608517" y="147.549486" style="fill: #1f77b4; stroke: #1f77b4"/>
     <use xlink:href="#me5f0100cf7" x="438.614019" y="151.138847" style="fill: #1f77b4; stroke: #1f77b4"/>
     <use xlink:href="#me5f0100cf7" x="446.619522" y="149.553731" style="fill: #1f77b4; stroke: #1f77b4"/>
     <use xlink:href="#me5f0100cf7" x="454.625024" y="159.193125" style="fill: #1f77b4; stroke: #1f77b4"/>
     <use xlink:href="#me5f0100cf7" x="462.630526" y="165.156167" style="fill: #1f77b4; stroke: #1f77b4"/>
     <use xlink:href="#me5f0100cf7" x="470.636029" y="164.39857" style="fill: #1f77b4; stroke: #1f77b4"/>
     <use xlink:href="#me5f0100cf7" x="478.641531" y="148.761684" style="fill: #1f77b4; stroke: #1f77b4"/>
     <use xlink:href="#me5f0100cf7" x="486.647033" y="167.054065" style="fill: #1f77b4; stroke: #1f77b4"/>
     <use xlink:href="#me5f0100cf7" x="494.652536" y="144.951904" style="fill: #1f77b4; stroke: #1f77b4"/>
     <use xlink:href="#me5f0100cf7" x="502.658038" y="139.409938" style="fill: #1f77b4; stroke: #1f77b4"/>
     <use xlink:href="#me5f0100cf7" x="510.663541" y="133.253537" style="fill: #1f77b4; stroke: #1f77b4"/>
     <use xlink:href="#me5f0100cf7" x="518.669043" y="147.005263" style="fill: #1f77b4; stroke: #1f77b4"/>
     <use xlink:href="#me5f0100cf7" x="526.674545" y="135.50594" style="fill: #1f77b4; stroke: #1f77b4"/>
     <use xlink:href="#me5f0100cf7" x="534.680048" y="138.293633" style="fill: #1f77b4; stroke: #1f77b4"/>
     <use xlink:href="#me5f0100cf7" x="542.68555" y="136.230659" style="fill: #1f77b4; stroke: #1f77b4"/>
     <use xlink:href="#me5f0100cf7" x="550.691053" y="137.104512" style="fill: #1f77b4; stroke: #1f77b4"/>
     <use xlink:href="#me5f0100cf7" x="558.696555" y="138.904912" style="fill: #1f77b4; stroke: #1f77b4"/>
     <use xlink:href="#me5f0100cf7" x="566.702057" y="154.97314" style="fill: #1f77b4; stroke: #1f77b4"/>
     <use xlink:href="#me5f0100cf7" x="574.70756" y="161.57625" style="fill: #1f77b4; stroke: #1f77b4"/>
     <use xlink:href="#me5f0100cf7" x="582.713062" y="156.752462" style="fill: #1f77b4; stroke: #1f77b4"/>
     <use xlink:href="#me5f0100cf7" x="590.718565" y="144.6575" style="fill: #1f77b4; stroke: #1f77b4"/>
     <use xlink:href="#me5f0100cf7" x="598.724067" y="146.988887" style="fill: #1f77b4; stroke: #1f77b4"/>
     <use xlink:href="#me5f0100cf7" x="606.729569" y="147.371528" style="fill: #1f77b4; stroke: #1f77b4"/>
     <use xlink:href="#me5f0100cf7" x="614.735072" y="151.714374" style="fill: #1f77b4; stroke: #1f77b4"/>
     <use xlink:href="#me5f0100cf7" x="622.740574" y="132.62066" style="fill: #1f77b4; stroke: #1f77b4"/>
     <use xlink:href="#me5f0100cf7" x="630.746077" y="142.314912" style="fill: #1f77b4; stroke: #1f77b4"/>
     <use xlink:href="#me5f0100cf7" x="638.751579" y="116.50397" style="fill: #1f77b4; stroke: #1f77b4"/>
     <use xlink:href="#me5f0100cf7" x="646.757081" y="132.340027" style="fill: #1f77b4; stroke: #1f77b4"/>
     <use xlink:href="#me5f0100cf7" x="654.762584" y="134.936595" style="fill: #1f77b4; stroke: #1f77b4"/>
     <use xlink:href="#me5f0100cf7" x="662.768086" y="154.245585" style="fill: #1f77b4; stroke: #1f77b4"/>
     <use xlink:href="#me5f0100cf7" x="670.773589" y="149.551124" style="fill: #1f77b4; stroke: #1f77b4"/>
     <use xlink:href="#me5f0100cf7" x="678.779091" y="144.918257" style="fill: #1f77b4; stroke: #1f77b4"/>
    </g>
   </g>
   <g id="line2d_38">
    <path d="M 70.360909 59.591451 
L 77.676559 62.726597 
L 84.992208 65.623337 
L 93.527132 68.743458 
L 102.062057 71.627895 
L 111.816256 74.68936 
L 122.78973 77.900639 
L 136.201754 81.588367 
L 155.710153 86.691042 
L 198.384775 97.787205 
L 217.893174 103.11836 
L 237.401572 108.670951 
L 260.567796 115.507772 
L 319.092991 132.930513 
L 334.943565 137.337422 
L 348.355589 140.841612 
L 360.548338 143.801934 
L 371.521813 146.250288 
L 382.495287 148.466849 
L 392.249486 150.222856 
L 402.003686 151.761001 
L 411.757885 153.06759 
L 421.512084 154.131074 
L 430.047009 154.854857 
L 438.581933 155.380885 
L 447.116857 155.706355 
L 455.651782 155.830292 
L 464.186706 155.753789 
L 472.721631 155.479996 
L 482.47583 154.932733 
L 492.230029 154.147244 
L 501.984228 153.140189 
L 512.957703 151.76923 
L 525.150452 149.995503 
L 539.781751 147.608834 
L 582.456373 140.441052 
L 592.210572 139.123464 
L 600.745496 138.192636 
L 608.061146 137.605466 
L 615.376795 137.253979 
L 621.47317 137.171068 
L 627.569545 137.30626 
L 633.665919 137.686439 
L 638.543019 138.185821 
L 643.420118 138.875009 
L 648.297218 139.769723 
L 653.174318 140.886022 
L 658.051417 142.24081 
L 662.928517 143.851459 
L 667.805617 145.735878 
L 672.682716 147.912725 
L 677.559816 150.401197 
L 678.779091 151.074312 
L 678.779091 151.074312 
" clip-path="url(#pb53174f266)" style="fill: none; stroke: #ff0000; stroke-width: 1.5; stroke-linecap: square"/>
   </g>
   <g id="patch_3">
    <path d="M 39.94 173.062354 
L 39.94 40.88 
" style="fill: none; stroke: #000000; stroke-width: 0.8; stroke-linejoin: miter; stroke-linecap: square"/>
   </g>
   <g id="patch_4">
    <path d="M 709.2 173.062354 
L 709.2 40.88 
" style="fill: none; stroke: #000000; stroke-width: 0.8; stroke-linejoin: miter; stroke-linecap: square"/>
   </g>
   <g id="patch_5">
    <path d="M 39.94 173.062354 
L 709.2 173.062354 
" style="fill: none; stroke: #000000; stroke-width: 0.8; stroke-linejoin: miter; stroke-linecap: square"/>
   </g>
   <g id="patch_6">
    <path d="M 39.94 40.88 
L 709.2 40.88 
" style="fill: none; stroke: #000000; stroke-width: 0.8; stroke-linejoin: miter; stroke-linecap: square"/>
   </g>
   <g id="text_19">
    <!-- S5 - Sentiment Subjectivity from 1946 to 2022 -->
    <g transform="translate(234.675312 20.88) scale(0.12 -0.12)">
     <defs>
      <path id="DejaVuSans-53" d="M 3425 4513 
L 3425 3897 
Q 3066 4069 2747 4153 
Q 2428 4238 2131 4238 
Q 1616 4238 1336 4038 
Q 1056 3838 1056 3469 
Q 1056 3159 1242 3001 
Q 1428 2844 1947 2747 
L 2328 2669 
Q 3034 2534 3370 2195 
Q 3706 1856 3706 1288 
Q 3706 609 3251 259 
Q 2797 -91 1919 -91 
Q 1588 -91 1214 -16 
Q 841 59 441 206 
L 441 856 
Q 825 641 1194 531 
Q 1563 422 1919 422 
Q 2459 422 2753 634 
Q 3047 847 3047 1241 
Q 3047 1584 2836 1778 
Q 2625 1972 2144 2069 
L 1759 2144 
Q 1053 2284 737 2584 
Q 422 2884 422 3419 
Q 422 4038 858 4394 
Q 1294 4750 2059 4750 
Q 2388 4750 2728 4690 
Q 3069 4631 3425 4513 
z
" transform="scale(0.015625)"/>
      <path id="DejaVuSans-20" transform="scale(0.015625)"/>
      <path id="DejaVuSans-2d" d="M 313 2009 
L 1997 2009 
L 1997 1497 
L 313 1497 
L 313 2009 
z
" transform="scale(0.015625)"/>
      <path id="DejaVuSans-65" d="M 3597 1894 
L 3597 1613 
L 953 1613 
Q 991 1019 1311 708 
Q 1631 397 2203 397 
Q 2534 397 2845 478 
Q 3156 559 3463 722 
L 3463 178 
Q 3153 47 2828 -22 
Q 2503 -91 2169 -91 
Q 1331 -91 842 396 
Q 353 884 353 1716 
Q 353 2575 817 3079 
Q 1281 3584 2069 3584 
Q 2775 3584 3186 3129 
Q 3597 2675 3597 1894 
z
M 3022 2063 
Q 3016 2534 2758 2815 
Q 2500 3097 2075 3097 
Q 1594 3097 1305 2825 
Q 1016 2553 972 2059 
L 3022 2063 
z
" transform="scale(0.015625)"/>
      <path id="DejaVuSans-6e" d="M 3513 2113 
L 3513 0 
L 2938 0 
L 2938 2094 
Q 2938 2591 2744 2837 
Q 2550 3084 2163 3084 
Q 1697 3084 1428 2787 
Q 1159 2491 1159 1978 
L 1159 0 
L 581 0 
L 581 3500 
L 1159 3500 
L 1159 2956 
Q 1366 3272 1645 3428 
Q 1925 3584 2291 3584 
Q 2894 3584 3203 3211 
Q 3513 2838 3513 2113 
z
" transform="scale(0.015625)"/>
      <path id="DejaVuSans-74" d="M 1172 4494 
L 1172 3500 
L 2356 3500 
L 2356 3053 
L 1172 3053 
L 1172 1153 
Q 1172 725 1289 603 
Q 1406 481 1766 481 
L 2356 481 
L 2356 0 
L 1766 0 
Q 1100 0 847 248 
Q 594 497 594 1153 
L 594 3053 
L 172 3053 
L 172 3500 
L 594 3500 
L 594 4494 
L 1172 4494 
z
" transform="scale(0.015625)"/>
      <path id="DejaVuSans-69" d="M 603 3500 
L 1178 3500 
L 1178 0 
L 603 0 
L 603 3500 
z
M 603 4863 
L 1178 4863 
L 1178 4134 
L 603 4134 
L 603 4863 
z
" transform="scale(0.015625)"/>
      <path id="DejaVuSans-6d" d="M 3328 2828 
Q 3544 3216 3844 3400 
Q 4144 3584 4550 3584 
Q 5097 3584 5394 3201 
Q 5691 2819 5691 2113 
L 5691 0 
L 5113 0 
L 5113 2094 
Q 5113 2597 4934 2840 
Q 4756 3084 4391 3084 
Q 3944 3084 3684 2787 
Q 3425 2491 3425 1978 
L 3425 0 
L 2847 0 
L 2847 2094 
Q 2847 2600 2669 2842 
Q 2491 3084 2119 3084 
Q 1678 3084 1418 2786 
Q 1159 2488 1159 1978 
L 1159 0 
L 581 0 
L 581 3500 
L 1159 3500 
L 1159 2956 
Q 1356 3278 1631 3431 
Q 1906 3584 2284 3584 
Q 2666 3584 2933 3390 
Q 3200 3197 3328 2828 
z
" transform="scale(0.015625)"/>
      <path id="DejaVuSans-75" d="M 544 1381 
L 544 3500 
L 1119 3500 
L 1119 1403 
Q 1119 906 1312 657 
Q 1506 409 1894 409 
Q 2359 409 2629 706 
Q 2900 1003 2900 1516 
L 2900 3500 
L 3475 3500 
L 3475 0 
L 2900 0 
L 2900 538 
Q 2691 219 2414 64 
Q 2138 -91 1772 -91 
Q 1169 -91 856 284 
Q 544 659 544 1381 
z
M 1991 3584 
L 1991 3584 
z
" transform="scale(0.015625)"/>
      <path id="DejaVuSans-62" d="M 3116 1747 
Q 3116 2381 2855 2742 
Q 2594 3103 2138 3103 
Q 1681 3103 1420 2742 
Q 1159 2381 1159 1747 
Q 1159 1113 1420 752 
Q 1681 391 2138 391 
Q 2594 391 2855 752 
Q 3116 1113 3116 1747 
z
M 1159 2969 
Q 1341 3281 1617 3432 
Q 1894 3584 2278 3584 
Q 2916 3584 3314 3078 
Q 3713 2572 3713 1747 
Q 3713 922 3314 415 
Q 2916 -91 2278 -91 
Q 1894 -91 1617 61 
Q 1341 213 1159 525 
L 1159 0 
L 581 0 
L 581 4863 
L 1159 4863 
L 1159 2969 
z
" transform="scale(0.015625)"/>
      <path id="DejaVuSans-6a" d="M 603 3500 
L 1178 3500 
L 1178 -63 
Q 1178 -731 923 -1031 
Q 669 -1331 103 -1331 
L -116 -1331 
L -116 -844 
L 38 -844 
Q 366 -844 484 -692 
Q 603 -541 603 -63 
L 603 3500 
z
M 603 4863 
L 1178 4863 
L 1178 4134 
L 603 4134 
L 603 4863 
z
" transform="scale(0.015625)"/>
      <path id="DejaVuSans-63" d="M 3122 3366 
L 3122 2828 
Q 2878 2963 2633 3030 
Q 2388 3097 2138 3097 
Q 1578 3097 1268 2742 
Q 959 2388 959 1747 
Q 959 1106 1268 751 
Q 1578 397 2138 397 
Q 2388 397 2633 464 
Q 2878 531 3122 666 
L 3122 134 
Q 2881 22 2623 -34 
Q 2366 -91 2075 -91 
Q 1284 -91 818 406 
Q 353 903 353 1747 
Q 353 2603 823 3093 
Q 1294 3584 2113 3584 
Q 2378 3584 2631 3529 
Q 2884 3475 3122 3366 
z
" transform="scale(0.015625)"/>
      <path id="DejaVuSans-76" d="M 191 3500 
L 800 3500 
L 1894 563 
L 2988 3500 
L 3597 3500 
L 2284 0 
L 1503 0 
L 191 3500 
z
" transform="scale(0.015625)"/>
      <path id="DejaVuSans-79" d="M 2059 -325 
Q 1816 -950 1584 -1140 
Q 1353 -1331 966 -1331 
L 506 -1331 
L 506 -850 
L 844 -850 
Q 1081 -850 1212 -737 
Q 1344 -625 1503 -206 
L 1606 56 
L 191 3500 
L 800 3500 
L 1894 763 
L 2988 3500 
L 3597 3500 
L 2059 -325 
z
" transform="scale(0.015625)"/>
      <path id="DejaVuSans-66" d="M 2375 4863 
L 2375 4384 
L 1825 4384 
Q 1516 4384 1395 4259 
Q 1275 4134 1275 3809 
L 1275 3500 
L 2222 3500 
L 2222 3053 
L 1275 3053 
L 1275 0 
L 697 0 
L 697 3053 
L 147 3053 
L 147 3500 
L 697 3500 
L 697 3744 
Q 697 4328 969 4595 
Q 1241 4863 1831 4863 
L 2375 4863 
z
" transform="scale(0.015625)"/>
      <path id="DejaVuSans-72" d="M 2631 2963 
Q 2534 3019 2420 3045 
Q 2306 3072 2169 3072 
Q 1681 3072 1420 2755 
Q 1159 2438 1159 1844 
L 1159 0 
L 581 0 
L 581 3500 
L 1159 3500 
L 1159 2956 
Q 1341 3275 1631 3429 
Q 1922 3584 2338 3584 
Q 2397 3584 2469 3576 
Q 2541 3569 2628 3553 
L 2631 2963 
z
" transform="scale(0.015625)"/>
      <path id="DejaVuSans-6f" d="M 1959 3097 
Q 1497 3097 1228 2736 
Q 959 2375 959 1747 
Q 959 1119 1226 758 
Q 1494 397 1959 397 
Q 2419 397 2687 759 
Q 2956 1122 2956 1747 
Q 2956 2369 2687 2733 
Q 2419 3097 1959 3097 
z
M 1959 3584 
Q 2709 3584 3137 3096 
Q 3566 2609 3566 1747 
Q 3566 888 3137 398 
Q 2709 -91 1959 -91 
Q 1206 -91 779 398 
Q 353 888 353 1747 
Q 353 2609 779 3096 
Q 1206 3584 1959 3584 
z
" transform="scale(0.015625)"/>
     </defs>
     <use xlink:href="#DejaVuSans-53"/>
     <use xlink:href="#DejaVuSans-35" x="63.476562"/>
     <use xlink:href="#DejaVuSans-20" x="127.099609"/>
     <use xlink:href="#DejaVuSans-2d" x="158.886719"/>
     <use xlink:href="#DejaVuSans-20" x="194.970703"/>
     <use xlink:href="#DejaVuSans-53" x="226.757812"/>
     <use xlink:href="#DejaVuSans-65" x="290.234375"/>
     <use xlink:href="#DejaVuSans-6e" x="351.757812"/>
     <use xlink:href="#DejaVuSans-74" x="415.136719"/>
     <use xlink:href="#DejaVuSans-69" x="454.345703"/>
     <use xlink:href="#DejaVuSans-6d" x="482.128906"/>
     <use xlink:href="#DejaVuSans-65" x="579.541016"/>
     <use xlink:href="#DejaVuSans-6e" x="641.064453"/>
     <use xlink:href="#DejaVuSans-74" x="704.443359"/>
     <use xlink:href="#DejaVuSans-20" x="743.652344"/>
     <use xlink:href="#DejaVuSans-53" x="775.439453"/>
     <use xlink:href="#DejaVuSans-75" x="838.916016"/>
     <use xlink:href="#DejaVuSans-62" x="902.294922"/>
     <use xlink:href="#DejaVuSans-6a" x="965.771484"/>
     <use xlink:href="#DejaVuSans-65" x="993.554688"/>
     <use xlink:href="#DejaVuSans-63" x="1055.078125"/>
     <use xlink:href="#DejaVuSans-74" x="1110.058594"/>
     <use xlink:href="#DejaVuSans-69" x="1149.267578"/>
     <use xlink:href="#DejaVuSans-76" x="1177.050781"/>
     <use xlink:href="#DejaVuSans-69" x="1236.230469"/>
     <use xlink:href="#DejaVuSans-74" x="1264.013672"/>
     <use xlink:href="#DejaVuSans-79" x="1303.222656"/>
     <use xlink:href="#DejaVuSans-20" x="1362.402344"/>
     <use xlink:href="#DejaVuSans-66" x="1394.189453"/>
     <use xlink:href="#DejaVuSans-72" x="1429.394531"/>
     <use xlink:href="#DejaVuSans-6f" x="1468.257812"/>
     <use xlink:href="#DejaVuSans-6d" x="1529.439453"/>
     <use xlink:href="#DejaVuSans-20" x="1626.851562"/>
     <use xlink:href="#DejaVuSans-31" x="1658.638672"/>
     <use xlink:href="#DejaVuSans-39" x="1722.261719"/>
     <use xlink:href="#DejaVuSans-34" x="1785.884766"/>
     <use xlink:href="#DejaVuSans-36" x="1849.507812"/>
     <use xlink:href="#DejaVuSans-20" x="1913.130859"/>
     <use xlink:href="#DejaVuSans-74" x="1944.917969"/>
     <use xlink:href="#DejaVuSans-6f" x="1984.126953"/>
     <use xlink:href="#DejaVuSans-20" x="2045.308594"/>
     <use xlink:href="#DejaVuSans-32" x="2077.095703"/>
     <use xlink:href="#DejaVuSans-30" x="2140.71875"/>
     <use xlink:href="#DejaVuSans-32" x="2204.341797"/>
     <use xlink:href="#DejaVuSans-32" x="2267.964844"/>
    </g>
   </g>
  </g>
 </g>
 <defs>
  <clipPath id="pb53174f266">
   <rect x="39.94" y="40.88" width="669.26" height="132.182354"/>
  </clipPath>
 </defs>
</svg>
