<?xml version="1.0" encoding="utf-8" standalone="no"?>
<!DOCTYPE svg PUBLIC "-//W3C//DTD SVG 1.1//EN"
  "http://www.w3.org/Graphics/SVG/1.1/DTD/svg11.dtd">
<svg xmlns:xlink="http://www.w3.org/1999/xlink" width="720pt" height="216pt" viewBox="0 0 720 216" xmlns="http://www.w3.org/2000/svg" version="1.1">
 <metadata>
  <rdf:RDF xmlns:dc="http://purl.org/dc/elements/1.1/" xmlns:cc="http://creativecommons.org/ns#" xmlns:rdf="http://www.w3.org/1999/02/22-rdf-syntax-ns#">
   <cc:Work>
    <dc:type rdf:resource="http://purl.org/dc/dcmitype/StillImage"/>
    <dc:date>2024-08-08T17:18:34.837395</dc:date>
    <dc:format>image/svg+xml</dc:format>
    <dc:creator>
     <cc:Agent>
      <dc:title>Matplotlib v3.7.1, https://matplotlib.org/</dc:title>
     </cc:Agent>
    </dc:creator>
   </cc:Work>
  </rdf:RDF>
 </metadata>
 <defs>
  <style type="text/css">*{stroke-linejoin: round; stroke-linecap: butt}</style>
 </defs>
 <g id="figure_1">
  <g id="patch_1">
   <path d="M 0 216 
L 720 216 
L 720 0 
L 0 0 
z
" style="fill: #ffffff"/>
  </g>
  <g id="axes_1">
   <g id="patch_2">
    <path d="M 58.84 173.062354 
L 709.2 173.062354 
L 709.2 40.88 
L 58.84 40.88 
z
" style="fill: #ffffff"/>
   </g>
   <g id="matplotlib.axis_1">
    <g id="xtick_1">
     <g id="line2d_1">
      <path d="M 119.519522 173.062354 
L 119.519522 40.88 
" clip-path="url(#p1b6527007a)" style="fill: none; stroke: #000000; stroke-width: 0.5; stroke-linecap: square"/>
     </g>
     <g id="line2d_2">
      <defs>
       <path id="mfff43a8036" d="M 0 0 
L 0 3.5 
" style="stroke: #000000; stroke-width: 0.8"/>
      </defs>
      <g>
       <use xlink:href="#mfff43a8036" x="119.519522" y="173.062354" style="stroke: #000000; stroke-width: 0.8"/>
      </g>
     </g>
     <g id="text_1">
      <!-- 1950 -->
      <g transform="translate(112.472761 203.431128) rotate(-45) scale(0.1 -0.1)">
       <defs>
        <path id="DejaVuSans-31" d="M 794 531 
L 1825 531 
L 1825 4091 
L 703 3866 
L 703 4441 
L 1819 4666 
L 2450 4666 
L 2450 531 
L 3481 531 
L 3481 0 
L 794 0 
L 794 531 
z
" transform="scale(0.015625)"/>
        <path id="DejaVuSans-39" d="M 703 97 
L 703 672 
Q 941 559 1184 500 
Q 1428 441 1663 441 
Q 2288 441 2617 861 
Q 2947 1281 2994 2138 
Q 2813 1869 2534 1725 
Q 2256 1581 1919 1581 
Q 1219 1581 811 2004 
Q 403 2428 403 3163 
Q 403 3881 828 4315 
Q 1253 4750 1959 4750 
Q 2769 4750 3195 4129 
Q 3622 3509 3622 2328 
Q 3622 1225 3098 567 
Q 2575 -91 1691 -91 
Q 1453 -91 1209 -44 
Q 966 3 703 97 
z
M 1959 2075 
Q 2384 2075 2632 2365 
Q 2881 2656 2881 3163 
Q 2881 3666 2632 3958 
Q 2384 4250 1959 4250 
Q 1534 4250 1286 3958 
Q 1038 3666 1038 3163 
Q 1038 2656 1286 2365 
Q 1534 2075 1959 2075 
z
" transform="scale(0.015625)"/>
        <path id="DejaVuSans-35" d="M 691 4666 
L 3169 4666 
L 3169 4134 
L 1269 4134 
L 1269 2991 
Q 1406 3038 1543 3061 
Q 1681 3084 1819 3084 
Q 2600 3084 3056 2656 
Q 3513 2228 3513 1497 
Q 3513 744 3044 326 
Q 2575 -91 1722 -91 
Q 1428 -91 1123 -41 
Q 819 9 494 109 
L 494 744 
Q 775 591 1075 516 
Q 1375 441 1709 441 
Q 2250 441 2565 725 
Q 2881 1009 2881 1497 
Q 2881 1984 2565 2268 
Q 2250 2553 1709 2553 
Q 1456 2553 1204 2497 
Q 953 2441 691 2322 
L 691 4666 
z
" transform="scale(0.015625)"/>
        <path id="DejaVuSans-30" d="M 2034 4250 
Q 1547 4250 1301 3770 
Q 1056 3291 1056 2328 
Q 1056 1369 1301 889 
Q 1547 409 2034 409 
Q 2525 409 2770 889 
Q 3016 1369 3016 2328 
Q 3016 3291 2770 3770 
Q 2525 4250 2034 4250 
z
M 2034 4750 
Q 2819 4750 3233 4129 
Q 3647 3509 3647 2328 
Q 3647 1150 3233 529 
Q 2819 -91 2034 -91 
Q 1250 -91 836 529 
Q 422 1150 422 2328 
Q 422 3509 836 4129 
Q 1250 4750 2034 4750 
z
" transform="scale(0.015625)"/>
       </defs>
       <use xlink:href="#DejaVuSans-31"/>
       <use xlink:href="#DejaVuSans-39" x="63.623047"/>
       <use xlink:href="#DejaVuSans-35" x="127.246094"/>
       <use xlink:href="#DejaVuSans-30" x="190.869141"/>
      </g>
     </g>
    </g>
    <g id="xtick_2">
     <g id="line2d_3">
      <path d="M 158.416651 173.062354 
L 158.416651 40.88 
" clip-path="url(#p1b6527007a)" style="fill: none; stroke: #000000; stroke-width: 0.5; stroke-linecap: square"/>
     </g>
     <g id="line2d_4">
      <g>
       <use xlink:href="#mfff43a8036" x="158.416651" y="173.062354" style="stroke: #000000; stroke-width: 0.8"/>
      </g>
     </g>
     <g id="text_2">
      <!-- 1955 -->
      <g transform="translate(151.36989 203.431128) rotate(-45) scale(0.1 -0.1)">
       <use xlink:href="#DejaVuSans-31"/>
       <use xlink:href="#DejaVuSans-39" x="63.623047"/>
       <use xlink:href="#DejaVuSans-35" x="127.246094"/>
       <use xlink:href="#DejaVuSans-35" x="190.869141"/>
      </g>
     </g>
    </g>
    <g id="xtick_3">
     <g id="line2d_5">
      <path d="M 197.31378 173.062354 
L 197.31378 40.88 
" clip-path="url(#p1b6527007a)" style="fill: none; stroke: #000000; stroke-width: 0.5; stroke-linecap: square"/>
     </g>
     <g id="line2d_6">
      <g>
       <use xlink:href="#mfff43a8036" x="197.31378" y="173.062354" style="stroke: #000000; stroke-width: 0.8"/>
      </g>
     </g>
     <g id="text_3">
      <!-- 1960 -->
      <g transform="translate(190.267019 203.431128) rotate(-45) scale(0.1 -0.1)">
       <defs>
        <path id="DejaVuSans-36" d="M 2113 2584 
Q 1688 2584 1439 2293 
Q 1191 2003 1191 1497 
Q 1191 994 1439 701 
Q 1688 409 2113 409 
Q 2538 409 2786 701 
Q 3034 994 3034 1497 
Q 3034 2003 2786 2293 
Q 2538 2584 2113 2584 
z
M 3366 4563 
L 3366 3988 
Q 3128 4100 2886 4159 
Q 2644 4219 2406 4219 
Q 1781 4219 1451 3797 
Q 1122 3375 1075 2522 
Q 1259 2794 1537 2939 
Q 1816 3084 2150 3084 
Q 2853 3084 3261 2657 
Q 3669 2231 3669 1497 
Q 3669 778 3244 343 
Q 2819 -91 2113 -91 
Q 1303 -91 875 529 
Q 447 1150 447 2328 
Q 447 3434 972 4092 
Q 1497 4750 2381 4750 
Q 2619 4750 2861 4703 
Q 3103 4656 3366 4563 
z
" transform="scale(0.015625)"/>
       </defs>
       <use xlink:href="#DejaVuSans-31"/>
       <use xlink:href="#DejaVuSans-39" x="63.623047"/>
       <use xlink:href="#DejaVuSans-36" x="127.246094"/>
       <use xlink:href="#DejaVuSans-30" x="190.869141"/>
      </g>
     </g>
    </g>
    <g id="xtick_4">
     <g id="line2d_7">
      <path d="M 236.210909 173.062354 
L 236.210909 40.88 
" clip-path="url(#p1b6527007a)" style="fill: none; stroke: #000000; stroke-width: 0.5; stroke-linecap: square"/>
     </g>
     <g id="line2d_8">
      <g>
       <use xlink:href="#mfff43a8036" x="236.210909" y="173.062354" style="stroke: #000000; stroke-width: 0.8"/>
      </g>
     </g>
     <g id="text_4">
      <!-- 1965 -->
      <g transform="translate(229.164148 203.431128) rotate(-45) scale(0.1 -0.1)">
       <use xlink:href="#DejaVuSans-31"/>
       <use xlink:href="#DejaVuSans-39" x="63.623047"/>
       <use xlink:href="#DejaVuSans-36" x="127.246094"/>
       <use xlink:href="#DejaVuSans-35" x="190.869141"/>
      </g>
     </g>
    </g>
    <g id="xtick_5">
     <g id="line2d_9">
      <path d="M 275.108038 173.062354 
L 275.108038 40.88 
" clip-path="url(#p1b6527007a)" style="fill: none; stroke: #000000; stroke-width: 0.5; stroke-linecap: square"/>
     </g>
     <g id="line2d_10">
      <g>
       <use xlink:href="#mfff43a8036" x="275.108038" y="173.062354" style="stroke: #000000; stroke-width: 0.8"/>
      </g>
     </g>
     <g id="text_5">
      <!-- 1970 -->
      <g transform="translate(268.061277 203.431128) rotate(-45) scale(0.1 -0.1)">
       <defs>
        <path id="DejaVuSans-37" d="M 525 4666 
L 3525 4666 
L 3525 4397 
L 1831 0 
L 1172 0 
L 2766 4134 
L 525 4134 
L 525 4666 
z
" transform="scale(0.015625)"/>
       </defs>
       <use xlink:href="#DejaVuSans-31"/>
       <use xlink:href="#DejaVuSans-39" x="63.623047"/>
       <use xlink:href="#DejaVuSans-37" x="127.246094"/>
       <use xlink:href="#DejaVuSans-30" x="190.869141"/>
      </g>
     </g>
    </g>
    <g id="xtick_6">
     <g id="line2d_11">
      <path d="M 314.005167 173.062354 
L 314.005167 40.88 
" clip-path="url(#p1b6527007a)" style="fill: none; stroke: #000000; stroke-width: 0.5; stroke-linecap: square"/>
     </g>
     <g id="line2d_12">
      <g>
       <use xlink:href="#mfff43a8036" x="314.005167" y="173.062354" style="stroke: #000000; stroke-width: 0.8"/>
      </g>
     </g>
     <g id="text_6">
      <!-- 1975 -->
      <g transform="translate(306.958406 203.431128) rotate(-45) scale(0.1 -0.1)">
       <use xlink:href="#DejaVuSans-31"/>
       <use xlink:href="#DejaVuSans-39" x="63.623047"/>
       <use xlink:href="#DejaVuSans-37" x="127.246094"/>
       <use xlink:href="#DejaVuSans-35" x="190.869141"/>
      </g>
     </g>
    </g>
    <g id="xtick_7">
     <g id="line2d_13">
      <path d="M 352.902297 173.062354 
L 352.902297 40.88 
" clip-path="url(#p1b6527007a)" style="fill: none; stroke: #000000; stroke-width: 0.5; stroke-linecap: square"/>
     </g>
     <g id="line2d_14">
      <g>
       <use xlink:href="#mfff43a8036" x="352.902297" y="173.062354" style="stroke: #000000; stroke-width: 0.8"/>
      </g>
     </g>
     <g id="text_7">
      <!-- 1980 -->
      <g transform="translate(345.855536 203.431128) rotate(-45) scale(0.1 -0.1)">
       <defs>
        <path id="DejaVuSans-38" d="M 2034 2216 
Q 1584 2216 1326 1975 
Q 1069 1734 1069 1313 
Q 1069 891 1326 650 
Q 1584 409 2034 409 
Q 2484 409 2743 651 
Q 3003 894 3003 1313 
Q 3003 1734 2745 1975 
Q 2488 2216 2034 2216 
z
M 1403 2484 
Q 997 2584 770 2862 
Q 544 3141 544 3541 
Q 544 4100 942 4425 
Q 1341 4750 2034 4750 
Q 2731 4750 3128 4425 
Q 3525 4100 3525 3541 
Q 3525 3141 3298 2862 
Q 3072 2584 2669 2484 
Q 3125 2378 3379 2068 
Q 3634 1759 3634 1313 
Q 3634 634 3220 271 
Q 2806 -91 2034 -91 
Q 1263 -91 848 271 
Q 434 634 434 1313 
Q 434 1759 690 2068 
Q 947 2378 1403 2484 
z
M 1172 3481 
Q 1172 3119 1398 2916 
Q 1625 2713 2034 2713 
Q 2441 2713 2670 2916 
Q 2900 3119 2900 3481 
Q 2900 3844 2670 4047 
Q 2441 4250 2034 4250 
Q 1625 4250 1398 4047 
Q 1172 3844 1172 3481 
z
" transform="scale(0.015625)"/>
       </defs>
       <use xlink:href="#DejaVuSans-31"/>
       <use xlink:href="#DejaVuSans-39" x="63.623047"/>
       <use xlink:href="#DejaVuSans-38" x="127.246094"/>
       <use xlink:href="#DejaVuSans-30" x="190.869141"/>
      </g>
     </g>
    </g>
    <g id="xtick_8">
     <g id="line2d_15">
      <path d="M 391.799426 173.062354 
L 391.799426 40.88 
" clip-path="url(#p1b6527007a)" style="fill: none; stroke: #000000; stroke-width: 0.5; stroke-linecap: square"/>
     </g>
     <g id="line2d_16">
      <g>
       <use xlink:href="#mfff43a8036" x="391.799426" y="173.062354" style="stroke: #000000; stroke-width: 0.8"/>
      </g>
     </g>
     <g id="text_8">
      <!-- 1985 -->
      <g transform="translate(384.752665 203.431128) rotate(-45) scale(0.1 -0.1)">
       <use xlink:href="#DejaVuSans-31"/>
       <use xlink:href="#DejaVuSans-39" x="63.623047"/>
       <use xlink:href="#DejaVuSans-38" x="127.246094"/>
       <use xlink:href="#DejaVuSans-35" x="190.869141"/>
      </g>
     </g>
    </g>
    <g id="xtick_9">
     <g id="line2d_17">
      <path d="M 430.696555 173.062354 
L 430.696555 40.88 
" clip-path="url(#p1b6527007a)" style="fill: none; stroke: #000000; stroke-width: 0.5; stroke-linecap: square"/>
     </g>
     <g id="line2d_18">
      <g>
       <use xlink:href="#mfff43a8036" x="430.696555" y="173.062354" style="stroke: #000000; stroke-width: 0.8"/>
      </g>
     </g>
     <g id="text_9">
      <!-- 1990 -->
      <g transform="translate(423.649794 203.431128) rotate(-45) scale(0.1 -0.1)">
       <use xlink:href="#DejaVuSans-31"/>
       <use xlink:href="#DejaVuSans-39" x="63.623047"/>
       <use xlink:href="#DejaVuSans-39" x="127.246094"/>
       <use xlink:href="#DejaVuSans-30" x="190.869141"/>
      </g>
     </g>
    </g>
    <g id="xtick_10">
     <g id="line2d_19">
      <path d="M 469.593684 173.062354 
L 469.593684 40.88 
" clip-path="url(#p1b6527007a)" style="fill: none; stroke: #000000; stroke-width: 0.5; stroke-linecap: square"/>
     </g>
     <g id="line2d_20">
      <g>
       <use xlink:href="#mfff43a8036" x="469.593684" y="173.062354" style="stroke: #000000; stroke-width: 0.8"/>
      </g>
     </g>
     <g id="text_10">
      <!-- 1995 -->
      <g transform="translate(462.546923 203.431128) rotate(-45) scale(0.1 -0.1)">
       <use xlink:href="#DejaVuSans-31"/>
       <use xlink:href="#DejaVuSans-39" x="63.623047"/>
       <use xlink:href="#DejaVuSans-39" x="127.246094"/>
       <use xlink:href="#DejaVuSans-35" x="190.869141"/>
      </g>
     </g>
    </g>
    <g id="xtick_11">
     <g id="line2d_21">
      <path d="M 508.490813 173.062354 
L 508.490813 40.88 
" clip-path="url(#p1b6527007a)" style="fill: none; stroke: #000000; stroke-width: 0.5; stroke-linecap: square"/>
     </g>
     <g id="line2d_22">
      <g>
       <use xlink:href="#mfff43a8036" x="508.490813" y="173.062354" style="stroke: #000000; stroke-width: 0.8"/>
      </g>
     </g>
     <g id="text_11">
      <!-- 2000 -->
      <g transform="translate(501.444052 203.431128) rotate(-45) scale(0.1 -0.1)">
       <defs>
        <path id="DejaVuSans-32" d="M 1228 531 
L 3431 531 
L 3431 0 
L 469 0 
L 469 531 
Q 828 903 1448 1529 
Q 2069 2156 2228 2338 
Q 2531 2678 2651 2914 
Q 2772 3150 2772 3378 
Q 2772 3750 2511 3984 
Q 2250 4219 1831 4219 
Q 1534 4219 1204 4116 
Q 875 4013 500 3803 
L 500 4441 
Q 881 4594 1212 4672 
Q 1544 4750 1819 4750 
Q 2544 4750 2975 4387 
Q 3406 4025 3406 3419 
Q 3406 3131 3298 2873 
Q 3191 2616 2906 2266 
Q 2828 2175 2409 1742 
Q 1991 1309 1228 531 
z
" transform="scale(0.015625)"/>
       </defs>
       <use xlink:href="#DejaVuSans-32"/>
       <use xlink:href="#DejaVuSans-30" x="63.623047"/>
       <use xlink:href="#DejaVuSans-30" x="127.246094"/>
       <use xlink:href="#DejaVuSans-30" x="190.869141"/>
      </g>
     </g>
    </g>
    <g id="xtick_12">
     <g id="line2d_23">
      <path d="M 547.387943 173.062354 
L 547.387943 40.88 
" clip-path="url(#p1b6527007a)" style="fill: none; stroke: #000000; stroke-width: 0.5; stroke-linecap: square"/>
     </g>
     <g id="line2d_24">
      <g>
       <use xlink:href="#mfff43a8036" x="547.387943" y="173.062354" style="stroke: #000000; stroke-width: 0.8"/>
      </g>
     </g>
     <g id="text_12">
      <!-- 2005 -->
      <g transform="translate(540.341182 203.431128) rotate(-45) scale(0.1 -0.1)">
       <use xlink:href="#DejaVuSans-32"/>
       <use xlink:href="#DejaVuSans-30" x="63.623047"/>
       <use xlink:href="#DejaVuSans-30" x="127.246094"/>
       <use xlink:href="#DejaVuSans-35" x="190.869141"/>
      </g>
     </g>
    </g>
    <g id="xtick_13">
     <g id="line2d_25">
      <path d="M 586.285072 173.062354 
L 586.285072 40.88 
" clip-path="url(#p1b6527007a)" style="fill: none; stroke: #000000; stroke-width: 0.5; stroke-linecap: square"/>
     </g>
     <g id="line2d_26">
      <g>
       <use xlink:href="#mfff43a8036" x="586.285072" y="173.062354" style="stroke: #000000; stroke-width: 0.8"/>
      </g>
     </g>
     <g id="text_13">
      <!-- 2010 -->
      <g transform="translate(579.238311 203.431128) rotate(-45) scale(0.1 -0.1)">
       <use xlink:href="#DejaVuSans-32"/>
       <use xlink:href="#DejaVuSans-30" x="63.623047"/>
       <use xlink:href="#DejaVuSans-31" x="127.246094"/>
       <use xlink:href="#DejaVuSans-30" x="190.869141"/>
      </g>
     </g>
    </g>
    <g id="xtick_14">
     <g id="line2d_27">
      <path d="M 625.182201 173.062354 
L 625.182201 40.88 
" clip-path="url(#p1b6527007a)" style="fill: none; stroke: #000000; stroke-width: 0.5; stroke-linecap: square"/>
     </g>
     <g id="line2d_28">
      <g>
       <use xlink:href="#mfff43a8036" x="625.182201" y="173.062354" style="stroke: #000000; stroke-width: 0.8"/>
      </g>
     </g>
     <g id="text_14">
      <!-- 2015 -->
      <g transform="translate(618.13544 203.431128) rotate(-45) scale(0.1 -0.1)">
       <use xlink:href="#DejaVuSans-32"/>
       <use xlink:href="#DejaVuSans-30" x="63.623047"/>
       <use xlink:href="#DejaVuSans-31" x="127.246094"/>
       <use xlink:href="#DejaVuSans-35" x="190.869141"/>
      </g>
     </g>
    </g>
    <g id="xtick_15">
     <g id="line2d_29">
      <path d="M 664.07933 173.062354 
L 664.07933 40.88 
" clip-path="url(#p1b6527007a)" style="fill: none; stroke: #000000; stroke-width: 0.5; stroke-linecap: square"/>
     </g>
     <g id="line2d_30">
      <g>
       <use xlink:href="#mfff43a8036" x="664.07933" y="173.062354" style="stroke: #000000; stroke-width: 0.8"/>
      </g>
     </g>
     <g id="text_15">
      <!-- 2020 -->
      <g transform="translate(657.032569 203.431128) rotate(-45) scale(0.1 -0.1)">
       <use xlink:href="#DejaVuSans-32"/>
       <use xlink:href="#DejaVuSans-30" x="63.623047"/>
       <use xlink:href="#DejaVuSans-32" x="127.246094"/>
       <use xlink:href="#DejaVuSans-30" x="190.869141"/>
      </g>
     </g>
    </g>
   </g>
   <g id="matplotlib.axis_2">
    <g id="ytick_1">
     <g id="line2d_31">
      <path d="M 58.84 167.054065 
L 709.2 167.054065 
" clip-path="url(#p1b6527007a)" style="fill: none; stroke: #000000; stroke-width: 0.5; stroke-linecap: square"/>
     </g>
     <g id="line2d_32">
      <defs>
       <path id="md322fa1346" d="M 0 0 
L -3.5 0 
" style="stroke: #000000; stroke-width: 0.8"/>
      </defs>
      <g>
       <use xlink:href="#md322fa1346" x="58.84" y="167.054065" style="stroke: #000000; stroke-width: 0.8"/>
      </g>
     </g>
     <g id="text_16">
      <!-- 0.00000 -->
      <g transform="translate(10.486875 170.853284) scale(0.1 -0.1)">
       <defs>
        <path id="DejaVuSans-2e" d="M 684 794 
L 1344 794 
L 1344 0 
L 684 0 
L 684 794 
z
" transform="scale(0.015625)"/>
       </defs>
       <use xlink:href="#DejaVuSans-30"/>
       <use xlink:href="#DejaVuSans-2e" x="63.623047"/>
       <use xlink:href="#DejaVuSans-30" x="95.410156"/>
       <use xlink:href="#DejaVuSans-30" x="159.033203"/>
       <use xlink:href="#DejaVuSans-30" x="222.65625"/>
       <use xlink:href="#DejaVuSans-30" x="286.279297"/>
       <use xlink:href="#DejaVuSans-30" x="349.902344"/>
      </g>
     </g>
    </g>
    <g id="ytick_2">
     <g id="line2d_33">
      <path d="M 58.84 136.573933 
L 709.2 136.573933 
" clip-path="url(#p1b6527007a)" style="fill: none; stroke: #000000; stroke-width: 0.5; stroke-linecap: square"/>
     </g>
     <g id="line2d_34">
      <g>
       <use xlink:href="#md322fa1346" x="58.84" y="136.573933" style="stroke: #000000; stroke-width: 0.8"/>
      </g>
     </g>
     <g id="text_17">
      <!-- 0.00002 -->
      <g transform="translate(10.486875 140.373152) scale(0.1 -0.1)">
       <use xlink:href="#DejaVuSans-30"/>
       <use xlink:href="#DejaVuSans-2e" x="63.623047"/>
       <use xlink:href="#DejaVuSans-30" x="95.410156"/>
       <use xlink:href="#DejaVuSans-30" x="159.033203"/>
       <use xlink:href="#DejaVuSans-30" x="222.65625"/>
       <use xlink:href="#DejaVuSans-30" x="286.279297"/>
       <use xlink:href="#DejaVuSans-32" x="349.902344"/>
      </g>
     </g>
    </g>
    <g id="ytick_3">
     <g id="line2d_35">
      <path d="M 58.84 106.0938 
L 709.2 106.0938 
" clip-path="url(#p1b6527007a)" style="fill: none; stroke: #000000; stroke-width: 0.5; stroke-linecap: square"/>
     </g>
     <g id="line2d_36">
      <g>
       <use xlink:href="#md322fa1346" x="58.84" y="106.0938" style="stroke: #000000; stroke-width: 0.8"/>
      </g>
     </g>
     <g id="text_18">
      <!-- 0.00004 -->
      <g transform="translate(10.486875 109.893019) scale(0.1 -0.1)">
       <defs>
        <path id="DejaVuSans-34" d="M 2419 4116 
L 825 1625 
L 2419 1625 
L 2419 4116 
z
M 2253 4666 
L 3047 4666 
L 3047 1625 
L 3713 1625 
L 3713 1100 
L 3047 1100 
L 3047 0 
L 2419 0 
L 2419 1100 
L 313 1100 
L 313 1709 
L 2253 4666 
z
" transform="scale(0.015625)"/>
       </defs>
       <use xlink:href="#DejaVuSans-30"/>
       <use xlink:href="#DejaVuSans-2e" x="63.623047"/>
       <use xlink:href="#DejaVuSans-30" x="95.410156"/>
       <use xlink:href="#DejaVuSans-30" x="159.033203"/>
       <use xlink:href="#DejaVuSans-30" x="222.65625"/>
       <use xlink:href="#DejaVuSans-30" x="286.279297"/>
       <use xlink:href="#DejaVuSans-34" x="349.902344"/>
      </g>
     </g>
    </g>
    <g id="ytick_4">
     <g id="line2d_37">
      <path d="M 58.84 75.613668 
L 709.2 75.613668 
" clip-path="url(#p1b6527007a)" style="fill: none; stroke: #000000; stroke-width: 0.5; stroke-linecap: square"/>
     </g>
     <g id="line2d_38">
      <g>
       <use xlink:href="#md322fa1346" x="58.84" y="75.613668" style="stroke: #000000; stroke-width: 0.8"/>
      </g>
     </g>
     <g id="text_19">
      <!-- 0.00006 -->
      <g transform="translate(10.486875 79.412887) scale(0.1 -0.1)">
       <use xlink:href="#DejaVuSans-30"/>
       <use xlink:href="#DejaVuSans-2e" x="63.623047"/>
       <use xlink:href="#DejaVuSans-30" x="95.410156"/>
       <use xlink:href="#DejaVuSans-30" x="159.033203"/>
       <use xlink:href="#DejaVuSans-30" x="222.65625"/>
       <use xlink:href="#DejaVuSans-30" x="286.279297"/>
       <use xlink:href="#DejaVuSans-36" x="349.902344"/>
      </g>
     </g>
    </g>
    <g id="ytick_5">
     <g id="line2d_39">
      <path d="M 58.84 45.133536 
L 709.2 45.133536 
" clip-path="url(#p1b6527007a)" style="fill: none; stroke: #000000; stroke-width: 0.5; stroke-linecap: square"/>
     </g>
     <g id="line2d_40">
      <g>
       <use xlink:href="#md322fa1346" x="58.84" y="45.133536" style="stroke: #000000; stroke-width: 0.8"/>
      </g>
     </g>
     <g id="text_20">
      <!-- 0.00008 -->
      <g transform="translate(10.486875 48.932754) scale(0.1 -0.1)">
       <use xlink:href="#DejaVuSans-30"/>
       <use xlink:href="#DejaVuSans-2e" x="63.623047"/>
       <use xlink:href="#DejaVuSans-30" x="95.410156"/>
       <use xlink:href="#DejaVuSans-30" x="159.033203"/>
       <use xlink:href="#DejaVuSans-30" x="222.65625"/>
       <use xlink:href="#DejaVuSans-30" x="286.279297"/>
       <use xlink:href="#DejaVuSans-38" x="349.902344"/>
      </g>
     </g>
    </g>
   </g>
   <g id="line2d_41">
    <path d="M 88.401818 139.97056 
L 96.181244 80.425299 
L 103.96067 167.054065 
L 111.740096 148.285511 
L 119.519522 142.81855 
L 127.298947 46.888289 
L 135.078373 101.351108 
L 142.857799 134.740438 
L 150.637225 136.71926 
L 158.416651 151.170504 
L 166.196077 143.195753 
L 173.975502 157.123413 
L 181.754928 161.311677 
L 189.534354 153.677251 
L 197.31378 137.29304 
L 205.093206 84.268912 
L 212.872632 116.947132 
L 220.652057 145.71933 
L 228.431483 123.552324 
L 236.210909 135.120288 
L 243.990335 128.292787 
L 251.769761 129.622007 
L 259.549187 117.844673 
L 267.328612 116.606289 
L 275.108038 116.474471 
L 282.887464 138.422183 
L 290.66689 123.583068 
L 298.446316 112.329113 
L 306.225742 118.641433 
L 314.005167 126.809539 
L 321.784593 103.236375 
L 329.564019 118.472915 
L 337.343445 119.494823 
L 345.122871 131.025913 
L 352.902297 112.179014 
L 360.681722 112.191139 
L 368.461148 99.581552 
L 376.240574 112.109066 
L 384.02 110.157646 
L 391.799426 102.521204 
L 399.578852 105.537312 
L 407.358278 101.870061 
L 415.137703 121.290501 
L 422.917129 97.491348 
L 430.696555 113.906544 
L 438.475981 109.791919 
L 446.255407 109.932697 
L 454.034833 115.532223 
L 461.814258 117.081851 
L 469.593684 110.672885 
L 477.37311 109.324079 
L 485.152536 140.824634 
L 492.931962 138.985769 
L 500.711388 122.368311 
L 508.490813 142.732122 
L 516.270239 131.561883 
L 524.049665 121.996111 
L 531.829091 146.451552 
L 539.608517 121.670843 
L 547.387943 159.068298 
L 555.167368 138.294936 
L 562.946794 143.483027 
L 570.72622 133.705056 
L 578.505646 138.454363 
L 586.285072 136.773044 
L 594.064498 123.572165 
L 601.843923 116.739174 
L 609.623349 117.669399 
L 617.402775 127.914603 
L 625.182201 127.9713 
L 632.961627 130.414505 
L 640.741053 109.654839 
L 648.520478 147.706255 
L 656.299904 144.385748 
L 664.07933 151.190653 
L 671.858756 154.666443 
L 679.638182 130.075396 
" clip-path="url(#p1b6527007a)" style="fill: none; stroke: #1f77b4; stroke-width: 1.5; stroke-linecap: square"/>
    <defs>
     <path id="m8083280b68" d="M 0 3 
C 0.795609 3 1.55874 2.683901 2.12132 2.12132 
C 2.683901 1.55874 3 0.795609 3 0 
C 3 -0.795609 2.683901 -1.55874 2.12132 -2.12132 
C 1.55874 -2.683901 0.795609 -3 0 -3 
C -0.795609 -3 -1.55874 -2.683901 -2.12132 -2.12132 
C -2.683901 -1.55874 -3 -0.795609 -3 0 
C -3 0.795609 -2.683901 1.55874 -2.12132 2.12132 
C -1.55874 2.683901 -0.795609 3 0 3 
z
" style="stroke: #1f77b4"/>
    </defs>
    <g clip-path="url(#p1b6527007a)">
     <use xlink:href="#m8083280b68" x="88.401818" y="139.97056" style="fill: #1f77b4; stroke: #1f77b4"/>
     <use xlink:href="#m8083280b68" x="96.181244" y="80.425299" style="fill: #1f77b4; stroke: #1f77b4"/>
     <use xlink:href="#m8083280b68" x="103.96067" y="167.054065" style="fill: #1f77b4; stroke: #1f77b4"/>
     <use xlink:href="#m8083280b68" x="111.740096" y="148.285511" style="fill: #1f77b4; stroke: #1f77b4"/>
     <use xlink:href="#m8083280b68" x="119.519522" y="142.81855" style="fill: #1f77b4; stroke: #1f77b4"/>
     <use xlink:href="#m8083280b68" x="127.298947" y="46.888289" style="fill: #1f77b4; stroke: #1f77b4"/>
     <use xlink:href="#m8083280b68" x="135.078373" y="101.351108" style="fill: #1f77b4; stroke: #1f77b4"/>
     <use xlink:href="#m8083280b68" x="142.857799" y="134.740438" style="fill: #1f77b4; stroke: #1f77b4"/>
     <use xlink:href="#m8083280b68" x="150.637225" y="136.71926" style="fill: #1f77b4; stroke: #1f77b4"/>
     <use xlink:href="#m8083280b68" x="158.416651" y="151.170504" style="fill: #1f77b4; stroke: #1f77b4"/>
     <use xlink:href="#m8083280b68" x="166.196077" y="143.195753" style="fill: #1f77b4; stroke: #1f77b4"/>
     <use xlink:href="#m8083280b68" x="173.975502" y="157.123413" style="fill: #1f77b4; stroke: #1f77b4"/>
     <use xlink:href="#m8083280b68" x="181.754928" y="161.311677" style="fill: #1f77b4; stroke: #1f77b4"/>
     <use xlink:href="#m8083280b68" x="189.534354" y="153.677251" style="fill: #1f77b4; stroke: #1f77b4"/>
     <use xlink:href="#m8083280b68" x="197.31378" y="137.29304" style="fill: #1f77b4; stroke: #1f77b4"/>
     <use xlink:href="#m8083280b68" x="205.093206" y="84.268912" style="fill: #1f77b4; stroke: #1f77b4"/>
     <use xlink:href="#m8083280b68" x="212.872632" y="116.947132" style="fill: #1f77b4; stroke: #1f77b4"/>
     <use xlink:href="#m8083280b68" x="220.652057" y="145.71933" style="fill: #1f77b4; stroke: #1f77b4"/>
     <use xlink:href="#m8083280b68" x="228.431483" y="123.552324" style="fill: #1f77b4; stroke: #1f77b4"/>
     <use xlink:href="#m8083280b68" x="236.210909" y="135.120288" style="fill: #1f77b4; stroke: #1f77b4"/>
     <use xlink:href="#m8083280b68" x="243.990335" y="128.292787" style="fill: #1f77b4; stroke: #1f77b4"/>
     <use xlink:href="#m8083280b68" x="251.769761" y="129.622007" style="fill: #1f77b4; stroke: #1f77b4"/>
     <use xlink:href="#m8083280b68" x="259.549187" y="117.844673" style="fill: #1f77b4; stroke: #1f77b4"/>
     <use xlink:href="#m8083280b68" x="267.328612" y="116.606289" style="fill: #1f77b4; stroke: #1f77b4"/>
     <use xlink:href="#m8083280b68" x="275.108038" y="116.474471" style="fill: #1f77b4; stroke: #1f77b4"/>
     <use xlink:href="#m8083280b68" x="282.887464" y="138.422183" style="fill: #1f77b4; stroke: #1f77b4"/>
     <use xlink:href="#m8083280b68" x="290.66689" y="123.583068" style="fill: #1f77b4; stroke: #1f77b4"/>
     <use xlink:href="#m8083280b68" x="298.446316" y="112.329113" style="fill: #1f77b4; stroke: #1f77b4"/>
     <use xlink:href="#m8083280b68" x="306.225742" y="118.641433" style="fill: #1f77b4; stroke: #1f77b4"/>
     <use xlink:href="#m8083280b68" x="314.005167" y="126.809539" style="fill: #1f77b4; stroke: #1f77b4"/>
     <use xlink:href="#m8083280b68" x="321.784593" y="103.236375" style="fill: #1f77b4; stroke: #1f77b4"/>
     <use xlink:href="#m8083280b68" x="329.564019" y="118.472915" style="fill: #1f77b4; stroke: #1f77b4"/>
     <use xlink:href="#m8083280b68" x="337.343445" y="119.494823" style="fill: #1f77b4; stroke: #1f77b4"/>
     <use xlink:href="#m8083280b68" x="345.122871" y="131.025913" style="fill: #1f77b4; stroke: #1f77b4"/>
     <use xlink:href="#m8083280b68" x="352.902297" y="112.179014" style="fill: #1f77b4; stroke: #1f77b4"/>
     <use xlink:href="#m8083280b68" x="360.681722" y="112.191139" style="fill: #1f77b4; stroke: #1f77b4"/>
     <use xlink:href="#m8083280b68" x="368.461148" y="99.581552" style="fill: #1f77b4; stroke: #1f77b4"/>
     <use xlink:href="#m8083280b68" x="376.240574" y="112.109066" style="fill: #1f77b4; stroke: #1f77b4"/>
     <use xlink:href="#m8083280b68" x="384.02" y="110.157646" style="fill: #1f77b4; stroke: #1f77b4"/>
     <use xlink:href="#m8083280b68" x="391.799426" y="102.521204" style="fill: #1f77b4; stroke: #1f77b4"/>
     <use xlink:href="#m8083280b68" x="399.578852" y="105.537312" style="fill: #1f77b4; stroke: #1f77b4"/>
     <use xlink:href="#m8083280b68" x="407.358278" y="101.870061" style="fill: #1f77b4; stroke: #1f77b4"/>
     <use xlink:href="#m8083280b68" x="415.137703" y="121.290501" style="fill: #1f77b4; stroke: #1f77b4"/>
     <use xlink:href="#m8083280b68" x="422.917129" y="97.491348" style="fill: #1f77b4; stroke: #1f77b4"/>
     <use xlink:href="#m8083280b68" x="430.696555" y="113.906544" style="fill: #1f77b4; stroke: #1f77b4"/>
     <use xlink:href="#m8083280b68" x="438.475981" y="109.791919" style="fill: #1f77b4; stroke: #1f77b4"/>
     <use xlink:href="#m8083280b68" x="446.255407" y="109.932697" style="fill: #1f77b4; stroke: #1f77b4"/>
     <use xlink:href="#m8083280b68" x="454.034833" y="115.532223" style="fill: #1f77b4; stroke: #1f77b4"/>
     <use xlink:href="#m8083280b68" x="461.814258" y="117.081851" style="fill: #1f77b4; stroke: #1f77b4"/>
     <use xlink:href="#m8083280b68" x="469.593684" y="110.672885" style="fill: #1f77b4; stroke: #1f77b4"/>
     <use xlink:href="#m8083280b68" x="477.37311" y="109.324079" style="fill: #1f77b4; stroke: #1f77b4"/>
     <use xlink:href="#m8083280b68" x="485.152536" y="140.824634" style="fill: #1f77b4; stroke: #1f77b4"/>
     <use xlink:href="#m8083280b68" x="492.931962" y="138.985769" style="fill: #1f77b4; stroke: #1f77b4"/>
     <use xlink:href="#m8083280b68" x="500.711388" y="122.368311" style="fill: #1f77b4; stroke: #1f77b4"/>
     <use xlink:href="#m8083280b68" x="508.490813" y="142.732122" style="fill: #1f77b4; stroke: #1f77b4"/>
     <use xlink:href="#m8083280b68" x="516.270239" y="131.561883" style="fill: #1f77b4; stroke: #1f77b4"/>
     <use xlink:href="#m8083280b68" x="524.049665" y="121.996111" style="fill: #1f77b4; stroke: #1f77b4"/>
     <use xlink:href="#m8083280b68" x="531.829091" y="146.451552" style="fill: #1f77b4; stroke: #1f77b4"/>
     <use xlink:href="#m8083280b68" x="539.608517" y="121.670843" style="fill: #1f77b4; stroke: #1f77b4"/>
     <use xlink:href="#m8083280b68" x="547.387943" y="159.068298" style="fill: #1f77b4; stroke: #1f77b4"/>
     <use xlink:href="#m8083280b68" x="555.167368" y="138.294936" style="fill: #1f77b4; stroke: #1f77b4"/>
     <use xlink:href="#m8083280b68" x="562.946794" y="143.483027" style="fill: #1f77b4; stroke: #1f77b4"/>
     <use xlink:href="#m8083280b68" x="570.72622" y="133.705056" style="fill: #1f77b4; stroke: #1f77b4"/>
     <use xlink:href="#m8083280b68" x="578.505646" y="138.454363" style="fill: #1f77b4; stroke: #1f77b4"/>
     <use xlink:href="#m8083280b68" x="586.285072" y="136.773044" style="fill: #1f77b4; stroke: #1f77b4"/>
     <use xlink:href="#m8083280b68" x="594.064498" y="123.572165" style="fill: #1f77b4; stroke: #1f77b4"/>
     <use xlink:href="#m8083280b68" x="601.843923" y="116.739174" style="fill: #1f77b4; stroke: #1f77b4"/>
     <use xlink:href="#m8083280b68" x="609.623349" y="117.669399" style="fill: #1f77b4; stroke: #1f77b4"/>
     <use xlink:href="#m8083280b68" x="617.402775" y="127.914603" style="fill: #1f77b4; stroke: #1f77b4"/>
     <use xlink:href="#m8083280b68" x="625.182201" y="127.9713" style="fill: #1f77b4; stroke: #1f77b4"/>
     <use xlink:href="#m8083280b68" x="632.961627" y="130.414505" style="fill: #1f77b4; stroke: #1f77b4"/>
     <use xlink:href="#m8083280b68" x="640.741053" y="109.654839" style="fill: #1f77b4; stroke: #1f77b4"/>
     <use xlink:href="#m8083280b68" x="648.520478" y="147.706255" style="fill: #1f77b4; stroke: #1f77b4"/>
     <use xlink:href="#m8083280b68" x="656.299904" y="144.385748" style="fill: #1f77b4; stroke: #1f77b4"/>
     <use xlink:href="#m8083280b68" x="664.07933" y="151.190653" style="fill: #1f77b4; stroke: #1f77b4"/>
     <use xlink:href="#m8083280b68" x="671.858756" y="154.666443" style="fill: #1f77b4; stroke: #1f77b4"/>
     <use xlink:href="#m8083280b68" x="679.638182" y="130.075396" style="fill: #1f77b4; stroke: #1f77b4"/>
    </g>
   </g>
   <g id="line2d_42">
    <path d="M 88.401818 114.847168 
L 93.141188 117.912797 
L 97.880557 120.681461 
L 102.619927 123.168298 
L 107.359297 125.388096 
L 112.098666 127.355106 
L 116.838036 129.08326 
L 121.577406 130.586097 
L 126.316775 131.876669 
L 131.056145 132.967633 
L 136.980357 134.069297 
L 142.904569 134.901436 
L 148.828781 135.486111 
L 154.752993 135.84468 
L 160.677205 135.99747 
L 167.78626 135.936522 
L 174.895314 135.639181 
L 182.004369 135.135672 
L 190.298266 134.325605 
L 199.777005 133.157728 
L 210.440587 131.604652 
L 223.473853 129.467871 
L 244.801017 125.701088 
L 268.497865 121.579697 
L 282.715974 119.32576 
L 295.74924 117.483853 
L 307.597664 116.033261 
L 319.446089 114.820977 
L 330.10967 113.947685 
L 340.773252 113.288648 
L 351.436834 112.847266 
L 362.100415 112.623123 
L 372.763997 112.61237 
L 383.427579 112.807932 
L 395.276003 113.255077 
L 407.124427 113.927462 
L 420.157694 114.902642 
L 434.375803 116.212101 
L 449.778754 117.869282 
L 467.55139 120.011543 
L 493.617923 123.402891 
L 529.163195 128.010712 
L 548.120674 130.24635 
L 564.708468 131.988581 
L 580.111419 133.390788 
L 595.514371 134.566083 
L 610.917322 135.510433 
L 626.320273 136.23615 
L 644.092909 136.843198 
L 668.9746 137.437079 
L 679.638182 137.675867 
L 679.638182 137.675867 
" clip-path="url(#p1b6527007a)" style="fill: none; stroke: #ff0000; stroke-width: 1.5; stroke-linecap: square"/>
   </g>
   <g id="patch_3">
    <path d="M 58.84 173.062354 
L 58.84 40.88 
" style="fill: none; stroke: #000000; stroke-width: 0.8; stroke-linejoin: miter; stroke-linecap: square"/>
   </g>
   <g id="patch_4">
    <path d="M 709.2 173.062354 
L 709.2 40.88 
" style="fill: none; stroke: #000000; stroke-width: 0.8; stroke-linejoin: miter; stroke-linecap: square"/>
   </g>
   <g id="patch_5">
    <path d="M 58.84 173.062354 
L 709.2 173.062354 
" style="fill: none; stroke: #000000; stroke-width: 0.8; stroke-linejoin: miter; stroke-linecap: square"/>
   </g>
   <g id="patch_6">
    <path d="M 58.84 40.88 
L 709.2 40.88 
" style="fill: none; stroke: #000000; stroke-width: 0.8; stroke-linejoin: miter; stroke-linecap: square"/>
   </g>
   <g id="text_21">
    <!-- T1 - Swear Word Rate from 1946 to 2022 -->
    <g transform="translate(260.867188 20.88) scale(0.12 -0.12)">
     <defs>
      <path id="DejaVuSans-54" d="M -19 4666 
L 3928 4666 
L 3928 4134 
L 2272 4134 
L 2272 0 
L 1638 0 
L 1638 4134 
L -19 4134 
L -19 4666 
z
" transform="scale(0.015625)"/>
      <path id="DejaVuSans-20" transform="scale(0.015625)"/>
      <path id="DejaVuSans-2d" d="M 313 2009 
L 1997 2009 
L 1997 1497 
L 313 1497 
L 313 2009 
z
" transform="scale(0.015625)"/>
      <path id="DejaVuSans-53" d="M 3425 4513 
L 3425 3897 
Q 3066 4069 2747 4153 
Q 2428 4238 2131 4238 
Q 1616 4238 1336 4038 
Q 1056 3838 1056 3469 
Q 1056 3159 1242 3001 
Q 1428 2844 1947 2747 
L 2328 2669 
Q 3034 2534 3370 2195 
Q 3706 1856 3706 1288 
Q 3706 609 3251 259 
Q 2797 -91 1919 -91 
Q 1588 -91 1214 -16 
Q 841 59 441 206 
L 441 856 
Q 825 641 1194 531 
Q 1563 422 1919 422 
Q 2459 422 2753 634 
Q 3047 847 3047 1241 
Q 3047 1584 2836 1778 
Q 2625 1972 2144 2069 
L 1759 2144 
Q 1053 2284 737 2584 
Q 422 2884 422 3419 
Q 422 4038 858 4394 
Q 1294 4750 2059 4750 
Q 2388 4750 2728 4690 
Q 3069 4631 3425 4513 
z
" transform="scale(0.015625)"/>
      <path id="DejaVuSans-77" d="M 269 3500 
L 844 3500 
L 1563 769 
L 2278 3500 
L 2956 3500 
L 3675 769 
L 4391 3500 
L 4966 3500 
L 4050 0 
L 3372 0 
L 2619 2869 
L 1863 0 
L 1184 0 
L 269 3500 
z
" transform="scale(0.015625)"/>
      <path id="DejaVuSans-65" d="M 3597 1894 
L 3597 1613 
L 953 1613 
Q 991 1019 1311 708 
Q 1631 397 2203 397 
Q 2534 397 2845 478 
Q 3156 559 3463 722 
L 3463 178 
Q 3153 47 2828 -22 
Q 2503 -91 2169 -91 
Q 1331 -91 842 396 
Q 353 884 353 1716 
Q 353 2575 817 3079 
Q 1281 3584 2069 3584 
Q 2775 3584 3186 3129 
Q 3597 2675 3597 1894 
z
M 3022 2063 
Q 3016 2534 2758 2815 
Q 2500 3097 2075 3097 
Q 1594 3097 1305 2825 
Q 1016 2553 972 2059 
L 3022 2063 
z
" transform="scale(0.015625)"/>
      <path id="DejaVuSans-61" d="M 2194 1759 
Q 1497 1759 1228 1600 
Q 959 1441 959 1056 
Q 959 750 1161 570 
Q 1363 391 1709 391 
Q 2188 391 2477 730 
Q 2766 1069 2766 1631 
L 2766 1759 
L 2194 1759 
z
M 3341 1997 
L 3341 0 
L 2766 0 
L 2766 531 
Q 2569 213 2275 61 
Q 1981 -91 1556 -91 
Q 1019 -91 701 211 
Q 384 513 384 1019 
Q 384 1609 779 1909 
Q 1175 2209 1959 2209 
L 2766 2209 
L 2766 2266 
Q 2766 2663 2505 2880 
Q 2244 3097 1772 3097 
Q 1472 3097 1187 3025 
Q 903 2953 641 2809 
L 641 3341 
Q 956 3463 1253 3523 
Q 1550 3584 1831 3584 
Q 2591 3584 2966 3190 
Q 3341 2797 3341 1997 
z
" transform="scale(0.015625)"/>
      <path id="DejaVuSans-72" d="M 2631 2963 
Q 2534 3019 2420 3045 
Q 2306 3072 2169 3072 
Q 1681 3072 1420 2755 
Q 1159 2438 1159 1844 
L 1159 0 
L 581 0 
L 581 3500 
L 1159 3500 
L 1159 2956 
Q 1341 3275 1631 3429 
Q 1922 3584 2338 3584 
Q 2397 3584 2469 3576 
Q 2541 3569 2628 3553 
L 2631 2963 
z
" transform="scale(0.015625)"/>
      <path id="DejaVuSans-57" d="M 213 4666 
L 850 4666 
L 1831 722 
L 2809 4666 
L 3519 4666 
L 4500 722 
L 5478 4666 
L 6119 4666 
L 4947 0 
L 4153 0 
L 3169 4050 
L 2175 0 
L 1381 0 
L 213 4666 
z
" transform="scale(0.015625)"/>
      <path id="DejaVuSans-6f" d="M 1959 3097 
Q 1497 3097 1228 2736 
Q 959 2375 959 1747 
Q 959 1119 1226 758 
Q 1494 397 1959 397 
Q 2419 397 2687 759 
Q 2956 1122 2956 1747 
Q 2956 2369 2687 2733 
Q 2419 3097 1959 3097 
z
M 1959 3584 
Q 2709 3584 3137 3096 
Q 3566 2609 3566 1747 
Q 3566 888 3137 398 
Q 2709 -91 1959 -91 
Q 1206 -91 779 398 
Q 353 888 353 1747 
Q 353 2609 779 3096 
Q 1206 3584 1959 3584 
z
" transform="scale(0.015625)"/>
      <path id="DejaVuSans-64" d="M 2906 2969 
L 2906 4863 
L 3481 4863 
L 3481 0 
L 2906 0 
L 2906 525 
Q 2725 213 2448 61 
Q 2172 -91 1784 -91 
Q 1150 -91 751 415 
Q 353 922 353 1747 
Q 353 2572 751 3078 
Q 1150 3584 1784 3584 
Q 2172 3584 2448 3432 
Q 2725 3281 2906 2969 
z
M 947 1747 
Q 947 1113 1208 752 
Q 1469 391 1925 391 
Q 2381 391 2643 752 
Q 2906 1113 2906 1747 
Q 2906 2381 2643 2742 
Q 2381 3103 1925 3103 
Q 1469 3103 1208 2742 
Q 947 2381 947 1747 
z
" transform="scale(0.015625)"/>
      <path id="DejaVuSans-52" d="M 2841 2188 
Q 3044 2119 3236 1894 
Q 3428 1669 3622 1275 
L 4263 0 
L 3584 0 
L 2988 1197 
Q 2756 1666 2539 1819 
Q 2322 1972 1947 1972 
L 1259 1972 
L 1259 0 
L 628 0 
L 628 4666 
L 2053 4666 
Q 2853 4666 3247 4331 
Q 3641 3997 3641 3322 
Q 3641 2881 3436 2590 
Q 3231 2300 2841 2188 
z
M 1259 4147 
L 1259 2491 
L 2053 2491 
Q 2509 2491 2742 2702 
Q 2975 2913 2975 3322 
Q 2975 3731 2742 3939 
Q 2509 4147 2053 4147 
L 1259 4147 
z
" transform="scale(0.015625)"/>
      <path id="DejaVuSans-74" d="M 1172 4494 
L 1172 3500 
L 2356 3500 
L 2356 3053 
L 1172 3053 
L 1172 1153 
Q 1172 725 1289 603 
Q 1406 481 1766 481 
L 2356 481 
L 2356 0 
L 1766 0 
Q 1100 0 847 248 
Q 594 497 594 1153 
L 594 3053 
L 172 3053 
L 172 3500 
L 594 3500 
L 594 4494 
L 1172 4494 
z
" transform="scale(0.015625)"/>
      <path id="DejaVuSans-66" d="M 2375 4863 
L 2375 4384 
L 1825 4384 
Q 1516 4384 1395 4259 
Q 1275 4134 1275 3809 
L 1275 3500 
L 2222 3500 
L 2222 3053 
L 1275 3053 
L 1275 0 
L 697 0 
L 697 3053 
L 147 3053 
L 147 3500 
L 697 3500 
L 697 3744 
Q 697 4328 969 4595 
Q 1241 4863 1831 4863 
L 2375 4863 
z
" transform="scale(0.015625)"/>
      <path id="DejaVuSans-6d" d="M 3328 2828 
Q 3544 3216 3844 3400 
Q 4144 3584 4550 3584 
Q 5097 3584 5394 3201 
Q 5691 2819 5691 2113 
L 5691 0 
L 5113 0 
L 5113 2094 
Q 5113 2597 4934 2840 
Q 4756 3084 4391 3084 
Q 3944 3084 3684 2787 
Q 3425 2491 3425 1978 
L 3425 0 
L 2847 0 
L 2847 2094 
Q 2847 2600 2669 2842 
Q 2491 3084 2119 3084 
Q 1678 3084 1418 2786 
Q 1159 2488 1159 1978 
L 1159 0 
L 581 0 
L 581 3500 
L 1159 3500 
L 1159 2956 
Q 1356 3278 1631 3431 
Q 1906 3584 2284 3584 
Q 2666 3584 2933 3390 
Q 3200 3197 3328 2828 
z
" transform="scale(0.015625)"/>
     </defs>
     <use xlink:href="#DejaVuSans-54"/>
     <use xlink:href="#DejaVuSans-31" x="61.083984"/>
     <use xlink:href="#DejaVuSans-20" x="124.707031"/>
     <use xlink:href="#DejaVuSans-2d" x="156.494141"/>
     <use xlink:href="#DejaVuSans-20" x="192.578125"/>
     <use xlink:href="#DejaVuSans-53" x="224.365234"/>
     <use xlink:href="#DejaVuSans-77" x="287.841797"/>
     <use xlink:href="#DejaVuSans-65" x="369.628906"/>
     <use xlink:href="#DejaVuSans-61" x="431.152344"/>
     <use xlink:href="#DejaVuSans-72" x="492.431641"/>
     <use xlink:href="#DejaVuSans-20" x="533.544922"/>
     <use xlink:href="#DejaVuSans-57" x="565.332031"/>
     <use xlink:href="#DejaVuSans-6f" x="658.333984"/>
     <use xlink:href="#DejaVuSans-72" x="719.515625"/>
     <use xlink:href="#DejaVuSans-64" x="758.878906"/>
     <use xlink:href="#DejaVuSans-20" x="822.355469"/>
     <use xlink:href="#DejaVuSans-52" x="854.142578"/>
     <use xlink:href="#DejaVuSans-61" x="921.375"/>
     <use xlink:href="#DejaVuSans-74" x="982.654297"/>
     <use xlink:href="#DejaVuSans-65" x="1021.863281"/>
     <use xlink:href="#DejaVuSans-20" x="1083.386719"/>
     <use xlink:href="#DejaVuSans-66" x="1115.173828"/>
     <use xlink:href="#DejaVuSans-72" x="1150.378906"/>
     <use xlink:href="#DejaVuSans-6f" x="1189.242188"/>
     <use xlink:href="#DejaVuSans-6d" x="1250.423828"/>
     <use xlink:href="#DejaVuSans-20" x="1347.835938"/>
     <use xlink:href="#DejaVuSans-31" x="1379.623047"/>
     <use xlink:href="#DejaVuSans-39" x="1443.246094"/>
     <use xlink:href="#DejaVuSans-34" x="1506.869141"/>
     <use xlink:href="#DejaVuSans-36" x="1570.492188"/>
     <use xlink:href="#DejaVuSans-20" x="1634.115234"/>
     <use xlink:href="#DejaVuSans-74" x="1665.902344"/>
     <use xlink:href="#DejaVuSans-6f" x="1705.111328"/>
     <use xlink:href="#DejaVuSans-20" x="1766.292969"/>
     <use xlink:href="#DejaVuSans-32" x="1798.080078"/>
     <use xlink:href="#DejaVuSans-30" x="1861.703125"/>
     <use xlink:href="#DejaVuSans-32" x="1925.326172"/>
     <use xlink:href="#DejaVuSans-32" x="1988.949219"/>
    </g>
   </g>
  </g>
 </g>
 <defs>
  <clipPath id="p1b6527007a">
   <rect x="58.84" y="40.88" width="650.36" height="132.182354"/>
  </clipPath>
 </defs>
</svg>
