<?xml version="1.0" encoding="utf-8" standalone="no"?>
<!DOCTYPE svg PUBLIC "-//W3C//DTD SVG 1.1//EN"
  "http://www.w3.org/Graphics/SVG/1.1/DTD/svg11.dtd">
<svg xmlns:xlink="http://www.w3.org/1999/xlink" width="720pt" height="216pt" viewBox="0 0 720 216" xmlns="http://www.w3.org/2000/svg" version="1.1">
 <metadata>
  <rdf:RDF xmlns:dc="http://purl.org/dc/elements/1.1/" xmlns:cc="http://creativecommons.org/ns#" xmlns:rdf="http://www.w3.org/1999/02/22-rdf-syntax-ns#">
   <cc:Work>
    <dc:type rdf:resource="http://purl.org/dc/dcmitype/StillImage"/>
    <dc:date>2024-08-08T20:28:39.772358</dc:date>
    <dc:format>image/svg+xml</dc:format>
    <dc:creator>
     <cc:Agent>
      <dc:title>Matplotlib v3.7.1, https://matplotlib.org/</dc:title>
     </cc:Agent>
    </dc:creator>
   </cc:Work>
  </rdf:RDF>
 </metadata>
 <defs>
  <style type="text/css">*{stroke-linejoin: round; stroke-linecap: butt}</style>
 </defs>
 <g id="figure_1">
  <g id="patch_1">
   <path d="M 0 216 
L 720 216 
L 720 0 
L 0 0 
z
" style="fill: #ffffff"/>
  </g>
  <g id="axes_1">
   <g id="patch_2">
    <path d="M 52.54 173.062354 
L 709.2 173.062354 
L 709.2 40.88 
L 52.54 40.88 
z
" style="fill: #ffffff"/>
   </g>
   <g id="matplotlib.axis_1">
    <g id="xtick_1">
     <g id="line2d_1">
      <path d="M 113.807321 173.062354 
L 113.807321 40.88 
" clip-path="url(#p9bec87115c)" style="fill: none; stroke: #000000; stroke-width: 0.5; stroke-linecap: square"/>
     </g>
     <g id="line2d_2">
      <defs>
       <path id="mbf35dfd0c0" d="M 0 0 
L 0 3.5 
" style="stroke: #000000; stroke-width: 0.8"/>
      </defs>
      <g>
       <use xlink:href="#mbf35dfd0c0" x="113.807321" y="173.062354" style="stroke: #000000; stroke-width: 0.8"/>
      </g>
     </g>
     <g id="text_1">
      <!-- 1950 -->
      <g transform="translate(106.76056 203.431128) rotate(-45) scale(0.1 -0.1)">
       <defs>
        <path id="DejaVuSans-31" d="M 794 531 
L 1825 531 
L 1825 4091 
L 703 3866 
L 703 4441 
L 1819 4666 
L 2450 4666 
L 2450 531 
L 3481 531 
L 3481 0 
L 794 0 
L 794 531 
z
" transform="scale(0.015625)"/>
        <path id="DejaVuSans-39" d="M 703 97 
L 703 672 
Q 941 559 1184 500 
Q 1428 441 1663 441 
Q 2288 441 2617 861 
Q 2947 1281 2994 2138 
Q 2813 1869 2534 1725 
Q 2256 1581 1919 1581 
Q 1219 1581 811 2004 
Q 403 2428 403 3163 
Q 403 3881 828 4315 
Q 1253 4750 1959 4750 
Q 2769 4750 3195 4129 
Q 3622 3509 3622 2328 
Q 3622 1225 3098 567 
Q 2575 -91 1691 -91 
Q 1453 -91 1209 -44 
Q 966 3 703 97 
z
M 1959 2075 
Q 2384 2075 2632 2365 
Q 2881 2656 2881 3163 
Q 2881 3666 2632 3958 
Q 2384 4250 1959 4250 
Q 1534 4250 1286 3958 
Q 1038 3666 1038 3163 
Q 1038 2656 1286 2365 
Q 1534 2075 1959 2075 
z
" transform="scale(0.015625)"/>
        <path id="DejaVuSans-35" d="M 691 4666 
L 3169 4666 
L 3169 4134 
L 1269 4134 
L 1269 2991 
Q 1406 3038 1543 3061 
Q 1681 3084 1819 3084 
Q 2600 3084 3056 2656 
Q 3513 2228 3513 1497 
Q 3513 744 3044 326 
Q 2575 -91 1722 -91 
Q 1428 -91 1123 -41 
Q 819 9 494 109 
L 494 744 
Q 775 591 1075 516 
Q 1375 441 1709 441 
Q 2250 441 2565 725 
Q 2881 1009 2881 1497 
Q 2881 1984 2565 2268 
Q 2250 2553 1709 2553 
Q 1456 2553 1204 2497 
Q 953 2441 691 2322 
L 691 4666 
z
" transform="scale(0.015625)"/>
        <path id="DejaVuSans-30" d="M 2034 4250 
Q 1547 4250 1301 3770 
Q 1056 3291 1056 2328 
Q 1056 1369 1301 889 
Q 1547 409 2034 409 
Q 2525 409 2770 889 
Q 3016 1369 3016 2328 
Q 3016 3291 2770 3770 
Q 2525 4250 2034 4250 
z
M 2034 4750 
Q 2819 4750 3233 4129 
Q 3647 3509 3647 2328 
Q 3647 1150 3233 529 
Q 2819 -91 2034 -91 
Q 1250 -91 836 529 
Q 422 1150 422 2328 
Q 422 3509 836 4129 
Q 1250 4750 2034 4750 
z
" transform="scale(0.015625)"/>
       </defs>
       <use xlink:href="#DejaVuSans-31"/>
       <use xlink:href="#DejaVuSans-39" x="63.623047"/>
       <use xlink:href="#DejaVuSans-35" x="127.246094"/>
       <use xlink:href="#DejaVuSans-30" x="190.869141"/>
      </g>
     </g>
    </g>
    <g id="xtick_2">
     <g id="line2d_3">
      <path d="M 153.081244 173.062354 
L 153.081244 40.88 
" clip-path="url(#p9bec87115c)" style="fill: none; stroke: #000000; stroke-width: 0.5; stroke-linecap: square"/>
     </g>
     <g id="line2d_4">
      <g>
       <use xlink:href="#mbf35dfd0c0" x="153.081244" y="173.062354" style="stroke: #000000; stroke-width: 0.8"/>
      </g>
     </g>
     <g id="text_2">
      <!-- 1955 -->
      <g transform="translate(146.034483 203.431128) rotate(-45) scale(0.1 -0.1)">
       <use xlink:href="#DejaVuSans-31"/>
       <use xlink:href="#DejaVuSans-39" x="63.623047"/>
       <use xlink:href="#DejaVuSans-35" x="127.246094"/>
       <use xlink:href="#DejaVuSans-35" x="190.869141"/>
      </g>
     </g>
    </g>
    <g id="xtick_3">
     <g id="line2d_5">
      <path d="M 192.355167 173.062354 
L 192.355167 40.88 
" clip-path="url(#p9bec87115c)" style="fill: none; stroke: #000000; stroke-width: 0.5; stroke-linecap: square"/>
     </g>
     <g id="line2d_6">
      <g>
       <use xlink:href="#mbf35dfd0c0" x="192.355167" y="173.062354" style="stroke: #000000; stroke-width: 0.8"/>
      </g>
     </g>
     <g id="text_3">
      <!-- 1960 -->
      <g transform="translate(185.308406 203.431128) rotate(-45) scale(0.1 -0.1)">
       <defs>
        <path id="DejaVuSans-36" d="M 2113 2584 
Q 1688 2584 1439 2293 
Q 1191 2003 1191 1497 
Q 1191 994 1439 701 
Q 1688 409 2113 409 
Q 2538 409 2786 701 
Q 3034 994 3034 1497 
Q 3034 2003 2786 2293 
Q 2538 2584 2113 2584 
z
M 3366 4563 
L 3366 3988 
Q 3128 4100 2886 4159 
Q 2644 4219 2406 4219 
Q 1781 4219 1451 3797 
Q 1122 3375 1075 2522 
Q 1259 2794 1537 2939 
Q 1816 3084 2150 3084 
Q 2853 3084 3261 2657 
Q 3669 2231 3669 1497 
Q 3669 778 3244 343 
Q 2819 -91 2113 -91 
Q 1303 -91 875 529 
Q 447 1150 447 2328 
Q 447 3434 972 4092 
Q 1497 4750 2381 4750 
Q 2619 4750 2861 4703 
Q 3103 4656 3366 4563 
z
" transform="scale(0.015625)"/>
       </defs>
       <use xlink:href="#DejaVuSans-31"/>
       <use xlink:href="#DejaVuSans-39" x="63.623047"/>
       <use xlink:href="#DejaVuSans-36" x="127.246094"/>
       <use xlink:href="#DejaVuSans-30" x="190.869141"/>
      </g>
     </g>
    </g>
    <g id="xtick_4">
     <g id="line2d_7">
      <path d="M 231.629091 173.062354 
L 231.629091 40.88 
" clip-path="url(#p9bec87115c)" style="fill: none; stroke: #000000; stroke-width: 0.5; stroke-linecap: square"/>
     </g>
     <g id="line2d_8">
      <g>
       <use xlink:href="#mbf35dfd0c0" x="231.629091" y="173.062354" style="stroke: #000000; stroke-width: 0.8"/>
      </g>
     </g>
     <g id="text_4">
      <!-- 1965 -->
      <g transform="translate(224.58233 203.431128) rotate(-45) scale(0.1 -0.1)">
       <use xlink:href="#DejaVuSans-31"/>
       <use xlink:href="#DejaVuSans-39" x="63.623047"/>
       <use xlink:href="#DejaVuSans-36" x="127.246094"/>
       <use xlink:href="#DejaVuSans-35" x="190.869141"/>
      </g>
     </g>
    </g>
    <g id="xtick_5">
     <g id="line2d_9">
      <path d="M 270.903014 173.062354 
L 270.903014 40.88 
" clip-path="url(#p9bec87115c)" style="fill: none; stroke: #000000; stroke-width: 0.5; stroke-linecap: square"/>
     </g>
     <g id="line2d_10">
      <g>
       <use xlink:href="#mbf35dfd0c0" x="270.903014" y="173.062354" style="stroke: #000000; stroke-width: 0.8"/>
      </g>
     </g>
     <g id="text_5">
      <!-- 1970 -->
      <g transform="translate(263.856253 203.431128) rotate(-45) scale(0.1 -0.1)">
       <defs>
        <path id="DejaVuSans-37" d="M 525 4666 
L 3525 4666 
L 3525 4397 
L 1831 0 
L 1172 0 
L 2766 4134 
L 525 4134 
L 525 4666 
z
" transform="scale(0.015625)"/>
       </defs>
       <use xlink:href="#DejaVuSans-31"/>
       <use xlink:href="#DejaVuSans-39" x="63.623047"/>
       <use xlink:href="#DejaVuSans-37" x="127.246094"/>
       <use xlink:href="#DejaVuSans-30" x="190.869141"/>
      </g>
     </g>
    </g>
    <g id="xtick_6">
     <g id="line2d_11">
      <path d="M 310.176938 173.062354 
L 310.176938 40.88 
" clip-path="url(#p9bec87115c)" style="fill: none; stroke: #000000; stroke-width: 0.5; stroke-linecap: square"/>
     </g>
     <g id="line2d_12">
      <g>
       <use xlink:href="#mbf35dfd0c0" x="310.176938" y="173.062354" style="stroke: #000000; stroke-width: 0.8"/>
      </g>
     </g>
     <g id="text_6">
      <!-- 1975 -->
      <g transform="translate(303.130177 203.431128) rotate(-45) scale(0.1 -0.1)">
       <use xlink:href="#DejaVuSans-31"/>
       <use xlink:href="#DejaVuSans-39" x="63.623047"/>
       <use xlink:href="#DejaVuSans-37" x="127.246094"/>
       <use xlink:href="#DejaVuSans-35" x="190.869141"/>
      </g>
     </g>
    </g>
    <g id="xtick_7">
     <g id="line2d_13">
      <path d="M 349.450861 173.062354 
L 349.450861 40.88 
" clip-path="url(#p9bec87115c)" style="fill: none; stroke: #000000; stroke-width: 0.5; stroke-linecap: square"/>
     </g>
     <g id="line2d_14">
      <g>
       <use xlink:href="#mbf35dfd0c0" x="349.450861" y="173.062354" style="stroke: #000000; stroke-width: 0.8"/>
      </g>
     </g>
     <g id="text_7">
      <!-- 1980 -->
      <g transform="translate(342.4041 203.431128) rotate(-45) scale(0.1 -0.1)">
       <defs>
        <path id="DejaVuSans-38" d="M 2034 2216 
Q 1584 2216 1326 1975 
Q 1069 1734 1069 1313 
Q 1069 891 1326 650 
Q 1584 409 2034 409 
Q 2484 409 2743 651 
Q 3003 894 3003 1313 
Q 3003 1734 2745 1975 
Q 2488 2216 2034 2216 
z
M 1403 2484 
Q 997 2584 770 2862 
Q 544 3141 544 3541 
Q 544 4100 942 4425 
Q 1341 4750 2034 4750 
Q 2731 4750 3128 4425 
Q 3525 4100 3525 3541 
Q 3525 3141 3298 2862 
Q 3072 2584 2669 2484 
Q 3125 2378 3379 2068 
Q 3634 1759 3634 1313 
Q 3634 634 3220 271 
Q 2806 -91 2034 -91 
Q 1263 -91 848 271 
Q 434 634 434 1313 
Q 434 1759 690 2068 
Q 947 2378 1403 2484 
z
M 1172 3481 
Q 1172 3119 1398 2916 
Q 1625 2713 2034 2713 
Q 2441 2713 2670 2916 
Q 2900 3119 2900 3481 
Q 2900 3844 2670 4047 
Q 2441 4250 2034 4250 
Q 1625 4250 1398 4047 
Q 1172 3844 1172 3481 
z
" transform="scale(0.015625)"/>
       </defs>
       <use xlink:href="#DejaVuSans-31"/>
       <use xlink:href="#DejaVuSans-39" x="63.623047"/>
       <use xlink:href="#DejaVuSans-38" x="127.246094"/>
       <use xlink:href="#DejaVuSans-30" x="190.869141"/>
      </g>
     </g>
    </g>
    <g id="xtick_8">
     <g id="line2d_15">
      <path d="M 388.724785 173.062354 
L 388.724785 40.88 
" clip-path="url(#p9bec87115c)" style="fill: none; stroke: #000000; stroke-width: 0.5; stroke-linecap: square"/>
     </g>
     <g id="line2d_16">
      <g>
       <use xlink:href="#mbf35dfd0c0" x="388.724785" y="173.062354" style="stroke: #000000; stroke-width: 0.8"/>
      </g>
     </g>
     <g id="text_8">
      <!-- 1985 -->
      <g transform="translate(381.678024 203.431128) rotate(-45) scale(0.1 -0.1)">
       <use xlink:href="#DejaVuSans-31"/>
       <use xlink:href="#DejaVuSans-39" x="63.623047"/>
       <use xlink:href="#DejaVuSans-38" x="127.246094"/>
       <use xlink:href="#DejaVuSans-35" x="190.869141"/>
      </g>
     </g>
    </g>
    <g id="xtick_9">
     <g id="line2d_17">
      <path d="M 427.998708 173.062354 
L 427.998708 40.88 
" clip-path="url(#p9bec87115c)" style="fill: none; stroke: #000000; stroke-width: 0.5; stroke-linecap: square"/>
     </g>
     <g id="line2d_18">
      <g>
       <use xlink:href="#mbf35dfd0c0" x="427.998708" y="173.062354" style="stroke: #000000; stroke-width: 0.8"/>
      </g>
     </g>
     <g id="text_9">
      <!-- 1990 -->
      <g transform="translate(420.951947 203.431128) rotate(-45) scale(0.1 -0.1)">
       <use xlink:href="#DejaVuSans-31"/>
       <use xlink:href="#DejaVuSans-39" x="63.623047"/>
       <use xlink:href="#DejaVuSans-39" x="127.246094"/>
       <use xlink:href="#DejaVuSans-30" x="190.869141"/>
      </g>
     </g>
    </g>
    <g id="xtick_10">
     <g id="line2d_19">
      <path d="M 467.272632 173.062354 
L 467.272632 40.88 
" clip-path="url(#p9bec87115c)" style="fill: none; stroke: #000000; stroke-width: 0.5; stroke-linecap: square"/>
     </g>
     <g id="line2d_20">
      <g>
       <use xlink:href="#mbf35dfd0c0" x="467.272632" y="173.062354" style="stroke: #000000; stroke-width: 0.8"/>
      </g>
     </g>
     <g id="text_10">
      <!-- 1995 -->
      <g transform="translate(460.225871 203.431128) rotate(-45) scale(0.1 -0.1)">
       <use xlink:href="#DejaVuSans-31"/>
       <use xlink:href="#DejaVuSans-39" x="63.623047"/>
       <use xlink:href="#DejaVuSans-39" x="127.246094"/>
       <use xlink:href="#DejaVuSans-35" x="190.869141"/>
      </g>
     </g>
    </g>
    <g id="xtick_11">
     <g id="line2d_21">
      <path d="M 506.546555 173.062354 
L 506.546555 40.88 
" clip-path="url(#p9bec87115c)" style="fill: none; stroke: #000000; stroke-width: 0.5; stroke-linecap: square"/>
     </g>
     <g id="line2d_22">
      <g>
       <use xlink:href="#mbf35dfd0c0" x="506.546555" y="173.062354" style="stroke: #000000; stroke-width: 0.8"/>
      </g>
     </g>
     <g id="text_11">
      <!-- 2000 -->
      <g transform="translate(499.499794 203.431128) rotate(-45) scale(0.1 -0.1)">
       <defs>
        <path id="DejaVuSans-32" d="M 1228 531 
L 3431 531 
L 3431 0 
L 469 0 
L 469 531 
Q 828 903 1448 1529 
Q 2069 2156 2228 2338 
Q 2531 2678 2651 2914 
Q 2772 3150 2772 3378 
Q 2772 3750 2511 3984 
Q 2250 4219 1831 4219 
Q 1534 4219 1204 4116 
Q 875 4013 500 3803 
L 500 4441 
Q 881 4594 1212 4672 
Q 1544 4750 1819 4750 
Q 2544 4750 2975 4387 
Q 3406 4025 3406 3419 
Q 3406 3131 3298 2873 
Q 3191 2616 2906 2266 
Q 2828 2175 2409 1742 
Q 1991 1309 1228 531 
z
" transform="scale(0.015625)"/>
       </defs>
       <use xlink:href="#DejaVuSans-32"/>
       <use xlink:href="#DejaVuSans-30" x="63.623047"/>
       <use xlink:href="#DejaVuSans-30" x="127.246094"/>
       <use xlink:href="#DejaVuSans-30" x="190.869141"/>
      </g>
     </g>
    </g>
    <g id="xtick_12">
     <g id="line2d_23">
      <path d="M 545.820478 173.062354 
L 545.820478 40.88 
" clip-path="url(#p9bec87115c)" style="fill: none; stroke: #000000; stroke-width: 0.5; stroke-linecap: square"/>
     </g>
     <g id="line2d_24">
      <g>
       <use xlink:href="#mbf35dfd0c0" x="545.820478" y="173.062354" style="stroke: #000000; stroke-width: 0.8"/>
      </g>
     </g>
     <g id="text_12">
      <!-- 2005 -->
      <g transform="translate(538.773717 203.431128) rotate(-45) scale(0.1 -0.1)">
       <use xlink:href="#DejaVuSans-32"/>
       <use xlink:href="#DejaVuSans-30" x="63.623047"/>
       <use xlink:href="#DejaVuSans-30" x="127.246094"/>
       <use xlink:href="#DejaVuSans-35" x="190.869141"/>
      </g>
     </g>
    </g>
    <g id="xtick_13">
     <g id="line2d_25">
      <path d="M 585.094402 173.062354 
L 585.094402 40.88 
" clip-path="url(#p9bec87115c)" style="fill: none; stroke: #000000; stroke-width: 0.5; stroke-linecap: square"/>
     </g>
     <g id="line2d_26">
      <g>
       <use xlink:href="#mbf35dfd0c0" x="585.094402" y="173.062354" style="stroke: #000000; stroke-width: 0.8"/>
      </g>
     </g>
     <g id="text_13">
      <!-- 2010 -->
      <g transform="translate(578.047641 203.431128) rotate(-45) scale(0.1 -0.1)">
       <use xlink:href="#DejaVuSans-32"/>
       <use xlink:href="#DejaVuSans-30" x="63.623047"/>
       <use xlink:href="#DejaVuSans-31" x="127.246094"/>
       <use xlink:href="#DejaVuSans-30" x="190.869141"/>
      </g>
     </g>
    </g>
    <g id="xtick_14">
     <g id="line2d_27">
      <path d="M 624.368325 173.062354 
L 624.368325 40.88 
" clip-path="url(#p9bec87115c)" style="fill: none; stroke: #000000; stroke-width: 0.5; stroke-linecap: square"/>
     </g>
     <g id="line2d_28">
      <g>
       <use xlink:href="#mbf35dfd0c0" x="624.368325" y="173.062354" style="stroke: #000000; stroke-width: 0.8"/>
      </g>
     </g>
     <g id="text_14">
      <!-- 2015 -->
      <g transform="translate(617.321564 203.431128) rotate(-45) scale(0.1 -0.1)">
       <use xlink:href="#DejaVuSans-32"/>
       <use xlink:href="#DejaVuSans-30" x="63.623047"/>
       <use xlink:href="#DejaVuSans-31" x="127.246094"/>
       <use xlink:href="#DejaVuSans-35" x="190.869141"/>
      </g>
     </g>
    </g>
    <g id="xtick_15">
     <g id="line2d_29">
      <path d="M 663.642249 173.062354 
L 663.642249 40.88 
" clip-path="url(#p9bec87115c)" style="fill: none; stroke: #000000; stroke-width: 0.5; stroke-linecap: square"/>
     </g>
     <g id="line2d_30">
      <g>
       <use xlink:href="#mbf35dfd0c0" x="663.642249" y="173.062354" style="stroke: #000000; stroke-width: 0.8"/>
      </g>
     </g>
     <g id="text_15">
      <!-- 2020 -->
      <g transform="translate(656.595488 203.431128) rotate(-45) scale(0.1 -0.1)">
       <use xlink:href="#DejaVuSans-32"/>
       <use xlink:href="#DejaVuSans-30" x="63.623047"/>
       <use xlink:href="#DejaVuSans-32" x="127.246094"/>
       <use xlink:href="#DejaVuSans-30" x="190.869141"/>
      </g>
     </g>
    </g>
   </g>
   <g id="matplotlib.axis_2">
    <g id="ytick_1">
     <g id="line2d_31">
      <path d="M 52.54 135.1289 
L 709.2 135.1289 
" clip-path="url(#p9bec87115c)" style="fill: none; stroke: #000000; stroke-width: 0.5; stroke-linecap: square"/>
     </g>
     <g id="line2d_32">
      <defs>
       <path id="m7ad86ef034" d="M 0 0 
L -3.5 0 
" style="stroke: #000000; stroke-width: 0.8"/>
      </defs>
      <g>
       <use xlink:href="#m7ad86ef034" x="52.54" y="135.1289" style="stroke: #000000; stroke-width: 0.8"/>
      </g>
     </g>
     <g id="text_16">
      <!-- 0.010 -->
      <g transform="translate(16.911875 138.928118) scale(0.1 -0.1)">
       <defs>
        <path id="DejaVuSans-2e" d="M 684 794 
L 1344 794 
L 1344 0 
L 684 0 
L 684 794 
z
" transform="scale(0.015625)"/>
       </defs>
       <use xlink:href="#DejaVuSans-30"/>
       <use xlink:href="#DejaVuSans-2e" x="63.623047"/>
       <use xlink:href="#DejaVuSans-30" x="95.410156"/>
       <use xlink:href="#DejaVuSans-31" x="159.033203"/>
       <use xlink:href="#DejaVuSans-30" x="222.65625"/>
      </g>
     </g>
    </g>
    <g id="ytick_2">
     <g id="line2d_33">
      <path d="M 52.54 93.959274 
L 709.2 93.959274 
" clip-path="url(#p9bec87115c)" style="fill: none; stroke: #000000; stroke-width: 0.5; stroke-linecap: square"/>
     </g>
     <g id="line2d_34">
      <g>
       <use xlink:href="#m7ad86ef034" x="52.54" y="93.959274" style="stroke: #000000; stroke-width: 0.8"/>
      </g>
     </g>
     <g id="text_17">
      <!-- 0.015 -->
      <g transform="translate(16.911875 97.758493) scale(0.1 -0.1)">
       <use xlink:href="#DejaVuSans-30"/>
       <use xlink:href="#DejaVuSans-2e" x="63.623047"/>
       <use xlink:href="#DejaVuSans-30" x="95.410156"/>
       <use xlink:href="#DejaVuSans-31" x="159.033203"/>
       <use xlink:href="#DejaVuSans-35" x="222.65625"/>
      </g>
     </g>
    </g>
    <g id="ytick_3">
     <g id="line2d_35">
      <path d="M 52.54 52.789648 
L 709.2 52.789648 
" clip-path="url(#p9bec87115c)" style="fill: none; stroke: #000000; stroke-width: 0.5; stroke-linecap: square"/>
     </g>
     <g id="line2d_36">
      <g>
       <use xlink:href="#m7ad86ef034" x="52.54" y="52.789648" style="stroke: #000000; stroke-width: 0.8"/>
      </g>
     </g>
     <g id="text_18">
      <!-- 0.020 -->
      <g transform="translate(16.911875 56.588867) scale(0.1 -0.1)">
       <use xlink:href="#DejaVuSans-30"/>
       <use xlink:href="#DejaVuSans-2e" x="63.623047"/>
       <use xlink:href="#DejaVuSans-30" x="95.410156"/>
       <use xlink:href="#DejaVuSans-32" x="159.033203"/>
       <use xlink:href="#DejaVuSans-30" x="222.65625"/>
      </g>
     </g>
    </g>
   </g>
   <g id="line2d_37">
    <path d="M 82.388182 167.054065 
L 90.242967 162.716834 
L 98.097751 157.324691 
L 105.952536 148.858929 
L 113.807321 155.017444 
L 121.662105 151.788493 
L 129.51689 148.568887 
L 137.371675 155.251899 
L 145.226459 159.767526 
L 153.081244 155.75004 
L 160.936029 147.516694 
L 168.790813 156.743808 
L 176.645598 148.655734 
L 184.500383 149.385454 
L 192.355167 152.150787 
L 200.209952 152.176984 
L 208.064737 151.007004 
L 215.919522 148.275071 
L 223.774306 155.760289 
L 231.629091 149.891308 
L 239.483876 154.196436 
L 247.33866 146.812633 
L 255.193445 142.735131 
L 263.04823 141.353508 
L 270.903014 140.914317 
L 278.757799 141.449948 
L 286.612584 148.617889 
L 294.467368 147.362722 
L 302.322153 156.618906 
L 310.176938 152.867616 
L 318.031722 154.76283 
L 325.886507 153.530721 
L 333.741292 144.93761 
L 341.596077 159.559223 
L 349.450861 153.014923 
L 357.305646 147.633457 
L 365.160431 159.072587 
L 373.015215 155.975105 
L 380.87 151.36485 
L 388.724785 152.704009 
L 396.579569 158.156643 
L 404.434354 149.626441 
L 412.289139 147.814739 
L 420.143923 147.855141 
L 427.998708 156.829188 
L 435.853493 152.555395 
L 443.708278 151.256909 
L 451.563062 130.748102 
L 459.417847 147.816476 
L 467.272632 146.012771 
L 475.127416 144.039776 
L 482.982201 145.280677 
L 490.836986 145.183653 
L 498.69177 140.386312 
L 506.546555 144.856991 
L 514.40134 131.948679 
L 522.256124 131.508648 
L 530.110909 144.131832 
L 537.965694 132.951384 
L 545.820478 136.349466 
L 553.675263 114.884693 
L 561.530048 138.857527 
L 569.384833 107.465551 
L 577.239617 106.269224 
L 585.094402 102.041667 
L 592.949187 109.366843 
L 600.803971 140.177827 
L 608.658756 119.173533 
L 616.513541 121.812836 
L 624.368325 46.888289 
L 632.22311 121.040444 
L 640.077895 126.572367 
L 647.932679 127.32591 
L 655.787464 117.153341 
L 663.642249 116.873598 
L 671.497033 105.210635 
L 679.351818 118.02564 
" clip-path="url(#p9bec87115c)" style="fill: none; stroke: #1f77b4; stroke-width: 1.5; stroke-linecap: square"/>
    <defs>
     <path id="maa1a236b09" d="M 0 3 
C 0.795609 3 1.55874 2.683901 2.12132 2.12132 
C 2.683901 1.55874 3 0.795609 3 0 
C 3 -0.795609 2.683901 -1.55874 2.12132 -2.12132 
C 1.55874 -2.683901 0.795609 -3 0 -3 
C -0.795609 -3 -1.55874 -2.683901 -2.12132 -2.12132 
C -2.683901 -1.55874 -3 -0.795609 -3 0 
C -3 0.795609 -2.683901 1.55874 -2.12132 2.12132 
C -1.55874 2.683901 -0.795609 3 0 3 
z
" style="stroke: #1f77b4"/>
    </defs>
    <g clip-path="url(#p9bec87115c)">
     <use xlink:href="#maa1a236b09" x="82.388182" y="167.054065" style="fill: #1f77b4; stroke: #1f77b4"/>
     <use xlink:href="#maa1a236b09" x="90.242967" y="162.716834" style="fill: #1f77b4; stroke: #1f77b4"/>
     <use xlink:href="#maa1a236b09" x="98.097751" y="157.324691" style="fill: #1f77b4; stroke: #1f77b4"/>
     <use xlink:href="#maa1a236b09" x="105.952536" y="148.858929" style="fill: #1f77b4; stroke: #1f77b4"/>
     <use xlink:href="#maa1a236b09" x="113.807321" y="155.017444" style="fill: #1f77b4; stroke: #1f77b4"/>
     <use xlink:href="#maa1a236b09" x="121.662105" y="151.788493" style="fill: #1f77b4; stroke: #1f77b4"/>
     <use xlink:href="#maa1a236b09" x="129.51689" y="148.568887" style="fill: #1f77b4; stroke: #1f77b4"/>
     <use xlink:href="#maa1a236b09" x="137.371675" y="155.251899" style="fill: #1f77b4; stroke: #1f77b4"/>
     <use xlink:href="#maa1a236b09" x="145.226459" y="159.767526" style="fill: #1f77b4; stroke: #1f77b4"/>
     <use xlink:href="#maa1a236b09" x="153.081244" y="155.75004" style="fill: #1f77b4; stroke: #1f77b4"/>
     <use xlink:href="#maa1a236b09" x="160.936029" y="147.516694" style="fill: #1f77b4; stroke: #1f77b4"/>
     <use xlink:href="#maa1a236b09" x="168.790813" y="156.743808" style="fill: #1f77b4; stroke: #1f77b4"/>
     <use xlink:href="#maa1a236b09" x="176.645598" y="148.655734" style="fill: #1f77b4; stroke: #1f77b4"/>
     <use xlink:href="#maa1a236b09" x="184.500383" y="149.385454" style="fill: #1f77b4; stroke: #1f77b4"/>
     <use xlink:href="#maa1a236b09" x="192.355167" y="152.150787" style="fill: #1f77b4; stroke: #1f77b4"/>
     <use xlink:href="#maa1a236b09" x="200.209952" y="152.176984" style="fill: #1f77b4; stroke: #1f77b4"/>
     <use xlink:href="#maa1a236b09" x="208.064737" y="151.007004" style="fill: #1f77b4; stroke: #1f77b4"/>
     <use xlink:href="#maa1a236b09" x="215.919522" y="148.275071" style="fill: #1f77b4; stroke: #1f77b4"/>
     <use xlink:href="#maa1a236b09" x="223.774306" y="155.760289" style="fill: #1f77b4; stroke: #1f77b4"/>
     <use xlink:href="#maa1a236b09" x="231.629091" y="149.891308" style="fill: #1f77b4; stroke: #1f77b4"/>
     <use xlink:href="#maa1a236b09" x="239.483876" y="154.196436" style="fill: #1f77b4; stroke: #1f77b4"/>
     <use xlink:href="#maa1a236b09" x="247.33866" y="146.812633" style="fill: #1f77b4; stroke: #1f77b4"/>
     <use xlink:href="#maa1a236b09" x="255.193445" y="142.735131" style="fill: #1f77b4; stroke: #1f77b4"/>
     <use xlink:href="#maa1a236b09" x="263.04823" y="141.353508" style="fill: #1f77b4; stroke: #1f77b4"/>
     <use xlink:href="#maa1a236b09" x="270.903014" y="140.914317" style="fill: #1f77b4; stroke: #1f77b4"/>
     <use xlink:href="#maa1a236b09" x="278.757799" y="141.449948" style="fill: #1f77b4; stroke: #1f77b4"/>
     <use xlink:href="#maa1a236b09" x="286.612584" y="148.617889" style="fill: #1f77b4; stroke: #1f77b4"/>
     <use xlink:href="#maa1a236b09" x="294.467368" y="147.362722" style="fill: #1f77b4; stroke: #1f77b4"/>
     <use xlink:href="#maa1a236b09" x="302.322153" y="156.618906" style="fill: #1f77b4; stroke: #1f77b4"/>
     <use xlink:href="#maa1a236b09" x="310.176938" y="152.867616" style="fill: #1f77b4; stroke: #1f77b4"/>
     <use xlink:href="#maa1a236b09" x="318.031722" y="154.76283" style="fill: #1f77b4; stroke: #1f77b4"/>
     <use xlink:href="#maa1a236b09" x="325.886507" y="153.530721" style="fill: #1f77b4; stroke: #1f77b4"/>
     <use xlink:href="#maa1a236b09" x="333.741292" y="144.93761" style="fill: #1f77b4; stroke: #1f77b4"/>
     <use xlink:href="#maa1a236b09" x="341.596077" y="159.559223" style="fill: #1f77b4; stroke: #1f77b4"/>
     <use xlink:href="#maa1a236b09" x="349.450861" y="153.014923" style="fill: #1f77b4; stroke: #1f77b4"/>
     <use xlink:href="#maa1a236b09" x="357.305646" y="147.633457" style="fill: #1f77b4; stroke: #1f77b4"/>
     <use xlink:href="#maa1a236b09" x="365.160431" y="159.072587" style="fill: #1f77b4; stroke: #1f77b4"/>
     <use xlink:href="#maa1a236b09" x="373.015215" y="155.975105" style="fill: #1f77b4; stroke: #1f77b4"/>
     <use xlink:href="#maa1a236b09" x="380.87" y="151.36485" style="fill: #1f77b4; stroke: #1f77b4"/>
     <use xlink:href="#maa1a236b09" x="388.724785" y="152.704009" style="fill: #1f77b4; stroke: #1f77b4"/>
     <use xlink:href="#maa1a236b09" x="396.579569" y="158.156643" style="fill: #1f77b4; stroke: #1f77b4"/>
     <use xlink:href="#maa1a236b09" x="404.434354" y="149.626441" style="fill: #1f77b4; stroke: #1f77b4"/>
     <use xlink:href="#maa1a236b09" x="412.289139" y="147.814739" style="fill: #1f77b4; stroke: #1f77b4"/>
     <use xlink:href="#maa1a236b09" x="420.143923" y="147.855141" style="fill: #1f77b4; stroke: #1f77b4"/>
     <use xlink:href="#maa1a236b09" x="427.998708" y="156.829188" style="fill: #1f77b4; stroke: #1f77b4"/>
     <use xlink:href="#maa1a236b09" x="435.853493" y="152.555395" style="fill: #1f77b4; stroke: #1f77b4"/>
     <use xlink:href="#maa1a236b09" x="443.708278" y="151.256909" style="fill: #1f77b4; stroke: #1f77b4"/>
     <use xlink:href="#maa1a236b09" x="451.563062" y="130.748102" style="fill: #1f77b4; stroke: #1f77b4"/>
     <use xlink:href="#maa1a236b09" x="459.417847" y="147.816476" style="fill: #1f77b4; stroke: #1f77b4"/>
     <use xlink:href="#maa1a236b09" x="467.272632" y="146.012771" style="fill: #1f77b4; stroke: #1f77b4"/>
     <use xlink:href="#maa1a236b09" x="475.127416" y="144.039776" style="fill: #1f77b4; stroke: #1f77b4"/>
     <use xlink:href="#maa1a236b09" x="482.982201" y="145.280677" style="fill: #1f77b4; stroke: #1f77b4"/>
     <use xlink:href="#maa1a236b09" x="490.836986" y="145.183653" style="fill: #1f77b4; stroke: #1f77b4"/>
     <use xlink:href="#maa1a236b09" x="498.69177" y="140.386312" style="fill: #1f77b4; stroke: #1f77b4"/>
     <use xlink:href="#maa1a236b09" x="506.546555" y="144.856991" style="fill: #1f77b4; stroke: #1f77b4"/>
     <use xlink:href="#maa1a236b09" x="514.40134" y="131.948679" style="fill: #1f77b4; stroke: #1f77b4"/>
     <use xlink:href="#maa1a236b09" x="522.256124" y="131.508648" style="fill: #1f77b4; stroke: #1f77b4"/>
     <use xlink:href="#maa1a236b09" x="530.110909" y="144.131832" style="fill: #1f77b4; stroke: #1f77b4"/>
     <use xlink:href="#maa1a236b09" x="537.965694" y="132.951384" style="fill: #1f77b4; stroke: #1f77b4"/>
     <use xlink:href="#maa1a236b09" x="545.820478" y="136.349466" style="fill: #1f77b4; stroke: #1f77b4"/>
     <use xlink:href="#maa1a236b09" x="553.675263" y="114.884693" style="fill: #1f77b4; stroke: #1f77b4"/>
     <use xlink:href="#maa1a236b09" x="561.530048" y="138.857527" style="fill: #1f77b4; stroke: #1f77b4"/>
     <use xlink:href="#maa1a236b09" x="569.384833" y="107.465551" style="fill: #1f77b4; stroke: #1f77b4"/>
     <use xlink:href="#maa1a236b09" x="577.239617" y="106.269224" style="fill: #1f77b4; stroke: #1f77b4"/>
     <use xlink:href="#maa1a236b09" x="585.094402" y="102.041667" style="fill: #1f77b4; stroke: #1f77b4"/>
     <use xlink:href="#maa1a236b09" x="592.949187" y="109.366843" style="fill: #1f77b4; stroke: #1f77b4"/>
     <use xlink:href="#maa1a236b09" x="600.803971" y="140.177827" style="fill: #1f77b4; stroke: #1f77b4"/>
     <use xlink:href="#maa1a236b09" x="608.658756" y="119.173533" style="fill: #1f77b4; stroke: #1f77b4"/>
     <use xlink:href="#maa1a236b09" x="616.513541" y="121.812836" style="fill: #1f77b4; stroke: #1f77b4"/>
     <use xlink:href="#maa1a236b09" x="624.368325" y="46.888289" style="fill: #1f77b4; stroke: #1f77b4"/>
     <use xlink:href="#maa1a236b09" x="632.22311" y="121.040444" style="fill: #1f77b4; stroke: #1f77b4"/>
     <use xlink:href="#maa1a236b09" x="640.077895" y="126.572367" style="fill: #1f77b4; stroke: #1f77b4"/>
     <use xlink:href="#maa1a236b09" x="647.932679" y="127.32591" style="fill: #1f77b4; stroke: #1f77b4"/>
     <use xlink:href="#maa1a236b09" x="655.787464" y="117.153341" style="fill: #1f77b4; stroke: #1f77b4"/>
     <use xlink:href="#maa1a236b09" x="663.642249" y="116.873598" style="fill: #1f77b4; stroke: #1f77b4"/>
     <use xlink:href="#maa1a236b09" x="671.497033" y="105.210635" style="fill: #1f77b4; stroke: #1f77b4"/>
     <use xlink:href="#maa1a236b09" x="679.351818" y="118.02564" style="fill: #1f77b4; stroke: #1f77b4"/>
    </g>
   </g>
   <g id="line2d_38">
    <path d="M 82.388182 160.104621 
L 93.155061 159.240817 
L 106.31458 157.928678 
L 125.455699 155.760741 
L 152.971057 152.661989 
L 168.523216 151.142978 
L 181.682735 150.066222 
L 194.842254 149.212748 
L 208.001773 148.598985 
L 221.161292 148.229312 
L 234.320811 148.097181 
L 247.48033 148.186411 
L 261.836169 148.507194 
L 278.584647 149.120933 
L 300.118406 150.162791 
L 344.382243 152.376689 
L 359.934402 152.901758 
L 373.093921 153.143993 
L 385.05712 153.162677 
L 397.020319 152.957178 
L 407.787198 152.557576 
L 418.554077 151.936712 
L 429.320956 151.080619 
L 440.087836 149.97902 
L 449.658395 148.788729 
L 459.228954 147.398295 
L 469.995833 145.597208 
L 480.762713 143.55286 
L 491.529592 141.278722 
L 503.492791 138.506409 
L 516.65231 135.201514 
L 532.204469 131.037359 
L 576.468306 118.981095 
L 587.235185 116.385266 
L 595.609424 114.574 
L 603.983664 112.997545 
L 611.161583 111.873029 
L 618.339503 110.99533 
L 624.321102 110.47967 
L 630.302702 110.184757 
L 636.284301 110.13497 
L 641.069581 110.288622 
L 645.854861 110.629009 
L 650.64014 111.170255 
L 655.42542 111.926831 
L 660.2107 112.913955 
L 664.995979 114.147201 
L 669.781259 115.642704 
L 674.566539 117.417224 
L 679.351818 119.487917 
L 679.351818 119.487917 
" clip-path="url(#p9bec87115c)" style="fill: none; stroke: #ff0000; stroke-width: 1.5; stroke-linecap: square"/>
   </g>
   <g id="patch_3">
    <path d="M 52.54 173.062354 
L 52.54 40.88 
" style="fill: none; stroke: #000000; stroke-width: 0.8; stroke-linejoin: miter; stroke-linecap: square"/>
   </g>
   <g id="patch_4">
    <path d="M 709.2 173.062354 
L 709.2 40.88 
" style="fill: none; stroke: #000000; stroke-width: 0.8; stroke-linejoin: miter; stroke-linecap: square"/>
   </g>
   <g id="patch_5">
    <path d="M 52.54 173.062354 
L 709.2 173.062354 
" style="fill: none; stroke: #000000; stroke-width: 0.8; stroke-linejoin: miter; stroke-linecap: square"/>
   </g>
   <g id="patch_6">
    <path d="M 52.54 40.88 
L 709.2 40.88 
" style="fill: none; stroke: #000000; stroke-width: 0.8; stroke-linejoin: miter; stroke-linecap: square"/>
   </g>
   <g id="text_19">
    <!-- T3 - Number Rate from 1946 to 2022 -->
    <g transform="translate(269.494063 20.88) scale(0.12 -0.12)">
     <defs>
      <path id="DejaVuSans-54" d="M -19 4666 
L 3928 4666 
L 3928 4134 
L 2272 4134 
L 2272 0 
L 1638 0 
L 1638 4134 
L -19 4134 
L -19 4666 
z
" transform="scale(0.015625)"/>
      <path id="DejaVuSans-33" d="M 2597 2516 
Q 3050 2419 3304 2112 
Q 3559 1806 3559 1356 
Q 3559 666 3084 287 
Q 2609 -91 1734 -91 
Q 1441 -91 1130 -33 
Q 819 25 488 141 
L 488 750 
Q 750 597 1062 519 
Q 1375 441 1716 441 
Q 2309 441 2620 675 
Q 2931 909 2931 1356 
Q 2931 1769 2642 2001 
Q 2353 2234 1838 2234 
L 1294 2234 
L 1294 2753 
L 1863 2753 
Q 2328 2753 2575 2939 
Q 2822 3125 2822 3475 
Q 2822 3834 2567 4026 
Q 2313 4219 1838 4219 
Q 1578 4219 1281 4162 
Q 984 4106 628 3988 
L 628 4550 
Q 988 4650 1302 4700 
Q 1616 4750 1894 4750 
Q 2613 4750 3031 4423 
Q 3450 4097 3450 3541 
Q 3450 3153 3228 2886 
Q 3006 2619 2597 2516 
z
" transform="scale(0.015625)"/>
      <path id="DejaVuSans-20" transform="scale(0.015625)"/>
      <path id="DejaVuSans-2d" d="M 313 2009 
L 1997 2009 
L 1997 1497 
L 313 1497 
L 313 2009 
z
" transform="scale(0.015625)"/>
      <path id="DejaVuSans-4e" d="M 628 4666 
L 1478 4666 
L 3547 763 
L 3547 4666 
L 4159 4666 
L 4159 0 
L 3309 0 
L 1241 3903 
L 1241 0 
L 628 0 
L 628 4666 
z
" transform="scale(0.015625)"/>
      <path id="DejaVuSans-75" d="M 544 1381 
L 544 3500 
L 1119 3500 
L 1119 1403 
Q 1119 906 1312 657 
Q 1506 409 1894 409 
Q 2359 409 2629 706 
Q 2900 1003 2900 1516 
L 2900 3500 
L 3475 3500 
L 3475 0 
L 2900 0 
L 2900 538 
Q 2691 219 2414 64 
Q 2138 -91 1772 -91 
Q 1169 -91 856 284 
Q 544 659 544 1381 
z
M 1991 3584 
L 1991 3584 
z
" transform="scale(0.015625)"/>
      <path id="DejaVuSans-6d" d="M 3328 2828 
Q 3544 3216 3844 3400 
Q 4144 3584 4550 3584 
Q 5097 3584 5394 3201 
Q 5691 2819 5691 2113 
L 5691 0 
L 5113 0 
L 5113 2094 
Q 5113 2597 4934 2840 
Q 4756 3084 4391 3084 
Q 3944 3084 3684 2787 
Q 3425 2491 3425 1978 
L 3425 0 
L 2847 0 
L 2847 2094 
Q 2847 2600 2669 2842 
Q 2491 3084 2119 3084 
Q 1678 3084 1418 2786 
Q 1159 2488 1159 1978 
L 1159 0 
L 581 0 
L 581 3500 
L 1159 3500 
L 1159 2956 
Q 1356 3278 1631 3431 
Q 1906 3584 2284 3584 
Q 2666 3584 2933 3390 
Q 3200 3197 3328 2828 
z
" transform="scale(0.015625)"/>
      <path id="DejaVuSans-62" d="M 3116 1747 
Q 3116 2381 2855 2742 
Q 2594 3103 2138 3103 
Q 1681 3103 1420 2742 
Q 1159 2381 1159 1747 
Q 1159 1113 1420 752 
Q 1681 391 2138 391 
Q 2594 391 2855 752 
Q 3116 1113 3116 1747 
z
M 1159 2969 
Q 1341 3281 1617 3432 
Q 1894 3584 2278 3584 
Q 2916 3584 3314 3078 
Q 3713 2572 3713 1747 
Q 3713 922 3314 415 
Q 2916 -91 2278 -91 
Q 1894 -91 1617 61 
Q 1341 213 1159 525 
L 1159 0 
L 581 0 
L 581 4863 
L 1159 4863 
L 1159 2969 
z
" transform="scale(0.015625)"/>
      <path id="DejaVuSans-65" d="M 3597 1894 
L 3597 1613 
L 953 1613 
Q 991 1019 1311 708 
Q 1631 397 2203 397 
Q 2534 397 2845 478 
Q 3156 559 3463 722 
L 3463 178 
Q 3153 47 2828 -22 
Q 2503 -91 2169 -91 
Q 1331 -91 842 396 
Q 353 884 353 1716 
Q 353 2575 817 3079 
Q 1281 3584 2069 3584 
Q 2775 3584 3186 3129 
Q 3597 2675 3597 1894 
z
M 3022 2063 
Q 3016 2534 2758 2815 
Q 2500 3097 2075 3097 
Q 1594 3097 1305 2825 
Q 1016 2553 972 2059 
L 3022 2063 
z
" transform="scale(0.015625)"/>
      <path id="DejaVuSans-72" d="M 2631 2963 
Q 2534 3019 2420 3045 
Q 2306 3072 2169 3072 
Q 1681 3072 1420 2755 
Q 1159 2438 1159 1844 
L 1159 0 
L 581 0 
L 581 3500 
L 1159 3500 
L 1159 2956 
Q 1341 3275 1631 3429 
Q 1922 3584 2338 3584 
Q 2397 3584 2469 3576 
Q 2541 3569 2628 3553 
L 2631 2963 
z
" transform="scale(0.015625)"/>
      <path id="DejaVuSans-52" d="M 2841 2188 
Q 3044 2119 3236 1894 
Q 3428 1669 3622 1275 
L 4263 0 
L 3584 0 
L 2988 1197 
Q 2756 1666 2539 1819 
Q 2322 1972 1947 1972 
L 1259 1972 
L 1259 0 
L 628 0 
L 628 4666 
L 2053 4666 
Q 2853 4666 3247 4331 
Q 3641 3997 3641 3322 
Q 3641 2881 3436 2590 
Q 3231 2300 2841 2188 
z
M 1259 4147 
L 1259 2491 
L 2053 2491 
Q 2509 2491 2742 2702 
Q 2975 2913 2975 3322 
Q 2975 3731 2742 3939 
Q 2509 4147 2053 4147 
L 1259 4147 
z
" transform="scale(0.015625)"/>
      <path id="DejaVuSans-61" d="M 2194 1759 
Q 1497 1759 1228 1600 
Q 959 1441 959 1056 
Q 959 750 1161 570 
Q 1363 391 1709 391 
Q 2188 391 2477 730 
Q 2766 1069 2766 1631 
L 2766 1759 
L 2194 1759 
z
M 3341 1997 
L 3341 0 
L 2766 0 
L 2766 531 
Q 2569 213 2275 61 
Q 1981 -91 1556 -91 
Q 1019 -91 701 211 
Q 384 513 384 1019 
Q 384 1609 779 1909 
Q 1175 2209 1959 2209 
L 2766 2209 
L 2766 2266 
Q 2766 2663 2505 2880 
Q 2244 3097 1772 3097 
Q 1472 3097 1187 3025 
Q 903 2953 641 2809 
L 641 3341 
Q 956 3463 1253 3523 
Q 1550 3584 1831 3584 
Q 2591 3584 2966 3190 
Q 3341 2797 3341 1997 
z
" transform="scale(0.015625)"/>
      <path id="DejaVuSans-74" d="M 1172 4494 
L 1172 3500 
L 2356 3500 
L 2356 3053 
L 1172 3053 
L 1172 1153 
Q 1172 725 1289 603 
Q 1406 481 1766 481 
L 2356 481 
L 2356 0 
L 1766 0 
Q 1100 0 847 248 
Q 594 497 594 1153 
L 594 3053 
L 172 3053 
L 172 3500 
L 594 3500 
L 594 4494 
L 1172 4494 
z
" transform="scale(0.015625)"/>
      <path id="DejaVuSans-66" d="M 2375 4863 
L 2375 4384 
L 1825 4384 
Q 1516 4384 1395 4259 
Q 1275 4134 1275 3809 
L 1275 3500 
L 2222 3500 
L 2222 3053 
L 1275 3053 
L 1275 0 
L 697 0 
L 697 3053 
L 147 3053 
L 147 3500 
L 697 3500 
L 697 3744 
Q 697 4328 969 4595 
Q 1241 4863 1831 4863 
L 2375 4863 
z
" transform="scale(0.015625)"/>
      <path id="DejaVuSans-6f" d="M 1959 3097 
Q 1497 3097 1228 2736 
Q 959 2375 959 1747 
Q 959 1119 1226 758 
Q 1494 397 1959 397 
Q 2419 397 2687 759 
Q 2956 1122 2956 1747 
Q 2956 2369 2687 2733 
Q 2419 3097 1959 3097 
z
M 1959 3584 
Q 2709 3584 3137 3096 
Q 3566 2609 3566 1747 
Q 3566 888 3137 398 
Q 2709 -91 1959 -91 
Q 1206 -91 779 398 
Q 353 888 353 1747 
Q 353 2609 779 3096 
Q 1206 3584 1959 3584 
z
" transform="scale(0.015625)"/>
      <path id="DejaVuSans-34" d="M 2419 4116 
L 825 1625 
L 2419 1625 
L 2419 4116 
z
M 2253 4666 
L 3047 4666 
L 3047 1625 
L 3713 1625 
L 3713 1100 
L 3047 1100 
L 3047 0 
L 2419 0 
L 2419 1100 
L 313 1100 
L 313 1709 
L 2253 4666 
z
" transform="scale(0.015625)"/>
     </defs>
     <use xlink:href="#DejaVuSans-54"/>
     <use xlink:href="#DejaVuSans-33" x="61.083984"/>
     <use xlink:href="#DejaVuSans-20" x="124.707031"/>
     <use xlink:href="#DejaVuSans-2d" x="156.494141"/>
     <use xlink:href="#DejaVuSans-20" x="192.578125"/>
     <use xlink:href="#DejaVuSans-4e" x="224.365234"/>
     <use xlink:href="#DejaVuSans-75" x="299.169922"/>
     <use xlink:href="#DejaVuSans-6d" x="362.548828"/>
     <use xlink:href="#DejaVuSans-62" x="459.960938"/>
     <use xlink:href="#DejaVuSans-65" x="523.4375"/>
     <use xlink:href="#DejaVuSans-72" x="584.960938"/>
     <use xlink:href="#DejaVuSans-20" x="626.074219"/>
     <use xlink:href="#DejaVuSans-52" x="657.861328"/>
     <use xlink:href="#DejaVuSans-61" x="725.09375"/>
     <use xlink:href="#DejaVuSans-74" x="786.373047"/>
     <use xlink:href="#DejaVuSans-65" x="825.582031"/>
     <use xlink:href="#DejaVuSans-20" x="887.105469"/>
     <use xlink:href="#DejaVuSans-66" x="918.892578"/>
     <use xlink:href="#DejaVuSans-72" x="954.097656"/>
     <use xlink:href="#DejaVuSans-6f" x="992.960938"/>
     <use xlink:href="#DejaVuSans-6d" x="1054.142578"/>
     <use xlink:href="#DejaVuSans-20" x="1151.554688"/>
     <use xlink:href="#DejaVuSans-31" x="1183.341797"/>
     <use xlink:href="#DejaVuSans-39" x="1246.964844"/>
     <use xlink:href="#DejaVuSans-34" x="1310.587891"/>
     <use xlink:href="#DejaVuSans-36" x="1374.210938"/>
     <use xlink:href="#DejaVuSans-20" x="1437.833984"/>
     <use xlink:href="#DejaVuSans-74" x="1469.621094"/>
     <use xlink:href="#DejaVuSans-6f" x="1508.830078"/>
     <use xlink:href="#DejaVuSans-20" x="1570.011719"/>
     <use xlink:href="#DejaVuSans-32" x="1601.798828"/>
     <use xlink:href="#DejaVuSans-30" x="1665.421875"/>
     <use xlink:href="#DejaVuSans-32" x="1729.044922"/>
     <use xlink:href="#DejaVuSans-32" x="1792.667969"/>
    </g>
   </g>
  </g>
 </g>
 <defs>
  <clipPath id="p9bec87115c">
   <rect x="52.54" y="40.88" width="656.66" height="132.182354"/>
  </clipPath>
 </defs>
</svg>
